<?xml version="1.0" encoding="utf-8"?>
<!-- Generator: Adobe Illustrator 16.0.0, SVG Export Plug-In . SVG Version: 6.00 Build 0)  -->
<!DOCTYPE svg PUBLIC "-//W3C//DTD SVG 1.1//EN" "http://www.w3.org/Graphics/SVG/1.1/DTD/svg11.dtd">
<svg version="1.1" id="Layer_1" xmlns="http://www.w3.org/2000/svg" xmlns:xlink="http://www.w3.org/1999/xlink" x="0px" y="0px"
	 width="20.67px" height="20.146px" viewBox="0 0 20.67 20.146" enable-background="new 0 0 20.67 20.146" xml:space="preserve">
<path d="M17.274,6.883L17.274,6.883H0.92c-0.154,0-0.279,0.125-0.28,0.278v0.001v7.85c0,0.154,0.125,0.279,0.28,0.279h11.12
	c0.155,0,0.28-0.125,0.28-0.279s-0.125-0.281-0.28-0.281H1.2V7.444h15.793v0.7c0,0.155,0.125,0.281,0.279,0.281h0.001
	c0.154,0,0.28-0.125,0.28-0.28V8.144V7.163C17.554,7.008,17.429,6.883,17.274,6.883"/>
<path d="M15.372,5.582L2.29,2.637C2.218,2.622,2.142,2.634,2.078,2.674c-0.063,0.04-0.106,0.104-0.123,0.177L1.301,5.793
	C1.268,5.946,1.362,6.094,1.514,6.128s0.301-0.062,0.335-0.213l0.593-2.669l12.808,2.882c0.021,0.004,0.041,0.007,0.062,0.007
	c0.155-0.001,0.28-0.126,0.28-0.28C15.591,5.724,15.5,5.611,15.372,5.582"/>
<path d="M13.784,3.959l-7.85-3.271C5.798,0.631,5.641,0.691,5.575,0.823L4.921,2.13C4.846,2.267,4.897,2.439,5.034,2.512
	s0.308,0.023,0.381-0.113c0.003-0.005,0.006-0.012,0.009-0.018v0.001L5.96,1.308l7.607,3.171c0.144,0.06,0.308-0.009,0.367-0.151
	C13.995,4.184,13.927,4.02,13.784,3.959"/>
<path d="M13.982,8.191h-2.597c-0.154,0-0.28,0.125-0.28,0.28s0.126,0.281,0.28,0.281h2.597c0.154,0,0.28-0.126,0.28-0.281
	S14.137,8.191,13.982,8.191"/>
<path d="M8.77,8.209c-1.589,0-2.878,1.289-2.878,2.879c0.002,1.588,1.289,2.875,2.878,2.877c1.59,0,2.878-1.289,2.878-2.877
	C11.647,9.499,10.359,8.209,8.77,8.209"/>
<linearGradient id="SVGID_1_" gradientUnits="userSpaceOnUse" x1="6.4155" y1="11.0879" x2="11.1245" y2="11.0879">
	<stop  offset="0" style="stop-color:#FFFFFF"/>
	<stop  offset="0" style="stop-color:#000000"/>
	<stop  offset="0" style="stop-color:#EFEEEF"/>
</linearGradient>
<path fill="url(#SVGID_1_)" d="M8.77,13.442c-1.301,0-2.354-1.055-2.354-2.354c0-1.301,1.055-2.354,2.354-2.355
	c1.301,0,2.354,1.054,2.354,2.355C11.125,12.388,10.071,13.442,8.77,13.442"/>
<path d="M16.619,9.126c-1.733,0-3.598,0.408-3.598,1.308v7.848c0,0.9,1.864,1.309,3.598,1.309c1.732,0,3.598-0.408,3.598-1.309
	v-7.848C20.217,9.535,18.352,9.126,16.619,9.126 M19.563,18.278c-0.049,0.182-1.03,0.658-2.943,0.658s-2.896-0.477-2.943-0.654
	v-0.514c0.696,0.352,1.846,0.514,2.943,0.514s2.248-0.164,2.943-0.514V18.278z M19.563,16.97c-0.049,0.182-1.03,0.66-2.943,0.66
	s-2.896-0.479-2.943-0.654v-0.514c0.696,0.35,1.846,0.514,2.943,0.514s2.248-0.166,2.943-0.514V16.97z M19.563,15.661
	c-0.049,0.182-1.03,0.66-2.943,0.66s-2.896-0.479-2.943-0.654v-0.516c0.696,0.352,1.846,0.516,2.943,0.516s2.248-0.164,2.943-0.516
	V15.661z M19.563,14.354c-0.049,0.18-1.03,0.658-2.943,0.658s-2.896-0.479-2.943-0.654v-0.514c0.696,0.35,1.846,0.514,2.943,0.514
	s2.248-0.166,2.943-0.514V14.354z M19.563,13.046c-0.049,0.182-1.03,0.658-2.943,0.658s-2.896-0.477-2.943-0.654v-0.514
	c0.696,0.35,1.846,0.514,2.943,0.514s2.248-0.164,2.943-0.514V13.046z M19.563,11.737c-0.049,0.182-1.03,0.658-2.943,0.658
	s-2.896-0.477-2.943-0.654v-0.514c0.696,0.35,1.846,0.514,2.943,0.514s2.248-0.164,2.943-0.514V11.737z M16.619,11.089
	c-1.91,0-2.891-0.478-2.943-0.649v-0.002c0.053-0.183,1.033-0.659,2.943-0.659c1.896,0,2.878,0.471,2.943,0.655
	C19.497,10.619,18.515,11.089,16.619,11.089"/>
<path d="M6.153,13.423H3.681l-1.173-1.281v-2.126l1.296-1.264h2.35c0.154,0,0.28-0.125,0.28-0.28c0-0.154-0.126-0.279-0.28-0.279
	H3.689c-0.073,0-0.144,0.027-0.196,0.078L2.032,9.696C1.978,9.759,1.948,9.84,1.948,9.924v2.327c0,0.07,0.025,0.137,0.073,0.189
	l1.328,1.453c0.054,0.059,0.129,0.092,0.207,0.092h2.597c0.154,0,0.28-0.127,0.28-0.281C6.434,13.548,6.309,13.423,6.153,13.423"/>
<path d="M8.934,10.761H8.606c-0.102,0-0.164-0.058-0.164-0.082c0-0.025,0.063-0.082,0.164-0.082h0.817
	c0.181,0,0.327-0.146,0.327-0.327c0-0.18-0.146-0.327-0.327-0.327H9.097c0-0.181-0.146-0.327-0.327-0.327S8.442,9.762,8.442,9.943
	v0.015c-0.362,0.052-0.638,0.354-0.653,0.721c0.022,0.428,0.389,0.758,0.817,0.737h0.327c0.102,0,0.163,0.057,0.163,0.082
	s-0.062,0.08-0.163,0.08H8.115c-0.181,0-0.326,0.148-0.326,0.328s0.146,0.328,0.326,0.328h0.327c0,0.18,0.146,0.326,0.327,0.326
	s0.327-0.146,0.327-0.326v-0.016c0.363-0.051,0.638-0.354,0.654-0.721C9.728,11.069,9.362,10.74,8.934,10.761"/>
</svg>
