<?xml version="1.0" encoding="utf-8"?>
<!-- Generator: Adobe Illustrator 16.0.0, SVG Export Plug-In . SVG Version: 6.00 Build 0)  -->
<!DOCTYPE svg PUBLIC "-//W3C//DTD SVG 1.1//EN" "http://www.w3.org/Graphics/SVG/1.1/DTD/svg11.dtd">
<svg version="1.1" id="Layer_1" xmlns="http://www.w3.org/2000/svg" xmlns:xlink="http://www.w3.org/1999/xlink" x="0px" y="0px"
	 width="47.876px" height="47.274px" viewBox="0 0 47.876 47.274" enable-background="new 0 0 47.876 47.274" xml:space="preserve">
<path fill="#666666" d="M1.764,2.821h40.451l2.035-2.064c0.298-0.303,0.781-0.303,1.08,0c0.298,0.302,0.298,0.793,0,1.096
	L29.452,17.956L41.34,30.012l4.416-4.479c0.304-0.296,0.787-0.289,1.08,0.02c0.286,0.302,0.286,0.776,0,1.076l-3.046,3.089v12.626
	c0,0.429-0.342,0.776-0.763,0.776H29.496l-2.746,2.785c-0.417,0.428-0.986,0.671-1.581,0.675h-0.06
	c-0.603,0.002-1.181-0.241-1.604-0.677c-0.204-0.207-0.368-0.452-0.482-0.72c-0.345,0.197-0.733,0.303-1.13,0.301
	c-0.916,0.009-1.748-0.543-2.113-1.396c-0.343,0.2-0.733,0.304-1.127,0.3c-0.609-0.004-1.193-0.245-1.631-0.675
	c-0.186-0.188-0.338-0.408-0.451-0.649c-0.831,0.709-2.037,0.73-2.894,0.056H1.764C1.342,43.121,1,42.773,1,42.344V3.596
	C1,3.167,1.342,2.821,1.764,2.821 M19.338,12.121h6.113v-7.75h-6.113V12.121z M42.263,41.57v-10.3l-0.383,0.386
	c-0.298,0.303-0.782,0.303-1.08,0l-1.08-1.096l-0.202,0.203c-0.478,0.488-0.821,1.096-0.993,1.76l-0.135,0.526
	c-0.24,0.933-0.721,1.785-1.393,2.465l-5.973,6.056H42.263z M15.101,42.063c0.197-0.003,0.386-0.083,0.528-0.221l1.397-1.419
	c0.298-0.303,0.782-0.303,1.08,0s0.298,0.793,0.002,1.098c-0.299,0.301-0.299,0.791,0,1.094c0.144,0.15,0.344,0.232,0.551,0.224
	c0.197-0.002,0.386-0.082,0.529-0.222l1.082-1.096c0.307-0.294,0.791-0.277,1.079,0.034c0.276,0.3,0.276,0.762,0,1.062
	c-0.297,0.303-0.297,0.791,0,1.092c0.149,0.144,0.346,0.224,0.55,0.224c0.2,0.013,0.397-0.069,0.531-0.224l1.08-1.092
	c0.298-0.303,0.783-0.303,1.081,0c0.299,0.303,0.299,0.793,0,1.096c-0.298,0.303-0.298,0.793,0,1.096
	c0.143,0.152,0.343,0.234,0.55,0.222c0.198,0,0.39-0.08,0.53-0.222l10.239-10.39c0.479-0.485,0.822-1.094,0.994-1.76l0.135-0.525
	c0.24-0.933,0.721-1.783,1.393-2.466l0.202-0.203l-8.1-8.22l-0.771,0.779c-0.304,0.31-0.688,0.523-1.107,0.621l-3.82,0.89
	c-2.631,0.615-4.963,2.154-6.589,4.34l-3.904,5.259l0.071,0.073c0.285,0.292,0.674,0.455,1.079,0.453
	c0.406,0.002,0.795-0.163,1.081-0.453l1.91-1.939c0.351-0.357,0.83-0.561,1.328-0.559c1.063,0.007,1.917,0.885,1.91,1.963
	c-0.002,0.511-0.205,1.001-0.561,1.364l-6.558,6.65c-0.305,0.288-0.353,0.762-0.109,1.104
	C14.649,41.963,14.869,42.065,15.101,42.063 M2.528,41.57H12.83c-0.072-0.732,0.184-1.462,0.699-1.982l6.559-6.652
	c0.072-0.072,0.112-0.174,0.112-0.277c-0.002-0.114-0.051-0.222-0.134-0.298c-0.137-0.14-0.358-0.14-0.497,0l-1.91,1.938
	c-0.571,0.582-1.35,0.91-2.161,0.907c-0.811,0.003-1.588-0.325-2.16-0.907l-0.541-0.548c-0.27-0.274-0.299-0.706-0.07-1.016
	l4.305-5.796c1.84-2.479,4.484-4.219,7.465-4.916l3.82-0.889c0.141-0.033,0.27-0.104,0.371-0.208l0.771-0.782l-1.622-1.645
	c-0.298-0.303-0.298-0.793,0-1.096L40.686,4.371H26.979v8.524c0,0.429-0.342,0.775-0.763,0.775h-7.641
	c-0.423,0-0.765-0.347-0.765-0.775V4.371H2.528V41.57z"/>
<path fill="none" stroke="#FFFFFF" stroke-width="0.75" stroke-miterlimit="10" d="M25.109,46.581
	c-0.603,0.002-1.181-0.241-1.604-0.677c-0.204-0.207-0.368-0.452-0.482-0.72c-0.345,0.197-0.733,0.303-1.13,0.301
	c-0.916,0.009-1.748-0.543-2.113-1.396c-0.343,0.2-0.733,0.304-1.127,0.3c-0.609-0.004-1.193-0.245-1.631-0.675
	c-0.186-0.188-0.338-0.408-0.451-0.649c-0.831,0.709-2.037,0.73-2.894,0.056H1.764C1.342,43.121,1,42.773,1,42.344V3.596
	c0-0.429,0.342-0.775,0.764-0.775h40.451l2.035-2.064c0.298-0.303,0.781-0.303,1.08,0c0.298,0.302,0.298,0.793,0,1.096
	L29.452,17.956L41.34,30.012l4.416-4.479c0.304-0.296,0.787-0.289,1.08,0.02c0.286,0.302,0.286,0.776,0,1.076l-3.046,3.089v12.626
	c0,0.429-0.342,0.776-0.763,0.776H29.496l-2.746,2.785c-0.417,0.428-0.986,0.671-1.581,0.675H25.109"/>
</svg>
