<?xml version="1.0" encoding="utf-8"?>
<!-- Generator: Adobe Illustrator 16.0.0, SVG Export Plug-In . SVG Version: 6.00 Build 0)  -->
<!DOCTYPE svg PUBLIC "-//W3C//DTD SVG 1.1//EN" "http://www.w3.org/Graphics/SVG/1.1/DTD/svg11.dtd">
<svg version="1.1" id="Layer_1" xmlns="http://www.w3.org/2000/svg" xmlns:xlink="http://www.w3.org/1999/xlink" x="0px" y="0px"
	 width="40.641px" height="47.33px" viewBox="0 0 40.641 47.33" enable-background="new 0 0 40.641 47.33" xml:space="preserve">
<path fill="none" stroke="#808080" stroke-width="1.5" stroke-miterlimit="10" d="M38.432,29.264c0.285,0,0.514-0.23,0.514-0.514
	V1.514C38.945,1.23,38.717,1,38.432,1H9.212C8.929,1,8.699,1.23,8.699,1.514v28.263"/>
<path fill="none" stroke="#808080" stroke-width="1.5" stroke-miterlimit="10" d="M21.877,7.446h4.387
	c0.158,0,0.285-0.127,0.285-0.285V1.285C26.549,1.128,26.422,1,26.264,1h-4.387c-0.158,0-0.285,0.128-0.285,0.285v5.876
	C21.592,7.319,21.719,7.446,21.877,7.446z"/>
<path fill="#808080" d="M9.379,46.758c0.299,0.301,0.787,0.305,1.091,0.004l3.746-3.691c0.637-0.635,0.83-1.578,0.55-2.396
	l0.806-0.777c0.434-0.42,1.005-0.65,1.609-0.65h10.273c1.824,0,3.547-0.701,4.854-1.971c0.053-0.053-0.41,0.49,7.008-8.375
	c1.102-1.301,0.936-3.254-0.367-4.356c-1.295-1.091-3.232-0.934-4.336,0.345l-4.561,4.687c-0.576-0.709-1.455-1.15-2.402-1.15
	h-8.619c-1.226-0.514-2.527-0.773-3.87-0.773c-3.722,0-6.971,1.721-8.715,4.941c-0.735-0.139-1.51,0.084-2.067,0.641l-3.677,3.688
	c-0.3,0.301-0.301,0.789-0.001,1.09L9.379,46.758z M15.161,29.199c1.183,0,2.328,0.238,3.402,0.707
	c0.099,0.043,0.203,0.064,0.31,0.064h8.778c0.836,0,1.545,0.684,1.545,1.547c0,0.852-0.693,1.545-1.545,1.545h-6.307
	c-0.426,0-0.772,0.346-0.772,0.773s0.347,0.773,0.772,0.773h6.307c1.703,0,3.09-1.387,3.09-3.092c0-0.137-0.01-0.271-0.027-0.404
	c4.412-4.535,5.033-5.172,5.061-5.205c0.551-0.648,1.529-0.732,2.18-0.184c0.65,0.55,0.732,1.527,0.18,2.181l-6.93,8.287
	c-1.014,0.973-2.342,1.506-3.748,1.506H17.182c-1.007,0-1.959,0.387-2.683,1.084l-0.656,0.635l-6.055-6.055
	C9.203,30.709,11.858,29.199,15.161,29.199 M5.473,34.328c0.255-0.256,0.646-0.301,0.957-0.109c0.134,0.082-0.25-0.268,6.694,6.666
	c0.309,0.309,0.293,0.803,0.004,1.09l-3.194,3.146l-7.594-7.652L5.473,34.328z"/>
<path fill="none" stroke="#FFFFFF" stroke-miterlimit="10" d="M9.379,46.758c0.299,0.301,0.787,0.305,1.091,0.004l3.746-3.691
	c0.637-0.635,0.83-1.578,0.55-2.396l0.806-0.777c0.434-0.42,1.005-0.65,1.609-0.65h10.273c1.824,0,3.547-0.701,4.854-1.971
	c0.053-0.053-0.41,0.49,7.008-8.375c1.102-1.301,0.936-3.254-0.367-4.356c-1.295-1.091-3.232-0.934-4.336,0.345l-4.561,4.687
	c-0.576-0.709-1.455-1.15-2.402-1.15h-8.619c-1.226-0.514-2.527-0.773-3.87-0.773c-3.722,0-6.971,1.721-8.715,4.941
	c-0.735-0.139-1.51,0.084-2.067,0.641l-3.677,3.688c-0.3,0.301-0.301,0.789-0.001,1.09L9.379,46.758z M15.161,29.199
	c1.183,0,2.328,0.238,3.402,0.707c0.099,0.043,0.203,0.064,0.31,0.064h8.778c0.836,0,1.545,0.684,1.545,1.547
	c0,0.852-0.693,1.545-1.545,1.545h-6.307c-0.426,0-0.772,0.346-0.772,0.773s0.347,0.773,0.772,0.773h6.307
	c1.703,0,3.09-1.387,3.09-3.092c0-0.137-0.01-0.271-0.027-0.404c4.412-4.535,5.033-5.172,5.061-5.205
	c0.551-0.648,1.529-0.732,2.18-0.184c0.65,0.55,0.732,1.527,0.18,2.181l-6.93,8.287c-1.014,0.973-2.342,1.506-3.748,1.506H17.182
	c-1.007,0-1.959,0.387-2.683,1.084l-0.656,0.635l-6.055-6.055C9.203,30.709,11.858,29.199,15.161,29.199z M5.473,34.328
	c0.255-0.256,0.646-0.301,0.957-0.109c0.134,0.082-0.25-0.268,6.694,6.666c0.309,0.309,0.293,0.803,0.004,1.09l-3.194,3.146
	l-7.594-7.652L5.473,34.328z"/>
</svg>
