<?xml version="1.0" encoding="utf-8"?>
<!-- Generator: Adobe Illustrator 24.1.3, SVG Export Plug-In . SVG Version: 6.00 Build 0)  -->
<svg version="1.1" id="Layer_1" xmlns="http://www.w3.org/2000/svg" xmlns:xlink="http://www.w3.org/1999/xlink" x="0px" y="0px"
	 viewBox="0 0 80 92" style="enable-background:new 0 0 80 92;" xml:space="preserve">
<style type="text/css">
	.st0{fill:none;stroke:#808080;stroke-width:1.5;stroke-miterlimit:10;}
	.st1{fill:#808080;stroke:#FFFFFF;stroke-miterlimit:10;}
</style>
<g>
	<path class="st0" d="M-595.88-303.16c0.5,0,0.9-0.4,0.9-0.9v-47.78c0-0.5-0.4-0.9-0.9-0.9h-51.26c-0.5,0-0.9,0.4-0.9,0.9v49.58"/>
	<path class="st0" d="M-624.93-341.44h7.7c0.28,0,0.5-0.22,0.5-0.5v-10.31c0-0.28-0.22-0.5-0.5-0.5h-7.7c-0.28,0-0.5,0.22-0.5,0.5
		v10.31C-625.43-341.66-625.2-341.44-624.93-341.44z"/>
</g>
<path class="st1" d="M-633.16-288.36c-1.77,0-3.44,0.68-4.71,1.9l-1.15,1.11"/>
<path class="st1" d="M-612.09-299.21c0,1.5-1.22,2.71-2.71,2.71"/>
<path class="st1" d="M-640.27-280.86l-5.6,5.52l-13.32-13.42"/>
<g>
	<path class="st0" d="M70.91,56.31c0.5,0,0.9-0.4,0.9-0.9V7.62c0-0.5-0.4-0.9-0.9-0.9H19.65c-0.5,0-0.9,0.4-0.9,0.9v49.58"/>
	<path class="st0" d="M41.86,18.03h7.7c0.28,0,0.5-0.22,0.5-0.5V7.22c0-0.28-0.22-0.5-0.5-0.5h-7.7c-0.28,0-0.5,0.22-0.5,0.5v10.31
		C41.36,17.81,41.59,18.03,41.86,18.03z"/>
</g>
<path class="st1" d="M19.94,87c0.53,0.53,1.38,0.54,1.91,0.01l6.57-6.48c1.12-1.12,1.46-2.77,0.97-4.21l1.41-1.36
	c0.76-0.74,1.76-1.14,2.82-1.14h18.03c3.2,0,6.22-1.23,8.51-3.46c0.09-0.09-0.72,0.86,12.3-14.69c1.93-2.28,1.64-5.71-0.64-7.64
	c-2.27-1.91-5.67-1.64-7.61,0.61l-8,8.22c-1.01-1.24-2.55-2.02-4.22-2.02H36.87c-2.15-0.9-4.43-1.36-6.79-1.36
	c-6.53,0-12.23,3.02-15.29,8.67c-1.29-0.24-2.65,0.15-3.63,1.12l-6.45,6.47c-0.53,0.53-0.53,1.38,0,1.91L19.94,87z M30.08,56.19
	c2.08,0,4.08,0.42,5.97,1.24c0.17,0.08,0.36,0.11,0.54,0.11h15.4c1.47,0,2.71,1.2,2.71,2.71c0,1.5-1.22,2.71-2.71,2.71H40.93
	c-0.75,0-1.36,0.61-1.36,1.36c0,0.75,0.61,1.36,1.36,1.36h11.06c2.99,0,5.42-2.43,5.42-5.42c0-0.24-0.02-0.47-0.05-0.71
	c7.74-7.96,8.83-9.07,8.88-9.13c0.97-1.14,2.68-1.29,3.82-0.32c1.14,0.97,1.29,2.68,0.32,3.83L58.23,68.47
	c-1.78,1.7-4.11,2.64-6.57,2.64H33.63c-1.77,0-3.44,0.68-4.71,1.9l-1.15,1.11L17.15,63.5C19.63,58.84,24.29,56.19,30.08,56.19z
	 M13.09,65.19c0.45-0.45,1.13-0.53,1.68-0.19c0.23,0.14-0.44-0.47,11.74,11.7c0.54,0.54,0.51,1.41,0.01,1.91l-5.6,5.52L7.59,70.7
	L13.09,65.19z"/>
</svg>
