<?xml version="1.0" encoding="utf-8"?>
<!-- Generator: Adobe Illustrator 16.0.0, SVG Export Plug-In . SVG Version: 6.00 Build 0)  -->
<!DOCTYPE svg PUBLIC "-//W3C//DTD SVG 1.1//EN" "http://www.w3.org/Graphics/SVG/1.1/DTD/svg11.dtd">
<svg version="1.1" id="Layer_1" xmlns="http://www.w3.org/2000/svg" xmlns:xlink="http://www.w3.org/1999/xlink" x="0px" y="0px"
	 width="40.922px" height="41.357px" viewBox="0 0 40.922 41.357" enable-background="new 0 0 40.922 41.357" xml:space="preserve">
<path fill="#333333" d="M28.584,26.883c0,1.904,1.613,3.447,3.605,3.447s3.607-1.543,3.607-3.447c0-1.904-1.615-3.447-3.607-3.447
	C30.199,23.439,28.586,24.98,28.584,26.883 M34.354,26.883c0,1.143-0.969,2.068-2.164,2.068s-2.164-0.926-2.164-2.068
	c0-1.141,0.969-2.068,2.164-2.068S34.354,25.742,34.354,26.883"/>
<ellipse fill="none" stroke="#FFFFFF" stroke-width="0.5" stroke-miterlimit="10" cx="32.189" cy="26.883" rx="2.164" ry="2.068"/>
<path fill="#333333" d="M34.701,36.748c2.191-2.703,5.424-7.148,5.424-9.865c-0.008-3.653-2.734-6.782-6.492-7.452V4.135h1.443
	c0.398,0,0.721-0.308,0.721-0.689V0.688c0-0.38-0.322-0.688-0.721-0.688H1.89C1.492,0,1.168,0.308,1.168,0.688v2.758
	c0,0.381,0.323,0.689,0.722,0.689h1.443v27.574H1.89c-0.398,0-0.722,0.309-0.722,0.688v2.068c0,0.381,0.323,0.691,0.722,0.691
	h26.542c0.432,0.57,0.857,1.107,1.248,1.592c-1.738,0.316-3.262,1.006-3.262,2.199c0,1.652,2.994,2.41,5.771,2.41
	s5.771-0.758,5.771-2.41C37.961,37.754,36.439,37.064,34.701,36.748 M2.612,1.378h31.742v1.379H2.612V1.378z M30.025,13.787h-4.329
	c-0.398,0-0.721,0.308-0.721,0.688V19.3h-0.723v1.379h3.391c-2.123,1.414-3.389,3.73-3.391,6.204c0,1.33,0.78,3.074,1.827,4.826
	h-3.269v-3.447c0-2.285-1.938-4.135-4.328-4.135s-4.328,1.85-4.328,4.135v3.447H4.776V4.135h27.414V19.3
	c-0.484,0.002-0.967,0.046-1.443,0.131v-4.956C30.746,14.094,30.424,13.787,30.025,13.787 M29.305,19.3h-2.887v-4.137h2.887V19.3z
	 M21.369,28.262v3.447h-5.771v-3.447c0-1.521,1.292-2.758,2.886-2.758S21.369,26.74,21.369,28.262 M2.612,33.775v-0.689h24.341
	c0.158,0.236,0.316,0.463,0.475,0.689H2.612z M25.697,26.883c0-3.426,2.907-6.204,6.493-6.204s6.492,2.777,6.492,6.204
	c0,2.668-4.277,8.113-6.492,10.658C29.975,34.996,25.697,29.551,25.697,26.883 M32.189,39.98c-2.771,0-4.242-0.758-4.328-1.021
	c0.064-0.213,0.988-0.758,2.857-0.957c0.512,0.6,0.865,0.986,0.93,1.055c0.264,0.285,0.721,0.313,1.02,0.061
	c0.021-0.02,0.043-0.039,0.063-0.061c0.064-0.068,0.418-0.455,0.932-1.055c1.867,0.199,2.791,0.744,2.855,0.93
	C36.432,39.223,34.961,39.98,32.189,39.98"/>
<path fill="none" stroke="#FFFFFF" stroke-width="0.5" stroke-miterlimit="10" d="M34.701,36.748
	c2.191-2.703,5.424-7.148,5.424-9.865c-0.008-3.653-2.734-6.782-6.492-7.452V4.135h1.443c0.398,0,0.721-0.308,0.721-0.689V0.688
	c0-0.38-0.322-0.688-0.721-0.688H1.89C1.492,0,1.168,0.308,1.168,0.688v2.758c0,0.381,0.323,0.689,0.722,0.689h1.443v27.574H1.89
	c-0.398,0-0.722,0.309-0.722,0.688v2.068c0,0.381,0.323,0.691,0.722,0.691h26.542c0.432,0.57,0.857,1.107,1.248,1.592
	c-1.738,0.316-3.262,1.006-3.262,2.199c0,1.652,2.994,2.41,5.771,2.41s5.771-0.758,5.771-2.41
	C37.961,37.754,36.439,37.064,34.701,36.748z"/>
<rect x="2.612" y="1.378" fill="none" stroke="#FFFFFF" stroke-width="0.5" stroke-miterlimit="10" width="31.742" height="1.379"/>
<path fill="#333333" d="M30.746,10.73V5.904c0-0.38-0.322-0.689-0.721-0.689h-4.329c-0.398,0-0.721,0.309-0.721,0.689v4.826h-0.722
	v1.378h7.214V10.73H30.746z M29.305,10.73h-2.887V6.594h2.887V10.73z"/>
<path fill="none" stroke="#FFFFFF" stroke-width="0.5" stroke-miterlimit="10" d="M30.746,10.73V5.904
	c0-0.38-0.322-0.689-0.721-0.689h-4.329c-0.398,0-0.721,0.309-0.721,0.689v4.826h-0.722v1.378h7.214V10.73H30.746z"/>
<path fill="#333333" d="M21.369,10.73V5.904c0-0.38-0.323-0.689-0.722-0.689h-4.328c-0.398,0-0.722,0.309-0.722,0.689v4.826h-0.721
	v1.378h7.214V10.73H21.369z M19.927,10.73h-2.887V6.594h2.887V10.73z"/>
<path fill="#333333" d="M11.991,10.73V5.904c0-0.38-0.323-0.689-0.722-0.689H6.941c-0.398,0-0.723,0.309-0.723,0.689v4.826H5.498
	v1.378h7.214V10.73H11.991z M10.547,10.73H7.662V6.594h2.886V10.73z"/>
<path fill="#333333" d="M11.991,22.535V17.71c0-0.381-0.323-0.689-0.722-0.689H6.941c-0.398,0-0.723,0.309-0.723,0.689v4.824H5.498
	v1.379h7.214v-1.379H11.991z M10.547,22.535H7.662v-4.136h2.886V22.535z"/>
<path fill="#333333" d="M21.369,22.535V17.71c0-0.381-0.323-0.689-0.722-0.689h-4.328c-0.398,0-0.722,0.309-0.722,0.689v4.824
	h-0.721v1.379h7.214v-1.379H21.369z M19.927,22.535h-2.887v-4.136h2.887V22.535z"/>
</svg>
