<?xml version="1.0" encoding="utf-8"?>
<!-- Generator: Adobe Illustrator 24.1.3, SVG Export Plug-In . SVG Version: 6.00 Build 0)  -->
<svg version="1.1" id="Layer_1" xmlns="http://www.w3.org/2000/svg" xmlns:xlink="http://www.w3.org/1999/xlink" x="0px" y="0px"
	 viewBox="0 0 44 51" style="enable-background:new 0 0 44 51;" xml:space="preserve">
<style type="text/css">
	.st0{fill:#333333;stroke:#FFFFFF;stroke-width:0.5;stroke-miterlimit:10;}
</style>
<path class="st0" d="M-618.84-314c2.19-2.7,5.43-7.15,5.43-9.86c-0.01-3.65-2.74-6.78-6.49-7.45v-15.3h1.44
	c0.4,0,0.72-0.31,0.72-0.69v-2.76c0-0.38-0.32-0.69-0.72-0.69h-33.18c-0.4,0-0.72,0.31-0.72,0.69v2.76c0,0.38,0.32,0.69,0.72,0.69
	h1.44v27.57h-1.44c-0.4,0-0.72,0.31-0.72,0.69v2.07c0,0.38,0.32,0.69,0.72,0.69h26.54c0.43,0.57,0.86,1.11,1.25,1.59
	c-1.74,0.32-3.26,1.01-3.26,2.2c0,1.65,2.99,2.41,5.77,2.41c2.78,0,5.77-0.76,5.77-2.41C-615.58-312.99-617.1-313.68-618.84-314z
	 M-650.93-347.99v-1.38h31.74v1.38H-650.93z M-623.51-336.96h-4.33c-0.4,0-0.72,0.31-0.72,0.69v4.83h-0.72v1.38h3.39
	c-2.12,1.41-3.39,3.73-3.39,6.2c0,1.33,0.78,3.07,1.83,4.83h-3.27v-3.45c0-2.28-1.94-4.14-4.33-4.14s-4.33,1.85-4.33,4.14v3.45
	h-9.38v-27.57h27.41v15.16c-0.48,0-0.97,0.05-1.44,0.13v-4.96C-622.79-336.65-623.12-336.96-623.51-336.96z M-624.24-335.58v4.14
	h-2.89v-4.14H-624.24z M-632.17-322.48v3.45h-5.77v-3.45c0-1.52,1.29-2.76,2.89-2.76S-632.17-324-632.17-322.48z M-650.93-316.97
	v-0.69h24.34c0.16,0.23,0.32,0.46,0.48,0.69H-650.93z M-627.84-323.86c0-3.43,2.91-6.2,6.49-6.2s6.49,2.78,6.49,6.2
	c0,2.67-4.28,8.11-6.49,10.66C-623.56-315.75-627.84-321.19-627.84-323.86z M-621.35-310.76c-2.77,0-4.24-0.76-4.33-1.02
	c0.06-0.21,0.99-0.76,2.86-0.96c0.51,0.6,0.87,0.99,0.93,1.05c0.26,0.29,0.72,0.31,1.02,0.06c0.02-0.02,0.04-0.04,0.06-0.06
	c0.06-0.07,0.42-0.45,0.93-1.05c1.87,0.2,2.79,0.74,2.86,0.93C-617.11-311.52-618.58-310.76-621.35-310.76z"/>
<path class="st0" d="M-632.17-340.01v-4.83c0-0.38-0.32-0.69-0.72-0.69h-4.33c-0.4,0-0.72,0.31-0.72,0.69v4.83h-0.72v1.38h7.21
	v-1.38H-632.17z M-633.61-340.01h-2.89v-4.14h2.89V-340.01z"/>
<path class="st0" d="M-641.55-340.01v-4.83c0-0.38-0.32-0.69-0.72-0.69h-4.33c-0.4,0-0.72,0.31-0.72,0.69v4.83h-0.72v1.38h7.21
	v-1.38H-641.55z M-642.99-340.01h-2.89v-4.14h2.89V-340.01z"/>
<path class="st0" d="M-641.55-328.21v-4.83c0-0.38-0.32-0.69-0.72-0.69h-4.33c-0.4,0-0.72,0.31-0.72,0.69v4.83h-0.72v1.38h7.21
	v-1.38H-641.55z M-642.99-328.21h-2.89v-4.14h2.89V-328.21z"/>
<path class="st0" d="M-632.17-328.21v-4.83c0-0.38-0.32-0.69-0.72-0.69h-4.33c-0.4,0-0.72,0.31-0.72,0.69v4.83h-0.72v1.38h7.21
	v-1.38H-632.17z M-633.61-328.21h-2.89v-4.14h2.89V-328.21z"/>
<path class="st0" d="M32.09,31.7c0,1.9,1.61,3.45,3.61,3.45s3.61-1.54,3.61-3.45s-1.61-3.45-3.61-3.45
	C33.7,28.25,32.09,29.8,32.09,31.7z M37.86,31.7c0,1.14-0.97,2.07-2.16,2.07s-2.16-0.93-2.16-2.07c0-1.14,0.97-2.07,2.16-2.07
	S37.86,30.56,37.86,31.7z"/>
<path class="st0" d="M38.2,41.56c2.19-2.7,5.43-7.15,5.43-9.86c-0.01-3.65-2.74-6.78-6.49-7.45V8.95h1.44c0.4,0,0.72-0.31,0.72-0.69
	V5.5c0-0.38-0.32-0.69-0.72-0.69H5.39C5,4.82,4.67,5.12,4.67,5.5v2.76c0,0.38,0.32,0.69,0.72,0.69h1.44v27.57H5.39
	c-0.4,0-0.72,0.31-0.72,0.69v2.07c0,0.38,0.32,0.69,0.72,0.69h26.54c0.43,0.57,0.86,1.11,1.25,1.59c-1.74,0.32-3.26,1.01-3.26,2.2
	c0,1.65,2.99,2.41,5.77,2.41c2.78,0,5.77-0.76,5.77-2.41C41.46,42.57,39.94,41.88,38.2,41.56z M6.12,7.57V6.19h31.74v1.38H6.12z
	 M33.53,18.6H29.2c-0.4,0-0.72,0.31-0.72,0.69v4.83h-0.72v1.38h3.39c-2.12,1.41-3.39,3.73-3.39,6.2c0,1.33,0.78,3.07,1.83,4.83
	h-3.27v-3.45c0-2.28-1.94-4.14-4.33-4.14s-4.33,1.85-4.33,4.14v3.45H8.28V8.95h27.41v15.16c-0.48,0-0.97,0.05-1.44,0.13v-4.96
	C34.25,18.91,33.93,18.6,33.53,18.6z M32.81,19.98v4.14h-2.89v-4.14H32.81z M24.87,33.08v3.45H19.1v-3.45
	c0-1.52,1.29-2.76,2.89-2.76S24.87,31.55,24.87,33.08z M6.12,38.59V37.9h24.34c0.16,0.23,0.32,0.46,0.48,0.69H6.12z M29.2,31.7
	c0-3.43,2.91-6.2,6.49-6.2s6.49,2.78,6.49,6.2c0,2.67-4.28,8.11-6.49,10.66C33.48,39.81,29.2,34.37,29.2,31.7z M35.69,44.8
	c-2.77,0-4.24-0.76-4.33-1.02c0.06-0.21,0.99-0.76,2.86-0.96c0.51,0.6,0.87,0.99,0.93,1.05c0.26,0.29,0.72,0.31,1.02,0.06
	c0.02-0.02,0.04-0.04,0.06-0.06c0.06-0.07,0.42-0.45,0.93-1.05c1.87,0.2,2.79,0.74,2.86,0.93C39.94,44.04,38.46,44.8,35.69,44.8z"/>
<path class="st0" d="M34.25,15.55v-4.83c0-0.38-0.32-0.69-0.72-0.69H29.2c-0.4,0-0.72,0.31-0.72,0.69v4.83h-0.72v1.38h7.21v-1.38
	H34.25z M32.81,15.55h-2.89v-4.14h2.89V15.55z"/>
<path class="st0" d="M24.87,15.55v-4.83c0-0.38-0.32-0.69-0.72-0.69h-4.33c-0.4,0-0.72,0.31-0.72,0.69v4.83h-0.72v1.38h7.21v-1.38
	H24.87z M23.43,15.55h-2.89v-4.14h2.89V15.55z"/>
<path class="st0" d="M15.49,15.55v-4.83c0-0.38-0.32-0.69-0.72-0.69h-4.33c-0.4,0-0.72,0.31-0.72,0.69v4.83H9v1.38h7.21v-1.38H15.49
	z M14.05,15.55h-2.89v-4.14h2.89V15.55z"/>
<path class="st0" d="M15.49,27.35v-4.83c0-0.38-0.32-0.69-0.72-0.69h-4.33c-0.4,0-0.72,0.31-0.72,0.69v4.83H9v1.38h7.21v-1.38H15.49
	z M14.05,27.35h-2.89v-4.14h2.89V27.35z"/>
<path class="st0" d="M24.87,27.35v-4.83c0-0.38-0.32-0.69-0.72-0.69h-4.33c-0.4,0-0.72,0.31-0.72,0.69v4.83h-0.72v1.38h7.21v-1.38
	H24.87z M23.43,27.35h-2.89v-4.14h2.89V27.35z"/>
</svg>
