<?xml version="1.0" encoding="utf-8"?>
<!-- Generator: Adobe Illustrator 16.0.0, SVG Export Plug-In . SVG Version: 6.00 Build 0)  -->
<!DOCTYPE svg PUBLIC "-//W3C//DTD SVG 1.1//EN" "http://www.w3.org/Graphics/SVG/1.1/DTD/svg11.dtd">
<svg version="1.1" id="Layer_1" xmlns="http://www.w3.org/2000/svg" xmlns:xlink="http://www.w3.org/1999/xlink" x="0px" y="0px"
	 width="35.437px" height="44.952px" viewBox="0 0 35.437 44.952" enable-background="new 0 0 35.437 44.952" xml:space="preserve">
<path fill="#666666" d="M34.79,0.563H4.959c-2.429,0-4.406,1.977-4.406,4.407v35.136c0,2.43,1.977,4.406,4.406,4.406h29.83V0.563z
	 M4.959,3.138h0.924v32.56H4.959c-0.653,0-1.273,0.146-1.832,0.4V4.97C3.128,3.959,3.95,3.138,4.959,3.138 M32.214,41.938H4.959
	c-1.009,0-1.832-0.822-1.832-1.832s0.822-1.832,1.832-1.832h27.255V41.938z M8.459,3.138h23.755V35.7H8.459V3.138z"/>
<rect x="12.322" y="7.208" fill="#666666" width="16.029" height="2.576"/>
<rect x="14.449" y="12.187" fill="#666666" width="11.774" height="2.575"/>
</svg>
