<?xml version="1.0" encoding="utf-8"?>
<!-- Generator: Adobe Illustrator 24.1.3, SVG Export Plug-In . SVG Version: 6.00 Build 0)  -->
<svg version="1.1" id="Layer_1" xmlns="http://www.w3.org/2000/svg" xmlns:xlink="http://www.w3.org/1999/xlink" x="0px" y="0px"
	 viewBox="0 0 59 70" style="enable-background:new 0 0 59 70;" xml:space="preserve">
<style type="text/css">
	.st0{fill:#666666;stroke:#FFFFFF;stroke-width:2;stroke-miterlimit:10;}
</style>
<g>
	<path class="st0" d="M52.94,4.11H11.48c-3.38,0-6.13,2.75-6.13,6.13v48.84c0,3.38,2.75,6.13,6.13,6.13h41.46V4.11z M11.48,7.69
		h1.28v45.26h-1.28c-0.91,0-1.77,0.2-2.55,0.56V10.24C8.94,8.83,10.08,7.69,11.48,7.69z M49.36,61.62H11.48
		c-1.4,0-2.55-1.14-2.55-2.55c0-1.4,1.14-2.55,2.55-2.55h37.88V61.62z M16.35,52.95V7.69h33.02v45.26H16.35z"/>
	<path class="st0" d="M21.72,13.35H44v3.58H21.72L21.72,13.35z"/>
	<path class="st0" d="M24.67,20.27h16.37v3.58H24.67L24.67,20.27z"/>
</g>
</svg>
