<?xml version="1.0" encoding="utf-8"?>
<!-- Generator: Adobe Illustrator 16.0.0, SVG Export Plug-In . SVG Version: 6.00 Build 0)  -->
<!DOCTYPE svg PUBLIC "-//W3C//DTD SVG 1.1//EN" "http://www.w3.org/Graphics/SVG/1.1/DTD/svg11.dtd">
<svg version="1.1" id="Layer_1" xmlns="http://www.w3.org/2000/svg" xmlns:xlink="http://www.w3.org/1999/xlink" x="0px" y="0px"
	 width="69.723px" height="68.288px" viewBox="0 0 69.723 68.288" enable-background="new 0 0 69.723 68.288" xml:space="preserve">
<path fill="#676767" d="M4.818,5.571h57.975l2.915-2.958c0.428-0.434,1.121-0.434,1.549,0c0.428,0.433,0.428,1.137,0.001,1.571
	L44.501,27.262l17.038,17.28l6.328-6.418c0.435-0.426,1.128-0.414,1.548,0.027c0.41,0.431,0.41,1.113,0,1.543l-4.364,4.427v18.097
	c0,0.613-0.491,1.11-1.095,1.11H44.564l-3.935,3.991c-0.599,0.615-1.414,0.964-2.267,0.969h-0.085
	c-0.864,0.002-1.693-0.348-2.3-0.97c-0.293-0.296-0.527-0.647-0.691-1.032c-0.493,0.284-1.051,0.433-1.618,0.431
	c-1.314,0.012-2.507-0.776-3.029-1.999c-0.491,0.285-1.049,0.434-1.615,0.43c-0.874-0.006-1.712-0.353-2.34-0.969
	c-0.266-0.27-0.484-0.584-0.646-0.929c-1.191,1.014-2.919,1.047-4.147,0.078H4.818c-0.605,0-1.095-0.497-1.095-1.11V6.682
	C3.723,6.067,4.213,5.571,4.818,5.571 M30.006,18.899h8.761V7.792h-8.761V18.899z M62.861,61.106V46.342l-0.548,0.556
	c-0.427,0.433-1.121,0.433-1.548,0l-1.549-1.571l-0.288,0.292c-0.686,0.698-1.178,1.569-1.424,2.523l-0.193,0.754
	c-0.344,1.336-1.034,2.556-1.997,3.533l-8.56,8.678H62.861z M23.932,61.813c0.282-0.007,0.553-0.12,0.757-0.318l2.002-2.032
	c0.428-0.434,1.121-0.434,1.549-0.001c0.428,0.434,0.428,1.138,0.001,1.572c-0.428,0.433-0.428,1.136,0,1.57
	c0.207,0.215,0.494,0.331,0.791,0.319c0.283-0.004,0.554-0.118,0.758-0.317l1.549-1.571c0.441-0.42,1.134-0.397,1.548,0.05
	c0.395,0.428,0.395,1.093,0,1.521c-0.426,0.433-0.426,1.133,0,1.566c0.213,0.205,0.495,0.319,0.788,0.319
	c0.288,0.018,0.568-0.099,0.76-0.319l1.548-1.566c0.428-0.435,1.122-0.435,1.55-0.001c0.427,0.434,0.428,1.137,0,1.571
	c-0.428,0.433-0.428,1.137,0,1.571c0.204,0.218,0.492,0.335,0.789,0.318c0.284-0.001,0.558-0.115,0.759-0.318l14.676-14.891
	c0.687-0.697,1.178-1.568,1.424-2.522l0.193-0.754c0.345-1.336,1.034-2.556,1.997-3.533l0.288-0.292L46.051,31.975l-1.104,1.118
	c-0.436,0.442-0.986,0.75-1.587,0.889l-5.475,1.275c-3.77,0.883-7.113,3.086-9.442,6.22l-5.596,7.538l0.102,0.103
	c0.409,0.418,0.966,0.653,1.547,0.651c0.582,0.001,1.139-0.234,1.549-0.652l2.738-2.777c0.503-0.515,1.189-0.804,1.903-0.802
	c1.522,0.01,2.748,1.269,2.738,2.812c-0.005,0.734-0.293,1.436-0.803,1.955l-9.4,9.533c-0.438,0.413-0.505,1.092-0.156,1.584
	C23.285,61.671,23.6,61.814,23.932,61.813 M5.913,61.106h14.765c-0.104-1.052,0.263-2.096,1.001-2.842l9.4-9.533
	c0.103-0.106,0.161-0.25,0.162-0.398c-0.004-0.164-0.074-0.318-0.192-0.429c-0.197-0.199-0.515-0.199-0.711,0L27.6,50.682
	c-0.819,0.836-1.935,1.305-3.097,1.302c-1.162,0.004-2.277-0.465-3.096-1.301l-0.774-0.785c-0.387-0.392-0.429-1.012-0.101-1.455
	l6.169-8.308c2.639-3.551,6.427-6.045,10.7-7.045l5.475-1.274c0.202-0.047,0.386-0.15,0.532-0.298l1.104-1.12l-2.325-2.357
	c-0.427-0.434-0.427-1.137,0-1.571L60.602,7.792H40.957V20.01c0,0.614-0.49,1.111-1.094,1.111H28.911
	c-0.605,0-1.095-0.497-1.095-1.111V7.792H5.913V61.106z"/>
<path fill="none" stroke="#FFFFFF" stroke-width="0.75" stroke-miterlimit="10" d="M4.818,5.571h57.975l2.915-2.958
	c0.428-0.434,1.121-0.434,1.549,0c0.428,0.433,0.428,1.137,0.001,1.571L44.501,27.262l17.038,17.28l6.328-6.418
	c0.435-0.426,1.128-0.414,1.548,0.027c0.41,0.431,0.41,1.113,0,1.543l-4.364,4.427v18.097c0,0.613-0.491,1.11-1.095,1.11H44.564
	l-3.935,3.991c-0.599,0.615-1.414,0.964-2.267,0.969h-0.085c-0.864,0.002-1.693-0.348-2.3-0.97
	c-0.293-0.296-0.527-0.647-0.691-1.032c-0.493,0.284-1.051,0.433-1.618,0.431c-1.314,0.012-2.507-0.776-3.029-1.999
	c-0.491,0.285-1.049,0.434-1.615,0.43c-0.874-0.006-1.712-0.353-2.34-0.969c-0.266-0.27-0.484-0.584-0.646-0.929
	c-1.191,1.014-2.919,1.047-4.147,0.078H4.818c-0.605,0-1.095-0.497-1.095-1.11V6.682C3.723,6.067,4.213,5.571,4.818,5.571z"/>
<rect x="30.006" y="7.792" fill="none" stroke="#FFFFFF" stroke-width="0.75" stroke-miterlimit="10" width="8.761" height="11.107"/>
<path fill="none" stroke="#FFFFFF" stroke-width="0.75" stroke-miterlimit="10" d="M62.861,61.106V46.342l-0.548,0.556
	c-0.427,0.433-1.121,0.433-1.548,0l-1.549-1.571l-0.288,0.292c-0.686,0.698-1.178,1.569-1.424,2.523l-0.193,0.754
	c-0.344,1.336-1.034,2.556-1.997,3.533l-8.56,8.678H62.861z"/>
<path fill="none" stroke="#FFFFFF" stroke-width="0.75" stroke-miterlimit="10" d="M23.932,61.813
	c0.282-0.007,0.553-0.12,0.757-0.318l2.002-2.032c0.428-0.434,1.121-0.434,1.549-0.001c0.428,0.434,0.428,1.138,0.001,1.572
	c-0.428,0.433-0.428,1.136,0,1.57c0.207,0.215,0.494,0.331,0.791,0.319c0.283-0.004,0.554-0.118,0.758-0.317l1.549-1.571
	c0.441-0.42,1.134-0.397,1.548,0.05c0.395,0.428,0.395,1.093,0,1.521c-0.426,0.433-0.426,1.133,0,1.566
	c0.213,0.205,0.495,0.319,0.788,0.319c0.288,0.018,0.568-0.099,0.76-0.319l1.548-1.566c0.428-0.435,1.122-0.435,1.55-0.001
	c0.427,0.434,0.428,1.137,0,1.571c-0.428,0.433-0.428,1.137,0,1.571c0.204,0.218,0.492,0.335,0.789,0.318
	c0.284-0.001,0.558-0.115,0.759-0.318l14.676-14.891c0.687-0.697,1.178-1.568,1.424-2.522l0.193-0.754
	c0.345-1.336,1.034-2.556,1.997-3.533l0.288-0.292L46.051,31.975l-1.104,1.118c-0.436,0.442-0.986,0.75-1.587,0.889l-5.475,1.275
	c-3.77,0.883-7.113,3.086-9.442,6.22l-5.596,7.538l0.102,0.103c0.409,0.418,0.966,0.653,1.547,0.651
	c0.582,0.001,1.139-0.234,1.549-0.652l2.738-2.777c0.503-0.515,1.189-0.804,1.903-0.802c1.522,0.01,2.748,1.269,2.738,2.812
	c-0.005,0.734-0.293,1.436-0.803,1.955l-9.4,9.533c-0.438,0.413-0.505,1.092-0.156,1.584C23.285,61.671,23.6,61.814,23.932,61.813z"
	/>
<path fill="none" stroke="#FFFFFF" stroke-width="0.75" stroke-miterlimit="10" d="M42.187,28.041c-0.427-0.434-0.427-1.137,0-1.571
	L60.602,7.792H40.957V20.01c0,0.614-0.49,1.111-1.094,1.111H28.911c-0.605,0-1.095-0.497-1.095-1.111V7.792H5.913v53.314h14.765
	c-0.104-1.052,0.263-2.096,1.001-2.842l9.4-9.533c0.103-0.106,0.161-0.25,0.162-0.398c-0.004-0.164-0.074-0.318-0.192-0.429
	c-0.197-0.199-0.515-0.199-0.711,0L27.6,50.682c-0.819,0.836-1.935,1.305-3.097,1.302c-1.162,0.004-2.277-0.465-3.096-1.301
	l-0.774-0.785c-0.387-0.392-0.429-1.012-0.101-1.455l6.169-8.308c2.639-3.551,6.427-6.045,10.7-7.045l5.475-1.274
	c0.202-0.047,0.386-0.15,0.532-0.298l1.104-1.12L42.187,28.041"/>
<rect x="-270" y="-75" fill="none" width="1040" height="650.018"/>
</svg>
