<?xml version="1.0" encoding="utf-8"?>
<!-- Generator: Adobe Illustrator 24.1.3, SVG Export Plug-In . SVG Version: 6.00 Build 0)  -->
<svg version="1.1" id="Layer_1" xmlns="http://www.w3.org/2000/svg" xmlns:xlink="http://www.w3.org/1999/xlink" x="0px" y="0px"
	 viewBox="0 0 137 86" style="enable-background:new 0 0 137 86;" xml:space="preserve">
<style type="text/css">
	.st0{fill-rule:evenodd;clip-rule:evenodd;fill:none;stroke:#808080;stroke-width:0.5;stroke-miterlimit:10;}
	.st1{fill-rule:evenodd;clip-rule:evenodd;fill:none;stroke:#808080;stroke-width:0.75;stroke-miterlimit:10;}
	.st2{fill:none;stroke:#808080;stroke-miterlimit:10;}
	.st3{fill:none;stroke:#808080;stroke-width:0.75;stroke-miterlimit:10;}
	.st4{fill:none;stroke:#808080;stroke-width:0.5;stroke-miterlimit:10;}
</style>
<path class="st0" d="M65.83,44.67L65.83,44.67h3.99"/>
<path class="st0" d="M70.7,45.51c0,0.43-0.4,0.78-0.88,0.78h-3.99c-0.49,0-0.88-0.35-0.88-0.78"/>
<path class="st1" d="M87.21,24.05L87.21,24.05l-6.05,1.19c-0.47,0.08-1.65,0.41-1.65,0.91v1.69c0,0.5,0.39,0.91,0.87,0.91h15.94
	v-6.06c0-0.08,0-0.15-0.01-0.22"/>
<path class="st1" d="M96.3,22.46l-8.44,1.47l-0.66,0.11"/>
<path class="st2" d="M12.53,33.23c-0.43,0-0.78,0.35-0.78,0.78v43.21c0,1.53,1.25,2.78,2.78,2.78h93.52c1.53,0,2.78-1.25,2.78-2.78
	V36.01"/>
<path class="st2" d="M108.06,33.23H12.53"/>
<path class="st2" d="M68.34,38.51h26.81c0.87,0,1.58-0.79,1.58-1.76V21.34c0-0.97-0.71-1.76-1.58-1.76H68.34
	c-0.87,0-1.58,0.79-1.58,1.76v15.41C66.76,37.72,67.47,38.51,68.34,38.51z"/>
<path class="st2" d="M59.72,51.51h37.07c1.06,0,1.93-0.9,1.93-2V35.7c0-1.1-0.87-2-1.93-2"/>
<path class="st3" d="M48.22,29.01v-4c0-0.55-0.45-1-1-1h-1.63c-0.55,0-1,0.45-1,1v4"/>
<path class="st2" d="M39.22,26.28H51.7c1.66,0,3-1.34,3-3V5.86H36.22v17.41C36.22,24.93,37.57,26.28,39.22,26.28z"/>
<polyline class="st2" points="54.7,29.4 54.7,80.01 54.7,80.01 "/>
<line class="st2" x1="54.7" y1="80.01" x2="54.7" y2="30.27"/>
<polyline class="st2" points="59.81,29.4 59.81,29.4 59.81,80.01 59.81,80.01 "/>
<line class="st2" x1="48.72" y1="46.76" x2="20.13" y2="46.76"/>
<polyline class="st3" points="11.72,57.04 11.72,57.04 54.7,57.04 54.7,57.04 "/>
<line class="st3" x1="54.7" y1="57.04" x2="11.72" y2="57.04"/>
<polygon class="st3" points="103.61,57.6 104.46,57.6 61.08,57.6 60.23,57.6 "/>
<polygon class="st3" points="103.61,69.4 104.46,69.4 61.08,69.4 60.23,69.4 "/>
<polyline class="st2" points="20.23,64.68 48.82,64.68 48.82,64.68 "/>
<line class="st2" x1="48.82" y1="64.68" x2="20.23" y2="64.68"/>
<polyline class="st2" points="98.19,73.8 98.19,73.8 67.55,73.8 67.55,73.8 "/>
<g>
	
		<rect x="48.24" y="10.19" transform="matrix(6.123234e-17 -1 1 6.123234e-17 38.1227 60.4251)" class="st4" width="2.07" height="1.92"/>
	
		<rect x="44.4" y="10.19" transform="matrix(6.123234e-17 -1 1 6.123234e-17 34.2862 56.5886)" class="st4" width="2.07" height="1.92"/>
	
		<rect x="40.56" y="10.19" transform="matrix(6.123234e-17 -1 1 6.123234e-17 30.4498 52.7522)" class="st4" width="2.07" height="1.92"/>
	
		<rect x="40.56" y="13.65" transform="matrix(6.123234e-17 -1 1 6.123234e-17 26.9944 56.2075)" class="st4" width="2.07" height="1.92"/>
	
		<rect x="44.4" y="13.65" transform="matrix(6.123234e-17 -1 1 6.123234e-17 30.8309 60.044)" class="st4" width="2.07" height="1.92"/>
	
		<rect x="48.24" y="13.65" transform="matrix(6.123234e-17 -1 1 6.123234e-17 34.6673 63.8804)" class="st4" width="2.07" height="1.92"/>
</g>
<rect x="40.76" y="6.38" transform="matrix(6.123234e-17 -1 1 6.123234e-17 32.3459 58.529)" class="st4" width="9.36" height="13.43"/>
<path class="st4" d="M52.22,20.32c0,0.47-0.38,0.85-0.85,0.85h-12.3c-0.47,0-0.85-0.38-0.85-0.85"/>
<path class="st4" d="M38.22,20.32c0-0.47,0.38-0.85,0.85-0.85h12.3c0.47,0,0.85,0.38,0.85,0.85v0"/>
<path class="st4" d="M64.61,63.85c0.47,0,0.85-0.38,0.85-0.85l0,0"/>
<path class="st4" d="M64.57,72.95c-0.47,0.02-0.83,0.42-0.81,0.89l0,0"/>
<path class="st4" d="M65.46,73.76c-0.02-0.47-0.42-0.83-0.89-0.81h0"/>
<path class="st4" d="M64.65,74.65c0.47-0.02,0.83-0.42,0.81-0.89l0,0"/>
<path class="st4" d="M63.76,73.84c0.02,0.47,0.42,0.83,0.89,0.81l0,0"/>
<polyline class="st2" points="12.18,33.23 17.28,29.4 66.19,28.98 "/>
<polyline class="st2" points="12.18,37.63 12.18,37.63 59.81,37.63 59.81,37.63 "/>
<line class="st2" x1="59.81" y1="37.63" x2="12.18" y2="37.63"/>
<path class="st1" d="M129.66,26.05l0.72,0.74c0.44,0.45,0.13,1.19-0.37,1.57l-4.79,3.62l-14,16.03"/>
<path class="st1" d="M110.33,35.66l9.28-2.71l3.68-4.34l4.79-2.95c0.53-0.33,1.14-0.04,1.58,0.4l0,0"/>
<path class="st0" d="M119.48,25.74L119.48,25.74c0.08-0.19,0.08-0.41-0.01-0.61l-0.07-0.15c-0.17-0.39-0.63-0.57-1.03-0.4
	l-12.18,5.3c-0.39,0.17-0.57,0.62-0.41,1.01"/>
<path class="st0" d="M105.86,31.06c0.17,0.39,0.63,0.57,1.03,0.4l12.18-5.3c0.19-0.08,0.33-0.24,0.41-0.42"/>
<path class="st0" d="M105.79,30.89c0,0,0,0.01,0.01,0.01l0.07,0.15"/>
<path class="st1" d="M107.71,27.55l-4.87,2.18l-2.28,1.02c-0.23,0.1-0.18,0.38-0.13,0.62l0.24,2.34"/>
<path class="st1" d="M110.59,31.55c-0.01-0.01-0.01-0.02-0.02-0.03l-2.24-3.84c-0.12-0.21-0.4-0.23-0.62-0.13"/>
<path class="st1" d="M108.41,33.01l2.06-0.82c0.23-0.09,0.28-0.42,0.13-0.62"/>
<path class="st1" d="M111.6,60.12L111.6,60.12h5.44c0.06,0,0.11-0.01,0.17-0.02l0.44-0.28l6.69-4.28c0.36-0.23,0.54-0.78,0.25-1.08
	l-0.48-0.51c-0.29-0.31-0.68-0.46-1.05-0.26l-6.17,3.43h-5.37c-0.14,0-0.27,0.04-0.38,0.1c-0.24,0.14-0.41,0.4-0.41,0.71v1.38
	c0,0.3,0.16,0.57,0.41,0.71c0.11,0.06,0.24,0.1,0.38,0.1"/>
</svg>
