<?xml version="1.0" encoding="utf-8"?>
<!-- Generator: Adobe Illustrator 16.0.0, SVG Export Plug-In . SVG Version: 6.00 Build 0)  -->
<!DOCTYPE svg PUBLIC "-//W3C//DTD SVG 1.1//EN" "http://www.w3.org/Graphics/SVG/1.1/DTD/svg11.dtd">
<svg version="1.1" id="Layer_1" xmlns="http://www.w3.org/2000/svg" xmlns:xlink="http://www.w3.org/1999/xlink" x="0px" y="0px"
	 width="49.281px" height="31.505px" viewBox="0 0 49.281 31.505" enable-background="new 0 0 49.281 31.505" xml:space="preserve">
<path fill="none" stroke="#808080" stroke-width="0.5" stroke-miterlimit="10" d="M22.321,16.73c0-0.171,0.16-0.311,0.354-0.311
	h1.602c0.195,0,0.355,0.14,0.355,0.311v0.026"/>
<path fill="none" stroke="#808080" stroke-width="0.5" stroke-miterlimit="10" d="M24.633,16.756c0,0.171-0.16,0.312-0.355,0.312
	h-1.602c-0.195,0-0.354-0.14-0.354-0.312V16.73"/>
<path fill="none" stroke="#808080" stroke-width="0.75" stroke-miterlimit="10" d="M31.266,8.132l-2.433,0.479
	c-0.19,0.033-0.663,0.164-0.663,0.364v0.681c0,0.201,0.158,0.364,0.351,0.364h6.406V7.585c0-0.03-0.002-0.06-0.005-0.089
	l-3.392,0.59L31.266,8.132z"/>
<path fill="none" stroke="#808080" stroke-miterlimit="10" d="M2.062,30.622h37.582c0.615,0,1.119-0.504,1.119-1.119V12.942
	c0-0.616-0.504-1.119-1.119-1.119H1.258c-0.174,0-0.315,0.141-0.315,0.315v17.365C0.943,30.118,1.447,30.622,2.062,30.622z"/>
<path fill="none" stroke="#808080" stroke-miterlimit="10" d="M23.683,13.945h10.774c0.348,0,0.634-0.318,0.634-0.708V7.045
	c0-0.389-0.286-0.708-0.634-0.708H23.683c-0.349,0-0.634,0.318-0.634,0.708v6.192C23.049,13.626,23.334,13.945,23.683,13.945z"/>
<path fill="none" stroke="#808080" stroke-miterlimit="10" d="M20.222,19.169h14.896c0.427,0,0.776-0.362,0.776-0.806v-5.549
	c0-0.443-0.35-0.805-0.776-0.805"/>
<path fill="none" stroke="#808080" stroke-width="0.75" stroke-miterlimit="10" d="M14.14,10.127h1.46V8.52
	c0-0.221-0.181-0.402-0.402-0.402h-0.656c-0.221,0-0.402,0.181-0.402,0.402V10.127z"/>
<path fill="none" stroke="#808080" stroke-miterlimit="10" d="M11.983,9.028h5.015c0.666,0,1.206-0.54,1.206-1.206V0.825h-7.426
	v6.998C10.778,8.489,11.318,9.028,11.983,9.028z"/>
<polyline fill="none" stroke="#808080" stroke-miterlimit="10" points="18.204,30.622 18.204,10.635 18.204,10.285 18.204,30.622 
	18.204,30.622 "/>
<polyline fill="none" stroke="#808080" stroke-miterlimit="10" points="20.255,30.622 20.255,10.285 20.254,10.285 20.254,30.622 
	20.255,30.622 "/>
<polyline fill="none" stroke="#808080" stroke-miterlimit="10" points="15.801,17.259 4.313,17.259 15.801,17.259 15.801,17.259 "/>
<polyline fill="none" stroke="#808080" stroke-width="0.75" stroke-miterlimit="10" points="18.204,21.394 0.933,21.394 
	18.204,21.394 18.204,21.394 "/>
<polygon fill="none" stroke="#808080" stroke-width="0.75" stroke-miterlimit="10" points="37.857,21.614 38.199,21.614 
	20.768,21.614 20.426,21.614 "/>
<polygon fill="none" stroke="#808080" stroke-width="0.75" stroke-miterlimit="10" points="37.857,26.358 38.199,26.358 
	20.768,26.358 20.426,26.358 "/>
<polyline fill="none" stroke="#808080" stroke-miterlimit="10" points="15.839,24.461 4.351,24.461 15.839,24.461 15.839,24.461 "/>
<polyline fill="none" stroke="#808080" stroke-miterlimit="10" points="35.664,23.785 23.349,23.785 35.664,23.785 35.664,23.785 
	"/>
<polyline fill="none" stroke="#808080" stroke-miterlimit="10" points="35.681,28.128 23.365,28.128 35.681,28.128 35.681,28.128 
	"/>
<rect x="15.637" y="2.534" fill="none" stroke="#808080" stroke-width="0.5" stroke-miterlimit="10" width="0.771" height="0.833"/>
<rect x="14.095" y="2.534" fill="none" stroke="#808080" stroke-width="0.5" stroke-miterlimit="10" width="0.771" height="0.833"/>
<rect x="12.553" y="2.534" fill="none" stroke="#808080" stroke-width="0.5" stroke-miterlimit="10" width="0.771" height="0.833"/>
<rect x="12.553" y="3.923" fill="none" stroke="#808080" stroke-width="0.5" stroke-miterlimit="10" width="0.771" height="0.833"/>
<rect x="14.095" y="3.923" fill="none" stroke="#808080" stroke-width="0.5" stroke-miterlimit="10" width="0.771" height="0.833"/>
<rect x="15.637" y="3.923" fill="none" stroke="#808080" stroke-width="0.5" stroke-miterlimit="10" width="0.771" height="0.833"/>
<rect x="11.783" y="1.851" fill="none" stroke="#808080" stroke-width="0.5" stroke-miterlimit="10" width="5.396" height="3.76"/>
<path fill="none" stroke="#808080" stroke-width="0.5" stroke-miterlimit="10" d="M16.866,6.978h-4.942
	c-0.188,0-0.342-0.154-0.342-0.342c0-0.188,0.154-0.341,0.342-0.341h4.942c0.188,0,0.342,0.154,0.342,0.341
	C17.208,6.824,17.054,6.978,16.866,6.978z"/>
<path fill="none" stroke="#808080" stroke-width="0.5" stroke-miterlimit="10" d="M16.837,8.345c0.188,0,0.342-0.154,0.342-0.342
	s-0.154-0.342-0.342-0.342s-0.342,0.154-0.342,0.342S16.649,8.345,16.837,8.345L16.837,8.345"/>
<path fill="none" stroke="#808080" stroke-width="0.5" stroke-miterlimit="10" d="M22.186,24.127c0.188,0,0.342-0.153,0.342-0.342
	c0-0.188-0.154-0.341-0.342-0.341s-0.342,0.153-0.342,0.341C21.844,23.974,21.998,24.127,22.186,24.127L22.186,24.127"/>
<path fill="none" stroke="#808080" stroke-width="0.5" stroke-miterlimit="10" d="M4.755,17.558H4.84
	c0.188,0,0.341-0.154,0.341-0.342V17.13c0-0.188-0.153-0.342-0.341-0.342H4.755c-0.188,0-0.342,0.154-0.342,0.342v0.085
	C4.413,17.403,4.567,17.558,4.755,17.558z"/>
<path fill="none" stroke="#808080" stroke-width="0.5" stroke-miterlimit="10" d="M4.772,25.197h0.086
	c0.188,0,0.341-0.154,0.341-0.343V24.77c0-0.188-0.153-0.342-0.341-0.342H4.772c-0.188,0-0.341,0.153-0.341,0.342v0.085
	C4.431,25.043,4.584,25.197,4.772,25.197z"/>
<path fill="none" stroke="#808080" stroke-width="0.5" stroke-miterlimit="10" d="M21.844,28.144
	c0.008,0.188,0.17,0.334,0.357,0.325c0.188-0.009,0.334-0.169,0.325-0.356c-0.009-0.188-0.169-0.335-0.357-0.326
	C21.982,27.795,21.835,27.956,21.844,28.144L21.844,28.144"/>
<polyline fill="none" stroke="#808080" stroke-miterlimit="10" points="1.114,11.823 3.165,10.285 22.818,10.114 "/>
<path fill="none" stroke="#808080" stroke-miterlimit="10" d="M20.255,13.592H1.114H20.255z"/>
<path fill="none" stroke="#808080" stroke-width="0.75" stroke-miterlimit="10" d="M40.558,12.798l3.73-1.09l1.479-1.746
	l1.925-1.186c0.214-0.132,0.456-0.017,0.633,0.162l0.29,0.296c0.177,0.179,0.053,0.478-0.148,0.629l-1.924,1.455l-5.626,6.443"/>
<path fill="none" stroke="#808080" stroke-width="0.5" stroke-miterlimit="10" d="M44.233,8.813
	c0.031-0.075,0.033-0.163-0.002-0.244l-0.026-0.062c-0.069-0.158-0.255-0.231-0.412-0.162l-4.895,2.131
	c-0.156,0.068-0.229,0.25-0.165,0.407c0.001,0.001,0.002,0.003,0.003,0.005l0.027,0.062c0.068,0.158,0.254,0.23,0.411,0.162
	l4.895-2.132C44.147,8.947,44.204,8.886,44.233,8.813z"/>
<path fill="none" stroke="#808080" stroke-width="0.75" stroke-miterlimit="10" d="M40.664,11.149
	c-0.003-0.004-0.005-0.009-0.008-0.013l-0.901-1.543c-0.05-0.085-0.159-0.094-0.25-0.054l-1.959,0.875l-0.916,0.41
	c-0.091,0.04-0.074,0.152-0.054,0.249l0.095,0.941"/>
<path fill="none" stroke="#808080" stroke-width="0.75" stroke-miterlimit="10" d="M39.787,11.734l0.826-0.331
	c0.092-0.037,0.112-0.169,0.054-0.25l-0.003-0.004"/>
<path fill="none" stroke="#808080" stroke-width="0.75" stroke-miterlimit="10" d="M41.031,22.631h0.035h2.186
	c0.022,0,0.046-0.003,0.066-0.008l0.178-0.113l2.688-1.719c0.144-0.091,0.218-0.312,0.099-0.436l-0.194-0.204
	c-0.118-0.124-0.273-0.185-0.422-0.103l-2.479,1.377h-2.156c-0.055,0-0.106,0.015-0.152,0.04c-0.097,0.057-0.162,0.163-0.162,0.285
	v0.555c0,0.122,0.065,0.229,0.162,0.284C40.925,22.616,40.977,22.631,41.031,22.631"/>
</svg>
