<?xml version="1.0" encoding="utf-8"?>
<!-- Generator: Adobe Illustrator 16.0.0, SVG Export Plug-In . SVG Version: 6.00 Build 0)  -->
<!DOCTYPE svg PUBLIC "-//W3C//DTD SVG 1.1//EN" "http://www.w3.org/Graphics/SVG/1.1/DTD/svg11.dtd">
<svg version="1.1" id="Layer_1" xmlns="http://www.w3.org/2000/svg" xmlns:xlink="http://www.w3.org/1999/xlink" x="0px" y="0px"
	 width="41.889px" height="48.301px" viewBox="0 0 41.889 48.301" enable-background="new 0 0 41.889 48.301" xml:space="preserve">
<path fill="none" stroke="#808080" stroke-width="1.5" stroke-miterlimit="10" d="M39.29,29.587c0.287,0,0.519-0.23,0.519-0.518
	V1.593c0-0.286-0.231-0.519-0.519-0.519H9.813c-0.287,0-0.518,0.232-0.518,0.519v28.513"/>
<path fill="none" stroke="#808080" stroke-width="1.5" stroke-miterlimit="10" d="M22.588,7.578h4.427
	c0.158,0,0.287-0.128,0.287-0.288V1.362c0-0.159-0.129-0.288-0.287-0.288h-4.427c-0.159,0-0.288,0.129-0.288,0.288V7.29
	C22.301,7.449,22.43,7.578,22.588,7.578z"/>
<path fill="#808080" d="M9.98,47.236c0.302,0.304,0.794,0.308,1.101,0.005l3.779-3.724c0.643-0.642,0.837-1.593,0.555-2.42
	l0.813-0.783c0.438-0.423,1.014-0.657,1.623-0.657h10.365c1.84,0,3.578-0.705,4.896-1.987c0.054-0.053-0.412,0.496,7.071-8.448
	c1.109-1.313,0.943-3.283-0.371-4.395c-1.306-1.102-3.262-0.943-4.375,0.348l-4.601,4.729c-0.581-0.715-1.467-1.16-2.424-1.16
	h-8.695c-1.237-0.518-2.55-0.779-3.904-0.779c-3.755,0-7.033,1.733-8.792,4.984c-0.742-0.14-1.523,0.084-2.085,0.646l-3.709,3.721
	c-0.303,0.304-0.304,0.795-0.001,1.1L9.98,47.236z M15.814,29.522c1.194,0,2.349,0.24,3.432,0.714
	c0.099,0.044,0.205,0.065,0.312,0.065h8.855c0.845,0,1.559,0.689,1.559,1.56c0,0.859-0.699,1.56-1.559,1.56h-6.362
	c-0.43,0-0.78,0.349-0.78,0.78c0,0.43,0.35,0.778,0.78,0.778h6.362c1.719,0,3.117-1.398,3.117-3.118
	c0-0.137-0.009-0.272-0.026-0.407c4.45-4.575,5.078-5.219,5.104-5.25c0.556-0.656,1.542-0.739,2.198-0.186
	c0.657,0.555,0.74,1.541,0.183,2.199l-6.992,8.361c-1.021,0.98-2.361,1.52-3.78,1.52H17.852c-1.015,0-1.977,0.39-2.706,1.094
	l-0.662,0.639l-6.108-6.107C9.803,31.045,12.481,29.522,15.814,29.522 M6.04,34.696c0.257-0.257,0.652-0.303,0.965-0.11
	c0.135,0.083-0.252-0.27,6.753,6.727c0.312,0.312,0.295,0.809,0.004,1.099l-3.222,3.175l-7.662-7.72L6.04,34.696z"/>
<path fill="none" stroke="#FFFFFF" stroke-miterlimit="10" d="M9.98,47.236c0.302,0.304,0.794,0.308,1.101,0.005l3.779-3.724
	c0.643-0.642,0.837-1.593,0.555-2.42l0.813-0.783c0.438-0.423,1.014-0.657,1.623-0.657h10.365c1.84,0,3.578-0.705,4.896-1.987
	c0.054-0.053-0.412,0.496,7.071-8.448c1.109-1.313,0.943-3.283-0.371-4.395c-1.306-1.102-3.262-0.943-4.375,0.348l-4.601,4.729
	c-0.581-0.715-1.467-1.16-2.424-1.16h-8.695c-1.237-0.518-2.55-0.779-3.904-0.779c-3.755,0-7.033,1.733-8.792,4.984
	c-0.742-0.14-1.523,0.084-2.085,0.646l-3.709,3.721c-0.303,0.304-0.304,0.795-0.001,1.1L9.98,47.236z"/>
<path fill="none" stroke="#FFFFFF" stroke-miterlimit="10" d="M15.814,29.522c1.194,0,2.349,0.24,3.432,0.714
	c0.099,0.044,0.205,0.065,0.312,0.065h8.855c0.845,0,1.559,0.689,1.559,1.56c0,0.859-0.699,1.56-1.559,1.56h-6.362
	c-0.43,0-0.78,0.349-0.78,0.78c0,0.43,0.35,0.778,0.78,0.778h6.362c1.719,0,3.117-1.398,3.117-3.118
	c0-0.137-0.009-0.272-0.026-0.407c4.45-4.575,5.078-5.219,5.104-5.25c0.556-0.656,1.542-0.739,2.198-0.186
	c0.657,0.555,0.74,1.541,0.183,2.199l-6.992,8.361c-1.021,0.98-2.361,1.52-3.78,1.52H17.852c-1.015,0-1.977,0.39-2.706,1.094
	l-0.662,0.639l-6.108-6.107C9.803,31.045,12.481,29.522,15.814,29.522z"/>
</svg>
