<?xml version="1.0" encoding="utf-8"?>
<!-- Generator: Adobe Illustrator 16.0.0, SVG Export Plug-In . SVG Version: 6.00 Build 0)  -->
<!DOCTYPE svg PUBLIC "-//W3C//DTD SVG 1.1//EN" "http://www.w3.org/Graphics/SVG/1.1/DTD/svg11.dtd">
<svg version="1.1" id="Layer_1" xmlns="http://www.w3.org/2000/svg" xmlns:xlink="http://www.w3.org/1999/xlink" x="0px" y="0px"
	 width="25px" height="20.631px" viewBox="0 0 25 20.631" enable-background="new 0 0 25 20.631" xml:space="preserve">
<rect x="4.115" y="8.258" fill="#333333" width="1.799" height="1.799"/>
<rect x="7.714" y="8.258" fill="#333333" width="1.799" height="1.799"/>
<rect x="11.312" y="8.258" fill="#333333" width="1.799" height="1.799"/>
<rect x="14.911" y="8.258" fill="#333333" width="1.798" height="1.799"/>
<rect x="18.51" y="8.258" fill="#333333" width="1.799" height="1.799"/>
<rect x="4.115" y="11.857" fill="#333333" width="1.799" height="1.799"/>
<rect x="7.714" y="11.857" fill="#333333" width="1.799" height="1.799"/>
<rect x="11.312" y="11.857" fill="#333333" width="1.799" height="1.799"/>
<rect x="14.911" y="11.857" fill="#333333" width="1.798" height="1.799"/>
<rect x="4.115" y="15.455" fill="#333333" width="1.799" height="1.799"/>
<rect x="7.714" y="15.455" fill="#333333" width="1.799" height="1.799"/>
<rect x="11.312" y="15.455" fill="#333333" width="1.799" height="1.799"/>
<rect x="14.911" y="15.455" fill="#333333" width="1.798" height="1.799"/>
<rect x="18.51" y="11.857" fill="#333333" width="1.799" height="1.799"/>
<path fill="none" stroke="#333333" stroke-width="0.75" stroke-miterlimit="10" d="M1.809,19.818h21.5c0.55,0,1-0.449,1-1V3.573
	c0-0.55-0.45-1-1-1h-21.5c-0.55,0-1,0.45-1,1v15.246C0.809,19.369,1.259,19.818,1.809,19.818z"/>
<rect x="20.1" y="1.057" fill="none" stroke="#333333" stroke-miterlimit="10" width="0.086" height="3.032"/>
<rect x="5.258" y="1.057" fill="none" stroke="#333333" stroke-miterlimit="10" width="0.086" height="3.032"/>
<polyline fill="none" stroke="#333333" stroke-width="0.75" stroke-miterlimit="10" points="0.998,6.363 0.998,6.342 23.93,6.342 
	23.93,6.363 "/>
</svg>
