<?xml version="1.0" encoding="utf-8"?>
<!-- Generator: Adobe Illustrator 16.0.0, SVG Export Plug-In . SVG Version: 6.00 Build 0)  -->
<!DOCTYPE svg PUBLIC "-//W3C//DTD SVG 1.1//EN" "http://www.w3.org/Graphics/SVG/1.1/DTD/svg11.dtd">
<svg version="1.1" id="Layer_1" xmlns="http://www.w3.org/2000/svg" xmlns:xlink="http://www.w3.org/1999/xlink" x="0px" y="0px"
	 width="49px" height="28.375px" viewBox="0 0 49 28.375" enable-background="new 0 0 49 28.375" xml:space="preserve">
<path fill-rule="evenodd" clip-rule="evenodd" fill="#666666" d="M29.468,21.071h-14.54c-1.646-4.658-8.516-4.613-10.146,0H3.567
	v-6.715c0-0.836,0.713-1.522,1.583-1.522h10.713c0.772,0,1.398-0.601,1.398-1.343V3.433h23.94v1.611h-2.568
	c-1.84,0-1.84,2.686,0,2.686h2.568v2.597h-6.707c-1.84,0-1.84,2.686,0,2.686h6.707v8.058h-1.587
	C37.968,16.413,31.099,16.458,29.468,21.071 M43.997,7.73h1.676c1.84,0,1.84-2.686,0-2.686h-1.676V2.089
	c0-0.741-0.626-1.342-1.398-1.342c-2.138,0-25.641,0.008-25.641,0c-3.825,0-7.157,1.82-9.118,4.982L5.1,10.148
	c-2.391,0.026-4.328,1.906-4.328,4.208v8.059c0,0.741,0.626,1.343,1.397,1.343h2.437c0.501,2.37,2.68,4.118,5.25,4.118
	c2.569,0,4.748-1.748,5.249-4.118h14.188c0.5,2.37,2.68,4.118,5.249,4.118s4.748-1.748,5.249-4.118h2.809
	c0.772,0,1.398-0.602,1.398-1.343v-4.03h3.074c1.84,0,1.84-2.685,0-2.685h-3.074v-2.687h3.074c1.84,0,1.84-2.686,0-2.686h-3.074
	V7.73z M8.043,20.986c-1,0.962-1,2.521,0,3.482c1.609,1.547,4.374,0.446,4.374-1.741S9.652,19.439,8.043,20.986 M8.343,10.148h6.123
	V3.797c-1.782,0.548-3.24,1.702-4.235,3.306L8.343,10.148z M32.729,20.986c-1,0.962-1,2.521,0,3.482
	c1.609,1.547,4.374,0.446,4.374-1.741C37.103,20.54,34.339,19.439,32.729,20.986"/>
<path fill="none" stroke="#FFFFFF" stroke-width="3" stroke-miterlimit="10" d="M29.468,21.071h-14.54
	c-1.646-4.658-8.516-4.613-10.146,0H3.567v-6.715c0-0.836,0.713-1.522,1.583-1.522h10.713c0.772,0,1.398-0.601,1.398-1.343V3.433
	h23.94v1.611h-2.568c-1.84,0-1.84,2.686,0,2.686h2.568v2.597h-6.707c-1.84,0-1.84,2.686,0,2.686h6.707v8.058h-1.587
	C37.968,16.413,31.099,16.458,29.468,21.071z"/>
</svg>
