<?xml version="1.0" encoding="utf-8"?>
<!-- Generator: Adobe Illustrator 16.0.0, SVG Export Plug-In . SVG Version: 6.00 Build 0)  -->
<!DOCTYPE svg PUBLIC "-//W3C//DTD SVG 1.1//EN" "http://www.w3.org/Graphics/SVG/1.1/DTD/svg11.dtd">
<svg version="1.1" id="Layer_1" xmlns="http://www.w3.org/2000/svg" xmlns:xlink="http://www.w3.org/1999/xlink" x="0px" y="0px"
	 width="39.176px" height="21.624px" viewBox="0 0 39.176 21.624" enable-background="new 0 0 39.176 21.624" xml:space="preserve">
<g>
	<defs>
		<rect id="SVGID_1_" x="-100.603" y="-293.785" width="1362.58" height="760.713"/>
	</defs>
	<clipPath id="SVGID_2_">
		<use xlink:href="#SVGID_1_"  overflow="visible"/>
	</clipPath>
	<path clip-path="url(#SVGID_2_)" fill-rule="evenodd" clip-rule="evenodd" fill="#010202" d="M16.455,16.263h10.406
		c1.177-3.098,6.094-3.068,7.263,0h0.868v-4.466c0-0.557-0.51-1.013-1.134-1.013h-7.666c-0.554,0-1.002-0.4-1.002-0.893v-5.36H8.057
		v1.07h1.838c1.315,0,1.315,1.787,0,1.787H8.057v1.728h4.801c1.315,0,1.315,1.787,0,1.787H8.057v5.36h1.136
		C10.369,13.165,15.286,13.195,16.455,16.263 M6.055,7.388h-1.2c-1.317,0-1.317-1.787,0-1.787h1.2V3.636
		c0-0.492,0.448-0.893,1-0.893c1.532,0,18.353,0.006,18.353,0c2.738,0,5.124,1.212,6.528,3.315l1.96,2.939
		c1.712,0.017,3.098,1.268,3.098,2.799v5.361c0,0.493-0.448,0.893-1,0.893h-1.745c-0.357,1.576-1.917,2.739-3.756,2.739
		c-1.838,0-3.399-1.164-3.758-2.739H16.579c-0.357,1.576-1.917,2.739-3.756,2.739c-1.838,0-3.397-1.164-3.756-2.739H7.055
		c-0.551,0-1-0.4-1-0.893v-2.682H3.856c-1.317,0-1.317-1.786,0-1.786h2.199v-1.788H3.856c-1.317,0-1.317-1.787,0-1.787h2.199V7.388z
		 M31.789,16.207c0.717,0.638,0.717,1.677,0,2.316c-1.152,1.029-3.131,0.297-3.131-1.158S30.636,15.178,31.789,16.207 M31.574,8.996
		h-4.382V4.772c1.276,0.366,2.319,1.133,3.031,2.2L31.574,8.996z M14.12,16.207c0.714,0.638,0.714,1.677,0,2.316
		c-1.152,1.029-3.131,0.297-3.131-1.158S12.967,15.178,14.12,16.207"/>
	<path clip-path="url(#SVGID_2_)" fill="none" stroke="#FFFFFF" stroke-miterlimit="10" d="M16.455,16.263h10.406
		c1.177-3.098,6.094-3.068,7.263,0h0.868v-4.466c0-0.557-0.51-1.013-1.134-1.013h-7.666c-0.554,0-1.002-0.4-1.002-0.893v-5.36H8.057
		v1.07h1.838c1.315,0,1.315,1.787,0,1.787H8.057v1.728h4.801c1.315,0,1.315,1.787,0,1.787H8.057v5.36h1.136
		C10.369,13.165,15.286,13.195,16.455,16.263z M6.055,7.388h-1.2c-1.317,0-1.317-1.787,0-1.787h1.2V3.636
		c0-0.492,0.448-0.893,1-0.893c1.532,0,18.353,0.006,18.353,0c2.738,0,5.124,1.212,6.528,3.315l1.96,2.939
		c1.712,0.017,3.098,1.268,3.098,2.799v5.361c0,0.493-0.448,0.893-1,0.893h-1.745c-0.357,1.576-1.917,2.739-3.756,2.739
		c-1.838,0-3.399-1.164-3.758-2.739H16.579c-0.357,1.576-1.917,2.739-3.756,2.739c-1.838,0-3.397-1.164-3.756-2.739H7.055
		c-0.551,0-1-0.4-1-0.893v-2.682H3.856c-1.317,0-1.317-1.786,0-1.786h2.199v-1.788H3.856c-1.317,0-1.317-1.787,0-1.787h2.199V7.388z
		 M31.789,16.207c0.717,0.638,0.717,1.677,0,2.316c-1.152,1.029-3.131,0.297-3.131-1.158S30.636,15.178,31.789,16.207z
		 M31.574,8.996h-4.382V4.772c1.276,0.366,2.319,1.133,3.031,2.2L31.574,8.996z M14.12,16.207c0.714,0.638,0.714,1.677,0,2.316
		c-1.152,1.029-3.131,0.297-3.131-1.158S12.967,15.178,14.12,16.207z"/>
</g>
</svg>
