<?xml version="1.0" encoding="utf-8"?>
<!-- Generator: Adobe Illustrator 16.0.0, SVG Export Plug-In . SVG Version: 6.00 Build 0)  -->
<!DOCTYPE svg PUBLIC "-//W3C//DTD SVG 1.1//EN" "http://www.w3.org/Graphics/SVG/1.1/DTD/svg11.dtd">
<svg version="1.1" id="Layer_1" xmlns="http://www.w3.org/2000/svg" xmlns:xlink="http://www.w3.org/1999/xlink" x="0px" y="0px"
	 width="48.55px" height="28.261px" viewBox="0 0 48.55 28.261" enable-background="new 0 0 48.55 28.261" xml:space="preserve">
<path fill-rule="evenodd" clip-rule="evenodd" fill="#676767" d="M29.257,21.171H14.108c-1.715-4.853-8.872-4.807-10.571,0H2.272
	v-6.996c0-0.871,0.743-1.586,1.649-1.586h11.162c0.804,0,1.456-0.625,1.456-1.398V2.794h24.943v1.68h-2.677
	c-1.917,0-1.917,2.799,0,2.799h2.677v2.705h-6.988c-1.917,0-1.917,2.799,0,2.799h6.988v8.395h-1.654
	C38.113,16.317,30.955,16.365,29.257,21.171 M44.393,7.272h1.747c1.917,0,1.917-2.799,0-2.799h-1.747V1.395
	c0-0.772-0.651-1.399-1.456-1.399c-2.228,0-26.714,0.009-26.714,0c-3.985,0-7.457,1.897-9.5,5.19L3.869,9.791
	C1.378,9.818-0.64,11.777-0.64,14.175v8.396c0,0.771,0.651,1.398,1.456,1.398h2.538c0.521,2.469,2.792,4.291,5.468,4.291
	c2.677,0,4.948-1.822,5.47-4.291h14.781c0.522,2.469,2.792,4.291,5.469,4.291c2.677,0,4.947-1.822,5.469-4.291h2.926
	c0.805,0,1.456-0.627,1.456-1.398v-4.198h3.203c1.916,0,1.916-2.799,0-2.799h-3.203v-2.798h3.203c1.916,0,1.916-2.799,0-2.799
	h-3.203V7.272z M6.935,21.083c-1.042,1.001-1.042,2.626,0,3.628c1.677,1.611,4.557,0.466,4.557-1.813S8.612,19.472,6.935,21.083
	 M7.248,9.791h6.379V3.175c-1.857,0.571-3.376,1.772-4.412,3.444L7.248,9.791z M32.655,21.083c-1.042,1.001-1.042,2.626,0,3.628
	c1.676,1.611,4.556,0.466,4.556-1.813S34.331,19.472,32.655,21.083"/>
<path fill="none" stroke="#FFFFFF" stroke-width="2" stroke-miterlimit="10" d="M29.257,21.171H14.108
	c-1.715-4.853-8.872-4.807-10.571,0H2.272v-6.996c0-0.871,0.743-1.586,1.649-1.586h11.162c0.804,0,1.456-0.625,1.456-1.398V2.794
	h24.943v1.68h-2.677c-1.917,0-1.917,2.799,0,2.799h2.677v2.705h-6.988c-1.917,0-1.917,2.799,0,2.799h6.988v8.395h-1.654
	C38.113,16.317,30.955,16.365,29.257,21.171z M44.393,7.272h1.747c1.917,0,1.917-2.799,0-2.799h-1.747V1.395
	c0-0.772-0.651-1.399-1.456-1.399c-2.228,0-26.714,0.009-26.714,0c-3.985,0-7.457,1.897-9.5,5.19L3.869,9.791
	C1.378,9.818-0.64,11.777-0.64,14.175v8.396c0,0.771,0.651,1.398,1.456,1.398h2.538c0.521,2.469,2.792,4.291,5.468,4.291
	c2.677,0,4.948-1.822,5.47-4.291h14.781c0.522,2.469,2.792,4.291,5.469,4.291c2.677,0,4.947-1.822,5.469-4.291h2.926
	c0.805,0,1.456-0.627,1.456-1.398v-4.198h3.203c1.916,0,1.916-2.799,0-2.799h-3.203v-2.798h3.203c1.916,0,1.916-2.799,0-2.799
	h-3.203V7.272z M6.935,21.083c-1.042,1.001-1.042,2.626,0,3.628c1.677,1.611,4.557,0.466,4.557-1.813S8.612,19.472,6.935,21.083z
	 M7.248,9.791h6.379V3.175c-1.857,0.571-3.376,1.772-4.412,3.444L7.248,9.791z M32.655,21.083c-1.042,1.001-1.042,2.626,0,3.628
	c1.676,1.611,4.556,0.466,4.556-1.813S34.331,19.472,32.655,21.083z"/>
<path fill="#676767" d="M112.452,9.07h29.014l1.459-1.479c0.214-0.217,0.562-0.217,0.775,0s0.215,0.568,0,0.785l-11.389,11.551
	l8.527,8.646l3.166-3.211c0.218-0.214,0.565-0.208,0.775,0.014c0.205,0.215,0.205,0.557,0,0.771l-2.185,2.216v9.056
	c0,0.308-0.245,0.557-0.548,0.557h-9.704l-1.97,1.997c-0.3,0.308-0.708,0.481-1.135,0.485h-0.042c-0.433,0-0.848-0.174-1.151-0.486
	c-0.146-0.148-0.264-0.323-0.346-0.516c-0.247,0.142-0.525,0.217-0.81,0.215c-0.657,0.006-1.255-0.389-1.516-1
	c-0.246,0.143-0.525,0.217-0.809,0.215c-0.438-0.002-0.856-0.176-1.171-0.484c-0.133-0.136-0.242-0.293-0.323-0.466
	c-0.597,0.508-1.461,0.524-2.075,0.04h-8.545c-0.303,0-0.548-0.249-0.548-0.557V9.626C111.904,9.319,112.149,9.07,112.452,9.07
	 M125.057,15.74h4.386v-5.559h-4.386V15.74z M141.5,36.863v-7.389l-0.274,0.278c-0.214,0.217-0.561,0.217-0.774,0l-0.775-0.787
	l-0.144,0.146c-0.344,0.35-0.59,0.785-0.713,1.264l-0.097,0.377c-0.172,0.668-0.518,1.278-0.999,1.768l-4.285,4.343H141.5z
	 M122.017,37.218c0.142-0.004,0.277-0.061,0.38-0.159l1-1.017c0.216-0.217,0.563-0.217,0.776,0c0.215,0.217,0.215,0.568,0.001,0.785
	c-0.215,0.217-0.215,0.569,0,0.786c0.104,0.106,0.247,0.166,0.396,0.16c0.142-0.003,0.277-0.06,0.38-0.16l0.774-0.784
	c0.221-0.211,0.568-0.199,0.775,0.024c0.197,0.214,0.197,0.547-0.001,0.76c-0.213,0.218-0.213,0.568,0,0.785
	c0.105,0.103,0.248,0.159,0.395,0.159c0.145,0.009,0.285-0.049,0.381-0.159l0.774-0.785c0.215-0.217,0.562-0.217,0.775,0
	c0.215,0.218,0.215,0.569,0.001,0.787c-0.215,0.216-0.215,0.567,0,0.786c0.102,0.109,0.246,0.167,0.395,0.158
	c0.143,0,0.279-0.057,0.38-0.158l7.345-7.452c0.344-0.351,0.589-0.784,0.712-1.263l0.098-0.377c0.172-0.668,0.517-1.279,0.999-1.768
	l0.143-0.146l-5.808-5.896l-0.553,0.561c-0.218,0.221-0.493,0.375-0.794,0.443L129,23.927c-1.887,0.443-3.56,1.545-4.726,3.113
	l-2.8,3.772l0.051,0.051c0.203,0.209,0.483,0.327,0.774,0.326c0.291,0,0.569-0.117,0.774-0.326l1.37-1.39
	c0.252-0.258,0.596-0.402,0.952-0.402c0.763,0.006,1.375,0.637,1.371,1.408c-0.003,0.367-0.147,0.718-0.402,0.979l-4.704,4.771
	c-0.22,0.207-0.253,0.547-0.078,0.793C121.694,37.146,121.852,37.218,122.017,37.218 M113,36.863h7.39
	c-0.053-0.526,0.131-1.048,0.501-1.422l4.704-4.771c0.051-0.053,0.081-0.125,0.081-0.199c-0.002-0.082-0.037-0.159-0.096-0.215
	c-0.099-0.101-0.258-0.101-0.356,0l-1.37,1.39c-0.41,0.418-0.968,0.653-1.55,0.651c-0.581,0.002-1.14-0.232-1.549-0.651
	l-0.388-0.392c-0.193-0.197-0.215-0.508-0.051-0.729l3.087-4.158c1.321-1.777,3.217-3.025,5.355-3.525l2.74-0.637
	c0.101-0.024,0.192-0.076,0.266-0.15l0.553-0.561l-1.163-1.18c-0.214-0.217-0.214-0.568,0-0.786l9.216-9.347h-9.831v6.113
	c0,0.308-0.246,0.557-0.549,0.557h-5.48c-0.303,0-0.548-0.249-0.548-0.557v-6.113H113V36.863z"/>
<path fill="none" stroke="#FFFFFF" stroke-width="0.25" stroke-miterlimit="10" d="M112.452,9.07h29.014l1.459-1.479
	c0.214-0.217,0.562-0.217,0.775,0s0.215,0.568,0,0.785l-11.389,11.551l8.527,8.646l3.166-3.211c0.218-0.214,0.565-0.208,0.775,0.014
	c0.205,0.215,0.205,0.557,0,0.771l-2.185,2.216v9.056c0,0.308-0.245,0.557-0.548,0.557h-9.704l-1.97,1.997
	c-0.3,0.308-0.708,0.481-1.135,0.485h-0.042c-0.433,0-0.848-0.174-1.151-0.486c-0.146-0.148-0.264-0.323-0.346-0.516
	c-0.247,0.142-0.525,0.217-0.81,0.215c-0.657,0.006-1.255-0.389-1.516-1c-0.246,0.143-0.525,0.217-0.809,0.215
	c-0.438-0.002-0.856-0.176-1.171-0.484c-0.133-0.136-0.242-0.293-0.323-0.466c-0.597,0.508-1.461,0.524-2.075,0.04h-8.545
	c-0.303,0-0.548-0.249-0.548-0.557V9.626C111.904,9.319,112.149,9.07,112.452,9.07z M125.057,15.74h4.386v-5.559h-4.386V15.74z
	 M141.5,36.863v-7.389l-0.274,0.278c-0.214,0.217-0.561,0.217-0.774,0l-0.775-0.787l-0.144,0.146
	c-0.344,0.35-0.59,0.785-0.713,1.264l-0.097,0.377c-0.172,0.668-0.518,1.278-0.999,1.768l-4.285,4.343H141.5z M122.017,37.218
	c0.142-0.004,0.277-0.061,0.38-0.159l1-1.017c0.216-0.217,0.563-0.217,0.776,0c0.215,0.217,0.215,0.568,0.001,0.785
	c-0.215,0.217-0.215,0.569,0,0.786c0.104,0.106,0.247,0.166,0.396,0.16c0.142-0.003,0.277-0.06,0.38-0.16l0.774-0.784
	c0.221-0.211,0.568-0.199,0.775,0.024c0.197,0.214,0.197,0.547-0.001,0.76c-0.213,0.218-0.213,0.568,0,0.785
	c0.105,0.103,0.248,0.159,0.395,0.159c0.145,0.009,0.285-0.049,0.381-0.159l0.774-0.785c0.215-0.217,0.562-0.217,0.775,0
	c0.215,0.218,0.215,0.569,0.001,0.787c-0.215,0.216-0.215,0.567,0,0.786c0.102,0.109,0.246,0.167,0.395,0.158
	c0.143,0,0.279-0.057,0.38-0.158l7.345-7.452c0.344-0.351,0.589-0.784,0.712-1.263l0.098-0.377c0.172-0.668,0.517-1.279,0.999-1.768
	l0.143-0.146l-5.808-5.896l-0.553,0.561c-0.218,0.221-0.493,0.375-0.794,0.443L129,23.927c-1.887,0.443-3.56,1.545-4.726,3.113
	l-2.8,3.772l0.051,0.051c0.203,0.209,0.483,0.327,0.774,0.326c0.291,0,0.569-0.117,0.774-0.326l1.37-1.39
	c0.252-0.258,0.596-0.402,0.952-0.402c0.763,0.006,1.375,0.637,1.371,1.408c-0.003,0.367-0.147,0.718-0.402,0.979l-4.704,4.771
	c-0.22,0.207-0.253,0.547-0.078,0.793C121.694,37.146,121.852,37.218,122.017,37.218z M113,36.863h7.39
	c-0.053-0.526,0.131-1.048,0.501-1.422l4.704-4.771c0.051-0.053,0.081-0.125,0.081-0.199c-0.002-0.082-0.037-0.159-0.096-0.215
	c-0.099-0.101-0.258-0.101-0.356,0l-1.37,1.39c-0.41,0.418-0.968,0.653-1.55,0.651c-0.581,0.002-1.14-0.232-1.549-0.651
	l-0.388-0.392c-0.193-0.197-0.215-0.508-0.051-0.729l3.087-4.158c1.321-1.777,3.217-3.025,5.355-3.525l2.74-0.637
	c0.101-0.024,0.192-0.076,0.266-0.15l0.553-0.561l-1.163-1.18c-0.214-0.217-0.214-0.568,0-0.786l9.216-9.347h-9.831v6.113
	c0,0.308-0.246,0.557-0.549,0.557h-5.48c-0.303,0-0.548-0.249-0.548-0.557v-6.113H113V36.863z"/>
<path fill="none" stroke="#FFFFFF" stroke-miterlimit="10" d="M231.307-35.995h-24.189c-1.971,0-3.574,1.603-3.574,3.573v28.493
	c0,1.971,1.604,3.574,3.574,3.574h24.189V-35.995z M207.118-33.907h0.749v26.405h-0.749c-0.53,0-1.033,0.116-1.486,0.324v-25.244
	C205.631-33.241,206.298-33.907,207.118-33.907z M229.218-2.443h-22.101c-0.819,0-1.486-0.667-1.486-1.486
	c0-0.819,0.667-1.485,1.486-1.485h22.101V-2.443z M209.955-33.907h19.264v26.405h-19.264V-33.907z"/>
<rect x="213.087" y="-30.607" fill="#676767" width="12.998" height="2.088"/>
<rect x="213.087" y="-30.607" fill="none" stroke="#FFFFFF" stroke-miterlimit="10" width="12.998" height="2.088"/>
<rect x="214.812" y="-26.569" fill="#676767" width="9.549" height="2.088"/>
<rect x="214.812" y="-26.569" fill="none" stroke="#FFFFFF" stroke-miterlimit="10" width="9.549" height="2.088"/>
<path fill="#676767" d="M229.307,204.005h-24.189c-1.971,0-3.574,1.604-3.574,3.572v28.494c0,1.971,1.604,3.574,3.574,3.574h24.189
	V204.005z M205.118,206.093h0.749v26.404h-0.749c-0.53,0-1.033,0.117-1.486,0.324v-25.244
	C203.631,206.759,204.298,206.093,205.118,206.093 M227.218,237.558h-22.101c-0.819,0-1.486-0.668-1.486-1.486
	c0-0.82,0.667-1.484,1.486-1.484h22.101V237.558z M207.955,206.093h19.264v26.404h-19.264V206.093z"/>
<path fill="none" stroke="#FFFFFF" stroke-miterlimit="10" d="M229.307,204.005h-24.189c-1.971,0-3.574,1.604-3.574,3.572v28.494
	c0,1.971,1.604,3.574,3.574,3.574h24.189V204.005z M205.118,206.093h0.749v26.404h-0.749c-0.53,0-1.033,0.117-1.486,0.324v-25.244
	C203.631,206.759,204.298,206.093,205.118,206.093z M227.218,237.558h-22.101c-0.819,0-1.486-0.668-1.486-1.486
	c0-0.82,0.667-1.484,1.486-1.484h22.101V237.558z M207.955,206.093h19.264v26.404h-19.264V206.093z"/>
<rect x="211.087" y="209.394" fill="#676767" width="12.998" height="2.088"/>
<rect x="211.087" y="209.394" fill="none" stroke="#FFFFFF" stroke-miterlimit="10" width="12.998" height="2.088"/>
<rect x="212.812" y="213.431" fill="#676767" width="9.549" height="2.088"/>
<rect x="212.812" y="213.431" fill="none" stroke="#FFFFFF" stroke-miterlimit="10" width="9.549" height="2.088"/>
<path fill-rule="evenodd" clip-rule="evenodd" fill="#FFFFFF" d="M477.64-0.6c0,1.011-0.836,1.839-1.855,1.839h-21.656
	c-1.021,0-1.856-0.828-1.856-1.839v-30.644c0-1.011,0.836-1.838,1.856-1.838H470.9l6.441,6.864L477.64-0.6z"/>
<path fill="none" stroke="#808081" stroke-miterlimit="10" d="M477.64-0.6c0,1.011-0.836,1.839-1.855,1.839h-21.656
	c-1.021,0-1.856-0.828-1.856-1.839v-30.644c0-1.011,0.836-1.838,1.856-1.838H470.9l6.441,6.864L477.64-0.6z"/>
<polyline fill="none" stroke="#808081" stroke-miterlimit="10" points="470.776,-32.784 470.776,-26.219 477.341,-26.219 "/>
<path fill="#FFFFFF" d="M464.854-6.364c0,6.279,5.09,11.369,11.368,11.369c6.279,0,11.369-5.09,11.369-11.369
	c0-6.279-5.09-11.369-11.369-11.369C469.944-17.733,464.854-12.643,464.854-6.364"/>
<circle fill="none" stroke="#808081" stroke-miterlimit="10" cx="476.223" cy="-6.364" r="11.369"/>
<polyline fill="none" stroke="#83B341" stroke-width="2" stroke-miterlimit="10" points="470.872,-6.025 474.132,-2.293 
	481.874,-10.052 "/>
<path fill="#FFFFFF" d="M217.094-6.364c0,6.279,5.091,11.369,11.369,11.369s11.368-5.09,11.368-11.369
	c0-6.279-5.09-11.369-11.368-11.369S217.094-12.643,217.094-6.364"/>
<circle fill="none" stroke="#808081" stroke-miterlimit="10" cx="228.463" cy="-6.364" r="11.369"/>
<polyline fill="none" stroke="#83B341" stroke-width="2" stroke-miterlimit="10" points="223.112,-6.025 226.374,-2.293 
	234.115,-10.052 "/>
<path fill="#FFFFFF" d="M109.997-22.667c0,6.584,5.338,11.922,11.923,11.922c6.584,0,11.922-5.338,11.922-11.922
	s-5.338-11.922-11.922-11.922C115.334-34.589,109.997-29.251,109.997-22.667"/>
<circle fill="none" stroke="#808081" stroke-miterlimit="10" cx="121.919" cy="-22.667" r="11.922"/>
<polyline fill="none" stroke="#83B341" stroke-width="2" stroke-miterlimit="10" points="116.307,-22.312 119.728,-18.397 
	127.845,-26.535 "/>
<path fill="#FFFFFF" d="M102.245,44.003c0,6.584,5.337,11.922,11.922,11.922c6.584,0,11.923-5.338,11.923-11.922
	s-5.339-11.922-11.923-11.922C107.582,32.081,102.245,37.419,102.245,44.003"/>
<circle fill="none" stroke="#808081" stroke-miterlimit="10" cx="114.167" cy="46.791" r="11.922"/>
<polyline fill="none" stroke="#83B341" stroke-width="2" stroke-miterlimit="10" points="109.113,28.167 112.533,32.081 
	120.65,23.942 "/>
<path fill="none" stroke="#4E4E4E" stroke-width="0.5" stroke-miterlimit="10" d="M326.674-25.747h6.979
	c0.736,0,1.332-0.596,1.332-1.332v-9.949h-9.642v9.949C325.343-26.342,325.939-25.747,326.674-25.747z"/>
<rect x="331.64" y="-34.357" fill="none" stroke="#4E4E4E" stroke-width="0.5" stroke-miterlimit="10" width="0.994" height="1.074"/>
<rect x="329.654" y="-34.357" fill="none" stroke="#4E4E4E" stroke-width="0.5" stroke-miterlimit="10" width="0.993" height="1.074"/>
<rect x="327.667" y="-34.357" fill="none" stroke="#4E4E4E" stroke-width="0.5" stroke-miterlimit="10" width="0.994" height="1.074"/>
<rect x="327.667" y="-32.567" fill="none" stroke="#4E4E4E" stroke-width="0.5" stroke-miterlimit="10" width="0.994" height="1.074"/>
<rect x="329.654" y="-32.567" fill="none" stroke="#4E4E4E" stroke-width="0.5" stroke-miterlimit="10" width="0.993" height="1.074"/>
<rect x="331.64" y="-32.567" fill="none" stroke="#4E4E4E" stroke-width="0.5" stroke-miterlimit="10" width="0.994" height="1.074"/>
<rect x="326.673" y="-35.237" fill="none" stroke="#4E4E4E" stroke-width="0.5" stroke-miterlimit="10" width="6.954" height="4.845"/>
<path fill="none" stroke="#4E4E4E" stroke-width="0.25" stroke-miterlimit="10" d="M333.745-28.63h-6.89
	c-0.242,0-0.44-0.198-0.44-0.44c0-0.243,0.198-0.441,0.44-0.441h6.89c0.242,0,0.44,0.198,0.44,0.441
	C334.185-28.828,333.987-28.63,333.745-28.63z"/>
<path fill="none" stroke="#4E4E4E" stroke-width="0.25" stroke-miterlimit="10" d="M333.065-26.781h0.243
	c0.176,0,0.318-0.144,0.318-0.319v-0.243c0-0.176-0.143-0.319-0.318-0.319h-0.243c-0.175,0-0.318,0.143-0.318,0.319v0.243
	C332.747-26.925,332.89-26.781,333.065-26.781z"/>
<path fill="none" stroke="#4E4E4E" stroke-width="0.25" stroke-miterlimit="10" d="M339.39-17.726h2.064
	c0.251,0,0.457,0.181,0.457,0.402v0.034c0,0.22-0.206,0.401-0.457,0.401h-2.064c-0.252,0-0.458-0.181-0.458-0.401v-0.034
	C338.932-17.545,339.138-17.726,339.39-17.726z"/>
<path fill="#FFFFFF" d="M339.366-19.592h13.884c0.449,0,0.816-0.411,0.816-0.912v-7.98c0-0.502-0.367-0.912-0.816-0.912h-13.884
	c-0.449,0-0.817,0.41-0.817,0.912v7.98C338.548-20.002,338.917-19.592,339.366-19.592"/>
<path fill="none" stroke="#4E4E4E" stroke-width="0.5" stroke-miterlimit="10" d="M339.366-19.592h13.884
	c0.449,0,0.816-0.411,0.816-0.912v-7.98c0-0.502-0.367-0.912-0.816-0.912h-13.884c-0.449,0-0.817,0.41-0.817,0.912v7.98
	C338.548-20.002,338.917-19.592,339.366-19.592z"/>
<path fill="none" stroke="#4E4E4E" stroke-width="0.5" stroke-miterlimit="10" d="M349.138-27.082l-3.136,0.616
	c-0.245,0.043-0.854,0.211-0.854,0.469v0.878c0,0.258,0.203,0.469,0.452,0.469h8.255v-3.138c0-0.039-0.002-0.077-0.006-0.115
	l-4.37,0.761L349.138-27.082z"/>
<path fill="none" stroke="#4E4E4E" stroke-width="0.5" stroke-miterlimit="10" d="M313.705,1.901h44.34c0.55,0,1-0.45,1-1v-22.227
	c0-0.55-0.45-1-1-1h-45.34V0.9C312.705,1.451,313.155,1.901,313.705,1.901z"/>
<path fill="none" stroke="#4E4E4E" stroke-width="0.5" stroke-miterlimit="10" d="M328.389-24.512h2.89v-2.176
	c0-0.227-0.187-0.413-0.414-0.413h-2.062c-0.228,0-0.414,0.186-0.414,0.413V-24.512z"/>
<polygon fill="none" stroke="#4E4E4E" stroke-width="0.5" stroke-miterlimit="10" points="334.949,1.901 334.949,1.901 
	334.949,-23.856 334.949,-24.309 "/>
<path fill="none" stroke="#4E4E4E" stroke-width="0.5" stroke-miterlimit="10" d="M354.419-20.981h0.01
	c0.543,0,0.987,0.389,0.987,0.863v5.949c0,0.475-0.444,0.863-0.987,0.863h-19.686"/>
<polygon fill="none" stroke="#4E4E4E" stroke-width="0.5" stroke-miterlimit="10" points="331.852,-13.999 331.852,-13.999 
	317.046,-13.999 "/>
<polygon fill="none" stroke="#4E4E4E" stroke-width="0.5" stroke-miterlimit="10" points="334.949,-8.671 334.949,-8.671 
	312.691,-8.671 "/>
<polygon fill="none" stroke="#4E4E4E" stroke-width="0.5" stroke-miterlimit="10" points="334.949,-19.364 334.949,-19.364 
	312.691,-19.364 "/>
<polygon fill="none" stroke="#4E4E4E" stroke-width="0.5" stroke-miterlimit="10" points="358.514,-9.745 358.981,-9.745 
	335.209,-9.745 334.743,-9.745 "/>
<polygon fill="none" stroke="#4E4E4E" stroke-width="0.5" stroke-miterlimit="10" points="358.514,-3.556 358.981,-3.556 
	335.209,-3.556 334.743,-3.556 "/>
<polygon fill="none" stroke="#4E4E4E" stroke-width="0.5" stroke-miterlimit="10" points="356.127,-6.91 356.127,-6.91 
	338.934,-6.91 "/>
<polygon fill="none" stroke="#4E4E4E" stroke-width="0.5" stroke-miterlimit="10" points="356.149,-1.314 356.149,-1.314 
	338.956,-1.314 "/>
<path fill="none" stroke="#4E4E4E" stroke-width="0.25" stroke-miterlimit="10" d="M337.435-6.469L337.435-6.469
	c0.243,0,0.441-0.198,0.441-0.441c0-0.242-0.198-0.44-0.441-0.44c-0.242,0-0.44,0.198-0.44,0.44
	C336.995-6.667,337.193-6.469,337.435-6.469z"/>
<path fill="none" stroke="#4E4E4E" stroke-width="0.25" stroke-miterlimit="10" d="M315.495-13.614L315.495-13.614
	c0.273,0,0.496-0.223,0.496-0.496c0-0.272-0.223-0.495-0.496-0.495c-0.272,0-0.495,0.223-0.495,0.495
	C315-13.837,315.222-13.614,315.495-13.614z"/>
<path fill="none" stroke="#4E4E4E" stroke-width="0.25" stroke-miterlimit="10" d="M315.495-3.634L315.495-3.634
	c0.273,0,0.496-0.223,0.496-0.496c0-0.273-0.223-0.495-0.496-0.495c-0.272,0-0.495,0.222-0.495,0.495
	C315-3.856,315.222-3.634,315.495-3.634z"/>
<polygon fill="none" stroke="#4E4E4E" stroke-width="0.5" stroke-miterlimit="10" points="331.852,-3.969 331.852,-3.969 
	317.046,-3.969 "/>
<path fill="none" stroke="#4E4E4E" stroke-width="0.25" stroke-miterlimit="10" d="M336.996-1.293L336.996-1.293
	c0.012,0.242,0.219,0.431,0.461,0.419c0.241-0.011,0.431-0.218,0.419-0.461c-0.012-0.241-0.219-0.43-0.461-0.418
	C337.172-1.742,336.984-1.535,336.996-1.293z"/>
<path fill="none" stroke="#4E4E4E" stroke-width="0.5" stroke-miterlimit="10" d="M359.023-17.189l3.626-1.318l2.116-2.249
	l2.754-1.528c0.306-0.17,0.653-0.022,0.905,0.209l0.416,0.381c0.252,0.231,0.074,0.615-0.214,0.811l-2.751,1.875l-6.831,8.13"/>
<path fill="none" stroke="#4E4E4E" stroke-width="0.5" stroke-miterlimit="10" d="M367.602-26.995
	c0.048-0.116,0.051-0.251-0.003-0.375l-0.042-0.096c-0.105-0.243-0.392-0.355-0.634-0.249l-7.53,3.279
	c-0.24,0.105-0.353,0.385-0.253,0.627c0.002,0.002,0.003,0.005,0.004,0.007l0.041,0.096c0.105,0.242,0.392,0.355,0.634,0.249
	l7.53-3.279C367.468-26.788,367.556-26.883,367.602-26.995z"/>
<path fill="none" stroke="#4E4E4E" stroke-width="0.5" stroke-miterlimit="10" d="M359.254-21.658l3.341-1.627
	c0.151-0.06,0.185-0.277,0.089-0.409l-0.006-0.007l-0.012-0.022l-1.477-2.525c-0.082-0.14-0.26-0.155-0.408-0.089l-3.207,1.432
	l-1.5,0.67c-0.148,0.067-0.121,0.25-0.089,0.409l0.156,1.541"/>
<path fill="none" stroke="#4E4E4E" stroke-width="0.5" stroke-miterlimit="10" d="M358.879-8.398h0.056h3.441
	c0.036,0,0.072-0.003,0.106-0.01l0.278-0.145l4.234-2.216c0.227-0.117,0.343-0.401,0.156-0.561l-0.306-0.263
	c-0.187-0.16-0.431-0.239-0.665-0.133l-3.906,1.774h-3.396"/>
<path fill="none" stroke="#4E4E4E" stroke-width="0.5" stroke-miterlimit="10" d="M312.734-18.332v-4.403
	c0-0.911,0.745-1.656,1.655-1.656h24.274"/>
<path fill="#FFFFFF" d="M352.659-17.779c0,5.824,4.722,10.546,10.546,10.546s10.546-4.722,10.546-10.546
	c0-5.824-4.722-10.546-10.546-10.546S352.659-23.603,352.659-17.779"/>
<circle fill="none" stroke="#808081" stroke-miterlimit="10" cx="363.205" cy="-17.779" r="10.546"/>
<rect x="-485.336" y="-323.995" fill="none" width="1040" height="650.018"/>
</svg>
