<?xml version="1.0" encoding="utf-8"?>
<!-- Generator: Adobe Illustrator 24.1.3, SVG Export Plug-In . SVG Version: 6.00 Build 0)  -->
<svg version="1.1" id="Layer_1" xmlns="http://www.w3.org/2000/svg" xmlns:xlink="http://www.w3.org/1999/xlink" x="0px" y="0px"
	 viewBox="0 0 77 70" style="enable-background:new 0 0 77 70;" xml:space="preserve">
<style type="text/css">
	.st0{fill:#666666;stroke:#FFFFFF;stroke-width:0.75;stroke-miterlimit:10;}
</style>
<g id="Delivery-3_1_">
	<path class="st0" d="M5.2,3.22h57.98l2.92-2.96c0.43-0.43,1.12-0.43,1.55,0s0.43,1.14,0,1.57L44.89,24.91l17.04,17.28l6.33-6.42
		c0.44-0.43,1.13-0.41,1.55,0.03c0.41,0.43,0.41,1.11,0,1.54l-4.36,4.43v18.1c0,0.61-0.49,1.11-1.1,1.11H44.95l-3.93,3.99
		c-0.6,0.62-1.41,0.96-2.27,0.97h-0.09c-0.86,0-1.69-0.35-2.3-0.97c-0.29-0.3-0.53-0.65-0.69-1.03c-0.49,0.28-1.05,0.43-1.62,0.43
		c-1.31,0.01-2.51-0.78-3.03-2c-0.49,0.29-1.05,0.43-1.62,0.43c-0.87-0.01-1.71-0.35-2.34-0.97c-0.27-0.27-0.48-0.58-0.65-0.93
		c-1.19,1.01-2.92,1.05-4.15,0.08H5.2c-0.6,0-1.1-0.5-1.1-1.11V4.33C4.11,3.72,4.6,3.22,5.2,3.22z M30.39,5.44v11.11h8.76V5.44
		H30.39z M63.25,58.75V43.99l-0.55,0.56c-0.43,0.43-1.12,0.43-1.55,0l-1.55-1.57l-0.29,0.29c-0.69,0.7-1.18,1.57-1.42,2.52
		l-0.19,0.75c-0.34,1.34-1.03,2.56-2,3.53l-8.56,8.68H63.25z M24.32,59.46c0.28-0.01,0.55-0.12,0.76-0.32l2-2.03l0,0
		c0.43-0.43,1.12-0.43,1.55,0c0.43,0.43,0.43,1.14,0,1.57c-0.43,0.43-0.43,1.14,0,1.57c0.21,0.21,0.49,0.33,0.79,0.32
		c0.28,0,0.55-0.12,0.76-0.32l1.55-1.57c0.44-0.42,1.13-0.4,1.55,0.05c0.4,0.43,0.39,1.09,0,1.52l0,0c-0.43,0.43-0.43,1.13,0,1.57
		c0.21,0.2,0.5,0.32,0.79,0.32c0.29,0.02,0.57-0.1,0.76-0.32l1.55-1.57c0.43-0.43,1.12-0.43,1.55,0c0.43,0.43,0.43,1.14,0,1.57
		c-0.43,0.43-0.43,1.14,0,1.57c0.2,0.22,0.49,0.34,0.79,0.32c0.28,0,0.56-0.12,0.76-0.32l14.68-14.89c0.69-0.7,1.18-1.57,1.42-2.52
		l0.19-0.75c0.34-1.34,1.03-2.56,2-3.53l0.29-0.29L46.44,29.62l-1.1,1.12c-0.44,0.44-0.99,0.75-1.59,0.89l-5.48,1.28
		c-3.77,0.88-7.11,3.09-9.44,6.22l-5.6,7.54l0.1,0.1c0.41,0.42,0.97,0.65,1.55,0.65l0,0c0.58,0,1.14-0.23,1.55-0.65l2.74-2.78
		c0.5-0.52,1.19-0.8,1.9-0.8l0,0c1.52,0.01,2.75,1.27,2.74,2.81c0,0.73-0.29,1.44-0.8,1.95l-9.4,9.53c-0.44,0.41-0.5,1.09-0.16,1.58
		l0,0C23.67,59.32,23.99,59.46,24.32,59.46z M6.3,58.75h14.76c-0.1-1.05,0.26-2.1,1-2.84l9.4-9.53c0.1-0.11,0.16-0.25,0.16-0.4
		c0-0.16-0.07-0.32-0.19-0.43c-0.2-0.2-0.51-0.2-0.71,0l-2.74,2.78c-0.82,0.84-1.93,1.31-3.1,1.3l0,0c-1.16,0-2.28-0.47-3.1-1.3
		l-0.77-0.79c-0.39-0.39-0.43-1.01-0.1-1.45l6.17-8.31c2.64-3.55,6.43-6.05,10.7-7.05l5.48-1.27c0.2-0.05,0.39-0.15,0.53-0.3
		l1.1-1.12l-2.32-2.36c-0.43-0.43-0.43-1.14,0-1.57L60.99,5.44H41.34v12.22c0,0.61-0.49,1.11-1.1,1.11H29.3c-0.6,0-1.1-0.5-1.1-1.11
		V5.44H6.3V58.75z"/>
</g>
</svg>
