<?xml version="1.0" encoding="utf-8"?>
<!-- Generator: Adobe Illustrator 16.0.0, SVG Export Plug-In . SVG Version: 6.00 Build 0)  -->
<!DOCTYPE svg PUBLIC "-//W3C//DTD SVG 1.1//EN" "http://www.w3.org/Graphics/SVG/1.1/DTD/svg11.dtd">
<svg version="1.1" id="Layer_1" xmlns="http://www.w3.org/2000/svg" xmlns:xlink="http://www.w3.org/1999/xlink" x="0px" y="0px"
	 width="53.771px" height="32.583px" viewBox="0 0 53.771 32.583" enable-background="new 0 0 53.771 32.583" xml:space="preserve">
<path fill-rule="evenodd" clip-rule="evenodd" fill="#333333" d="M21.526,24.273h16.165c1.83-5.388,9.465-5.336,11.277,0h1.352
	v-7.766c0-0.968-0.793-1.761-1.76-1.761H36.65c-0.857,0-1.555-0.696-1.555-1.553v-9.32H8.483v1.864h2.856
	c2.045,0,2.045,3.106,0,3.106H8.483v3.003h7.456c2.045,0,2.045,3.107,0,3.107H8.483v9.32h1.765
	C12.078,18.884,19.714,18.938,21.526,24.273 M5.376,8.843H3.513c-2.046,0-2.046-3.106,0-3.106h1.863V2.319
	c0-0.857,0.696-1.553,1.554-1.553c2.377,0,28.503,0.01,28.503,0c4.252,0,7.955,2.105,10.137,5.763l3.045,5.111
	c2.658,0.03,4.811,2.204,4.811,4.866v9.32c0,0.858-0.695,1.554-1.553,1.554h-2.709c-0.555,2.742-2.979,4.764-5.834,4.764
	c-2.857,0-5.279-2.021-5.836-4.764H21.722c-0.556,2.742-2.979,4.764-5.835,4.764s-5.278-2.021-5.835-4.764H6.93
	c-0.858,0-1.554-0.695-1.554-1.554v-4.659H1.959c-2.045,0-2.045-3.106,0-3.106h3.417v-3.107H1.959c-2.045,0-2.045-3.107,0-3.107
	h3.417V8.843z M45.344,24.175c1.111,1.113,1.111,2.916,0,4.027c-1.789,1.789-4.861,0.516-4.861-2.013
	C40.482,23.658,43.555,22.386,45.344,24.175 M45.01,11.639h-6.807V4.294c1.982,0.635,3.602,1.968,4.709,3.824L45.01,11.639z
	 M17.901,24.175c1.112,1.113,1.112,2.916,0,4.027c-1.789,1.789-4.862,0.516-4.862-2.013C13.041,23.658,16.112,22.386,17.901,24.175"
	/>
</svg>
