<?xml version="1.0" encoding="utf-8"?>
<!-- Generator: Adobe Illustrator 16.0.0, SVG Export Plug-In . SVG Version: 6.00 Build 0)  -->
<!DOCTYPE svg PUBLIC "-//W3C//DTD SVG 1.1//EN" "http://www.w3.org/Graphics/SVG/1.1/DTD/svg11.dtd">
<svg version="1.1" id="Layer_1" xmlns="http://www.w3.org/2000/svg" xmlns:xlink="http://www.w3.org/1999/xlink" x="0px" y="0px"
	 width="15.526px" height="13.994px" viewBox="0 0 15.526 13.994" enable-background="new 0 0 15.526 13.994" xml:space="preserve">
<path fill="#989898" d="M14.714,6.997c-0.234,0-0.422,0.187-0.422,0.422v3.839c0,1.045-0.851,1.892-1.892,1.892H3.14
	c-1.044,0-1.892-0.851-1.892-1.892V7.357c0-0.235-0.188-0.422-0.422-0.422S0.405,7.122,0.405,7.357v3.901
	c0,1.51,1.229,2.735,2.735,2.735h9.261c1.511,0,2.736-1.228,2.736-2.735V7.419C15.137,7.188,14.949,6.997,14.714,6.997"/>
<path fill="#989898" d="M5.385,3.746l1.964-1.963v8.563c0,0.233,0.188,0.422,0.422,0.422s0.422-0.188,0.422-0.422V1.783l1.964,1.963
	c0.082,0.082,0.19,0.125,0.297,0.125c0.109,0,0.216-0.041,0.297-0.125c0.165-0.166,0.165-0.432,0-0.597L8.068,0.466
	C7.989,0.388,7.88,0.341,7.771,0.341c-0.112,0-0.219,0.044-0.297,0.125L4.792,3.149c-0.166,0.165-0.166,0.431,0,0.597
	C4.954,3.909,5.223,3.909,5.385,3.746"/>
</svg>
