<?xml version="1.0" encoding="utf-8"?>
<!-- Generator: Adobe Illustrator 16.0.0, SVG Export Plug-In . SVG Version: 6.00 Build 0)  -->
<!DOCTYPE svg PUBLIC "-//W3C//DTD SVG 1.1//EN" "http://www.w3.org/Graphics/SVG/1.1/DTD/svg11.dtd">
<svg version="1.1" id="Layer_1" xmlns="http://www.w3.org/2000/svg" xmlns:xlink="http://www.w3.org/1999/xlink" x="0px" y="0px"
	 width="20.13px" height="19.295px" viewBox="0 0 20.13 19.295" enable-background="new 0 0 20.13 19.295" xml:space="preserve">
<path fill="#4D4D4D" d="M11.585,0.094c-0.1-0.081-0.23-0.112-0.355-0.084L0.325,2.526C0.133,2.572-0.002,2.743,0,2.939v14.26
	c0,0.207,0.151,0.383,0.356,0.415l10.904,1.677c0.229,0.035,0.443-0.122,0.478-0.351c0.003-0.021,0.005-0.043,0.005-0.063V0.423
	C11.743,0.295,11.685,0.174,11.585,0.094"/>
<path fill="#4D4D4D" d="M19.711,17.619h-8.388c-0.232,0-0.42-0.188-0.42-0.419c0-0.232,0.188-0.421,0.42-0.421h7.969V2.52h-7.969
	c-0.232,0-0.42-0.188-0.42-0.42c0-0.231,0.188-0.419,0.42-0.419h8.388c0.231,0,0.419,0.188,0.419,0.419v15.1
	C20.13,17.43,19.942,17.619,19.711,17.619"/>
<path fill="#FAFAFA" d="M7.129,13.424c-0.187,0-0.351-0.124-0.402-0.304L5.452,8.66l-1.275,4.461
	c-0.091,0.223-0.347,0.328-0.569,0.236c-0.107-0.044-0.192-0.129-0.237-0.236L1.693,7.249c-0.07-0.221,0.052-0.455,0.272-0.526
	c0.221-0.07,0.457,0.052,0.527,0.272C2.496,7.003,2.498,7.01,2.5,7.018l1.275,4.46l1.275-4.46c0.092-0.223,0.347-0.329,0.57-0.237
	C5.727,6.825,5.812,6.91,5.855,7.018l1.274,4.46l1.275-4.46c0.06-0.22,0.288-0.35,0.509-0.29C8.917,6.729,8.919,6.73,8.922,6.731
	C9.146,6.795,9.274,7.027,9.21,7.249l-1.678,5.872C7.481,13.3,7.316,13.424,7.129,13.424"/>
<path fill="#4D4D4D" d="M18.034,5.037h-6.71c-0.232,0-0.42-0.188-0.42-0.419c0-0.232,0.188-0.42,0.42-0.42h6.71
	c0.231,0,0.419,0.188,0.419,0.42C18.453,4.849,18.265,5.037,18.034,5.037"/>
<path fill="#4D4D4D" d="M18.034,7.553h-6.71c-0.232,0-0.42-0.188-0.42-0.419c0-0.232,0.188-0.421,0.42-0.421h6.71
	c0.231,0,0.419,0.188,0.419,0.421C18.453,7.365,18.265,7.553,18.034,7.553"/>
<path fill="#4D4D4D" d="M18.034,10.069h-6.71c-0.232,0-0.42-0.188-0.42-0.419s0.188-0.42,0.42-0.42h6.71
	c0.231,0,0.419,0.188,0.419,0.42C18.453,9.882,18.265,10.069,18.034,10.069"/>
<path fill="#4D4D4D" d="M18.034,12.585h-6.71c-0.232,0-0.42-0.188-0.42-0.419c0-0.232,0.188-0.42,0.42-0.42h6.71
	c0.231,0,0.419,0.188,0.419,0.42C18.453,12.398,18.265,12.585,18.034,12.585"/>
<path fill="#4D4D4D" d="M18.034,15.102h-6.71c-0.232,0-0.42-0.188-0.42-0.419c0-0.232,0.188-0.421,0.42-0.421h6.71
	c0.231,0,0.419,0.188,0.419,0.421C18.453,14.915,18.265,15.102,18.034,15.102"/>
</svg>
