<svg xmlns="http://www.w3.org/2000/svg" width="27.54" height="27.117" viewBox="0 0 27.54 27.117">
  <g id="XMLID_1_" transform="translate(0.25 0.25)">
    <path id="Path_953" data-name="Path 953" d="M23.639,11.5a.639.639,0,1,1,0,1.278H23V11.5Z" transform="translate(2.762 1.17)" fill="#4d4d4d" stroke="#fff" stroke-width="0.5"/>
    <path id="Path_955" data-name="Path 955" d="M24.139,27.334H12a.633.633,0,0,0,.639-.639v-.639h11.5a1.914,1.914,0,0,0,1.917-1.917v-11.5h.639A.633.633,0,0,0,27.334,12V24.139A3.2,3.2,0,0,1,24.139,27.334Z" transform="translate(-0.294 -0.716)" fill="#4d4d4d" stroke="#fff" stroke-width="0.5"/>
    <path id="Path_956" data-name="Path 956" d="M27.334,3.195V15.334a.633.633,0,0,0-.639-.639h-.639V3.195a1.914,1.914,0,0,0-1.917-1.917h-11.5V.639A.633.633,0,0,0,12,0H24.139A3.2,3.2,0,0,1,27.334,3.195Z" transform="translate(-0.294)" fill="#4d4d4d" stroke="#fff" stroke-width="0.5"/>
    <path id="Path_958" data-name="Path 958" d="M21.25,16a.639.639,0,0,1,0,1.278H16.139a.639.639,0,1,1,0-1.278Z" transform="translate(1.182 -4.876)" fill="#4d4d4d" stroke="#fff" stroke-width="0.5"/>
    <path id="Path_959" data-name="Path 959" d="M21.25,19a.639.639,0,0,1,0,1.278H16.139a.639.639,0,1,1,0-1.278Z" transform="translate(1.182 -4.571)" fill="#4d4d4d" stroke="#fff" stroke-width="0.5"/>
    <path id="Path_960" data-name="Path 960" d="M12.778,23v.639a.639.639,0,1,1-1.278,0V23Z" transform="translate(1.381 2.339)" fill="#4d4d4d" stroke="#fff" stroke-width="0.5"/>
    <path id="Path_961" data-name="Path 961" d="M11.5,12.5h1.278V25.917H11.5Z" transform="translate(1.381 -0.578)" fill="#4d4d4d" stroke="#fff" stroke-width="0.5"/>
    <path id="Path_962" data-name="Path 962" d="M11.5,11.5h1.278v1.278H11.5Z" transform="translate(1.381 1.17)" fill="#4d4d4d" stroke="#fff" stroke-width="0.5"/>
    <path id="Path_963" data-name="Path 963" d="M11.5,1h1.278V14.417H11.5Z" transform="translate(1.381 0.278)" fill="#4d4d4d" stroke="#fff" stroke-width="0.5"/>
    <path id="Path_964" data-name="Path 964" d="M12.778.639v.639H11.5V.639a.639.639,0,0,1,1.278,0Z" transform="translate(1.381)" fill="#4d4d4d" stroke="#fff" stroke-width="0.5"/>
    <path id="Path_965" data-name="Path 965" d="M1,11.5H14.417v1.278H1Z" transform="translate(0.278 1.17)" fill="#4d4d4d" stroke="#fff" stroke-width="0.5"/>
    <path id="Path_966" data-name="Path 966" d="M8.417,6a.639.639,0,1,1,0,1.278H6.5V6Z" transform="translate(0.734 0.61)" fill="#4d4d4d" stroke="#fff" stroke-width="0.5"/>
    <path id="Path_967" data-name="Path 967" d="M8.364,19.469a.618.618,0,0,1,0,.894.618.618,0,0,1-.894,0L6,18.894,6.894,18Z" transform="translate(0.677 1.687)" fill="#4d4d4d" stroke="#fff" stroke-width="0.5"/>
    <path id="Path_968" data-name="Path 968" d="M7.469,16.192a.632.632,0,0,1,.894.894L6.894,18.556,6,17.661Z" transform="translate(0.677 1.499)" fill="#4d4d4d" stroke="#fff" stroke-width="0.5"/>
    <path id="Path_969" data-name="Path 969" d="M0,0H1.265V1.265H0Z" transform="translate(5.918 19.899) rotate(-45)" fill="#4d4d4d" stroke="#fff" stroke-width="0.5"/>
    <path id="Path_970" data-name="Path 970" d="M6.778,7V8.917a.639.639,0,0,1-1.278,0V7Z" transform="translate(0.66 0.656)" fill="#4d4d4d" stroke="#fff" stroke-width="0.5"/>
    <path id="Path_971" data-name="Path 971" d="M5.5,6H6.778V7.278H5.5Z" transform="translate(0.66 0.61)" fill="#4d4d4d" stroke="#fff" stroke-width="0.5"/>
    <path id="Path_972" data-name="Path 972" d="M6.778,4.639V6.556H5.5V4.639a.639.639,0,0,1,1.278,0Z" transform="translate(0.66 0.375)" fill="#4d4d4d" stroke="#fff" stroke-width="0.5"/>
    <path id="Path_973" data-name="Path 973" d="M6.556,17.661l-.894.894L4.192,17.086a.632.632,0,0,1,.894-.894Z" transform="translate(0.452 1.499)" fill="#4d4d4d" stroke="#fff" stroke-width="0.5"/>
    <path id="Path_974" data-name="Path 974" d="M6.056,6V7.278H4.139A.639.639,0,0,1,4.139,6Z" transform="translate(0.54 0.61)" fill="#4d4d4d" stroke="#fff" stroke-width="0.5"/>
    <path id="Path_975" data-name="Path 975" d="M5.086,20.364a.618.618,0,0,1-.894,0,.618.618,0,0,1,0-.894L5.661,18l.894.894Z" transform="translate(0.452 1.687)" fill="#4d4d4d" stroke="#fff" stroke-width="0.5"/>
    <path id="Path_976" data-name="Path 976" d="M1.278,11.5v1.278H.639a.639.639,0,1,1,0-1.278Z" transform="translate(0 1.17)" fill="#4d4d4d" stroke="#fff" stroke-width="0.5"/>
    <path id="Path_977" data-name="Path 977" d="M0,3.195A3.2,3.2,0,0,1,3.195,0H15.334a.633.633,0,0,0-.639.639v.639H3.195A1.914,1.914,0,0,0,1.278,3.195v11.5H.639A.633.633,0,0,0,0,15.334Z" fill="#4d4d4d" stroke="#fff" stroke-width="0.5"/>
    <path id="Path_978" data-name="Path 978" d="M1.278,24.139a1.914,1.914,0,0,0,1.917,1.917h11.5v.639a.633.633,0,0,0,.639.639H3.195A3.2,3.2,0,0,1,0,24.139V12a.633.633,0,0,0,.639.639h.639Z" transform="translate(0 -0.716)" fill="#4d4d4d" stroke="#fff" stroke-width="0.5"/>
  </g>
</svg>
