<?xml version="1.0" encoding="utf-8"?>
<!-- Generator: Adobe Illustrator 24.1.3, SVG Export Plug-In . SVG Version: 6.00 Build 0)  -->
<svg version="1.1" id="Layer_1" xmlns="http://www.w3.org/2000/svg" xmlns:xlink="http://www.w3.org/1999/xlink" x="0px" y="0px"
	 viewBox="0 0 899 900" enable-background="new 0 0 899 900" xml:space="preserve">
<g opacity="0.3">
	<path fill="#FFFFFF" d="M561.02,250c-0.01-60.44-49.01-109.42-109.45-109.42s-109.42,49.01-109.42,109.45
		c0.01,60.43,49,109.42,109.43,109.42C512,359.37,560.95,310.41,561.02,250z M368.07,250c0.01-46.12,37.4-83.51,83.53-83.5
		s83.51,37.4,83.5,83.53c-0.01,46.12-37.4,83.5-83.51,83.5C405.48,333.47,368.12,296.11,368.07,250z"/>
	<path fill="#FFFFFF" d="M890.94,872.42L785.29,595.45c-1.92-5.02-6.73-8.34-12.11-8.34H573.23c1.22-1.99,2.44-3.92,3.66-5.92
		c76.94-127.37,115.65-238.8,115.1-331.13C692,117.28,584.38,9.64,451.6,9.62C318.84,9.61,211.2,117.21,211.16,249.98
		c-0.56,92.41,38.16,203.85,115.1,331.21c1.22,2.02,2.44,3.95,3.66,5.92H129.97c-5.37,0-10.19,3.32-12.11,8.34L12.23,872.42
		c-2.56,6.68,0.78,14.16,7.45,16.72c1.49,0.57,3.07,0.86,4.66,0.86h854.49c7.15,0.01,12.95-5.77,12.97-12.92
		C891.8,875.48,891.51,873.91,890.94,872.42L890.94,872.42z M237.09,250c0.02-118.46,96.07-214.48,214.53-214.46
		c118.46,0.02,214.48,96.07,214.46,214.53l0,0c1.11,184.09-170.99,411.13-214.49,465.58C408.08,661.23,235.97,434.24,237.09,250
		L237.09,250z M441.71,744.53c4.64,5.45,12.82,6.11,18.27,1.47c0.53-0.45,1.02-0.94,1.47-1.47c34.41-41.92,66.31-85.83,95.53-131.51
		h207.26l16.59,43.51L375.82,800.57L231.45,613h114.71C375.39,658.69,407.3,702.61,441.71,744.53L441.71,744.53z M375.37,828.22
		h0.07l241.62-85.9l93.72,121.77H274.59L375.37,828.22z M138.91,613h59.84L350.13,809.7l-152.87,54.37H43.15L138.91,613z
		 M743.52,864.08L642.74,733.14l147.37-52.41l69.93,183.35H743.52z"/>
</g>
</svg>
