<?xml version="1.0" encoding="utf-8"?>
<!-- Generator: Adobe Illustrator 24.1.3, SVG Export Plug-In . SVG Version: 6.00 Build 0)  -->
<svg version="1.1" id="Layer_1" xmlns="http://www.w3.org/2000/svg" xmlns:xlink="http://www.w3.org/1999/xlink" x="0px" y="0px"
	 viewBox="0 0 905 900" enable-background="new 0 0 905 900" xml:space="preserve">
<g id="surface1" opacity="0.3">
	<path fill="#FFFFFF" d="M747.81,162.35V79.63c-0.05-40.82-33.13-73.89-73.94-73.94H82.32C41.51,5.73,8.43,38.81,8.38,79.63v325.35
		c0.11,37.77,28.74,69.35,66.31,73.18l55.59,144.3c14.69,38.1,57.48,57.08,95.58,42.42l347.14-133.73
		c-23.99,62.66-17.16,132.94,18.42,189.82l8.5,13.59v143.66c0,8.17,6.62,14.79,14.79,14.79h266.2c8.17,0,14.79-6.62,14.79-14.79
		V390.06c-0.14-51.14-20.5-100.14-56.66-136.31L747.81,162.35z M747.81,250.8l44.88,116.51c8.8,22.87-2.6,48.53-25.47,57.34
		l-25.65,9.91c4.1-9.32,6.22-19.4,6.24-29.58V250.8z M37.96,404.98V79.63c0-24.5,19.87-44.37,44.37-44.37h591.55
		c24.5,0,44.37,19.87,44.37,44.37v94h-0.13l0.13,0.34v231.02c-0.11,2.58-0.45,5.14-1.01,7.66L581.76,277.16
		c-30.45-29.75-78.99-29.98-109.72-0.54c-30.73,29.46-32.58,77.96-4.16,109.65l57.75,63.08H82.32
		C57.82,449.34,37.96,429.47,37.96,404.98z M227.41,478.92l-105.16,40.49l-15.56-40.49H227.41z M215.23,637.27
		c-22.86,8.81-48.54-2.58-57.35-25.45l-24.95-64.88l176.53-68.03v-0.09h243.29l19.22,20.96L215.23,637.27z M866.12,863.42H629.5
		V745.11h236.62V863.42z M866.12,715.54h-243.2l-6.41-10.25c-36.06-57.62-37.49-130.41-3.75-189.4c3.19-5.58,2.41-12.59-1.94-17.33
		L489.63,366.35c-18.07-19.78-17.05-50.36,2.29-68.89c19.35-18.53,49.95-18.23,68.92,0.67l235.66,235.61l20.91-20.91l-54.72-54.72
		l15.17-5.92c38.07-14.69,57.05-57.44,42.4-95.54l-50.06-129.98l47.91,48.01c30.61,30.61,47.87,72.08,47.99,115.37V715.54z"/>
	<path fill="#FFFFFF" d="M176.97,212.72c21.24,0,38.45-17.21,38.45-38.45v-70.99c0-21.24-17.21-38.45-38.45-38.45h-70.99
		c-21.24,0-38.45,17.21-38.45,38.45v70.99c0,21.24,17.21,38.45,38.45,38.45H176.97z M97.11,174.27v-20.7h29.58v-29.58H97.11v-20.7
		c0-4.9,3.97-8.87,8.87-8.87h70.99c4.9,0,8.87,3.97,8.87,8.87v20.7h-29.58v29.58h29.58v20.7c0,4.9-3.97,8.87-8.87,8.87h-70.99
		C101.09,183.15,97.11,179.17,97.11,174.27z"/>
	<path fill="#FFFFFF" d="M82.32,257.09h59.15v29.58H82.32V257.09z"/>
	<path fill="#FFFFFF" d="M82.32,345.82h59.15v29.58H82.32V345.82z"/>
	<path fill="#FFFFFF" d="M348.52,345.82h59.15v29.58h-59.15V345.82z"/>
	<path fill="#FFFFFF" d="M171.05,257.09h59.15v29.58h-59.15V257.09z"/>
	<path fill="#FFFFFF" d="M259.79,257.09h59.15v29.58h-59.15V257.09z"/>
	<path fill="#FFFFFF" d="M348.52,257.09h59.15v29.58h-59.15V257.09z"/>
	<path fill="#FFFFFF" d="M629.5,79.63h29.58v44.37H629.5V79.63z"/>
	<path fill="#FFFFFF" d="M570.35,79.63h29.58v44.37h-29.58V79.63z"/>
	<path fill="#FFFFFF" d="M511.19,79.63h29.58v44.37h-29.58V79.63z"/>
	<path fill="#FFFFFF" d="M452.04,79.63h29.58v44.37h-29.58V79.63z"/>
	<path fill="#FFFFFF" d="M659.08,774.69h29.58v29.58h-29.58V774.69z"/>
</g>
</svg>
