<?xml version="1.0" encoding="utf-8"?>
<!-- Generator: Adobe Illustrator 24.1.3, SVG Export Plug-In . SVG Version: 6.00 Build 0)  -->
<svg version="1.1" id="Layer_1" xmlns="http://www.w3.org/2000/svg" xmlns:xlink="http://www.w3.org/1999/xlink" x="0px" y="0px"
	 viewBox="0 0 1013 700" enable-background="new 0 0 1013 700" xml:space="preserve">
<g>
	<path fill="none" stroke="#1A1A1A" stroke-width="11" stroke-miterlimit="10" d="M230.54,206.92h169.3c0.74,0,1.33-0.6,1.33-1.33
		V5.73H229.21v199.86C229.21,206.33,229.8,206.92,230.54,206.92z"/>
	<g>
		
			<rect x="340.81" y="54.09" transform="matrix(6.123234e-17 -1 1 6.123234e-17 287.4346 413.3344)" stroke="#1A1A1A" stroke-width="11" stroke-miterlimit="10" width="19.15" height="17.72"/>
		
			<rect x="305.38" y="54.09" transform="matrix(6.123234e-17 -1 1 6.123234e-17 251.9999 377.8997)" stroke="#1A1A1A" stroke-width="11" stroke-miterlimit="10" width="19.15" height="17.72"/>
		
			<rect x="269.94" y="54.09" transform="matrix(6.123234e-17 -1 1 6.123234e-17 216.5652 342.4651)" stroke="#1A1A1A" stroke-width="11" stroke-miterlimit="10" width="19.15" height="17.72"/>
		
			<rect x="269.94" y="86.01" transform="matrix(6.123234e-17 -1 1 6.123234e-17 184.6505 374.3798)" stroke="#1A1A1A" stroke-width="11" stroke-miterlimit="10" width="19.15" height="17.72"/>
		
			<rect x="305.38" y="86.01" transform="matrix(6.123234e-17 -1 1 6.123234e-17 220.0852 409.8145)" stroke="#1A1A1A" stroke-width="11" stroke-miterlimit="10" width="19.15" height="17.72"/>
		
			<rect x="340.81" y="86.01" transform="matrix(6.123234e-17 -1 1 6.123234e-17 255.5198 445.2491)" stroke="#1A1A1A" stroke-width="11" stroke-miterlimit="10" width="19.15" height="17.72"/>
	</g>
	
		<rect x="271.74" y="18.86" transform="matrix(6.123234e-17 -1 1 6.123234e-17 234.0783 395.8215)" fill="none" stroke="#1A1A1A" stroke-width="11" stroke-miterlimit="10" width="86.42" height="124.02"/>
	<path fill="none" stroke="#1A1A1A" stroke-width="11" stroke-miterlimit="10" d="M386.59,155.5l-137.95,0
		c-0.18,0-0.32-0.14-0.32-0.32v-15.07c0-0.18,0.14-0.32,0.32-0.32h137.95c0.18,0,0.32,0.14,0.32,0.32v15.07
		C386.91,155.36,386.76,155.5,386.59,155.5z"/>
	<path fill="none" stroke="#1A1A1A" stroke-width="11" stroke-miterlimit="10" d="M361.57,188.48h15.07c0.18,0,0.32-0.14,0.32-0.32
		v-15.07c0-0.18-0.14-0.32-0.32-0.32h-15.07c-0.18,0-0.32,0.14-0.32,0.32v15.07C361.25,188.34,361.39,188.48,361.57,188.48z"/>
	<path fill-rule="evenodd" clip-rule="evenodd" fill="none" stroke="#1A1A1A" stroke-width="11" stroke-miterlimit="10" d="
		M479.73,349.97h36.82c4.48,0,8.15,3.22,8.15,7.16v0.6c0,3.94-3.67,7.16-8.15,7.16h-36.82c-4.48,0-8.16-3.22-8.16-7.16v-0.6
		C471.58,353.2,475.25,349.97,479.73,349.97L479.73,349.97L479.73,349.97z"/>
	<path fill="#FFFFFF" stroke="#1A1A1A" stroke-width="11" stroke-miterlimit="10" d="M479.3,316.69h247.62
		c8.01,0,14.57-7.32,14.57-16.26V158.11c0-8.95-6.55-16.26-14.57-16.26H479.3c-8.01,0-14.57,7.32-14.57,16.26v142.32
		C464.73,309.37,471.28,316.69,479.3,316.69z"/>
	<path fill-rule="evenodd" clip-rule="evenodd" fill="none" stroke="#1A1A1A" stroke-width="11" stroke-miterlimit="10" d="
		M653.59,183.11l-55.92,10.99c-4.37,0.76-15.24,3.77-15.24,8.37v15.65c0,4.6,3.63,8.37,8.06,8.37h147.23v-55.96
		c0-0.7-0.04-1.38-0.12-2.05l-77.94,13.58L653.59,183.11L653.59,183.11L653.59,183.11z"/>
	<path fill="none" stroke="#1A1A1A" stroke-width="11" stroke-miterlimit="10" d="M4.8,700h824.46c0.55,0,1-0.45,1-1V268.92
		c0-0.55-0.45-1-1-1H3.8V699C3.8,699.55,4.25,700,4.8,700z"/>
	<path fill="none" stroke="#1A1A1A" stroke-width="11" stroke-miterlimit="10" d="M283.54,228.95h51.53v-45.77
		c0-0.23-0.19-0.41-0.41-0.41h-50.7c-0.23,0-0.41,0.19-0.41,0.41V228.95z"/>
	<polygon fill="none" stroke="#1A1A1A" stroke-width="11" stroke-miterlimit="10" points="400.53,700 400.53,700 400.53,240.63 
		400.53,232.57 	"/>
	<path fill="none" stroke="#1A1A1A" stroke-width="11" stroke-miterlimit="10" d="M735.39,276.91h12.89c9.68,0,17.6,7.16,17.6,15.91
		v109.66c0,8.75-7.92,15.91-17.6,15.91h-351.1"/>
	
		<rect x="213.27" y="284.42" transform="matrix(-1.836970e-16 1 -1 -1.836970e-16 629.7208 203.1752)" fill="none" stroke="#1A1A1A" stroke-width="11" stroke-miterlimit="10" width="0" height="264.06"/>
	
		<rect x="202.04" y="312.99" transform="matrix(-1.836970e-16 1 -1 -1.836970e-16 713.5149 309.4272)" fill="none" stroke="#1A1A1A" stroke-width="11" stroke-miterlimit="10" width="0" height="396.97"/>
	<polygon fill="none" stroke="#1A1A1A" stroke-width="11" stroke-miterlimit="10" points="828.01,492.99 836.52,492.99 
		402.53,492.99 394.02,492.99 	"/>
	<polygon fill="none" stroke="#1A1A1A" stroke-width="11" stroke-miterlimit="10" points="828.01,602.01 836.52,602.01 
		402.53,602.01 394.02,602.01 	"/>
	
		<rect x="624.92" y="389.56" transform="matrix(-1.836970e-16 1 -1 -1.836970e-16 1167.8004 -82.0369)" fill="none" stroke="#1A1A1A" stroke-width="11" stroke-miterlimit="10" width="0" height="306.64"/>
	
		<rect x="625.31" y="489.35" transform="matrix(-1.836970e-16 1 -1 -1.836970e-16 1267.9807 17.3678)" fill="none" stroke="#1A1A1A" stroke-width="11" stroke-miterlimit="10" width="0" height="306.64"/>
	<path fill="none" stroke="#1A1A1A" stroke-width="11" stroke-miterlimit="10" d="M444.88,550.74L444.88,550.74
		c4.32,0,7.86-3.54,7.86-7.86l0,0c0-4.32-3.54-7.86-7.86-7.86l0,0c-4.32,0-7.86,3.54-7.86,7.86l0,0
		C437.02,547.2,440.56,550.74,444.88,550.74z"/>
	<path fill="none" stroke="#1A1A1A" stroke-width="11" stroke-miterlimit="10" d="M45.1,423.31h16.96c0.2,0,0.36-0.16,0.36-0.36
		l0-16.96c0-0.2-0.16-0.36-0.36-0.36H45.1c-0.2,0-0.36,0.16-0.36,0.36v16.96C44.74,423.15,44.9,423.31,45.1,423.31z"/>
	
		<rect x="213.27" y="463.29" transform="matrix(-1.836970e-16 1 -1 -1.836970e-16 808.5933 382.0478)" fill="none" stroke="#1A1A1A" stroke-width="11" stroke-miterlimit="10" width="0" height="264.06"/>
	<path fill="none" stroke="#1A1A1A" stroke-width="11" stroke-miterlimit="10" d="M45.1,602.18h16.96c0.2,0,0.36-0.16,0.36-0.36
		v-16.96c0-0.2-0.16-0.36-0.36-0.36H45.1c-0.2,0-0.36,0.16-0.36,0.36v16.96C44.74,602.02,44.9,602.18,45.1,602.18z"/>
	<path fill="none" stroke="#1A1A1A" stroke-width="11" stroke-miterlimit="10" d="M437.03,643.04L437.03,643.04
		c0.2,4.32,3.9,7.68,8.22,7.48l0,0c4.32-0.2,7.68-3.9,7.48-8.22l0,0c-0.2-4.32-3.9-7.68-8.22-7.48h0
		C440.19,635.03,436.83,638.73,437.03,643.04z"/>
	<polyline fill="none" stroke="#1A1A1A" stroke-width="11" stroke-miterlimit="10" points="405.81,312.28 405.81,312.28 
		7.73,312.28 	"/>
	<path fill-rule="evenodd" clip-rule="evenodd" fill="none" stroke="#1A1A1A" stroke-width="11" stroke-miterlimit="10" d="
		M829.88,359.54l64.67-23.5l37.75-40.12l49.1-27.25c5.46-3.03,11.66-0.39,16.16,3.73l0,0l0,0l7.41,6.79
		c4.5,4.12,1.33,10.98-3.78,14.47L952.1,327.1l-121.83,145"/>
	<path fill-rule="evenodd" clip-rule="evenodd" fill="none" stroke="#1A1A1A" stroke-width="11" stroke-miterlimit="10" d="
		M982.89,184.66c0.86-2.08,0.91-4.49-0.06-6.7l-0.74-1.7c-1.89-4.33-6.98-6.33-11.31-4.44l-134.3,58.48
		c-4.29,1.87-6.29,6.87-4.5,11.17c0.02,0.04,0.04,0.09,0.06,0.13l0.74,1.7c1.89,4.33,6.97,6.33,11.31,4.44l134.3-58.48
		C980.5,188.35,982.07,186.66,982.89,184.66L982.89,184.66L982.89,184.66z"/>
	<path fill-rule="evenodd" clip-rule="evenodd" fill="none" stroke="#1A1A1A" stroke-width="11" stroke-miterlimit="10" d="
		M834,279.84l59.59-29.01c2.69-1.08,3.29-4.95,1.58-7.29l-0.1-0.13l0,0l0,0c-0.07-0.13-0.13-0.26-0.21-0.39l-26.33-45.04
		c-1.46-2.5-4.64-2.76-7.29-1.58l-57.19,25.54l-26.76,11.95c-2.65,1.18-2.15,4.45-1.58,7.29l2.78,27.47"/>
	<path fill-rule="evenodd" clip-rule="evenodd" fill="none" stroke="#1A1A1A" stroke-width="11" stroke-miterlimit="10" d="
		M827.32,516.34h1l0,0l0,0h61.37c0.65,0,1.29-0.06,1.9-0.17l4.96-2.6l75.53-39.51c4.03-2.1,6.11-7.16,2.79-10.01l-5.47-4.7
		c-3.32-2.85-7.68-4.25-11.85-2.36l-69.65,31.64h-60.58"/>
	<polyline fill="none" stroke="#1A1A1A" stroke-width="11" stroke-miterlimit="10" points="4.94,265.12 53.14,232.57 464.76,228.65 
			"/>
</g>
</svg>
