<?xml version="1.0" encoding="utf-8"?>
<!-- Generator: Adobe Illustrator 24.1.3, SVG Export Plug-In . SVG Version: 6.00 Build 0)  -->
<svg version="1.1" id="Layer_1" xmlns="http://www.w3.org/2000/svg" xmlns:xlink="http://www.w3.org/1999/xlink" x="0px" y="0px"
	 viewBox="0 0 1523 900" enable-background="new 0 0 1523 900" xml:space="preserve">
<path opacity="0.3" fill-rule="evenodd" clip-rule="evenodd" fill="#FFFFFF" stroke="#C0272D" stroke-width="2" stroke-miterlimit="10" d="
	M914.97,670.47H455.07c-52.07-151.67-269.36-150.21-320.93,0H95.71V451.85c0-27.24,22.56-49.56,50.08-49.56
	c112.95,0,225.9,0,338.85,0c24.42,0,44.2-19.58,44.2-43.72V96.22h757.26v52.46h-81.26c-58.18,0-58.18,87.45,0,87.45h81.26v84.54
	h-212.15c-58.2,0-58.2,87.45,0,87.45h212.15v262.34h-50.22C1183.82,518.79,966.53,520.27,914.97,670.47z M1374.51,236.13h53.03
	c58.2,0,58.2-87.45,0-87.45h-53.03V52.49c0-24.14-19.79-43.72-44.2-43.72c-67.64,0-811.04,0.28-811.04,0
	c-120.99,0-226.39,59.26-288.4,162.21l-86.66,143.87C68.58,315.69,7.31,376.9,7.31,451.84v262.35c0,24.14,19.79,43.72,44.19,43.72
	h77.05C144.4,835.09,213.33,892,294.6,892s150.2-56.91,166.04-134.09h448.76C925.23,835.09,994.17,892,1075.43,892
	c81.26,0,150.2-56.91,166.04-134.09h88.84c24.42,0,44.2-19.58,44.2-43.72V583.01h97.23c58.18,0,58.18-87.44,0-87.44h-97.23v-87.45
	h97.23c58.18,0,58.18-87.45,0-87.45h-97.23V236.13z M237.3,667.71c-31.64,31.3-31.64,82.07,0,113.37
	c50.9,50.36,138.33,14.54,138.33-56.68S288.2,617.35,237.3,667.71z M246.79,314.84h193.66V108.07
	c-56.39,17.88-102.5,55.42-133.96,107.66L246.79,314.84z M1018.13,667.71c-31.64,31.3-31.64,82.07,0,113.37
	c50.9,50.36,138.33,14.54,138.33-56.68C1156.45,653.17,1069.03,617.35,1018.13,667.71z"/>
</svg>
