<?xml version="1.0" encoding="utf-8"?>
<!-- Generator: Adobe Illustrator 24.1.3, SVG Export Plug-In . SVG Version: 6.00 Build 0)  -->
<svg version="1.1" id="Layer_1" xmlns="http://www.w3.org/2000/svg" xmlns:xlink="http://www.w3.org/1999/xlink" x="0px" y="0px"
	 viewBox="0 0 283 466" enable-background="new 0 0 283 466" xml:space="preserve">
<g>
	<g>
		<g>
			<path stroke="#EEEEEE" stroke-miterlimit="10" d="M258.09,83.17l-93.01-64.81c-13.12-9.15-30.78-9.18-43.94-0.09L27.86,82.71
				c-10.39,7.18-16.61,19.01-16.64,31.64L10.61,417.7c-0.04,21.25,17.22,38.58,38.47,38.62l186.28,0.37
				c10.63,0.02,20.27-4.28,27.27-11.25c6.99-6.97,11.34-16.59,11.36-27.22l0.61-303.36C274.63,102.24,268.45,90.39,258.09,83.17z
				 M249.77,114.82l-0.61,303.36c-0.02,7.57-6.18,13.71-13.75,13.69L49.13,431.5c-7.57-0.02-13.71-6.18-13.69-13.75l0.61-303.36
				c0.01-3.67,1.49-7.15,4.04-9.7c0.57-0.57,1.2-1.1,1.88-1.57l93.27-64.43c4.68-3.24,10.97-3.22,15.64,0.03l93.01,64.81
				C247.59,106.11,249.78,110.32,249.77,114.82z"/>
		</g>
	</g>
	<g>
		<g>
			<path stroke="#EEEEEE" stroke-miterlimit="10" d="M142.74,76.66c-18.74-0.04-34.01,15.18-34.05,33.91
				c-0.04,18.74,15.17,34.01,33.91,34.05c9.37,0.02,17.87-3.77,24.04-9.92c6.17-6.14,9.99-14.63,10.01-24
				c0.02-9.08-3.5-17.62-9.9-24.05C160.35,80.22,151.82,76.67,142.74,76.66z M151.83,110.65L151.83,110.65
				c-0.01,5.05-4.12,9.15-9.17,9.14c-5.05-0.01-9.15-4.13-9.14-9.17c0.01-2.52,1.04-4.81,2.7-6.47c1.66-1.66,3.95-2.68,6.48-2.67
				c2.45,0,4.74,0.96,6.47,2.69C150.89,105.91,151.84,108.21,151.83,110.65z"/>
		</g>
	</g>
	<g>
		<g>
			<path stroke="#EEEEEE" stroke-width="0.5" stroke-miterlimit="10" d="M177.75,377.77l-27.12-0.05l0.03-15.87
				c0-1.61-0.63-2.84-1.89-3.68c-1.26-0.84-2.69-1.27-4.31-1.27c-1.75,0-3.26,0.43-4.52,1.31c-1.26,0.87-1.9,2.08-1.9,3.62
				l-0.03,15.87l-17.77-0.04l0.05-27.23c0-1.54-0.69-2.75-2.09-3.63c-1.4-0.88-3.12-1.32-5.15-1.32c-1.89,0-3.54,0.41-4.94,1.25
				c-1.4,0.84-2.11,2.06-2.11,3.67l-0.07,36.48c0,1.96,0.43,3.65,1.3,5.05c0.87,1.4,2.12,2.11,3.73,2.11l66.76,0.13
				c1.61,0,2.86-0.8,3.74-2.41c0.88-1.61,1.32-3.54,1.32-5.78c0-2.24-0.43-4.17-1.3-5.78C180.61,378.58,179.37,377.77,177.75,377.77
				z"/>
		</g>
	</g>
	<g>
		<g>
			<path stroke="#EEEEEE" stroke-width="0.5" stroke-miterlimit="10" d="M175.1,286.72c-0.77,0-1.4,0.17-1.89,0.52l-23.26,12.78
				c-3.28-8.49-10.38-12.74-21.32-12.76c-15-0.03-22.52,8.58-22.55,25.82l-0.04,21.76c0,1.47,0.48,2.68,1.46,3.63
				s2.14,1.42,3.47,1.43l66.86,0.13c1.61,0,2.86-0.8,3.74-2.41c0.88-1.61,1.32-3.54,1.33-5.78s-0.43-4.17-1.3-5.78
				c-0.87-1.61-2.11-2.42-3.73-2.42l-25.34-0.05l0.01-6.94l27.99-14.35c2.04-1.05,3.05-2.8,3.06-5.25c0-2.45-0.9-4.79-2.72-7
				C179.06,287.83,177.13,286.72,175.1,286.72z M139.93,313.14l-0.02,10.41l-19.55-0.04l0.02-10.41c0.01-3.08,0.77-5.43,2.28-7.04
				c1.51-1.61,4.02-2.41,7.52-2.4c3.51,0.01,6.01,0.82,7.51,2.43C139.19,307.71,139.94,310.05,139.93,313.14z"/>
		</g>
	</g>
	<g>
		<g>
			<path stroke="#EEEEEE" stroke-width="0.5" stroke-miterlimit="10" d="M180.99,230.38c-1.4-0.84-3.05-1.27-4.94-1.27
				c-2.03,0-3.75,0.43-5.15,1.3c-1.4,0.88-2.11,2.08-2.11,3.62l-0.06,28.18l-17.87-0.04l0.03-15.77c0-1.61-0.63-2.84-1.89-3.68
				c-1.26-0.84-2.69-1.27-4.31-1.27c-1.75,0-3.26,0.43-4.52,1.31c-1.26,0.87-1.9,2.08-1.9,3.62l-0.03,15.77l-17.77-0.04l0.06-28.18
				c0-1.54-0.69-2.75-2.09-3.63c-1.4-0.88-3.12-1.32-5.15-1.32c-1.89,0-3.54,0.41-4.94,1.25c-1.4,0.84-2.11,2.06-2.11,3.68
				l-0.08,37.43c0,1.96,0.43,3.65,1.3,5.05c0.87,1.4,2.12,2.11,3.73,2.11l66.76,0.13c1.61,0,2.86-0.69,3.74-2.09
				c0.88-1.4,1.32-3.08,1.32-5.04l0.08-37.43C183.09,232.45,182.39,231.22,180.99,230.38z"/>
		</g>
	</g>
	<g>
		<g>
			<path stroke="#EEEEEE" stroke-width="0.5" stroke-miterlimit="10" d="M181.11,173.71c-1.4-0.84-3.05-1.27-4.94-1.27
				c-2.03,0-3.75,0.43-5.15,1.3c-1.4,0.88-2.11,2.08-2.11,3.62l-0.06,28.17l-17.87-0.04l0.03-15.77c0-1.61-0.63-2.84-1.89-3.68
				c-1.26-0.84-2.69-1.27-4.31-1.27c-1.75,0-3.26,0.43-4.52,1.31c-1.26,0.87-1.9,2.08-1.9,3.62l-0.03,15.77l-17.77-0.04l0.06-28.17
				c0-1.54-0.69-2.75-2.09-3.63c-1.4-0.88-3.12-1.32-5.15-1.32c-1.89,0-3.54,0.41-4.94,1.25c-1.4,0.84-2.11,2.06-2.11,3.68
				l-0.08,37.43c0,1.96,0.43,3.65,1.3,5.05c0.87,1.4,2.12,2.11,3.73,2.11l66.76,0.13c1.61,0,2.86-0.69,3.74-2.09
				c0.88-1.4,1.32-3.08,1.32-5.04l0.08-37.43C183.2,175.79,182.51,174.56,181.11,173.71z"/>
		</g>
	</g>
</g>
</svg>
