<?xml version="1.0" encoding="utf-8"?>
<!-- Generator: Adobe Illustrator 24.1.3, SVG Export Plug-In . SVG Version: 6.00 Build 0)  -->
<svg version="1.1" id="Layer_1" xmlns="http://www.w3.org/2000/svg" xmlns:xlink="http://www.w3.org/1999/xlink" x="0px" y="0px"
	 viewBox="0 0 899 900" enable-background="new 0 0 899 900" xml:space="preserve">
<g id="Location_1_">
	<path fill="#FFFFFF" d="M846.1,8.96H551.75c-24.38,0-44.15,19.77-44.15,44.15v294.35c0,24.38,19.77,44.15,44.15,44.15H846.1
		c24.38,0,44.15-19.77,44.15-44.15V53.11C890.25,28.72,870.49,8.96,846.1,8.96z M728.36,38.39v134.38L707.1,158.6
		c-4.95-3.3-11.39-3.3-16.34,0l-21.27,14.17V38.39H728.36z M860.82,347.46c0,8.13-6.59,14.72-14.72,14.72H551.75
		c-8.13,0-14.72-6.59-14.72-14.72V53.11c0-8.13,6.59-14.72,14.72-14.72h88.3v161.89c0,8.13,6.59,14.72,14.72,14.72
		c2.91,0,5.75-0.86,8.17-2.47l35.98-24.02l35.98,23.99c6.76,4.51,15.9,2.69,20.41-4.07c1.61-2.41,2.47-5.24,2.47-8.14V38.39h88.3
		c8.13,0,14.72,6.59,14.72,14.72V347.46z"/>
	<path fill="#FFFFFF" d="M169.1,892c-4.25,0-8.3-1.84-11.1-5.05C151.85,879.89,7.21,712.9,7.21,627.09
		c0-89.41,72.48-161.89,161.89-161.89s161.89,72.48,161.89,161.89c0,85.82-144.64,252.8-150.79,259.87
		C177.4,890.16,173.36,892,169.1,892L169.1,892z M169.1,494.63c-73.12,0.09-132.37,59.34-132.46,132.46
		c0,57.03,87.22,173.3,132.46,227.5c45.23-54.22,132.46-170.5,132.46-227.5C301.47,553.97,242.22,494.72,169.1,494.63z"/>
	<path fill="#FFFFFF" d="M169.1,700.67c-40.64,0-73.59-32.95-73.59-73.59c0-40.64,32.95-73.59,73.59-73.59s73.59,32.95,73.59,73.59
		C242.64,667.71,209.72,700.62,169.1,700.67z M169.1,582.93c-24.38,0-44.15,19.77-44.15,44.15s19.77,44.15,44.15,44.15
		s44.15-19.77,44.15-44.15S193.49,582.93,169.1,582.93z"/>
	<path fill="#FFFFFF" d="M816.67,892H242.69c-8.13,0-14.72-6.59-14.72-14.72s6.59-14.72,14.72-14.72h573.98
		c24.38,0,44.15-19.77,44.15-44.15c0-24.38-19.77-44.15-44.15-44.15H448.73c-40.64,0-73.59-32.95-73.59-73.59
		c0-40.64,32.95-73.59,73.59-73.59h220.76c24.38,0,44.15-19.77,44.15-44.15s-19.77-44.15-44.15-44.15H448.73
		c-40.62-0.05-73.54-32.97-73.59-73.59v-58.87c0-24.38-19.77-44.15-44.15-44.15H110.23c-56.9,0-103.02-46.12-103.02-103.02
		s46.12-103.02,103.02-103.02h353.22c8.13,0,14.72,6.59,14.72,14.72c0,8.13-6.59,14.72-14.72,14.72H110.23
		c-40.64,0-73.59,32.95-73.59,73.59s32.95,73.59,73.59,73.59h220.76c40.62,0.05,73.54,32.97,73.59,73.59v58.87
		c0,24.38,19.77,44.15,44.15,44.15h220.76c40.64,0,73.59,32.95,73.59,73.59s-32.95,73.59-73.59,73.59H448.73
		c-24.38,0-44.15,19.77-44.15,44.15s19.77,44.15,44.15,44.15h367.94c40.64,0,73.59,32.95,73.59,73.59
		C890.25,859.05,857.31,892,816.67,892z"/>
</g>
</svg>
