<?xml version="1.0" encoding="utf-8"?>
<!-- Generator: Adobe Illustrator 24.1.3, SVG Export Plug-In . SVG Version: 6.00 Build 0)  -->
<svg version="1.1" id="Layer_1" xmlns="http://www.w3.org/2000/svg" xmlns:xlink="http://www.w3.org/1999/xlink" x="0px" y="0px"
	 viewBox="0 0 769 768" enable-background="new 0 0 769 768" xml:space="preserve">
<path fill="#FFFFFF" d="M650.7,118.1C579.46,46.86,484.73,7.63,383.99,7.63c-100.75,0-195.47,39.23-266.71,110.48
	S6.8,284.06,6.8,384.81c0,100.75,39.23,195.47,110.48,266.71S283.23,762,383.99,762c100.75,0,195.47-39.23,266.71-110.48
	s110.48-165.96,110.48-266.71C761.17,284.06,721.94,189.34,650.7,118.1z M195.89,659.43c15.78-90.83,94.49-157.83,188.09-157.83
	c93.61,0,172.32,67,188.09,157.83c-53.55,36.79-118.35,58.37-188.09,58.37S249.45,696.23,195.89,659.43z M264.05,337.47
	c0-66.14,53.8-119.93,119.93-119.93s119.93,53.8,119.93,119.93S450.12,457.4,383.99,457.4S264.05,403.6,264.05,337.47z
	 M610.36,628.77c-11.9-42.28-35.52-80.65-68.64-110.62c-20.32-18.39-43.44-32.9-68.31-43.13c44.94-29.31,74.71-80.02,74.71-137.56
	c0-90.5-73.63-164.13-164.14-164.13s-164.13,73.63-164.13,164.13c0,57.54,29.77,108.25,74.7,137.56
	c-24.86,10.23-47.99,24.73-68.31,43.12c-33.11,29.97-56.74,68.33-68.64,110.62C92.08,567.92,51,481.08,51,384.81
	C51,201.2,200.38,51.83,383.99,51.83S716.97,201.2,716.97,384.81C716.97,481.08,675.89,567.92,610.36,628.77z"/>
</svg>
