<svg xmlns="http://www.w3.org/2000/svg" width="117.839" height="104.683" viewBox="0 0 117.839 104.683">
  <g id="Group_45" data-name="Group 45" transform="translate(-63.739 -155.25)">
    <g id="Group_44" data-name="Group 44">
      <path id="Path_47" data-name="Path 47" d="M151.149,186.265v2.221c4.481-.234,6.468-1.286,6.468-5.027,0-2.494-.818-4.131-3.077-4.131-2.028,0-3.158,1.169-3.158,3.585,0,1.676,1.014,2.26,2.573,2.26a2.544,2.544,0,0,0,1.87-.584C155.592,185.875,154.656,185.953,151.149,186.265Zm3.156-3.04c-1.13,0-1.247-.234-1.247-.624,0-.506.39-.818,1.364-.818a1.234,1.234,0,0,1,1.4,1.247A4.5,4.5,0,0,1,154.3,183.225Z" fill="#00935D"/>
      <path id="Path_48" data-name="Path 48" d="M101.361,188.439l-4.117-3.977-4.115,3.977,4.115,4.07Z" fill="#00935D"/>
      <path id="Path_49" data-name="Path 49" d="M109.5,179.374v22.478c0,2.914-.832,3.654-4.07,3.654l-.024,0-.021,0c-3.884,0-5.226-.925-5.226-4.856v-4.533H94.284l.046,4.579-.046-.046c0,3.93-1.433,4.855-5.5,4.856-3.931,0-4.162-1.943-4.162-4.995V179.374H78.283v22.571c0,7.815,2.775,12.024,10.5,12.025h0c4.716,0,7.4-1.62,8.323-4.995.924,3.422,3.607,4.995,8.278,4.995l.021,0,.024,0c3.839,0,6.706-1.157,8.417-3.978.925,2.5,2.96,3.978,6.522,3.978l.021,0,.023,0h35.66c6.615,0,10.962-4.071,10.962-11.1,0-5.1-3.83-9.237-12.182-9.237l-25.838-.01,12.072-6.753v-7.493l-19.333,11.379v3.667a6.327,6.327,0,0,0,6.327,6.327h28.593c2.275,0,5.365-.092,5.365,2.12,0,2.5-3.1,2.638-5.365,2.638H120.412l-.023,0-.021,0c-3.1,0-4.533-1.064-4.533-5.319V179.328Z" fill="#00935D"/>
      <path id="Path_50" data-name="Path 50" d="M78.283,229.915v6.359c0,6.246,2.47,8.948,8.193,8.948,6.014,0,8.8-3.283,8.8-9.645V218.322H91.3v17.167c0,3.109-1.076,4.387-4.533,4.387s-4.735-1.133-4.735-4.416v-5.545Z" fill="#00935D"/>
      <path id="Path_51" data-name="Path 51" d="M101.234,240.2H98.185v5.026h3.368c5.346,0,8.483-4.387,8.483-10.75v-1.249c0-4.445-1.8-8.28-6.014-8.28-4.1,0-6.1,3.515-6.1,7.292,0,3.254,1.51,5.4,5.142,5.4a4.265,4.265,0,0,0,4.242-2.934v.058C107.189,238.569,105.185,240.2,101.234,240.2Zm2.382-7.467c-2.208,0-2.818-.29-2.818-1.191,0-1.017,1.1-1.8,2.905-1.8,2.15,0,3.022,1.25,3.109,2.3C106.493,232.467,105.766,232.729,103.616,232.729Z" fill="#00935D"/>
      <path id="Path_52" data-name="Path 52" d="M115.642,240.2h-3.049v5.026h3.369c4.271,0,7.118-2.847,8.019-7.263h2.063c2.73,0,4.327-.814,4.938-2.586.522,1.772,1.917,2.586,4.3,2.586,2.207,0,3.6-.9,4.153-2.528.553,1.714,1.831,2.528,3.923,2.528a3.783,3.783,0,0,0,3.864-2.644c.61,1.859,2.266,2.644,4.91,2.644l.013,0,.014,0a4.13,4.13,0,0,0,4.067-2.412c.726,1.685,2.208,2.528,4.62,2.528,4.068,0,6.188-2.382,6.188-6.392,0-4.125-2.208-6.827-5.52-6.827-3.4,0-5.114,2.818-5.985,4.561l-.582,1.191c-.871,1.772-1.51,2.034-2.788,2.034l-.014,0-.013,0c-2.469,0-3.167-.552-3.167-1.947v-4.273h-3.689V230.7c0,1.424-.494,1.947-1.889,1.947s-1.859-.523-1.859-1.976v-4.244h-3.719v4.186c0,1.511-.61,2.034-2.295,2.034-1.773,0-2.412-.523-2.412-2.063v-4.157h-3.69V230.7c0,1.54-.668,1.947-3.37,1.947h-1.771c-.2-4.329-1.976-7.612-5.811-7.612-4.068,0-6.043,3.486-6.043,7.263,0,3.254,1.511,5.317,5.085,5.317h3.747C120.581,239.295,118.577,240.2,115.642,240.2Zm45.523-10.46c1.83,0,2.615.93,2.673,1.976,0,.7-.668,1.046-3.021,1.046-1.947,0-2.877-.319-3.284-.872A3.673,3.673,0,0,1,161.165,229.736Zm-43.082,3.051c-2.179,0-2.79-.261-2.79-1.017,0-1.075,1.075-1.975,2.848-1.975a2.782,2.782,0,0,1,3.108,2.847v.145Z" fill="#00935D"/>
      <path id="Path_53" data-name="Path 53" d="M115.061,222.56c2.935-.2,5.143-.406,6.188-.552V219.8c-.435.029-1.685.174-2.847.174-.987,0-1.22-.174-1.22-.726,0-.581.581-.756,1.4-.756a6.63,6.63,0,0,1,1.888.32v-2.15a5.3,5.3,0,0,0-1.888-.436,2.8,2.8,0,0,0-3.022,2.9,2.086,2.086,0,0,0,.32,1.191l-.814.059Z" fill="#00935D"/>
      <path id="Path_54" data-name="Path 54" d="M181.571,172.443a12.554,12.554,0,0,0-9.1-11.733,12.085,12.085,0,0,0-1.946-.391c-.329-.042-.659-.063-.989-.078l-.495-.012h-.418l-3.322.005c-4.432.007-8.863.007-13.295.048l-3.323.032-1.69.021c-.576.013-1.151.034-1.727.066a41.313,41.313,0,0,0-6.886.941,36.113,36.113,0,0,0-6.55,2.216c-2.081.917-4.039,1.947-5.991,2.739a17.368,17.368,0,0,1-2.974.916,13.062,13.062,0,0,1-3.108.247,22.951,22.951,0,0,1-6.383-1.355,18.783,18.783,0,0,0,6.193,2.771,13.445,13.445,0,0,0,3.522.322,17.306,17.306,0,0,0,3.5-.525c1.136-.273,2.224-.628,3.285-.984l3.131-1.042a53.822,53.822,0,0,1,6.161-1.629,40.51,40.51,0,0,1,6.287-.747c.53-.022,1.062-.034,1.594-.039h.8l.831.008,3.323.033c4.432.041,8.863.041,13.295.048l3.322,0h.413l.336.009c.223.012.447.024.668.054a7.84,7.84,0,0,1,1.307.263,8.45,8.45,0,0,1,6.124,7.9l.007,6.592v68.13c0,.152-.006.236-.008.356a3.119,3.119,0,0,1-.016.335c-.011.223-.04.444-.069.666a8.459,8.459,0,0,1-7.036,7.1,9.552,9.552,0,0,1-1.336.1H76.372c-.143,0-.232-.005-.351-.007a8.2,8.2,0,0,1-1.328-.146,8.453,8.453,0,0,1-6.8-7.326c-.024-.222-.044-.445-.049-.668l-.009-.343V172.774l.006-.168c0-.112,0-.224.011-.335a8.42,8.42,0,0,1,7.7-7.908c.223-.022.446-.029.67-.033h.816l6.647.014,6.646.035c2.216,0,4.432.014,6.648,0l3.322-.033,1.662-.022c.572-.012,1.149-.026,1.723-.053a40.615,40.615,0,0,0,6.889-.86,34.025,34.025,0,0,0,6.6-2.165c1.051-.464,2.078-.958,3.071-1.47s1.962-1.025,2.927-1.476a12.076,12.076,0,0,1,5.968-1.435,19.648,19.648,0,0,1,6.3,1.587,17.108,17.108,0,0,0-6.119-2.938,11.385,11.385,0,0,0-3.562-.2,17.709,17.709,0,0,0-3.456.76c-2.2.719-4.217,1.559-6.257,2.2a41.327,41.327,0,0,1-6.171,1.447,46.452,46.452,0,0,1-6.32.521c-.532.008-1.063,0-1.6,0l-1.662-.023-3.322-.033c-2.216-.015-4.432,0-6.648,0l-6.646.036-6.647.014-.846,0c-.33.005-.66.016-.99.047a12.467,12.467,0,0,0-5.6,1.88,12.536,12.536,0,0,0-5.844,9.872c-.014.165-.012.33-.019.495l-.005.247v74.571l.011.487c.009.33.036.66.073.989a12.553,12.553,0,0,0,10.1,10.888,12.118,12.118,0,0,0,1.971.217l.479.01h92.641a13.779,13.779,0,0,0,1.972-.153,12.557,12.557,0,0,0,10.456-10.549c.045-.329.086-.657.105-.987.015-.165.021-.33.024-.5s.01-.349.008-.475v-68.13Z" fill="#00935D"/>
    </g>
  </g>
</svg>
