<?xml version="1.0" encoding="utf-8"?>
<!-- Generator: Adobe Illustrator 24.1.3, SVG Export Plug-In . SVG Version: 6.00 Build 0)  -->
<svg version="1.1" id="Layer_1" xmlns="http://www.w3.org/2000/svg" xmlns:xlink="http://www.w3.org/1999/xlink" x="0px" y="0px"
	 viewBox="0 0 962 768" enable-background="new 0 0 962 768" xml:space="preserve">
<g>
	<g>
		<g>
			<g>
				<rect x="134.91" y="294.64" fill="#FFCB00" width="73.67" height="73.67"/>
			</g>
		</g>
		<g>
			<g>
				<rect x="282.26" y="294.64" fill="#FFCB00" width="73.67" height="73.67"/>
			</g>
		</g>
		<g>
			<g>
				<rect x="429.61" y="294.64" fill="#FFCB00" width="73.67" height="73.67"/>
			</g>
		</g>
		<g>
			<g>
				<rect x="576.96" y="294.64" fill="#FFCB00" width="73.67" height="73.67"/>
			</g>
		</g>
		<g>
			<g>
				<rect x="724.31" y="294.64" fill="#FFCB00" width="73.67" height="73.67"/>
			</g>
		</g>
		<g>
			<g>
				<rect x="134.91" y="441.99" fill="#FFCB00" width="73.67" height="73.67"/>
			</g>
		</g>
		<g>
			<g>
				<rect x="282.26" y="441.99" fill="#FFCB00" width="73.67" height="73.67"/>
			</g>
		</g>
		<g>
			<g>
				<rect x="429.61" y="441.99" fill="#FFCB00" width="73.67" height="73.67"/>
			</g>
		</g>
		<g>
			<g>
				<rect x="576.96" y="441.99" fill="#FFCB00" width="73.67" height="73.67"/>
			</g>
		</g>
		<g>
			<g>
				<rect x="134.91" y="589.34" fill="#FFCB00" width="73.67" height="73.67"/>
			</g>
		</g>
		<g>
			<g>
				<rect x="282.26" y="589.34" fill="#FFCB00" width="73.67" height="73.67"/>
			</g>
		</g>
		<g>
			<g>
				<rect x="429.61" y="589.34" fill="#FFCB00" width="73.67" height="73.67"/>
			</g>
		</g>
		<g>
			<g>
				<rect x="576.96" y="589.34" fill="#FFCB00" width="73.67" height="73.67"/>
			</g>
		</g>
		<g>
			<g>
				<rect x="724.31" y="441.99" fill="#FFCB00" width="73.67" height="73.67"/>
			</g>
		</g>
	</g>
	<path fill="none" stroke="#FFCB00" stroke-width="0.75" stroke-miterlimit="10" d="M0.53,768h960.24c0.55,0,1-0.45,1-1V62.84
		c0-0.55-0.45-1-1-1H0.53c-0.55,0-1,0.45-1,1V767C-0.47,767.55-0.02,768,0.53,768z"/>
	
		<rect x="789.41" y="-0.24" transform="matrix(-1 -1.224647e-16 1.224647e-16 -1 1582.3599 123.6803)" fill="none" stroke="#FFCB00" stroke-miterlimit="10" width="3.55" height="124.16"/>
	
		<rect x="181.68" y="-0.24" transform="matrix(-1 -1.224647e-16 1.224647e-16 -1 366.8991 123.6803)" fill="none" stroke="#FFCB00" stroke-miterlimit="10" width="3.55" height="124.16"/>
	
		<rect x="7.29" y="216.17" fill="none" stroke="#FFCB00" stroke-width="0.75" stroke-miterlimit="10" width="938.96" height="0.87"/>
</g>
</svg>
