<?xml version="1.0" encoding="utf-8"?>
<!-- Generator: Adobe Illustrator 24.1.3, SVG Export Plug-In . SVG Version: 6.00 Build 0)  -->
<svg version="1.1" id="Layer_1" xmlns="http://www.w3.org/2000/svg" xmlns:xlink="http://www.w3.org/1999/xlink" x="0px" y="0px"
	 viewBox="0 0 771 768" enable-background="new 0 0 771 768" xml:space="preserve">
<g>
	<path fill="#FFFFFF" d="M388.37,760c-207.22,0-375.8-168.57-375.8-375.8S181.15,8.4,388.37,8.4s375.8,168.57,375.8,375.8
		S595.6,760,388.37,760z M388.37,55.38c-181.32,0-328.82,147.5-328.82,328.82s147.5,328.82,328.82,328.82S717.2,565.52,717.2,384.2
		S569.7,55.38,388.37,55.38z"/>
	<path fill="#FFFFFF" d="M515.47,266.59H249.28c-12.97,0-23.49-10.52-23.49-23.49s10.52-23.49,23.49-23.49h266.19
		c12.97,0,23.49,10.52,23.49,23.49S528.44,266.59,515.47,266.59z"/>
	<path fill="#FFFFFF" d="M515.47,399.69H249.28c-12.97,0-23.49-10.52-23.49-23.49c0-12.97,10.52-23.49,23.49-23.49h266.19
		c12.97,0,23.49,10.52,23.49,23.49C538.96,389.17,528.44,399.69,515.47,399.69z"/>
	<path fill="#FFFFFF" d="M515.47,532.79H249.28c-12.97,0-23.49-10.52-23.49-23.49s10.52-23.49,23.49-23.49h266.19
		c12.97,0,23.49,10.52,23.49,23.49S528.44,532.79,515.47,532.79z"/>
</g>
</svg>
