<svg xmlns="http://www.w3.org/2000/svg" width="23.239" height="16.44" viewBox="0 0 23.239 16.44">
  <path id="Path_140" data-name="Path 140" d="M373.15,672.722a2.812,2.812,0,0,0-1.982-1.975c-1.76-.48-8.8-.48-8.8-.48s-7.04,0-8.8.461a2.873,2.873,0,0,0-1.981,1.994,31.6,31.6,0,0,0,0,10.78,2.81,2.81,0,0,0,1.982,1.975c1.777.481,8.8.481,8.8.481s7.039,0,8.8-.462a2.812,2.812,0,0,0,1.982-1.975,29.5,29.5,0,0,0,.463-5.391A27.98,27.98,0,0,0,373.15,672.722Z" transform="translate(-350.75 -669.893)" fill="none" stroke="#333" stroke-miterlimit="10" stroke-width="0.75"/>
</svg>
