<?xml version="1.0" encoding="utf-8"?>
<!-- Generator: Adobe Illustrator 24.1.3, SVG Export Plug-In . SVG Version: 6.00 Build 0)  -->
<svg version="1.1" id="Layer_1" xmlns="http://www.w3.org/2000/svg" xmlns:xlink="http://www.w3.org/1999/xlink" x="0px" y="0px"
	 viewBox="0 0 1208 900" enable-background="new 0 0 1208 900" xml:space="preserve">
<g>
	<g>
		<g>
			<rect x="178.02" y="353.97" fill="#FFFFFF" width="90.97" height="90.97"/>
		</g>
	</g>
	<g>
		<g>
			<rect x="359.97" y="353.97" fill="#FFFFFF" width="90.97" height="90.97"/>
		</g>
	</g>
	<g>
		<g>
			<rect x="541.91" y="353.97" fill="#FFFFFF" width="90.97" height="90.97"/>
		</g>
	</g>
	<g>
		<g>
			<rect x="693.41" y="353.97" fill="#FFFFFF" width="353.91" height="90.97"/>
		</g>
	</g>
	<g>
		<g>
			<rect x="137.26" y="151.73" fill="#FFFFFF" width="960.63" height="83.38"/>
		</g>
	</g>
	<g>
		<g>
			<rect x="178.02" y="535.91" fill="#FFFFFF" width="90.97" height="90.97"/>
		</g>
	</g>
	<g>
		<g>
			<rect x="359.97" y="535.91" fill="#FFFFFF" width="90.97" height="90.97"/>
		</g>
	</g>
	<g>
		<g>
			<rect x="541.91" y="535.91" fill="#FFFFFF" width="90.97" height="90.97"/>
		</g>
	</g>
	<g>
		<g>
			<rect x="693.59" y="535.91" fill="#FFFFFF" width="353.74" height="90.97"/>
		</g>
	</g>
	<g>
		<g>
			<rect x="178.02" y="717.85" fill="#FFFFFF" width="90.97" height="90.97"/>
		</g>
	</g>
	<g>
		<g>
			<rect x="359.97" y="717.85" fill="#FFFFFF" width="90.97" height="90.97"/>
		</g>
	</g>
	<g>
		<g>
			<rect x="541.91" y="717.85" fill="#FFFFFF" width="90.97" height="90.97"/>
		</g>
	</g>
	<g>
		<g>
			<rect x="693.59" y="717.85" fill="#FFFFFF" width="353.74" height="90.97"/>
		</g>
	</g>
	<g>
		<path fill="#FFFFFF" d="M1198,900.4H11.86c-7.44,0-13.5-6.06-13.5-13.5V16.96c0-7.44,6.06-13.5,13.5-13.5H1198
			c7.44,0,13.5,6.06,13.5,13.5V886.9C1211.5,894.34,1205.44,900.4,1198,900.4z M23.36,875.4H1186.5V28.46H23.36V875.4z"/>
	</g>
</g>
</svg>
