<svg xmlns="http://www.w3.org/2000/svg" width="75.135" height="44.833" viewBox="0 0 75.135 44.833">
  <path id="Path_631" data-name="Path 631" d="M128.861,124.7h-22.3c-2.525-7.355-13.063-7.285-15.564,0H89.13V114.1a2.425,2.425,0,0,1,2.429-2.4h16.433a2.131,2.131,0,0,0,2.143-2.12V96.852H146.86V99.4h-3.941a2.121,2.121,0,0,0,0,4.241h3.941v4.1H136.571a2.121,2.121,0,0,0,0,4.241H146.86V124.7h-2.436C141.9,117.345,131.361,117.417,128.861,124.7Zm22.286-21.064h2.572a2.121,2.121,0,0,0,0-4.241h-2.572V94.731A2.132,2.132,0,0,0,149,92.611c-3.28,0-39.332.013-39.332,0a16,16,0,0,0-13.987,7.866l-4.2,6.978a6.689,6.689,0,0,0-6.639,6.643v12.723a2.132,2.132,0,0,0,2.143,2.121h3.737a8.237,8.237,0,0,0,16.1,0H128.59a8.237,8.237,0,0,0,16.105,0H149a2.133,2.133,0,0,0,2.144-2.121V120.46h4.715a2.121,2.121,0,0,0,0-4.241h-4.715v-4.241h4.715a2.121,2.121,0,0,0,0-4.241h-4.715ZM96,124.567a3.859,3.859,0,0,0,0,5.5,3.918,3.918,0,1,0,0-5.5Zm.46-17.113h9.392V97.426a11.65,11.65,0,0,0-6.5,5.221Zm37.408,17.113a3.858,3.858,0,0,0,0,5.5,3.917,3.917,0,1,0,0-5.5Z" transform="translate(-83.843 -91.611)" fill="#fff" stroke="#bf272d" stroke-miterlimit="10" stroke-width="2" fill-rule="evenodd" opacity="0.3"/>
</svg>
