<?xml version="1.0" encoding="utf-8"?>
<!-- Generator: Adobe Illustrator 24.1.3, SVG Export Plug-In . SVG Version: 6.00 Build 0)  -->
<svg version="1.1" id="Layer_1" xmlns="http://www.w3.org/2000/svg" xmlns:xlink="http://www.w3.org/1999/xlink" x="0px" y="0px"
	 viewBox="0 0 792 900" enable-background="new 0 0 792 900" xml:space="preserve">
<g opacity="0.09">
	<path fill="#FFCB00" d="M199.38,282.64c45.56,0,82.64-37.07,82.64-82.64s-37.07-82.64-82.64-82.64s-82.64,37.07-82.64,82.64
		S153.82,282.64,199.38,282.64z M199.38,169.23c16.97,0,30.77,13.8,30.77,30.77s-13.8,30.77-30.77,30.77s-30.77-13.8-30.77-30.77
		S182.42,169.23,199.38,169.23z"/>
	<path fill="#FFCB00" d="M759.07,111.67H372.47C340.85,49.78,276.26,6.22,200.25,6.22C31.72,6.22-55.56,208.39,58.91,331.13v534.3
		c0,14.32,11.61,25.93,25.93,25.93h674.23c14.32,0,25.93-11.61,25.93-25.93V137.6C785,123.28,773.39,111.67,759.07,111.67z
		 M370,604.38V839.5h-51.78V708.11c0-14.32-11.61-25.93-25.93-25.93H110.77v-51.86h129.66c6.88,0,13.47-2.73,18.34-7.6L518.08,363.4
		c4.86-4.86,7.6-11.46,7.6-18.34V163.54h51.95v181.52c0,14.32,11.61,25.93,25.93,25.93h129.57v51.82H551.57
		c-6.88,0-13.47,2.73-18.34,7.6L377.6,586.04C372.73,590.91,370,597.5,370,604.38L370,604.38z M733.14,319.13H629.49V163.54h103.64
		V319.13z M473.82,163.54v170.78L229.69,578.45H110.77V383.18l71.14,71.14c10.12,10.12,26.55,10.13,36.67,0l118.28-118.28
		c47.16-47.17,64.59-111.91,53.27-172.5L473.82,163.54z M200.25,58.08c125.34,0,188.67,152.56,99.95,241.29l-99.95,99.95
		l-99.95-99.95C11.82,210.88,74.67,58.08,200.25,58.08z M110.77,734.04h155.59V839.5H110.77V734.04z M421.87,839.5V615.12
		l140.44-140.44h170.83V839.5H421.87z"/>
</g>
</svg>
