<?xml version="1.0" encoding="utf-8"?>
<!-- Generator: Adobe Illustrator 24.1.3, SVG Export Plug-In . SVG Version: 6.00 Build 0)  -->
<svg version="1.1" id="Layer_1" xmlns="http://www.w3.org/2000/svg" xmlns:xlink="http://www.w3.org/1999/xlink" x="0px" y="0px"
	 viewBox="0 0 683 768" enable-background="new 0 0 683 768" xml:space="preserve">
<g>
	<g>
		<path stroke="#EDEDED" stroke-width="0.5" stroke-miterlimit="10" d="M654.6,112.72H496.8V87c0-46-37.42-83.42-83.42-83.42h-150
			c-46,0-83.42,37.42-83.42,83.42v25.73H22.17c-11.69,0-21.05,9.36-21.05,21.05c0,11.69,9.36,21.05,21.05,21.05h38.05v494.6
			c0,62.06,50.52,112.58,112.58,112.58h331.19c62.06,0,112.58-50.52,112.58-112.58v-494.6h38.05c11.69,0,21.05-9.36,21.05-21.05
			C675.65,122.08,666.3,112.72,654.6,112.72z M222.06,87c0-22.77,18.56-41.32,41.32-41.32h150c22.77,0,41.32,18.56,41.32,41.32
			v25.73H222.06V87z M574.45,649.42c0,38.83-31.65,70.48-70.48,70.48H172.79c-38.83,0-70.48-31.65-70.48-70.48v-494.6h472.3v494.6
			H574.45z"/>
		<path stroke="#EDEDED" stroke-width="0.5" stroke-miterlimit="10" d="M338.38,644.43c11.69,0,21.05-9.36,21.05-21.05V251.34
			c0-11.69-9.36-21.05-21.05-21.05c-11.69,0-21.05,9.36-21.05,21.05v371.88C317.33,634.92,326.69,644.43,338.38,644.43z"/>
		<path stroke="#EDEDED" stroke-width="0.5" stroke-miterlimit="10" d="M201.01,621.2c11.69,0,21.05-9.36,21.05-21.05V274.42
			c0-11.69-9.36-21.05-21.05-21.05s-21.05,9.36-21.05,21.05v325.73C179.96,611.84,189.47,621.2,201.01,621.2z"/>
		<path stroke="#EDEDED" stroke-width="0.5" stroke-miterlimit="10" d="M475.75,621.2c11.69,0,21.05-9.36,21.05-21.05V274.42
			c0-11.69-9.36-21.05-21.05-21.05c-11.69,0-21.05,9.36-21.05,21.05v325.73C454.7,611.84,464.06,621.2,475.75,621.2z"/>
	</g>
</g>
</svg>
