<svg xmlns="http://www.w3.org/2000/svg" width="334.8" height="334.8" viewBox="0 0 334.8 334.8">
  <path id="Path_906" data-name="Path 906" d="M1468.738,157.738A166.4,166.4,0,1,0,1517.476,275.4,165.313,165.313,0,0,0,1468.738,157.738ZM1268.1,396.551a84.259,84.259,0,0,1,165.958,0,146.583,146.583,0,0,1-165.958,0Zm30.07-142.037a52.909,52.909,0,1,1,52.909,52.909A52.967,52.967,0,0,1,1298.167,254.514Zm152.78,128.512a103.943,103.943,0,0,0-60.416-67.828,72.41,72.41,0,1,0-78.91,0,103.9,103.9,0,0,0-60.411,67.824A146.522,146.522,0,0,1,1204.176,275.4c0-81,65.9-146.9,146.9-146.9s146.9,65.9,146.9,146.9A146.534,146.534,0,0,1,1450.947,383.026Z" transform="translate(-1183.676 -108)" fill="#999" stroke="#fff" stroke-miterlimit="10" stroke-width="2"/>
</svg>
