<?xml version="1.0" encoding="utf-8"?>
<!-- Generator: Adobe Illustrator 24.1.3, SVG Export Plug-In . SVG Version: 6.00 Build 0)  -->
<svg version="1.1" id="Layer_1" xmlns="http://www.w3.org/2000/svg" xmlns:xlink="http://www.w3.org/1999/xlink" x="0px" y="0px"
	 viewBox="0 0 1093 768" enable-background="new 0 0 1093 768" xml:space="preserve">
<g>
	<path fill="#333333" d="M1063.74,123.28c-12.46-46.29-48.95-82.78-95.24-95.24C883.94,4.9,545.7,4.9,545.7,4.9
		s-338.23,0-422.79,22.26C77.52,39.61,40.14,77,27.68,123.28C5.43,207.83,5.43,383.18,5.43,383.18s0,176.23,22.25,259.9
		c12.47,46.28,48.95,82.78,95.24,95.24c85.44,23.14,422.79,23.14,422.79,23.14s338.23,0,422.79-22.26
		c46.29-12.46,82.78-48.95,95.24-95.24c22.25-84.56,22.25-259.9,22.25-259.9S1086.89,207.83,1063.74,123.28z"/>
	<path d="M438.01,545.18l281.26-162l-281.26-162V545.18z"/>
</g>
</svg>
