<!-- Generated by IcoMoon.io -->
<svg version="1.1" xmlns="http://www.w3.org/2000/svg" width="1106" height="1024" viewBox="0 0 1106 1024">
<title></title>
<g id="icomoon-ignore">
</g>
<path fill="#000" d="M1065.046 182.549c-4.321-4.321-8.641-8.641-17.283-8.641h-810.559l-21.387-111.041c0-8.641-12.962-17.283-21.387-17.283h-127.46c-12.962 0-21.387 8.641-21.387 21.387 0 12.962 8.641 21.387 21.387 21.387h111.041l101.968 520.641c12.962 68.483 76.908 119.683 144.959 119.683h490.613c12.962 0 21.387-8.641 21.387-21.387 0-12.962-8.641-21.387-21.387-21.387h-486.292c-33.917 0-68.483-17.283-85.117-46.879l623.041-85.117c8.641 0 17.283-8.641 17.283-17.283l85.117-341.333c-0.216 0.216-0.216-8.425-4.537-12.746zM945.364 515.241l-623.041 81.013-76.476-383.892h772.321l-72.803 302.879z"></path>
<path fill="#000" d="M408.088 771.241c-59.841 0-106.721 46.879-106.721 106.721s46.879 106.721 106.721 106.721 106.721-46.879 106.721-106.721c0-59.409-46.879-106.721-106.721-106.721zM408.088 941.907c-33.917 0-64.162-29.813-64.162-64.162s29.813-64.162 64.162-64.162 64.162 29.813 64.162 64.162c-0.216 34.565-30.245 64.162-64.162 64.162z"></path>
<path fill="#000" d="M834.754 771.241c-59.841 0-106.721 46.879-106.721 106.721s46.879 106.721 106.721 106.721 106.721-46.879 106.721-106.721c0-59.841-47.311-106.721-106.721-106.721zM834.754 941.907c-33.917 0-64.162-29.813-64.162-64.162s29.813-64.162 64.162-64.162 64.162 29.813 64.162 64.162-30.029 64.162-64.162 64.162z"></path>
</svg>
