<?xml version="1.0" encoding="utf-8"?>
<!-- Generator: Adobe Illustrator 24.1.3, SVG Export Plug-In . SVG Version: 6.00 Build 0)  -->
<svg version="1.1" id="Layer_1" xmlns="http://www.w3.org/2000/svg" xmlns:xlink="http://www.w3.org/1999/xlink" x="0px" y="0px"
	 viewBox="0 0 1220 900" enable-background="new 0 0 1220 900" xml:space="preserve">
<path fill="#666666" stroke="#FFFFFF" stroke-width="0.5" stroke-miterlimit="10" d="M249.74,296.01c9.62,0.01,19.22,0.6,28.77,1.77
	c25.92-86.12,103.77-144.97,192.05-145.15c21.98-0.02,43.79,3.7,64.56,11C586.53,50.19,708.36-11.45,827.96,15.45
	c119.61,26.91,204.75,135.11,204.66,260.08c-0.01,21.6-2.65,43.11-7.82,64.04c113.95,17.75,195.37,121.97,186.9,239.28
	c-8.46,117.32-103.95,208.26-219.22,208.78H249.74C116.7,787.62,8.85,677.57,8.85,541.81S116.7,296.01,249.74,296.01z
	 M249.74,746.65h742.74c98.97,0.44,179.83-80.51,181.31-181.48c1.47-100.98-76.99-184.34-175.93-186.91
	c-6.42-0.18-12.37-3.49-15.99-8.9c-3.64-5.42-4.51-12.27-2.36-18.44c39.85-116.35-19.42-243.77-132.96-285.83
	c-113.53-42.07-239.11,16.87-281.7,132.21c-1.95,5.35-5.98,9.62-11.15,11.8c-5.17,2.18-10.99,2.06-16.06-0.33
	c-21.02-9.97-43.9-15.14-67.07-15.17c-76.38,0.14-142.15,55.04-157.4,131.4c-2.18,11.1-12.78,18.28-23.65,16.04
	c-13.09-2.68-26.4-4.04-39.77-4.05C138.87,336.98,49,428.7,49,541.81C49,654.94,138.87,746.65,249.74,746.65z"/>
<g>
	<g>
		<path fill="#666666" stroke="#FFFFFF" stroke-width="0.25" stroke-miterlimit="10" d="M680.13,297.87l-216.09,218.1
			c-5.63,5.68-5.59,14.84,0.09,20.47c5.68,5.63,14.84,5.59,20.47-0.09l191.5-193.28l2.92,530.53c0.04,8,6.54,14.44,14.54,14.41
			c8-0.04,14.44-6.54,14.41-14.54l-2.92-530.53l193.28,191.5c5.68,5.63,14.84,5.59,20.47-0.09c2.81-2.84,4.21-6.55,4.19-10.25
			s-1.45-7.4-4.29-10.21L700.6,297.78C694.92,292.15,685.76,292.19,680.13,297.87z"/>
	</g>
</g>
</svg>
