<svg xmlns="http://www.w3.org/2000/svg" width="20.831" height="20.831" viewBox="0 0 20.831 20.831">
  <g id="Group_530" data-name="Group 530" transform="translate(0.25 0.25)">
    <g id="Group_501" data-name="Group 501">
      <g id="Group_500" data-name="Group 500">
        <path id="Path_649" data-name="Path 649" d="M875.837,749.588h-.952V748H873.3v1.588H862.812V748h-1.588v1.588h-.952a2.386,2.386,0,0,0-2.383,2.383v13.977a2.386,2.386,0,0,0,2.383,2.383h15.565a2.386,2.386,0,0,0,2.383-2.383V751.971A2.386,2.386,0,0,0,875.837,749.588Zm.8,16.36a.8.8,0,0,1-.8.8H860.272a.8.8,0,0,1-.8-.8V755.465h17.155Zm0-12.071H859.477v-1.906a.8.8,0,0,1,.8-.794h.952v1.588h1.588v-1.588H873.3v1.588h1.589v-1.588h.952a.8.8,0,0,1,.8.794Z" transform="translate(-857.889 -748)" fill="#666" stroke="#fff" stroke-miterlimit="10" stroke-width="0.5"/>
      </g>
    </g>
    <g id="Group_503" data-name="Group 503" transform="translate(3.018 9.133)">
      <g id="Group_502" data-name="Group 502">
        <rect id="Rectangle_762" data-name="Rectangle 762" width="1.588" height="1.588" fill="#666" stroke="#fff" stroke-miterlimit="10" stroke-width="0.5"/>
      </g>
    </g>
    <g id="Group_505" data-name="Group 505" transform="translate(6.194 9.133)">
      <g id="Group_504" data-name="Group 504">
        <rect id="Rectangle_763" data-name="Rectangle 763" width="1.588" height="1.588" fill="#666" stroke="#fff" stroke-miterlimit="10" stroke-width="0.5"/>
      </g>
    </g>
    <g id="Group_507" data-name="Group 507" transform="translate(9.371 9.133)">
      <g id="Group_506" data-name="Group 506">
        <rect id="Rectangle_764" data-name="Rectangle 764" width="1.588" height="1.588" fill="#666" stroke="#fff" stroke-miterlimit="10" stroke-width="0.5"/>
      </g>
    </g>
    <g id="Group_509" data-name="Group 509" transform="translate(12.548 9.133)">
      <g id="Group_508" data-name="Group 508">
        <rect id="Rectangle_765" data-name="Rectangle 765" width="1.588" height="1.588" fill="#666" stroke="#fff" stroke-miterlimit="10" stroke-width="0.5"/>
      </g>
    </g>
    <g id="Group_511" data-name="Group 511" transform="translate(15.725 9.133)">
      <g id="Group_510" data-name="Group 510">
        <rect id="Rectangle_766" data-name="Rectangle 766" width="1.588" height="1.588" fill="#666" stroke="#fff" stroke-miterlimit="10" stroke-width="0.5"/>
      </g>
    </g>
    <g id="Group_513" data-name="Group 513" transform="translate(3.018 12.31)">
      <g id="Group_512" data-name="Group 512">
        <rect id="Rectangle_767" data-name="Rectangle 767" width="1.588" height="1.588" fill="#666" stroke="#fff" stroke-miterlimit="10" stroke-width="0.5"/>
      </g>
    </g>
    <g id="Group_515" data-name="Group 515" transform="translate(6.194 12.31)">
      <g id="Group_514" data-name="Group 514">
        <rect id="Rectangle_768" data-name="Rectangle 768" width="1.588" height="1.588" fill="#666" stroke="#fff" stroke-miterlimit="10" stroke-width="0.5"/>
      </g>
    </g>
    <g id="Group_517" data-name="Group 517" transform="translate(9.371 12.31)">
      <g id="Group_516" data-name="Group 516">
        <rect id="Rectangle_769" data-name="Rectangle 769" width="1.588" height="1.588" fill="#666" stroke="#fff" stroke-miterlimit="10" stroke-width="0.5"/>
      </g>
    </g>
    <g id="Group_519" data-name="Group 519" transform="translate(12.548 12.31)">
      <g id="Group_518" data-name="Group 518">
        <rect id="Rectangle_770" data-name="Rectangle 770" width="1.588" height="1.588" fill="#666" stroke="#fff" stroke-miterlimit="10" stroke-width="0.5"/>
      </g>
    </g>
    <g id="Group_521" data-name="Group 521" transform="translate(3.018 15.487)">
      <g id="Group_520" data-name="Group 520">
        <rect id="Rectangle_771" data-name="Rectangle 771" width="1.588" height="1.588" fill="#666" stroke="#fff" stroke-miterlimit="10" stroke-width="0.5"/>
      </g>
    </g>
    <g id="Group_523" data-name="Group 523" transform="translate(6.194 15.487)">
      <g id="Group_522" data-name="Group 522">
        <rect id="Rectangle_772" data-name="Rectangle 772" width="1.588" height="1.588" fill="#666" stroke="#fff" stroke-miterlimit="10" stroke-width="0.5"/>
      </g>
    </g>
    <g id="Group_525" data-name="Group 525" transform="translate(9.371 15.487)">
      <g id="Group_524" data-name="Group 524">
        <rect id="Rectangle_773" data-name="Rectangle 773" width="1.588" height="1.588" fill="#666" stroke="#fff" stroke-miterlimit="10" stroke-width="0.5"/>
      </g>
    </g>
    <g id="Group_527" data-name="Group 527" transform="translate(12.548 15.487)">
      <g id="Group_526" data-name="Group 526">
        <rect id="Rectangle_774" data-name="Rectangle 774" width="1.588" height="1.588" fill="#666" stroke="#fff" stroke-miterlimit="10" stroke-width="0.5"/>
      </g>
    </g>
    <g id="Group_529" data-name="Group 529" transform="translate(15.725 12.31)">
      <g id="Group_528" data-name="Group 528">
        <rect id="Rectangle_775" data-name="Rectangle 775" width="1.588" height="1.588" fill="#666" stroke="#fff" stroke-miterlimit="10" stroke-width="0.5"/>
      </g>
    </g>
  </g>
</svg>
