<svg xmlns="http://www.w3.org/2000/svg" width="25.322" height="25.321" viewBox="0 0 25.322 25.321">
  <g id="Group_384" data-name="Group 384" transform="translate(-1030.527 -587.929)">
    <path id="Path_534" data-name="Path 534" d="M1054.822,599.814H1045a.776.776,0,0,1,0-1.552h9.825a.776.776,0,0,1,0,1.552Z" fill="#4d4d4d" stroke="#fff" stroke-miterlimit="10" stroke-width="0.5"/>
    <path id="Path_535" data-name="Path 535" d="M1050.944,603.692a.776.776,0,0,1-.548-1.325l3.33-3.33-3.33-3.33a.776.776,0,0,1,1.1-1.1l3.879,3.878a.775.775,0,0,1,0,1.1l-3.879,3.878A.77.77,0,0,1,1050.944,603.692Z" fill="#4d4d4d" stroke="#fff" stroke-miterlimit="10" stroke-width="0.5"/>
    <path id="Path_536" data-name="Path 536" d="M1046.549,596.453a.776.776,0,0,1-.776-.776v-4.654a1.294,1.294,0,0,0-1.293-1.293h-11.635a.775.775,0,0,1,0-1.551h11.635a2.846,2.846,0,0,1,2.844,2.844v4.654A.776.776,0,0,1,1046.549,596.453Z" fill="#4d4d4d" stroke="#fff" stroke-miterlimit="10" stroke-width="0.5"/>
    <path id="Path_537" data-name="Path 537" d="M1044.48,609.9h-4.137a.775.775,0,0,1,0-1.551h4.137a1.294,1.294,0,0,0,1.293-1.293V602.4a.776.776,0,0,1,1.551,0v4.654A2.846,2.846,0,0,1,1044.48,609.9Z" fill="#4d4d4d" stroke="#fff" stroke-miterlimit="10" stroke-width="0.5"/>
    <path id="Path_538" data-name="Path 538" d="M1039.051,613a2.138,2.138,0,0,1-.642-.1l-6.224-2.074a2.088,2.088,0,0,1-1.408-1.967V590.247a2.07,2.07,0,0,1,2.068-2.068,2.139,2.139,0,0,1,.642.1l6.223,2.074a2.086,2.086,0,0,1,1.409,1.967v18.615A2.071,2.071,0,0,1,1039.051,613Zm-6.206-23.27a.519.519,0,0,0-.517.517v18.616a.539.539,0,0,0,.359.5l6.195,2.064a.571.571,0,0,0,.169.023.519.519,0,0,0,.517-.518V592.316a.538.538,0,0,0-.359-.5l-6.195-2.064A.548.548,0,0,0,1032.845,589.73Z" fill="#4d4d4d" stroke="#fff" stroke-miterlimit="10" stroke-width="0.5"/>
  </g>
</svg>
