<svg xmlns="http://www.w3.org/2000/svg" width="11.825" height="10.959" viewBox="0 0 11.825 10.959"><g transform="translate(-754.616 -414.6)"><path d="M766.1,419.3a.337.337,0,0,0-.339.338v3.082a1.52,1.52,0,0,1-1.518,1.518h-7.434a1.52,1.52,0,0,1-1.518-1.518v-3.132a.339.339,0,0,0-.677,0v3.132a2.2,2.2,0,0,0,2.2,2.2h7.434a2.2,2.2,0,0,0,2.2-2.2v-3.082A.338.338,0,0,0,766.1,419.3Z" transform="translate(0 0.645)" fill="#333"/><path d="M758.2,417.333l1.576-1.576v6.874a.339.339,0,0,0,.678,0v-6.874l1.576,1.576a.341.341,0,0,0,.238.1.327.327,0,0,0,.238-.1.337.337,0,0,0,0-.479L760.35,414.7a.342.342,0,0,0-.238-.1.329.329,0,0,0-.238.1l-2.153,2.154a.337.337,0,0,0,0,.479A.341.341,0,0,0,758.2,417.333Z" transform="translate(0.417)" fill="#333"/></g></svg>