<svg xmlns="http://www.w3.org/2000/svg" width="25.474" height="25.924" viewBox="0 0 25.474 25.924">
  <g id="user_2_" data-name="user (2)" transform="translate(0.25 0.25)">
    <g id="Group_10" data-name="Group 10" transform="translate(0 16.083)">
      <g id="Group_9" data-name="Group 9" transform="translate(0)">
        <path id="Path_17" data-name="Path 17" d="M20.133,308.573l-3.8-1.326a.857.857,0,0,0-.282-.049H8.919a.855.855,0,0,0-.282.049l-3.8,1.326A7.383,7.383,0,0,0,0,315.606a.914.914,0,0,0,.892.934h23.19a.914.914,0,0,0,.892-.934A7.383,7.383,0,0,0,20.133,308.573Zm-18.275,6.1a5.472,5.472,0,0,1,3.546-4.328l3.659-1.277H15.91l3.657,1.277a5.471,5.471,0,0,1,3.548,4.328Z" transform="translate(0 -307.199)" fill="#2d0958" stroke="#fff" stroke-width="0.5"/>
      </g>
    </g>
    <g id="Group_12" data-name="Group 12" transform="translate(6.882)">
      <g id="Group_11" data-name="Group 11">
        <path id="Path_18" data-name="Path 18" d="M142.138,0a5.6,5.6,0,0,0-5.6,5.6V9.341a5.6,5.6,0,1,0,11.21,0V5.6A5.6,5.6,0,0,0,142.138,0Zm3.737,9.341a3.737,3.737,0,0,1-7.473,0V5.6a3.737,3.737,0,0,1,7.473,0Z" transform="translate(-136.533)" fill="#2d0958" stroke="#fff" stroke-width="0.5"/>
      </g>
    </g>
  </g>
</svg>
