<svg xmlns="http://www.w3.org/2000/svg" width="13.307" height="10.333" viewBox="0 0 13.307 10.333">
  <g id="Group_523" data-name="Group 523" transform="translate(-1252.201 -176.637)">
    <g id="Group_522" data-name="Group 522">
      <path id="Path_912" data-name="Path 912" d="M1253.42,177.9h2.567v-.39a.874.874,0,0,1,.877-.877h3.981a.873.873,0,0,1,.877.877v.39h2.568a1.227,1.227,0,0,1,1.218,1.219v6.629a1.227,1.227,0,0,1-1.218,1.218h-10.87a1.228,1.228,0,0,1-1.219-1.218v-6.629A1.217,1.217,0,0,1,1253.42,177.9Z" fill="#333"/>
      <path id="Path_913" data-name="Path 913" d="M1260.7,180.6a2.61,2.61,0,1,0,.763,1.852A2.741,2.741,0,0,0,1260.7,180.6Zm-1.836-1.43a3.216,3.216,0,0,1,2.307.959,3.283,3.283,0,0,1,.959,2.307,3.215,3.215,0,0,1-.959,2.307,3.283,3.283,0,0,1-2.307.959,3.21,3.21,0,0,1-2.307-.959,3.28,3.28,0,0,1-.959-2.307,3.274,3.274,0,0,1,3.266-3.266Z" fill="#fff"/>
      <circle id="Ellipse_92" data-name="Ellipse 92" cx="0.65" cy="0.65" r="0.65" transform="translate(1262.957 179.139)" fill="#fff"/>
    </g>
    <circle id="Ellipse_93" data-name="Ellipse 93" cx="2.031" cy="2.031" r="2.031" transform="translate(1256.852 180.426)" fill="#fff"/>
  </g>
</svg>
