<svg id="Group_119" data-name="Group 119" xmlns="http://www.w3.org/2000/svg" width="28.467" height="27.25" viewBox="0 0 28.467 27.25">
  <g id="Group_117" data-name="Group 117" transform="translate(7.295 20.67)">
    <circle id="Ellipse_28" data-name="Ellipse 28" cx="3.04" cy="3.04" r="3.04" transform="translate(12.159)" fill="#fff" stroke="#4d4d4d" stroke-miterlimit="10" stroke-width="1"/>
    <circle id="Ellipse_29" data-name="Ellipse 29" cx="3.04" cy="3.04" r="3.04" fill="#fff" stroke="#4d4d4d" stroke-miterlimit="10" stroke-width="1"/>
  </g>
  <path id="Path_147" data-name="Path 147" d="M205.748,21.047a.609.609,0,0,0-.456-.206H183.405a.608.608,0,0,0-.608.608.575.575,0,0,0,.012.121l2.432,12.16a.609.609,0,0,0,.6.486.563.563,0,0,0,.08,0l18.238-2.432a.61.61,0,0,0,.523-.528l1.216-9.727A.608.608,0,0,0,205.748,21.047Z" transform="translate(-177.934 -17.194)" fill="none" stroke="#4d4d4d" stroke-miterlimit="10" stroke-width="1"/>
  <g id="Group_118" data-name="Group 118" transform="translate(8.514 6.066)">
    <path id="Path_148" data-name="Path 148" d="M188.44,31.9a.608.608,0,0,1-.6-.509L186.626,24.1a.608.608,0,0,1,1.2-.2l1.216,7.3a.608.608,0,0,1-.5.7A.593.593,0,0,1,188.44,31.9Z" transform="translate(-186.62 -23.375)" fill="#4d4d4d"/>
    <path id="Path_149" data-name="Path 149" d="M191.652,31.291a.607.607,0,0,1-.607-.553l-.608-6.687a.608.608,0,0,1,.548-.663h0a.608.608,0,0,1,.661.55h0l.607,6.688a.607.607,0,0,1-.55.66h0Z" transform="translate(-186.791 -23.374)" fill="#4d4d4d"/>
    <path id="Path_150" data-name="Path 150" d="M194.863,30.683a.609.609,0,0,1-.608-.607V24a.608.608,0,0,1,1.217,0v6.08A.608.608,0,0,1,194.863,30.683Z" transform="translate(-186.963 -23.374)" fill="#4d4d4d"/>
    <path id="Path_151" data-name="Path 151" d="M198.046,30.075h-.068a.608.608,0,0,1-.541-.669V29.4l.608-5.471a.616.616,0,0,1,.674-.541.607.607,0,0,1,.538.67h0l-.607,5.472A.608.608,0,0,1,198.046,30.075Z" transform="translate(-187.106 -23.374)" fill="#4d4d4d"/>
    <path id="Path_152" data-name="Path 152" d="M201.229,29.466a.608.608,0,0,1-.608-.607.634.634,0,0,1,.018-.147l1.216-4.864a.608.608,0,1,1,1.186.267l-.007.027-1.216,4.864A.607.607,0,0,1,201.229,29.466Z" transform="translate(-187.249 -23.373)" fill="#4d4d4d"/>
  </g>
  <path id="Path_153" data-name="Path 153" d="M202.631,36.476H188.6a4.269,4.269,0,0,1-4.174-3.42l-2.963-14.818h-3.15a.608.608,0,0,1,0-1.216h3.648a.609.609,0,0,1,.6.486l3.061,15.308A3.049,3.049,0,0,0,188.6,35.26h14.032a.608.608,0,1,1,0,1.216Z" transform="translate(-177.705 -17.022)" fill="#4d4d4d"/>
</svg>
