<svg xmlns="http://www.w3.org/2000/svg" width="36.027" height="28.437" viewBox="0 0 36.027 28.437">
  <g id="Group_539" data-name="Group 539" transform="translate(0.25 0.26)">
    <path id="Path_53" data-name="Path 53" d="M813.687,285.777a7.129,7.129,0,0,1,.85.052,5.96,5.96,0,0,1,5.669-4.285,5.715,5.715,0,0,1,1.905.325,7.658,7.658,0,0,1,8.644-4.375,7.823,7.823,0,0,1,6.042,7.678,7.9,7.9,0,0,1-.23,1.89,6.662,6.662,0,0,1-.954,13.226H813.687a7.258,7.258,0,0,1,0-14.512Zm0,13.3h21.925a5.441,5.441,0,0,0,.159-10.875.589.589,0,0,1-.472-.263.612.612,0,0,1-.07-.544,6.682,6.682,0,0,0-3.924-8.438,6.474,6.474,0,0,0-8.316,3.9.6.6,0,0,1-.329.349.579.579,0,0,1-.474-.01,4.628,4.628,0,0,0-1.98-.448,4.775,4.775,0,0,0-4.646,3.88.593.593,0,0,1-.7.473,5.891,5.891,0,0,0-1.174-.119,6.048,6.048,0,0,0,0,12.093Z" transform="translate(-806.577 -277.31)" fill="#333" stroke="#fff" stroke-miterlimit="10" stroke-width="0.5"/>
    <g id="Group_40" data-name="Group 40" transform="translate(11.91 10.175)">
      <g id="Group_39" data-name="Group 39">
        <path id="Path_54" data-name="Path 54" d="M828.935,287.36l-6.5,6.56a.435.435,0,1,0,.618.613l5.76-5.813.088,15.956a.435.435,0,1,0,.87,0l-.088-15.956,5.813,5.76a.436.436,0,1,0,.613-.619l-6.56-6.5A.436.436,0,0,0,828.935,287.36Z" transform="translate(-822.31 -287.232)" fill="#333" stroke="#fff" stroke-miterlimit="10" stroke-width="0.25"/>
      </g>
    </g>
  </g>
</svg>
