<?xml version="1.0" encoding="utf-8"?>
<!-- Generator: Adobe Illustrator 24.1.3, SVG Export Plug-In . SVG Version: 6.00 Build 0)  -->
<svg version="1.1" id="Layer_1" xmlns="http://www.w3.org/2000/svg" xmlns:xlink="http://www.w3.org/1999/xlink" x="0px" y="0px"
	 viewBox="0 0 896 900" enable-background="new 0 0 896 900" xml:space="preserve">
<path fill="#4D4D4D" stroke="#FFFFFF" stroke-width="0.5" stroke-miterlimit="10" d="M759.36,140.34
	C676.2,57.18,565.63,11.38,448.02,11.38c-117.62,0-228.18,45.8-311.35,128.96S7.71,334.07,7.71,451.69
	c0,117.61,45.8,228.18,128.96,311.35S330.4,892,448.02,892c117.61,0,228.18-45.8,311.35-128.96S888.33,569.3,888.33,451.69
	C888.33,334.07,842.53,223.51,759.36,140.34z M228.45,772.27c18.42-106.03,110.3-184.24,219.57-184.24
	c109.28,0,201.16,78.21,219.57,184.24c-62.52,42.95-138.15,68.13-219.57,68.13S290.96,815.22,228.45,772.27z M308.02,396.42
	c0-77.2,62.81-140,140-140s140,62.81,140,140s-62.81,140-140,140S308.02,473.62,308.02,396.42z M712.28,736.48
	c-13.89-49.36-41.47-94.15-80.13-129.13c-23.72-21.47-50.71-38.4-79.74-50.34c52.46-34.22,87.21-93.42,87.21-160.58
	c0-105.65-85.96-191.6-191.61-191.6s-191.6,85.95-191.6,191.6c0,67.17,34.75,126.36,87.2,160.58
	c-29.02,11.94-56.02,28.87-79.74,50.34c-38.65,34.98-66.24,79.77-80.13,129.13C107.26,665.44,59.31,564.06,59.31,451.69
	c0-214.34,174.37-388.71,388.71-388.71s388.71,174.37,388.71,388.71C836.73,564.07,788.77,665.44,712.28,736.48z"/>
</svg>
