<?xml version="1.0" encoding="utf-8"?>
<!-- Generator: Adobe Illustrator 24.1.3, SVG Export Plug-In . SVG Version: 6.00 Build 0)  -->
<svg version="1.1" id="Layer_1" xmlns="http://www.w3.org/2000/svg" xmlns:xlink="http://www.w3.org/1999/xlink" x="0px" y="0px"
	 viewBox="0 0 770 768" enable-background="new 0 0 770 768" xml:space="preserve">
<g>
	<circle fill="#E21B1B" cx="384.79" cy="384.62" r="377.38"/>
	<g>
		<path fill="#FFFFFF" d="M529.81,554.93c-7.55,0-15.08-2.88-20.85-8.63L223.23,260.56c-11.52-11.52-11.52-30.18,0-41.69
			c11.52-11.51,30.18-11.52,41.69,0l285.74,285.74c11.52,11.52,11.52,30.18,0,41.69C544.89,552.06,537.36,554.93,529.81,554.93z"/>
		<path fill="#FFFFFF" d="M244.07,554.93c-7.55,0-15.08-2.88-20.85-8.63c-11.52-11.52-11.52-30.18,0-41.69l285.74-285.74
			c11.52-11.52,30.18-11.52,41.69,0c11.51,11.52,11.52,30.18,0,41.69L264.92,546.3C259.17,552.06,251.62,554.93,244.07,554.93z"/>
	</g>
</g>
</svg>
