<?xml version="1.0" encoding="utf-8"?>
<!-- Generator: Adobe Illustrator 24.1.3, SVG Export Plug-In . SVG Version: 6.00 Build 0)  -->
<svg version="1.1" id="Layer_1" xmlns="http://www.w3.org/2000/svg" xmlns:xlink="http://www.w3.org/1999/xlink" x="0px" y="0px"
	 viewBox="0 0 790 900" enable-background="new 0 0 790 900" xml:space="preserve">
<g>
	<path fill="#fff" stroke="#000000" stroke-width="0.5" stroke-miterlimit="10" d="M202.33,288.36
		c45.26,0,82.08-36.82,82.08-82.08s-36.82-82.08-82.08-82.08s-82.08,36.82-82.08,82.08S157.07,288.36,202.33,288.36z M202.33,175.71
		c16.85,0,30.57,13.71,30.57,30.57s-13.71,30.57-30.57,30.57s-30.57-13.71-30.57-30.57S185.47,175.71,202.33,175.71z"/>
	<path fill="#fff" stroke="#000000" stroke-width="0.5" stroke-miterlimit="10" d="M758.24,118.54H374.25
		C342.84,57.06,278.68,13.79,203.18,13.79C35.79,13.79-50.9,214.61,62.79,336.52v530.7c0,14.22,11.53,25.76,25.76,25.76h669.69
		c14.22,0,25.76-11.53,25.76-25.76V144.3C784,130.07,772.47,118.54,758.24,118.54z M371.8,607.93v233.53h-51.43v-130.5
		c0-14.22-11.53-25.76-25.76-25.76h-180.3v-51.51H243.1c6.83,0,13.38-2.71,18.21-7.55l257.57-257.57
		c4.83-4.83,7.55-11.38,7.55-18.21v-180.3h51.6v180.3c0,14.22,11.53,25.76,25.76,25.76h128.7v51.47H552.14
		c-6.83,0-13.38,2.71-18.21,7.55L379.34,589.72C374.51,594.55,371.8,601.1,371.8,607.93L371.8,607.93z M732.49,324.6H629.54V170.06
		h102.94V324.6z M474.91,170.06v169.63L232.43,582.17H114.31V388.22l70.66,70.66c10.05,10.05,26.37,10.06,36.43,0L338.88,341.4
		c46.85-46.85,64.16-111.16,52.91-171.34L474.91,170.06z M203.18,65.31c124.5,0,187.4,151.54,99.27,239.66l-99.27,99.27
		l-99.27-99.27C16.02,217.08,78.46,65.31,203.18,65.31z M114.31,736.72h154.54v104.75H114.31V736.72z M423.31,841.46V618.6
		l139.5-139.5h169.68v362.36H423.31z"/>
</g>
</svg>
