<?xml version="1.0" encoding="utf-8"?>
<!-- Generator: Adobe Illustrator 24.1.3, SVG Export Plug-In . SVG Version: 6.00 Build 0)  -->
<svg version="1.1" id="Layer_1" xmlns="http://www.w3.org/2000/svg" xmlns:xlink="http://www.w3.org/1999/xlink" x="0px" y="0px"
	 viewBox="0 0 908 900" enable-background="new 0 0 908 900" xml:space="preserve">
<g>
	<circle fill="#32BA7C" cx="454.39" cy="449.74" r="442.26"/>
	<g>
		<path fill="#FFFFFF" d="M465.55,548.8c19.53,19.53,19.53,53.02,0,72.55l-40.46,40.46c-19.53,19.53-53.02,19.53-72.55,0
			L175.36,483.22c-19.53-19.53-19.53-53.02,0-72.55l40.46-40.46c19.53-19.53,53.02-19.53,72.55,0L465.55,548.8z"/>
		<path fill="#FFFFFF" d="M620.41,240.47c19.53-19.53,53.02-19.53,72.55,0l40.46,40.46c19.53,19.53,19.53,53.02,0,72.55
			L426.49,659.01c-19.53,19.53-53.02,19.53-72.55,0l-40.46-40.46c-19.53-19.53-19.53-53.02,0-72.55L620.41,240.47z"/>
	</g>
</g>
</svg>
