<?xml version="1.0" encoding="utf-8"?>
<!-- Generator: Adobe Illustrator 24.1.3, SVG Export Plug-In . SVG Version: 6.00 Build 0)  -->
<svg version="1.1" id="Layer_1" xmlns="http://www.w3.org/2000/svg" xmlns:xlink="http://www.w3.org/1999/xlink" x="0px" y="0px"
	 viewBox="0 0 1157.65 938.3" enable-background="new 0 0 1157.65 938.3" xml:space="preserve">
<g>
	<g>
		<g>
			<g>
				<rect x="177.12" y="359.85" fill="#FFCB00" width="85" height="85"/>
			</g>
		</g>
		<g>
			<g>
				<rect x="347.13" y="359.85" fill="#FFCB00" width="85" height="85"/>
			</g>
		</g>
		<g>
			<g>
				<rect x="517.14" y="359.85" fill="#FFCB00" width="85" height="85"/>
			</g>
		</g>
		<g>
			<g>
				<rect x="687.15" y="359.85" fill="#FFCB00" width="85" height="85"/>
			</g>
		</g>
		<g>
			<g>
				<rect x="857.16" y="359.85" fill="#FFCB00" width="85" height="85"/>
			</g>
		</g>
		<g>
			<g>
				<rect x="177.12" y="529.85" fill="#FFCB00" width="85" height="85"/>
			</g>
		</g>
		<g>
			<g>
				<rect x="347.13" y="529.85" fill="#FFCB00" width="85" height="85"/>
			</g>
		</g>
		<g>
			<g>
				<rect x="517.14" y="529.85" fill="#FFCB00" width="85" height="85"/>
			</g>
		</g>
		<g>
			<g>
				<rect x="687.15" y="529.85" fill="#FFCB00" width="85" height="85"/>
			</g>
		</g>
		<g>
			<g>
				<rect x="177.12" y="699.86" fill="#FFCB00" width="85" height="85"/>
			</g>
		</g>
		<g>
			<g>
				<rect x="347.13" y="699.86" fill="#FFCB00" width="85" height="85"/>
			</g>
		</g>
		<g>
			<g>
				<rect x="517.14" y="699.86" fill="#FFCB00" width="85" height="85"/>
			</g>
		</g>
		<g>
			<g>
				<rect x="687.15" y="699.86" fill="#FFCB00" width="85" height="85"/>
			</g>
		</g>
		<g>
			<g>
				<rect x="857.16" y="529.85" fill="#FFCB00" width="85" height="85"/>
			</g>
		</g>
	</g>
	<path fill="none" stroke="#FFCB00" stroke-width="30" stroke-miterlimit="10" d="M21.92,906h1108.21c0.55,0,1-0.45,1-1V92.25
		c0-0.55-0.45-1-1-1H21.92c-0.55,0-1,0.45-1,1V905C20.92,905.55,21.37,906,21.92,906z"/>
	
		<rect x="932.27" y="19.62" transform="matrix(-1 -1.224647e-16 1.224647e-16 -1 1868.6285 182.4911)" fill="none" stroke="#FFCB00" stroke-width="30" stroke-miterlimit="10" width="4.09" height="143.25"/>
	
		<rect x="231.08" y="19.62" transform="matrix(-1 -1.224647e-16 1.224647e-16 -1 466.252 182.4911)" fill="none" stroke="#FFCB00" stroke-width="30" stroke-miterlimit="10" width="4.09" height="143.25"/>
	<rect x="29.87" y="269.3" fill="none" stroke="#FFCB00" stroke-width="30" stroke-miterlimit="10" width="1083.35" height="1.01"/>
</g>
</svg>
