<?xml version="1.0" encoding="utf-8"?>
<!-- Generator: Adobe Illustrator 24.1.3, SVG Export Plug-In . SVG Version: 6.00 Build 0)  -->
<svg version="1.1" id="Layer_1" xmlns="http://www.w3.org/2000/svg" xmlns:xlink="http://www.w3.org/1999/xlink" x="0px" y="0px"
	 viewBox="0 0 1289 916" enable-background="new 0 0 1289 916" xml:space="preserve">
<g>
	<g>
		<g>
			<rect x="197.75" y="339.25" fill="#FFCB00" width="86.6" height="86.6"/>
		</g>
	</g>
	<g>
		<g>
			<rect x="370.96" y="339.25" fill="#FFCB00" width="86.6" height="86.6"/>
		</g>
	</g>
	<g>
		<g>
			<rect x="544.17" y="339.25" fill="#FFCB00" width="86.6" height="86.6"/>
		</g>
	</g>
	<g>
		<g>
			<rect x="776.88" y="339.25" fill="#FFCB00" width="349.22" height="86.6"/>
		</g>
	</g>
	<g>
		<g>
			<rect x="193.53" y="146.72" fill="#FFCB00" width="947.88" height="79.38"/>
		</g>
	</g>
	<g>
		<g>
			<rect x="197.75" y="512.46" fill="#FFCB00" width="86.6" height="86.6"/>
		</g>
	</g>
	<g>
		<g>
			<rect x="370.96" y="512.46" fill="#FFCB00" width="86.6" height="86.6"/>
		</g>
	</g>
	<g>
		<g>
			<rect x="544.17" y="512.46" fill="#FFCB00" width="86.6" height="86.6"/>
		</g>
	</g>
	<g>
		<g>
			<rect x="777.06" y="512.46" fill="#FFCB00" width="349.04" height="86.6"/>
		</g>
	</g>
	<g>
		<g>
			<rect x="197.75" y="685.67" fill="#FFCB00" width="86.6" height="86.6"/>
		</g>
	</g>
	<g>
		<g>
			<rect x="370.96" y="685.67" fill="#FFCB00" width="86.6" height="86.6"/>
		</g>
	</g>
	<g>
		<g>
			<rect x="544.17" y="685.67" fill="#FFCB00" width="86.6" height="86.6"/>
		</g>
	</g>
	<g>
		<g>
			<rect x="777.06" y="685.67" fill="#FFCB00" width="349.04" height="86.6"/>
		</g>
	</g>
	<path fill="none" stroke="#FFCB00" stroke-width="15" stroke-miterlimit="10" d="M18.32,899.43H1274c0.55,0,1-0.45,1-1V18.46
		c0-0.55-0.45-1-1-1H18.32c-0.55,0-1,0.45-1,1v879.97C17.32,898.98,17.77,899.43,18.32,899.43z"/>
</g>
</svg>
