<?xml version="1.0" encoding="utf-8"?>
<!-- Generator: Adobe Illustrator 24.1.3, SVG Export Plug-In . SVG Version: 6.00 Build 0)  -->
<svg version="1.1" id="Layer_1" xmlns="http://www.w3.org/2000/svg" xmlns:xlink="http://www.w3.org/1999/xlink" x="0px" y="0px"
	 viewBox="0 0 774 768" enable-background="new 0 0 774 768" xml:space="preserve">
<path fill="#FFFFFF" d="M654.52,116.08C583.17,44.73,488.3,5.43,387.39,5.43c-100.91,0-195.78,39.3-267.13,110.65
	S9.61,282.3,9.61,383.22c0,100.91,39.3,195.78,110.65,267.13S286.48,761,387.39,761c100.91,0,195.78-39.3,267.13-110.65
	s110.65-166.23,110.65-267.13C765.17,282.3,725.88,187.44,654.52,116.08z M199,658.27c15.8-90.98,94.64-158.08,188.39-158.08
	c93.76,0,172.59,67.1,188.39,158.08c-53.64,36.85-118.54,58.46-188.39,58.46S252.64,695.12,199,658.27z M267.27,335.8
	c0-66.24,53.89-120.12,120.12-120.12s120.12,53.89,120.12,120.12s-53.89,120.12-120.12,120.12S267.27,402.03,267.27,335.8z
	 M614.12,627.56c-11.92-42.35-35.58-80.78-68.75-110.79c-20.35-18.42-43.51-32.95-68.41-43.19c45.01-29.36,74.82-80.15,74.82-137.78
	c0-90.65-73.75-164.39-164.4-164.39S223,245.15,223,335.8c0,57.63,29.81,108.42,74.82,137.78c-24.9,10.24-48.06,24.77-68.41,43.19
	c-33.16,30.02-56.83,68.44-68.75,110.79C95.02,566.61,53.88,479.63,53.88,383.22c0-183.9,149.61-333.51,333.51-333.51
	S720.9,199.32,720.9,383.22C720.9,479.64,679.75,566.61,614.12,627.56z"/>
</svg>
