<svg xmlns="http://www.w3.org/2000/svg" width="30.279" height="30.279" viewBox="0 0 30.279 30.279">
  <path id="Path_1243" data-name="Path 1243" d="M28.911,16.2H11.7a.87.87,0,0,0-.86-.756h-4.7a.87.87,0,0,0-.86.756H3.533V3.3a1.545,1.545,0,0,1,3.009-.5l.314.926a3.932,3.932,0,0,0-1.819,4.5l.258.89a.874.874,0,0,0,1.078.594L12.2,8a.873.873,0,0,0,.591-1.082l-.258-.89A3.912,3.912,0,0,0,8.522,3.217l-.334-.986A3.283,3.283,0,0,0,1.795,3.3V16.2H.87A.871.871,0,0,0,0,17.075v2.881a.872.872,0,0,0,.635.84v2.513a4.732,4.732,0,0,0,3.076,4.432l-.45.685a.874.874,0,0,0,.247,1.209.867.867,0,0,0,1.2-.248L5.6,28.034H24.179l.889,1.353a.87.87,0,1,0,1.451-.961l-.45-.685a4.732,4.732,0,0,0,3.076-4.432V20.8a.872.872,0,0,0,.635-.84V17.075a.871.871,0,0,0-.869-.872ZM10.866,6.519l.015.052L6.721,7.787l-.015-.052a2.178,2.178,0,0,1,1.474-2.7,2.162,2.162,0,0,1,2.686,1.479ZM7,17.192H9.967v5.64H7Zm21.038,2.17a1.511,1.511,0,0,0-.635,1.232v2.716a2.978,2.978,0,0,1-2.969,2.98H5.343a2.978,2.978,0,0,1-2.969-2.98V20.593a1.511,1.511,0,0,0-.635-1.232V17.947H5.265V23.7a.871.871,0,0,0,.869.872h4.7a.871.871,0,0,0,.869-.872V17.947H28.041v1.414Z" transform="translate(0.249 0.25)" stroke="#fff" stroke-width="0.5"/>
</svg>
