<svg xmlns="http://www.w3.org/2000/svg" width="42.333" height="32" viewBox="0 0 42.333 32">
  <g id="interface" transform="translate(-74.5 -74.5)">
    <path id="Path_1255" data-name="Path 1255" d="M116.333,261.889v-3.444H90.2a5.166,5.166,0,0,0-9.741,0H75v3.444h5.463a5.166,5.166,0,0,0,9.741,0Zm-31,0a1.722,1.722,0,1,1,1.722-1.722A1.724,1.724,0,0,1,85.333,261.889Z" transform="translate(0 -159.333)" stroke="#fff" stroke-width="1"/>
    <path id="Path_1256" data-name="Path 1256" d="M106,175.333a5.175,5.175,0,0,0,4.87-3.444h5.463v-3.444H110.87a5.166,5.166,0,0,0-9.741,0H75v3.444h26.13A5.175,5.175,0,0,0,106,175.333Zm0-6.889a1.722,1.722,0,1,1-1.722,1.722A1.724,1.724,0,0,1,106,168.444Z" transform="translate(0 -79.667)" stroke="#fff" stroke-width="1"/>
    <path id="Path_1257" data-name="Path 1257" d="M85.333,85.333a5.175,5.175,0,0,0,4.87-3.444h26.13V78.444H90.2a5.166,5.166,0,0,0-9.741,0H75v3.444h5.463A5.175,5.175,0,0,0,85.333,85.333Zm0-6.889a1.722,1.722,0,1,1-1.722,1.722A1.724,1.724,0,0,1,85.333,78.444Z" stroke="#fff" stroke-width="1"/>
  </g>
</svg>
