<svg xmlns="http://www.w3.org/2000/svg" width="49.319" height="49.319" viewBox="0 0 49.319 49.319">
  <g id="hospital_3_" data-name="hospital (3)" transform="translate(0.25 0.25)">
    <path id="Path_1268" data-name="Path 1268" d="M61,332h2.861v5.721H61Z" transform="translate(-55.184 -300.344)" stroke="#fff" stroke-width="0.5"/>
    <path id="Path_1269" data-name="Path 1269" d="M61,242h2.861v5.721H61Z" transform="translate(-55.184 -218.925)" stroke="#fff" stroke-width="0.5"/>
    <path id="Path_1270" data-name="Path 1270" d="M37.282,17.354V2.861h2.861V0H8.677V2.861h2.861V17.354H0V48.819H48.819V17.354ZM11.537,45.959H2.861V20.214h8.677Zm8.582,0V34.517h2.861V45.959Zm5.721,0V34.517H28.7V45.959Zm8.582,0H31.561v-14.3h-14.3v14.3H14.4V2.861H34.422Zm11.537,0H37.282V20.214h8.677Z" stroke="#fff" stroke-width="0.5"/>
    <path id="Path_1271" data-name="Path 1271" d="M421,242h2.861v5.721H421Z" transform="translate(-380.857 -218.925)" stroke="#fff" stroke-width="0.5"/>
    <path id="Path_1272" data-name="Path 1272" d="M421,332h2.861v5.721H421Z" transform="translate(-380.857 -300.344)" stroke="#fff" stroke-width="0.5"/>
    <path id="Path_1273" data-name="Path 1273" d="M219.582,97.721V94.861h-2.861V92h-2.861v2.861H211v2.861h2.861v2.861h2.861V97.721Z" transform="translate(-190.881 -83.228)" stroke="#fff" stroke-width="0.5"/>
    <path id="Path_1274" data-name="Path 1274" d="M181,242h2.861v5.721H181Z" transform="translate(-163.742 -218.925)" stroke="#fff" stroke-width="0.5"/>
    <path id="Path_1275" data-name="Path 1275" d="M241,242h2.861v5.721H241Z" transform="translate(-218.021 -218.925)" stroke="#fff" stroke-width="0.5"/>
    <path id="Path_1276" data-name="Path 1276" d="M301,242h2.86v5.721H301Z" transform="translate(-272.299 -218.925)" stroke="#fff" stroke-width="0.5"/>
  </g>
</svg>
