<svg xmlns="http://www.w3.org/2000/svg" width="29.675" height="22.867" viewBox="0 0 29.675 22.867">
  <g id="_x33_-Picture" transform="translate(0.25 0.25)">
    <path id="Path_1293" data-name="Path 1293" d="M25.949,22.367H3.285A3.259,3.259,0,0,1,.03,19.112V3.255A3.259,3.259,0,0,1,3.285,0H25.949A3.259,3.259,0,0,1,29.2,3.255V19.112A3.259,3.259,0,0,1,25.949,22.367ZM3.285.972A2.286,2.286,0,0,0,1,3.255V19.112a2.285,2.285,0,0,0,2.283,2.283H25.949a2.285,2.285,0,0,0,2.283-2.283V3.255A2.285,2.285,0,0,0,25.949.972Z" transform="translate(-0.03 0)" stroke="#000" stroke-width="0.5"/>
    <path id="Path_1294" data-name="Path 1294" d="M35.947,15.835a2.917,2.917,0,1,1,2.917-2.917A2.921,2.921,0,0,1,35.947,15.835Zm0-4.862a1.945,1.945,0,1,0,1.945,1.945A1.947,1.947,0,0,0,35.947,10.972Z" transform="translate(-16.984 -5.138)" stroke="#000" stroke-width="0.5"/>
    <path id="Path_1295" data-name="Path 1295" d="M41.076,35.99H29.96a.486.486,0,0,1-.363-.809l7.564-8.509a.5.5,0,0,1,.727,0l6.088,6.849a.487.487,0,0,1,.082.518A3.256,3.256,0,0,1,41.076,35.99Zm-10.033-.972H41.076a2.283,2.283,0,0,0,1.951-1.1l-5.5-6.191Z" transform="translate(-15.157 -13.623)" stroke="#000" stroke-width="0.5"/>
    <path id="Path_1296" data-name="Path 1296" d="M14.833,29.054H3.284A3.259,3.259,0,0,1,.029,25.8v-3a.487.487,0,0,1,.123-.323l8.266-9.3a.5.5,0,0,1,.727,0l9.725,10.94a.486.486,0,0,1,0,.646L15.2,28.89A.484.484,0,0,1,14.833,29.054ZM1,22.978V25.8a2.285,2.285,0,0,0,2.283,2.283h11.33l3.242-3.647L8.782,14.226Z" transform="translate(-0.029 -6.686)" stroke="#000" stroke-width="0.5"/>
  </g>
</svg>
