<svg xmlns="http://www.w3.org/2000/svg" width="22.92" height="31.023" viewBox="0 0 22.92 31.023">
  <g id="pin" transform="translate(0)">
    <g id="Group_995" data-name="Group 995" transform="translate(0)">
      <g id="Group_994" data-name="Group 994">
        <path id="Path_1291" data-name="Path 1291" d="M59.54,0A11.473,11.473,0,0,0,48.08,11.46a13.222,13.222,0,0,0,.972,4.412,18.481,18.481,0,0,0,1.325,2.477l7.857,11.906a1.495,1.495,0,0,0,2.612,0L68.7,18.349a18.405,18.405,0,0,0,1.325-2.477A13.219,13.219,0,0,0,71,11.46,11.473,11.473,0,0,0,59.54,0Zm9.245,15.349a16.935,16.935,0,0,1-1.207,2.258L59.72,29.513c-.155.235-.2.235-.359,0L51.5,17.607A16.942,16.942,0,0,1,50.3,15.348a12,12,0,0,1-.867-3.888,10.112,10.112,0,1,1,20.223,0A12.012,12.012,0,0,1,68.785,15.349Z" transform="translate(-48.08)"/>
        <path id="Path_1292" data-name="Path 1292" d="M118.147,64.008a6.067,6.067,0,1,0,6.067,6.067A6.074,6.074,0,0,0,118.147,64.008Zm0,10.786a4.719,4.719,0,1,1,4.719-4.719A4.724,4.724,0,0,1,118.147,74.794Z" transform="translate(-106.687 -58.614)"/>
      </g>
    </g>
  </g>
</svg>
