<svg xmlns="http://www.w3.org/2000/svg" width="30.7" height="30.701" viewBox="0 0 30.7 30.701">
  <path id="plan_1_" data-name="plan (1)" d="M29.84,0H.613A.612.612,0,0,0,0,.612V29.839a.612.612,0,0,0,.612.612H18.438a.612.612,0,0,0,0-1.224H1.225V14.966H9.759v5.866a.612.612,0,1,0,1.224,0V8.021a.612.612,0,1,0-1.224,0v5.722H1.225V1.224h16.6V8.885a.612.612,0,0,0,.612.612h6.471a.612.612,0,0,0,0-1.224H19.05V1.224H29.228v19H18.438a.612.612,0,0,0,0,1.224h10.79v7.783H24.909a.612.612,0,0,0,0,1.224H29.84a.612.612,0,0,0,.612-.612V.612A.612.612,0,0,0,29.84,0Z" transform="translate(0.124 0.125)" stroke="#000" stroke-width="0.25"/>
</svg>
