<svg xmlns="http://www.w3.org/2000/svg" width="52.19" height="49.704" viewBox="0 0 52.19 49.704">
  <g id="home" transform="translate(0.414 0.509)">
    <g id="Group_836" data-name="Group 836" transform="translate(0 0)">
      <path id="Path_1263" data-name="Path 1263" d="M50.5,34.365l-4.339-3.954V17.3a1.511,1.511,0,0,0-1.51-1.51H34.206A1.511,1.511,0,0,0,32.7,17.3v.84l-5.24-4.775a2.622,2.622,0,0,0-3.548,0l-23.045,21a2.634,2.634,0,0,0,1.774,4.581H6.317V59.984a1.511,1.511,0,0,0,1.51,1.51H20.459a1.511,1.511,0,0,0,1.51-1.51V47.21h7.424V59.984a1.511,1.511,0,0,0,1.51,1.51H43.534a1.51,1.51,0,0,0,1.51-1.51V38.946h3.681A2.634,2.634,0,0,0,50.5,34.365Zm-6.966,1.56a1.511,1.511,0,0,0-1.51,1.51V58.474h-9.61V45.7a1.511,1.511,0,0,0-1.51-1.51H20.459a1.511,1.511,0,0,0-1.51,1.51V58.474H9.338V37.435a1.511,1.511,0,0,0-1.51-1.51H3.636L25.682,15.837l7.507,6.841a1.51,1.51,0,0,0,2.528-1.117V18.812H43.14V31.079a1.51,1.51,0,0,0,.493,1.117l4.093,3.73Z" transform="translate(0 -12.676)" stroke="#fff" stroke-width="0.75"/>
    </g>
  </g>
</svg>
