<svg id="resort_1_" data-name="resort (1)" xmlns="http://www.w3.org/2000/svg" width="54.523" height="43.534" viewBox="0 0 54.523 43.534">
  <g id="Group_838" data-name="Group 838" transform="translate(21.767 35.371)">
    <g id="Group_837" data-name="Group 837" transform="translate(0 0)">
      <path id="Path_1264" data-name="Path 1264" d="M214.777,384h-9.07a.907.907,0,0,0-.907.907v6.349a.907.907,0,0,0,.907.907h9.07a.906.906,0,0,0,.907-.907v-6.349A.906.906,0,0,0,214.777,384Zm-.907,6.349h-7.256v-4.535h7.256Z" transform="translate(-204.801 -384)"/>
    </g>
  </g>
  <g id="Group_840" data-name="Group 840" transform="translate(26.193 36.05)">
    <g id="Group_839" data-name="Group 839" transform="translate(0 0)">
      <rect id="Rectangle_1122" data-name="Rectangle 1122" width="2.138" height="6.415"/>
    </g>
  </g>
  <g id="Group_842" data-name="Group 842" transform="translate(17.232 0)">
    <g id="Group_841" data-name="Group 841" transform="translate(0 0)">
      <path id="Path_1265" data-name="Path 1265" d="M181.18,51.2H163.041a.907.907,0,0,0-.907.907v41.72a.907.907,0,0,0,.907.907H181.18a.906.906,0,0,0,.907-.907V52.107A.907.907,0,0,0,181.18,51.2Zm-.907,41.72H163.948V53.014h16.325Z" transform="translate(-162.134 -51.2)"/>
    </g>
  </g>
  <g id="Group_844" data-name="Group 844" transform="translate(9.977 3.628)">
    <g id="Group_843" data-name="Group 843" transform="translate(0 0)">
      <path id="Path_1266" data-name="Path 1266" d="M102.03,85.333H94.774a.907.907,0,0,0-.907.907v38.092a.907.907,0,0,0,.907.907h7.256a.907.907,0,0,0,.907-.907V86.24A.907.907,0,0,0,102.03,85.333Zm-.907,38.092H95.681V87.147h5.442Z" transform="translate(-93.867 -85.333)"/>
    </g>
  </g>
  <g id="Group_846" data-name="Group 846" transform="translate(8.018 3.443)">
    <g id="Group_845" data-name="Group 845" transform="translate(0 0)">
      <rect id="Rectangle_1123" data-name="Rectangle 1123" width="2.673" height="2.138"/>
    </g>
  </g>
  <g id="Group_848" data-name="Group 848" transform="translate(15.502 0.236)">
    <g id="Group_847" data-name="Group 847" transform="translate(0 0)">
      <rect id="Rectangle_1124" data-name="Rectangle 1124" width="23.52" height="1.604"/>
    </g>
  </g>
  <g id="Group_850" data-name="Group 850" transform="translate(20.847 30.705)">
    <g id="Group_849" data-name="Group 849" transform="translate(0 0)">
      <rect id="Rectangle_1125" data-name="Rectangle 1125" width="1.604" height="2.673"/>
    </g>
  </g>
  <g id="Group_852" data-name="Group 852" transform="translate(24.589 30.705)">
    <g id="Group_851" data-name="Group 851" transform="translate(0 0)">
      <rect id="Rectangle_1126" data-name="Rectangle 1126" width="1.604" height="2.673"/>
    </g>
  </g>
  <g id="Group_854" data-name="Group 854" transform="translate(28.331 30.705)">
    <g id="Group_853" data-name="Group 853" transform="translate(0 0)">
      <rect id="Rectangle_1127" data-name="Rectangle 1127" width="1.604" height="2.673"/>
    </g>
  </g>
  <g id="Group_856" data-name="Group 856" transform="translate(31.538 30.705)">
    <g id="Group_855" data-name="Group 855" transform="translate(0 0)">
      <rect id="Rectangle_1128" data-name="Rectangle 1128" width="2.138" height="2.673"/>
    </g>
  </g>
  <g id="Group_858" data-name="Group 858" transform="translate(20.847 26.428)">
    <g id="Group_857" data-name="Group 857" transform="translate(0 0)">
      <rect id="Rectangle_1129" data-name="Rectangle 1129" width="1.604" height="2.673"/>
    </g>
  </g>
  <g id="Group_860" data-name="Group 860" transform="translate(24.589 26.428)">
    <g id="Group_859" data-name="Group 859" transform="translate(0 0)">
      <rect id="Rectangle_1130" data-name="Rectangle 1130" width="1.604" height="2.673"/>
    </g>
  </g>
  <g id="Group_862" data-name="Group 862" transform="translate(28.331 26.428)">
    <g id="Group_861" data-name="Group 861" transform="translate(0 0)">
      <rect id="Rectangle_1131" data-name="Rectangle 1131" width="1.604" height="2.673"/>
    </g>
  </g>
  <g id="Group_864" data-name="Group 864" transform="translate(31.538 26.428)">
    <g id="Group_863" data-name="Group 863" transform="translate(0 0)">
      <rect id="Rectangle_1132" data-name="Rectangle 1132" width="2.138" height="2.673"/>
    </g>
  </g>
  <g id="Group_866" data-name="Group 866" transform="translate(20.847 21.617)">
    <g id="Group_865" data-name="Group 865" transform="translate(0 0)">
      <rect id="Rectangle_1133" data-name="Rectangle 1133" width="1.604" height="2.673"/>
    </g>
  </g>
  <g id="Group_868" data-name="Group 868" transform="translate(24.589 21.617)">
    <g id="Group_867" data-name="Group 867" transform="translate(0 0)">
      <rect id="Rectangle_1134" data-name="Rectangle 1134" width="1.604" height="2.673"/>
    </g>
  </g>
  <g id="Group_870" data-name="Group 870" transform="translate(28.331 21.617)">
    <g id="Group_869" data-name="Group 869" transform="translate(0 0)">
      <rect id="Rectangle_1135" data-name="Rectangle 1135" width="1.604" height="2.673"/>
    </g>
  </g>
  <g id="Group_872" data-name="Group 872" transform="translate(31.538 21.617)">
    <g id="Group_871" data-name="Group 871" transform="translate(0 0)">
      <rect id="Rectangle_1136" data-name="Rectangle 1136" width="2.138" height="2.673"/>
    </g>
  </g>
  <g id="Group_874" data-name="Group 874" transform="translate(20.847 17.341)">
    <g id="Group_873" data-name="Group 873" transform="translate(0 0)">
      <rect id="Rectangle_1137" data-name="Rectangle 1137" width="1.604" height="2.673"/>
    </g>
  </g>
  <g id="Group_876" data-name="Group 876" transform="translate(24.589 17.341)">
    <g id="Group_875" data-name="Group 875" transform="translate(0 0)">
      <rect id="Rectangle_1138" data-name="Rectangle 1138" width="1.604" height="2.673"/>
    </g>
  </g>
  <g id="Group_878" data-name="Group 878" transform="translate(28.331 17.341)">
    <g id="Group_877" data-name="Group 877" transform="translate(0 0)">
      <rect id="Rectangle_1139" data-name="Rectangle 1139" width="1.604" height="2.673"/>
    </g>
  </g>
  <g id="Group_880" data-name="Group 880" transform="translate(31.538 17.341)">
    <g id="Group_879" data-name="Group 879" transform="translate(0 0)">
      <rect id="Rectangle_1140" data-name="Rectangle 1140" width="2.138" height="2.673"/>
    </g>
  </g>
  <g id="Group_882" data-name="Group 882" transform="translate(20.847 12.53)">
    <g id="Group_881" data-name="Group 881" transform="translate(0 0)">
      <rect id="Rectangle_1141" data-name="Rectangle 1141" width="1.604" height="2.673"/>
    </g>
  </g>
  <g id="Group_884" data-name="Group 884" transform="translate(24.589 12.53)">
    <g id="Group_883" data-name="Group 883" transform="translate(0 0)">
      <rect id="Rectangle_1142" data-name="Rectangle 1142" width="1.604" height="2.673"/>
    </g>
  </g>
  <g id="Group_886" data-name="Group 886" transform="translate(28.331 12.53)">
    <g id="Group_885" data-name="Group 885" transform="translate(0 0)">
      <rect id="Rectangle_1143" data-name="Rectangle 1143" width="1.604" height="2.673"/>
    </g>
  </g>
  <g id="Group_888" data-name="Group 888" transform="translate(31.538 12.53)">
    <g id="Group_887" data-name="Group 887" transform="translate(0 0)">
      <rect id="Rectangle_1144" data-name="Rectangle 1144" width="2.138" height="2.673"/>
    </g>
  </g>
  <g id="Group_890" data-name="Group 890" transform="translate(20.847 8.254)">
    <g id="Group_889" data-name="Group 889" transform="translate(0 0)">
      <rect id="Rectangle_1145" data-name="Rectangle 1145" width="1.604" height="2.673" transform="translate(0 0)"/>
    </g>
  </g>
  <g id="Group_892" data-name="Group 892" transform="translate(24.589 8.254)">
    <g id="Group_891" data-name="Group 891" transform="translate(0 0)">
      <rect id="Rectangle_1146" data-name="Rectangle 1146" width="1.604" height="2.673" transform="translate(0 0)"/>
    </g>
  </g>
  <g id="Group_894" data-name="Group 894" transform="translate(28.331 8.254)">
    <g id="Group_893" data-name="Group 893" transform="translate(0 0)">
      <rect id="Rectangle_1147" data-name="Rectangle 1147" width="1.604" height="2.673" transform="translate(0 0)"/>
    </g>
  </g>
  <g id="Group_896" data-name="Group 896" transform="translate(31.538 8.254)">
    <g id="Group_895" data-name="Group 895" transform="translate(0 0)">
      <rect id="Rectangle_1148" data-name="Rectangle 1148" width="2.138" height="2.673" transform="translate(0 0)"/>
    </g>
  </g>
  <g id="Group_898" data-name="Group 898" transform="translate(20.847 3.443)">
    <g id="Group_897" data-name="Group 897" transform="translate(0 0)">
      <rect id="Rectangle_1149" data-name="Rectangle 1149" width="1.604" height="2.673"/>
    </g>
  </g>
  <g id="Group_900" data-name="Group 900" transform="translate(24.589 3.443)">
    <g id="Group_899" data-name="Group 899" transform="translate(0 0)">
      <rect id="Rectangle_1150" data-name="Rectangle 1150" width="1.604" height="2.673"/>
    </g>
  </g>
  <g id="Group_902" data-name="Group 902" transform="translate(28.331 3.443)">
    <g id="Group_901" data-name="Group 901" transform="translate(0 0)">
      <rect id="Rectangle_1151" data-name="Rectangle 1151" width="1.604" height="2.673"/>
    </g>
  </g>
  <g id="Group_904" data-name="Group 904" transform="translate(31.538 3.443)">
    <g id="Group_903" data-name="Group 903" transform="translate(0 0)">
      <rect id="Rectangle_1152" data-name="Rectangle 1152" width="2.138" height="2.673"/>
    </g>
  </g>
  <g id="Group_906" data-name="Group 906" transform="translate(13.364 35.516)">
    <g id="Group_905" data-name="Group 905" transform="translate(0 0)">
      <rect id="Rectangle_1153" data-name="Rectangle 1153" width="2.138" height="2.673"/>
    </g>
  </g>
  <g id="Group_908" data-name="Group 908" transform="translate(13.364 30.705)">
    <g id="Group_907" data-name="Group 907" transform="translate(0 0)">
      <rect id="Rectangle_1154" data-name="Rectangle 1154" width="2.138" height="2.673"/>
    </g>
  </g>
  <g id="Group_910" data-name="Group 910" transform="translate(13.364 26.428)">
    <g id="Group_909" data-name="Group 909" transform="translate(0 0)">
      <rect id="Rectangle_1155" data-name="Rectangle 1155" width="2.138" height="2.673"/>
    </g>
  </g>
  <g id="Group_912" data-name="Group 912" transform="translate(13.364 21.617)">
    <g id="Group_911" data-name="Group 911" transform="translate(0 0)">
      <rect id="Rectangle_1156" data-name="Rectangle 1156" width="2.138" height="2.673"/>
    </g>
  </g>
  <g id="Group_914" data-name="Group 914" transform="translate(13.364 17.341)">
    <g id="Group_913" data-name="Group 913" transform="translate(0 0)">
      <rect id="Rectangle_1157" data-name="Rectangle 1157" width="2.138" height="2.673"/>
    </g>
  </g>
  <g id="Group_916" data-name="Group 916" transform="translate(13.364 12.53)">
    <g id="Group_915" data-name="Group 915" transform="translate(0 0)">
      <rect id="Rectangle_1158" data-name="Rectangle 1158" width="2.138" height="2.673"/>
    </g>
  </g>
  <g id="Group_918" data-name="Group 918" transform="translate(13.364 8.254)">
    <g id="Group_917" data-name="Group 917" transform="translate(0 0)">
      <rect id="Rectangle_1159" data-name="Rectangle 1159" width="2.138" height="2.673" transform="translate(0 0)"/>
    </g>
  </g>
  <g id="Group_920" data-name="Group 920" transform="translate(35.371 3.628)">
    <g id="Group_919" data-name="Group 919" transform="translate(0 0)">
      <path id="Path_1267" data-name="Path 1267" d="M340.963,85.333h-7.256a.907.907,0,0,0-.907.907v38.092a.906.906,0,0,0,.907.907h7.256a.906.906,0,0,0,.907-.907V86.24A.907.907,0,0,0,340.963,85.333Zm-.907,38.092h-5.442V87.147h5.442Z" transform="translate(-332.8 -85.333)"/>
    </g>
  </g>
  <g id="Group_922" data-name="Group 922" transform="translate(43.298 3.443)">
    <g id="Group_921" data-name="Group 921" transform="translate(0 0)">
      <rect id="Rectangle_1160" data-name="Rectangle 1160" width="3.207" height="2.138"/>
    </g>
  </g>
  <g id="Group_924" data-name="Group 924" transform="translate(39.022 35.516)">
    <g id="Group_923" data-name="Group 923" transform="translate(0 0)">
      <rect id="Rectangle_1161" data-name="Rectangle 1161" width="1.604" height="2.673"/>
    </g>
  </g>
  <g id="Group_926" data-name="Group 926" transform="translate(39.022 30.705)">
    <g id="Group_925" data-name="Group 925" transform="translate(0 0)">
      <rect id="Rectangle_1162" data-name="Rectangle 1162" width="1.604" height="2.673"/>
    </g>
  </g>
  <g id="Group_928" data-name="Group 928" transform="translate(39.022 26.428)">
    <g id="Group_927" data-name="Group 927" transform="translate(0 0)">
      <rect id="Rectangle_1163" data-name="Rectangle 1163" width="1.604" height="2.673"/>
    </g>
  </g>
  <g id="Group_930" data-name="Group 930" transform="translate(39.022 21.617)">
    <g id="Group_929" data-name="Group 929" transform="translate(0 0)">
      <rect id="Rectangle_1164" data-name="Rectangle 1164" width="1.604" height="2.673"/>
    </g>
  </g>
  <g id="Group_932" data-name="Group 932" transform="translate(39.022 17.341)">
    <g id="Group_931" data-name="Group 931" transform="translate(0 0)">
      <rect id="Rectangle_1165" data-name="Rectangle 1165" width="1.604" height="2.673"/>
    </g>
  </g>
  <g id="Group_934" data-name="Group 934" transform="translate(39.022 12.53)">
    <g id="Group_933" data-name="Group 933" transform="translate(0 0)">
      <rect id="Rectangle_1166" data-name="Rectangle 1166" width="1.604" height="2.673"/>
    </g>
  </g>
  <g id="Group_936" data-name="Group 936" transform="translate(39.022 8.254)">
    <g id="Group_935" data-name="Group 935" transform="translate(0 0)">
      <rect id="Rectangle_1167" data-name="Rectangle 1167" width="1.604" height="2.673" transform="translate(0 0)"/>
    </g>
  </g>
  <g id="Group_938" data-name="Group 938" transform="translate(0 41.93)">
    <g id="Group_937" data-name="Group 937" transform="translate(0 0)">
      <rect id="Rectangle_1168" data-name="Rectangle 1168" width="10.691" height="1.604"/>
    </g>
  </g>
  <g id="Group_940" data-name="Group 940" transform="translate(43.298 41.93)">
    <g id="Group_939" data-name="Group 939" transform="translate(0 0)">
      <rect id="Rectangle_1169" data-name="Rectangle 1169" width="11.225" height="1.604"/>
    </g>
  </g>
  <g id="Group_942" data-name="Group 942" transform="translate(3.742 23.756)">
    <g id="Group_941" data-name="Group 941" transform="translate(0 0)">
      <rect id="Rectangle_1170" data-name="Rectangle 1170" width="1.604" height="18.709"/>
    </g>
  </g>
  <g id="Group_944" data-name="Group 944" transform="translate(0.363 24.669)">
    <g id="Group_943" data-name="Group 943" transform="translate(0 0)">
      <rect id="Rectangle_1171" data-name="Rectangle 1171" width="1.814" height="9.069" transform="matrix(0.6, -0.8, 0.8, 0.6, 0, 1.451)"/>
    </g>
  </g>
  <g id="Group_946" data-name="Group 946" transform="translate(0.361 24.669)">
    <g id="Group_945" data-name="Group 945" transform="translate(0 0)">
      <rect id="Rectangle_1172" data-name="Rectangle 1172" width="9.07" height="1.814" transform="translate(0 5.444) rotate(-36.883)"/>
    </g>
  </g>
  <g id="Group_948" data-name="Group 948" transform="translate(49.178 23.756)">
    <g id="Group_947" data-name="Group 947" transform="translate(0 0)">
      <rect id="Rectangle_1173" data-name="Rectangle 1173" width="1.604" height="18.709"/>
    </g>
  </g>
  <g id="Group_950" data-name="Group 950" transform="translate(45.71 24.67)">
    <g id="Group_949" data-name="Group 949" transform="translate(0 0)">
      <rect id="Rectangle_1174" data-name="Rectangle 1174" width="1.813" height="9.069" transform="matrix(0.6, -0.8, 0.8, 0.6, 0, 1.45)"/>
    </g>
  </g>
  <g id="Group_952" data-name="Group 952" transform="translate(45.705 24.674)">
    <g id="Group_951" data-name="Group 951" transform="translate(0 0)">
      <rect id="Rectangle_1175" data-name="Rectangle 1175" width="9.069" height="1.813" transform="translate(0 5.44) rotate(-36.857)"/>
    </g>
  </g>
</svg>
