<svg xmlns="http://www.w3.org/2000/svg" width="40.716" height="27.356" viewBox="0 0 40.716 27.356">
  <path id="Path_1242" data-name="Path 1242" d="M34.99,92.27h-.636v-5.09A3.185,3.185,0,0,0,31.173,84H9.543a3.185,3.185,0,0,0-3.181,3.181v5.09H5.726A5.733,5.733,0,0,0,0,98V106.9H1.272v4.453H4.453V106.9H36.262v4.453h3.181V106.9h1.272V98A5.733,5.733,0,0,0,34.99,92.27ZM7.634,87.181a1.909,1.909,0,0,1,1.909-1.909h21.63a1.909,1.909,0,0,1,1.909,1.909v5.09H31.173V89.726a1.909,1.909,0,0,0-1.909-1.909H23.539a1.909,1.909,0,0,0-1.909,1.909V92.27H19.086V89.726a1.909,1.909,0,0,0-1.909-1.909H11.451a1.909,1.909,0,0,0-1.909,1.909V92.27H7.634ZM29.9,89.726V92.27h-7V89.726a.636.636,0,0,1,.636-.636h5.726A.636.636,0,0,1,29.9,89.726Zm-12.087,0V92.27h-7V89.726a.636.636,0,0,1,.636-.636h5.726A.636.636,0,0,1,17.813,89.726ZM3.181,110.084H2.545V106.9h.636Zm34.99,0h-.636V106.9h.636Zm1.272-4.453H1.272v-3.181H39.443Zm0-4.453H1.272V98a4.458,4.458,0,0,1,4.453-4.453H34.99A4.458,4.458,0,0,1,39.443,98Z" transform="translate(0 -84)"/>
</svg>
