<svg xmlns="http://www.w3.org/2000/svg" width="49.766" height="49.574" viewBox="0 0 49.766 49.574">
  <g id="beach_3_" data-name="beach (3)" transform="translate(0.381 0.38)">
    <path id="Path_1262" data-name="Path 1262" d="M47.575,46.945h-2.08l-3.911-7.821A1.436,1.436,0,0,0,40.3,38.33H30.98l-6.7-20.011,14.979-5.007a1.436,1.436,0,0,0,.791-2.075C36.181,4.491,28.236.966,19.28,3.381l-.469-1.4a1.436,1.436,0,1,0-2.724.91l.469,1.4C7.959,7.744,3.719,15.332,4.691,23.056a1.437,1.437,0,0,0,1.88,1.183L21.551,19.23l6.4,19.1H13.96L2.371,29.986a1.436,1.436,0,1,0-1.678,2.33l11.117,8L9.675,46.945H1.436a1.436,1.436,0,1,0,0,2.872H47.575a1.436,1.436,0,0,0,0-2.872ZM18.814,6.519h0c.01,0,1.705-.79,4.724,2.144a18.306,18.306,0,0,1,3.844,5.59l-10.763,3.6C15.481,13,16.444,7.313,18.814,6.519ZM36.58,11.178l-6.464,2.161A20.528,20.528,0,0,0,24.282,5.5a14.309,14.309,0,0,1,12.3,5.676ZM13.836,8.994a20.516,20.516,0,0,0,.053,9.77L7.422,20.925A14.306,14.306,0,0,1,13.836,8.994ZM39.412,41.2l2.872,5.743H33.866L31.942,41.2Zm-24.869,0h14.37l1.924,5.743H12.692Z" transform="translate(0 -0.998)" stroke="#fff" stroke-width="0.75"/>
  </g>
</svg>
