<?xml version="1.0" encoding="utf-8"?>
<!-- Generator: Adobe Illustrator 25.2.1, SVG Export Plug-In . SVG Version: 6.00 Build 0)  -->
<svg version="1.1" id="Layer_1" xmlns="http://www.w3.org/2000/svg" xmlns:xlink="http://www.w3.org/1999/xlink" x="0px" y="0px"
	 viewBox="0 0 330 330" style="enable-background:new 0 0 330 330;" xml:space="preserve">
<style type="text/css">
	.st0{clip-path:url(#SVGID_2_);}
	.st1{fill:none;stroke:#FFFFFF;stroke-width:3.106;}
	.st2{fill:none;stroke:#FFFFFF;stroke-width:3;}
	.st3{fill:#FFFFFF;stroke:#FFFFFF;}
</style>
<g>
	<defs>
		<rect id="SVGID_1_" x="30" y="12.3" width="273" height="301.3"/>
	</defs>
	<clipPath id="SVGID_2_">
		<use xlink:href="#SVGID_1_"  style="overflow:visible;"/>
	</clipPath>
	<g id="Group_1647" class="st0">
		<g id="Group_1645" transform="translate(5.62 31.938)">
			<path class="st1" d="M92.9,30.6C54.7,54.2,33,95.1,33,139.9c0,71.6,58,129.6,129.6,129.6c0,0,0,0,0,0
				c71.6,0,129.6-58,129.6-129.6c0-68.5-53.3-125.1-121.6-129.4c-1-0.1-0.9-0.1-1.9-0.2l105.6,0.7"/>
		</g>
		<g id="Group_1646" transform="translate(26.432 6.588)">
			<path id="Path_1777" class="st2" d="M72.1,55.9c7-5,10.8-12.4,10.8-20.6c0-13.8-11.2-25-25-25c-13.8,0-25,11.2-25,25l0,0"/>
		</g>
	</g>
</g>
<g id="right" transform="translate(36.52 21.702)">
	<g id="Group_956" transform="translate(0)">
		<path id="Path_1278" class="st3" d="M33.1,19.9l7.4-7.4c0.2-0.2,0.5-0.2,0.7,0c0,0,0,0,0,0c0.2,0.2,0.2,0.5,0,0.7c0,0,0,0,0,0
			l-6.6,6.6h28c0.3,0,0.5,0.2,0.5,0.5s-0.2,0.5-0.5,0.5c0,0,0,0,0,0h-28l6.6,6.6c0.2,0.2,0.2,0.5,0,0.7c0,0,0,0,0,0
			c-0.1,0.1-0.2,0.1-0.3,0.1c-0.1,0-0.3-0.1-0.3-0.1l-7.4-7.4C32.9,20.4,32.9,20.1,33.1,19.9C33.1,19.9,33.1,19.9,33.1,19.9z"/>
	</g>
</g>
</svg>
