<?xml version="1.0" encoding="utf-8"?>
<!-- Generator: Adobe Illustrator 24.1.3, SVG Export Plug-In . SVG Version: 6.00 Build 0)  -->
<svg version="1.1" id="Group_38" xmlns="http://www.w3.org/2000/svg" xmlns:xlink="http://www.w3.org/1999/xlink" x="0px" y="0px"
	 viewBox="0 0 20.6 19.7" style="enable-background:new 0 0 20.6 19.7;" xml:space="preserve">
<style type="text/css">
	.st0{fill:#FFFFFF;}
	.st1{fill:#ED2929;}
</style>
<g id="Group_36" transform="translate(5.276 14.947)">
	<g id="Ellipse_8">
		<ellipse class="st0" cx="11" cy="2.2" rx="2.2" ry="2.2"/>
		<path class="st1" d="M11,4.8c-1.4,0-2.6-1.2-2.6-2.6c0-1.4,1.2-2.6,2.6-2.6c1.4,0,2.6,1.2,2.6,2.6C13.6,3.6,12.4,4.8,11,4.8z
			 M11,0.4c-1,0-1.8,0.8-1.8,1.8S10,4,11,4s1.8-0.8,1.8-1.8S12,0.4,11,0.4z"/>
	</g>
	<g id="Ellipse_9">
		<ellipse class="st0" cx="2.2" cy="2.2" rx="2.2" ry="2.2"/>
		<path class="st1" d="M2.2,4.8c-1.4,0-2.6-1.2-2.6-2.6c0-1.4,1.2-2.6,2.6-2.6c1.4,0,2.6,1.2,2.6,2.6C4.8,3.6,3.6,4.8,2.2,4.8z
			 M2.2,0.4c-1,0-1.8,0.8-1.8,1.8S1.2,4,2.2,4C3.2,4,4,3.2,4,2.2S3.2,0.4,2.2,0.4z"/>
	</g>
</g>
<g id="Path_45">
	<path class="st1" d="M5.8,12.7L5.8,12.7C5.7,12.7,5.7,12.7,5.8,12.7c-0.5,0-0.8-0.3-0.9-0.7l-1.8-9c0-0.4,0.4-0.8,0.8-0.8h15.8
		c0.2,0,0.5,0.1,0.6,0.3l0,0c0.2,0.2,0.2,0.4,0.2,0.6l-0.9,7c0,0.4-0.3,0.7-0.7,0.7L5.8,12.7z M4,3L3.5,3.1L4,3l1.7,8.9l0.1,0.1
		l13.2-1.8l0.9-7.1l0-0.1c0,0,0,0,0,0H4z"/>
</g>
<g id="Group_37" transform="translate(6.157 4.387)">
	<path id="Path_46" class="st1" d="M1.3,6.2C1.1,6.2,0.9,6,0.9,5.8L0,0.5C0,0.3,0.2,0.1,0.4,0c0.2,0,0.4,0.1,0.5,0.3l0.9,5.3
		C1.8,5.9,1.6,6.1,1.3,6.2C1.4,6.2,1.3,6.2,1.3,6.2z"/>
	<path id="Path_47" class="st1" d="M3.5,5.7c-0.2,0-0.4-0.2-0.4-0.4L2.6,0.5C2.6,0.2,2.8,0,3,0c0,0,0,0,0,0l0,0
		c0.2,0,0.5,0.2,0.5,0.4c0,0,0,0,0,0l0,0L4,5.2C4,5.5,3.8,5.7,3.5,5.7C3.6,5.7,3.6,5.7,3.5,5.7L3.5,5.7L3.5,5.7z"/>
	<path id="Path_48" class="st1" d="M5.7,5.3c-0.2,0-0.4-0.2-0.4-0.4V0.4C5.3,0.2,5.5,0,5.7,0s0.4,0.2,0.4,0.4v4.4
		C6.2,5.1,6,5.3,5.7,5.3z"/>
	<path id="Path_49" class="st1" d="M7.9,4.8L7.9,4.8c-0.3,0-0.5-0.2-0.4-0.5l0,0l0.4-4C7.9,0.2,8.2,0,8.4,0c0.2,0,0.4,0.2,0.4,0.5
		c0,0,0,0,0,0l0,0l-0.4,4C8.3,4.7,8.1,4.8,7.9,4.8z"/>
	<path id="Path_50" class="st1" d="M10.1,4.4C9.9,4.4,9.7,4.2,9.7,4c0,0,0-0.1,0-0.1l0.9-3.5C10.6,0.1,10.9,0,11.1,0
		c0.2,0.1,0.4,0.3,0.3,0.5v0l-0.9,3.5C10.5,4.3,10.3,4.4,10.1,4.4z"/>
</g>
<path id="Path_51" class="st1" d="M18,14.1H7.9c-1.5,0-2.7-1-3-2.5L2.7,0.9H0.4C0.2,0.9,0,0.7,0,0.4S0.2,0,0.4,0h2.6
	c0.2,0,0.4,0.1,0.4,0.4l2.2,11.1c0.2,1,1.1,1.8,2.2,1.8H18c0.2,0,0.4,0.2,0.4,0.4S18.3,14.1,18,14.1L18,14.1z"/>
</svg>
