<?xml version="1.0" encoding="utf-8"?>
<!-- Generator: Adobe Illustrator 24.1.3, SVG Export Plug-In . SVG Version: 6.00 Build 0)  -->
<svg version="1.1" id="Layer_1" xmlns="http://www.w3.org/2000/svg" xmlns:xlink="http://www.w3.org/1999/xlink" x="0px" y="0px"
	 viewBox="0 0 1900 818" enable-background="new 0 0 1900 818" xml:space="preserve">
<g>
	<g>
		<path fill="#939599" d="M66.22,703.95c7.54,2.49,13.66,7.06,18.34,13.71c3.76,5.35,6.3,11.16,7.68,17.42
			c1.36,6.26,2.05,12.21,2.05,17.87c0,14.35-2.88,26.49-8.63,36.46c-7.8,13.42-19.84,20.13-36.12,20.13H3.13V701.6h46.41
			C56.22,701.7,61.78,702.49,66.22,703.95 M24.96,720.35v70.42h20.78c10.64,0,18.05-5.23,22.24-15.73
			c2.3-5.76,3.45-12.62,3.45-20.59c0-10.97-1.73-19.41-5.18-25.3c-3.43-5.87-10.27-8.81-20.52-8.81H24.96z"/>
		<rect x="142.24" y="701.59" fill="#939599" width="22.34" height="107.93"/>
		<polygon fill="#939599" points="218.55,701.75 295.32,701.75 295.32,720.71 240.89,720.71 240.89,745.53 288.6,745.53 
			288.6,764.29 240.89,764.29 240.89,809.53 218.55,809.53 		"/>
		<polygon fill="#939599" points="342.84,701.75 419.61,701.75 419.61,720.71 365.19,720.71 365.19,745.53 412.89,745.53 
			412.89,764.29 365.19,764.29 365.19,809.53 342.84,809.53 		"/>
		<polygon fill="#939599" points="546.77,720.71 489.78,720.71 489.78,743.63 542.08,743.63 542.08,762.38 489.78,762.38 
			489.78,790.13 549.37,790.13 549.37,809.52 467.78,809.52 467.78,701.61 546.77,701.61 		"/>
		<path fill="#939599" d="M668.83,704.38c3.98,1.73,7.33,4.24,10.08,7.55c2.28,2.74,4.09,5.76,5.42,9.08
			c1.31,3.31,1.99,7.1,1.99,11.34c0,5.13-1.29,10.17-3.88,15.11c-2.59,4.98-6.84,8.48-12.77,10.52c4.95,2,8.48,4.84,10.54,8.52
			c2.07,3.68,3.12,9.33,3.12,16.9v7.25c0,4.92,0.18,8.25,0.6,10.03c0.58,2.78,1.97,4.84,4.15,6.16v2.7h-24.83
			c-0.7-2.39-1.17-4.3-1.48-5.78c-0.58-3.01-0.9-6.11-0.94-9.28l-0.14-10.05c-0.08-6.88-1.27-11.47-3.55-13.77
			c-2.28-2.29-6.55-3.44-12.81-3.44h-21.97v42.32h-21.99V701.6h51.51C659.2,701.74,664.86,702.67,668.83,704.38 M622.33,720.35
			v29.01h24.21c4.81,0,8.42-0.6,10.82-1.77c4.25-2.04,6.39-6.09,6.39-12.17c0-6.53-2.05-10.93-6.18-13.17
			c-2.32-1.26-5.77-1.89-10.41-1.89H622.33z"/>
		<polygon fill="#939599" points="820.41,720.71 763.42,720.71 763.42,743.63 815.73,743.63 815.73,762.38 763.42,762.38 
			763.42,790.13 823.04,790.13 823.04,809.52 741.43,809.52 741.43,701.61 820.41,701.61 		"/>
		<polygon fill="#939599" points="873.1,701.61 896.7,701.61 939.44,776.87 939.44,701.61 960.38,701.61 960.38,809.54 
			937.92,809.54 894.07,732.96 894.07,809.54 873.1,809.54 		"/>
		<polygon fill="#939599" points="1092.66,701.61 1092.66,720.71 1060.46,720.71 1060.46,809.54 1037.8,809.54 1037.8,720.71 
			1005.44,720.71 1005.44,701.61 		"/>
		<polygon fill="#939599" points="1227.85,701.61 1242.04,763.4 1245.16,780.61 1248.26,763.77 1260.42,701.61 1284.16,701.61 
			1296.97,763.4 1300.24,780.61 1303.57,764.06 1317.92,701.61 1340.82,701.61 1310.53,809.54 1289.01,809.54 1276.01,746.42 
			1272.19,725.55 1268.39,746.42 1255.39,809.54 1234.48,809.54 1203.96,701.61 		"/>
		<path fill="#939599" d="M1470.25,799.93c-8.15,8.42-19.92,12.6-35.3,12.6c-15.38,0-27.15-4.18-35.28-12.6
			c-10.91-10.29-16.37-25.13-16.37-44.51c0-19.78,5.46-34.6,16.37-44.53c8.13-8.4,19.9-12.6,35.28-12.6c15.38,0,27.15,4.2,35.3,12.6
			c10.84,9.92,16.27,24.74,16.27,44.53C1486.51,774.8,1481.09,789.64,1470.25,799.93 M1456.16,783.55
			c5.24-6.59,7.87-15.95,7.87-28.12c0-12.1-2.63-21.47-7.87-28.08c-5.24-6.61-12.3-9.92-21.21-9.92c-8.91,0-16,3.29-21.32,9.88
			c-5.32,6.59-7.99,15.95-7.99,28.12c0,12.17,2.67,21.53,7.99,28.12c5.32,6.59,12.4,9.88,21.32,9.88
			C1443.86,793.43,1450.92,790.13,1456.16,783.55"/>
		<path fill="#939599" d="M1605.6,704.38c3.96,1.73,7.31,4.24,10.08,7.55c2.26,2.74,4.09,5.76,5.42,9.08
			c1.31,3.31,1.97,7.1,1.97,11.34c0,5.13-1.27,10.17-3.86,15.11c-2.57,4.98-6.84,8.48-12.77,10.52c4.97,2,8.48,4.84,10.54,8.52
			c2.09,3.68,3.12,9.33,3.12,16.9v7.25c0,4.92,0.18,8.25,0.57,10.03c0.6,2.78,1.99,4.84,4.17,6.16v2.7h-24.85
			c-0.68-2.39-1.15-4.3-1.46-5.78c-0.58-3.01-0.88-6.11-0.94-9.28l-0.14-10.05c-0.1-6.88-1.27-11.47-3.57-13.77
			c-2.26-2.29-6.55-3.44-12.81-3.44h-21.95v42.32h-21.99V701.6h51.51C1595.96,701.74,1601.63,702.67,1605.6,704.38 M1559.1,720.35
			v29.01h24.21c4.81,0,8.4-0.6,10.82-1.77c4.25-2.04,6.39-6.09,6.39-12.17c0-6.53-2.07-10.93-6.18-13.17
			c-2.3-1.26-5.77-1.89-10.41-1.89H1559.1z"/>
		<polygon fill="#939599" points="1677.55,701.61 1700.06,701.61 1700.06,790.12 1753.8,790.12 1753.8,809.54 1677.55,809.54 		"/>
		<path fill="#939599" d="M1864.93,703.95c7.56,2.49,13.68,7.06,18.34,13.71c3.76,5.35,6.33,11.16,7.68,17.42
			c1.38,6.26,2.05,12.21,2.05,17.87c0,14.35-2.9,26.49-8.63,36.46c-7.8,13.42-19.84,20.13-36.12,20.13h-46.41V701.6h46.41
			C1854.93,701.7,1860.49,702.49,1864.93,703.95 M1823.67,720.35v70.42h20.78c10.64,0,18.05-5.23,22.24-15.73
			c2.3-5.76,3.45-12.62,3.45-20.59c0-10.97-1.73-19.41-5.15-25.3c-3.45-5.87-10.29-8.81-20.54-8.81H1823.67z"/>
		<path fill="#BB0D17" d="M860.55,224.57c86.03,0,131.8,35.3,151.93,57.19l3.14,3.01l0.76-1.69
			c18.2-66.76,104.92-117.73,208.32-117.73h280.32L1626.56,9.55h-430.03c-159.49,0-295.13,90.64-338.5,214.05l-0.62,1.24
			L860.55,224.57z"/>
	</g>
	<g>
		<defs>
			<path id="SVGID_1_" d="M1196.52,9.57c-159.49,0-295.13,90.64-338.48,214.03l-0.64,1.24l3.14-0.27
				c86.03,0,131.82,35.3,151.93,57.19l3.14,3.01l0.76-1.69c18.22-66.74,104.9-117.71,208.32-117.71h280.32L1626.58,9.57H1196.52z"/>
		</defs>
		<clipPath id="SVGID_2_">
			<use xlink:href="#SVGID_1_"  overflow="visible"/>
		</clipPath>
		<polygon clip-path="url(#SVGID_2_)" fill="#00679F" points="239.1,-86.76 112.1,75 1.18,-86.76 		"/>
		<polygon clip-path="url(#SVGID_2_)" fill="#00679F" points="953.39,-86.76 826.4,75 715.46,-86.76 		"/>
		<polygon clip-path="url(#SVGID_2_)" fill="#0077B5" points="588.39,75.01 715.41,-86.75 826.35,75.01 		"/>
		<polygon clip-path="url(#SVGID_2_)" fill="#00A3D3" points="715.41,-86.77 588.39,75 477.47,-86.77 		"/>
		<polygon clip-path="url(#SVGID_2_)" fill="#00B3EE" points="350.43,75.01 477.47,-86.75 588.39,75.01 		"/>
		<polygon clip-path="url(#SVGID_2_)" fill="#00894A" points="112.49,75.01 239.51,-86.75 350.43,75.01 		"/>
		<polygon clip-path="url(#SVGID_2_)" fill="#00C6F7" points="350.43,75.01 477.47,-86.75 239.5,-86.75 		"/>
		<polygon clip-path="url(#SVGID_2_)" fill="#00679F" points="2381.52,-86.76 2254.51,75 2143.59,-86.76 		"/>
		<polygon clip-path="url(#SVGID_2_)" fill="#0077B5" points="2016.5,75.01 2143.54,-86.75 2254.44,75.01 		"/>
		<polygon clip-path="url(#SVGID_2_)" fill="#00A3D3" points="2143.53,-86.77 2016.51,75 1905.57,-86.77 		"/>
		<polygon clip-path="url(#SVGID_2_)" fill="#00B3EE" points="1778.54,75.01 1905.58,-86.75 2016.5,75.01 		"/>
		<polygon clip-path="url(#SVGID_2_)" fill="#00C6F7" points="1778.54,75.01 1905.58,-86.75 1667.63,-86.75 		"/>
		<polygon clip-path="url(#SVGID_2_)" fill="#00679F" points="239.1,75.02 112.1,236.78 1.18,75.02 		"/>
		<polygon clip-path="url(#SVGID_2_)" fill="#00679F" points="953.39,75.02 826.4,236.78 715.46,75.02 		"/>
		<polygon clip-path="url(#SVGID_2_)" fill="#0077B5" points="588.39,236.79 715.41,75.03 826.35,236.79 		"/>
		<polygon clip-path="url(#SVGID_2_)" fill="#00A3D3" points="715.41,75.01 588.39,236.77 477.47,75.01 		"/>
		<polygon clip-path="url(#SVGID_2_)" fill="#00B3EE" points="350.43,236.79 477.47,75.03 588.39,236.79 		"/>
		<polygon clip-path="url(#SVGID_2_)" fill="#00894A" points="112.49,236.79 239.51,75.03 350.43,236.79 		"/>
		<polygon clip-path="url(#SVGID_2_)" fill="#00C6F7" points="350.43,236.79 477.47,75.03 239.5,75.03 		"/>
		<polygon clip-path="url(#SVGID_2_)" fill="#00894A" points="1736.85,9.56 1609.83,171.32 1498.89,9.56 		"/>
		<polygon clip-path="url(#SVGID_2_)" fill="#00AE3C" points="1370.58,165.35 1497.37,2.41 1608.52,165.35 		"/>
		<polygon clip-path="url(#SVGID_2_)" fill="#72C625" points="1493.5,9.56 1366.46,171.32 1255.52,9.56 		"/>
		<polygon clip-path="url(#SVGID_2_)" fill="#B6D200" points="1115.64,169.89 1249.56,-1.05 1366.47,171.33 		"/>
		<polygon clip-path="url(#SVGID_2_)" fill="#FF8700" points="745.32,327.11 872.34,165.35 983.28,327.11 		"/>
		<polygon clip-path="url(#SVGID_2_)" fill="#00C6F7" points="929.78,331.44 1056.78,169.68 1167.7,331.44 		"/>
		<polygon clip-path="url(#SVGID_2_)" fill="#FFAE00" points="881.08,169.5 1008.09,7.74 1119.03,169.5 		"/>
		<polygon clip-path="url(#SVGID_2_)" fill="#FFD600" points="1112.71,174.53 1244.95,6.08 997.22,6.08 		"/>
		<polygon clip-path="url(#SVGID_2_)" fill="#B6D200" points="1177.91,331.21 1304.95,169.45 1066.99,169.45 		"/>
		<polygon clip-path="url(#SVGID_2_)" fill="#00679F" points="2381.52,75.02 2254.51,236.78 2143.59,75.02 		"/>
		<polygon clip-path="url(#SVGID_2_)" fill="#0077B5" points="2016.5,236.79 2143.54,75.03 2254.44,236.79 		"/>
		<polygon clip-path="url(#SVGID_2_)" fill="#00A3D3" points="2143.53,75.01 2016.51,236.77 1905.57,75.01 		"/>
		<polygon clip-path="url(#SVGID_2_)" fill="#00B3EE" points="1778.54,236.79 1905.58,75.03 2016.5,236.79 		"/>
		<polygon clip-path="url(#SVGID_2_)" fill="#00C6F7" points="1778.54,236.79 1905.58,75.03 1667.63,75.03 		"/>
		<polygon clip-path="url(#SVGID_2_)" fill="#00679F" points="239.1,236.81 112.1,398.57 1.18,236.81 		"/>
		<polygon clip-path="url(#SVGID_2_)" fill="#00679F" points="953.39,236.81 826.4,398.57 715.46,236.81 		"/>
		<polygon clip-path="url(#SVGID_2_)" fill="#0077B5" points="588.39,398.58 715.41,236.82 826.35,398.58 		"/>
		<polygon clip-path="url(#SVGID_2_)" fill="#00A3D3" points="715.41,236.79 588.39,398.57 477.47,236.79 		"/>
		<polygon clip-path="url(#SVGID_2_)" fill="#00B3EE" points="350.43,398.58 477.47,236.82 588.39,398.58 		"/>
		<polygon clip-path="url(#SVGID_2_)" fill="#00894A" points="112.49,398.58 239.51,236.82 350.43,398.58 		"/>
		<polygon clip-path="url(#SVGID_2_)" fill="#00C6F7" points="350.43,398.58 477.47,236.82 239.5,236.82 		"/>
		<polygon clip-path="url(#SVGID_2_)" fill="#00679F" points="1667.22,236.81 1540.2,398.57 1429.28,236.81 		"/>
		<polygon clip-path="url(#SVGID_2_)" fill="#0077B5" points="1302.21,398.58 1429.21,236.82 1540.15,398.58 		"/>
		<polygon clip-path="url(#SVGID_2_)" fill="#00A3D3" points="1429.22,236.79 1302.21,398.57 1191.27,236.79 		"/>
		<polygon clip-path="url(#SVGID_2_)" fill="#00B3EE" points="1064.26,398.58 1191.28,236.82 1302.22,398.58 		"/>
		<polygon clip-path="url(#SVGID_2_)" fill="#00894A" points="826.31,398.58 953.31,236.82 1064.25,398.58 		"/>
		<polygon clip-path="url(#SVGID_2_)" fill="#FF8700" points="985.3,331.34 1115.46,169.56 874.36,169.56 		"/>
		<polygon clip-path="url(#SVGID_2_)" fill="#00679F" points="2381.52,236.81 2254.51,398.57 2143.59,236.81 		"/>
		<polygon clip-path="url(#SVGID_2_)" fill="#0077B5" points="2016.5,398.58 2143.54,236.82 2254.44,398.58 		"/>
		<polygon clip-path="url(#SVGID_2_)" fill="#00A3D3" points="2143.53,236.79 2016.51,398.57 1905.57,236.79 		"/>
		<polygon clip-path="url(#SVGID_2_)" fill="#00B3EE" points="1778.54,398.58 1905.58,236.82 2016.5,398.58 		"/>
		<polygon clip-path="url(#SVGID_2_)" fill="#00894A" points="1540.61,398.58 1667.63,236.82 1778.55,398.58 		"/>
		<polygon clip-path="url(#SVGID_2_)" fill="#00C6F7" points="1778.54,398.58 1905.58,236.82 1667.63,236.82 		"/>
		<polygon clip-path="url(#SVGID_2_)" fill="#00679F" points="239.1,398.59 112.1,560.35 1.18,398.59 		"/>
		<polygon clip-path="url(#SVGID_2_)" fill="#00679F" points="953.39,398.59 826.4,560.35 715.46,398.59 		"/>
		<polygon clip-path="url(#SVGID_2_)" fill="#0077B5" points="588.39,560.36 715.41,398.6 826.35,560.36 		"/>
		<polygon clip-path="url(#SVGID_2_)" fill="#00A3D3" points="715.41,398.58 588.39,560.34 477.47,398.58 		"/>
		<polygon clip-path="url(#SVGID_2_)" fill="#00B3EE" points="350.43,560.36 477.47,398.6 588.39,560.36 		"/>
		<polygon clip-path="url(#SVGID_2_)" fill="#00894A" points="112.49,560.36 239.51,398.6 350.43,560.36 		"/>
		<polygon clip-path="url(#SVGID_2_)" fill="#00C6F7" points="350.43,560.36 477.47,398.6 239.5,398.6 		"/>
		<polygon clip-path="url(#SVGID_2_)" fill="#00679F" points="1667.22,398.59 1540.2,560.35 1429.28,398.59 		"/>
		<polygon clip-path="url(#SVGID_2_)" fill="#0077B5" points="1302.21,560.36 1429.21,398.6 1540.15,560.36 		"/>
		<polygon clip-path="url(#SVGID_2_)" fill="#00A3D3" points="1429.22,398.58 1302.21,560.34 1191.27,398.58 		"/>
		<polygon clip-path="url(#SVGID_2_)" fill="#00B3EE" points="1064.26,560.36 1191.28,398.6 1302.22,560.36 		"/>
		<polygon clip-path="url(#SVGID_2_)" fill="#00894A" points="826.31,560.36 953.31,398.6 1064.25,560.36 		"/>
		<polygon clip-path="url(#SVGID_2_)" fill="#00C6F7" points="1064.26,560.36 1191.28,398.6 953.32,398.6 		"/>
		<polygon clip-path="url(#SVGID_2_)" fill="#00679F" points="2381.52,398.59 2254.51,560.35 2143.59,398.59 		"/>
		<polygon clip-path="url(#SVGID_2_)" fill="#0077B5" points="2016.5,560.36 2143.54,398.6 2254.44,560.36 		"/>
		<polygon clip-path="url(#SVGID_2_)" fill="#00A3D3" points="2143.53,398.58 2016.51,560.34 1905.57,398.58 		"/>
		<polygon clip-path="url(#SVGID_2_)" fill="#00B3EE" points="1778.54,560.36 1905.58,398.6 2016.5,560.36 		"/>
		<polygon clip-path="url(#SVGID_2_)" fill="#00894A" points="1540.61,560.36 1667.63,398.6 1778.55,560.36 		"/>
		<polygon clip-path="url(#SVGID_2_)" fill="#00C6F7" points="1778.54,560.36 1905.58,398.6 1667.63,398.6 		"/>
		<polygon clip-path="url(#SVGID_2_)" fill="#00679F" points="-228.4,817.84 -355.42,979.6 -466.31,817.84 		"/>
		<polygon clip-path="url(#SVGID_2_)" fill="#00679F" points="485.91,817.84 358.89,979.6 247.97,817.84 		"/>
		<polygon clip-path="url(#SVGID_2_)" fill="#0077B5" points="120.89,979.61 247.91,817.85 358.83,979.61 		"/>
		<polygon clip-path="url(#SVGID_2_)" fill="#00A3D3" points="247.91,817.83 120.91,979.59 9.98,817.83 		"/>
		<polygon clip-path="url(#SVGID_2_)" fill="#00B3EE" points="-117.07,979.61 9.97,817.85 120.88,979.61 		"/>
		<polygon clip-path="url(#SVGID_2_)" fill="#00894A" points="-355.01,979.61 -227.99,817.85 -117.07,979.61 		"/>
		<polygon clip-path="url(#SVGID_2_)" fill="#00C6F7" points="-117.07,979.61 9.97,817.85 -227.99,817.85 		"/>
		<polygon clip-path="url(#SVGID_2_)" fill="#00679F" points="1199.71,817.84 1072.69,979.6 961.78,817.84 		"/>
		<polygon clip-path="url(#SVGID_2_)" fill="#0077B5" points="834.7,979.61 961.72,817.85 1072.61,979.61 		"/>
		<polygon clip-path="url(#SVGID_2_)" fill="#00A3D3" points="961.72,817.83 834.7,979.59 723.76,817.83 		"/>
		<polygon clip-path="url(#SVGID_2_)" fill="#00B3EE" points="596.74,979.61 723.76,817.85 834.7,979.61 		"/>
		<polygon clip-path="url(#SVGID_2_)" fill="#00894A" points="358.81,979.61 485.83,817.85 596.74,979.61 		"/>
		<polygon clip-path="url(#SVGID_2_)" fill="#00C6F7" points="596.74,979.61 723.76,817.85 485.83,817.85 		"/>
		<polygon clip-path="url(#SVGID_2_)" fill="#00679F" points="1914.02,817.84 1787,979.6 1676.08,817.84 		"/>
		<polygon clip-path="url(#SVGID_2_)" fill="#0077B5" points="1549.01,979.61 1676.03,817.85 1786.95,979.61 		"/>
		<polygon clip-path="url(#SVGID_2_)" fill="#00A3D3" points="1676.04,817.83 1549,979.59 1438.09,817.83 		"/>
		<polygon clip-path="url(#SVGID_2_)" fill="#00B3EE" points="1311.04,979.61 1438.08,817.85 1549.02,979.61 		"/>
		<polygon clip-path="url(#SVGID_2_)" fill="#00894A" points="1073.1,979.61 1200.1,817.85 1311.04,979.61 		"/>
		<polygon clip-path="url(#SVGID_2_)" fill="#00C6F7" points="1311.04,979.61 1438.08,817.85 1200.1,817.85 		"/>
		<polygon clip-path="url(#SVGID_2_)" fill="#00679F" points="-228.4,979.63 -355.42,1141.39 -466.31,979.63 		"/>
		<polygon clip-path="url(#SVGID_2_)" fill="#00679F" points="485.91,979.63 358.89,1141.39 247.97,979.63 		"/>
		<polygon clip-path="url(#SVGID_2_)" fill="#0077B5" points="120.89,1141.4 247.91,979.64 358.83,1141.4 		"/>
		<polygon clip-path="url(#SVGID_2_)" fill="#00A3D3" points="247.91,979.62 120.91,1141.38 9.98,979.62 		"/>
		<polygon clip-path="url(#SVGID_2_)" fill="#00B3EE" points="-117.07,1141.4 9.97,979.64 120.88,1141.4 		"/>
		<polygon clip-path="url(#SVGID_2_)" fill="#00894A" points="-355.01,1141.4 -227.99,979.64 -117.07,1141.4 		"/>
		<polygon clip-path="url(#SVGID_2_)" fill="#00C6F7" points="-117.07,1141.4 9.97,979.64 -227.99,979.64 		"/>
		<polygon clip-path="url(#SVGID_2_)" fill="#00679F" points="1199.71,979.63 1072.69,1141.39 961.78,979.63 		"/>
		<polygon clip-path="url(#SVGID_2_)" fill="#0077B5" points="834.7,1141.4 961.72,979.64 1072.61,1141.4 		"/>
		<polygon clip-path="url(#SVGID_2_)" fill="#00A3D3" points="961.72,979.62 834.7,1141.38 723.76,979.62 		"/>
		<polygon clip-path="url(#SVGID_2_)" fill="#00B3EE" points="596.74,1141.4 723.76,979.64 834.7,1141.4 		"/>
		<polygon clip-path="url(#SVGID_2_)" fill="#00894A" points="358.81,1141.4 485.83,979.64 596.74,1141.4 		"/>
		<polygon clip-path="url(#SVGID_2_)" fill="#00C6F7" points="596.74,1141.4 723.76,979.64 485.83,979.64 		"/>
		<polygon clip-path="url(#SVGID_2_)" fill="#00679F" points="1914.02,979.63 1787,1141.39 1676.08,979.63 		"/>
		<polygon clip-path="url(#SVGID_2_)" fill="#0077B5" points="1549.01,1141.4 1676.03,979.64 1786.95,1141.4 		"/>
		<polygon clip-path="url(#SVGID_2_)" fill="#00A3D3" points="1676.04,979.62 1549,1141.38 1438.09,979.62 		"/>
		<polygon clip-path="url(#SVGID_2_)" fill="#00B3EE" points="1311.04,1141.4 1438.08,979.64 1549.02,1141.4 		"/>
		<polygon clip-path="url(#SVGID_2_)" fill="#00894A" points="1073.1,1141.4 1200.1,979.64 1311.04,1141.4 		"/>
		<polygon clip-path="url(#SVGID_2_)" fill="#00C6F7" points="1311.04,1141.4 1438.08,979.64 1200.1,979.64 		"/>
		<polygon clip-path="url(#SVGID_2_)" fill="#00679F" points="-228.4,1141.41 -355.42,1303.2 -466.31,1141.41 		"/>
		<polygon clip-path="url(#SVGID_2_)" fill="#00679F" points="485.91,1141.41 358.89,1303.2 247.97,1141.41 		"/>
		<polygon clip-path="url(#SVGID_2_)" fill="#0077B5" points="120.89,1303.19 247.91,1141.41 358.83,1303.19 		"/>
		<polygon clip-path="url(#SVGID_2_)" fill="#00A3D3" points="247.91,1141.4 120.91,1303.17 9.98,1141.4 		"/>
		<polygon clip-path="url(#SVGID_2_)" fill="#00B3EE" points="-117.07,1303.19 9.97,1141.41 120.88,1303.19 		"/>
		<polygon clip-path="url(#SVGID_2_)" fill="#00894A" points="-355.01,1303.19 -227.99,1141.41 -117.07,1303.19 		"/>
		<polygon clip-path="url(#SVGID_2_)" fill="#00C6F7" points="-117.07,1303.19 9.97,1141.41 -227.99,1141.41 		"/>
		<polygon clip-path="url(#SVGID_2_)" fill="#00679F" points="1199.71,1141.41 1072.69,1303.2 961.78,1141.41 		"/>
		<polygon clip-path="url(#SVGID_2_)" fill="#0077B5" points="834.7,1303.19 961.72,1141.41 1072.61,1303.19 		"/>
		<polygon clip-path="url(#SVGID_2_)" fill="#00A3D3" points="961.72,1141.4 834.7,1303.17 723.76,1141.4 		"/>
		<polygon clip-path="url(#SVGID_2_)" fill="#00B3EE" points="596.74,1303.19 723.76,1141.41 834.7,1303.19 		"/>
		<polygon clip-path="url(#SVGID_2_)" fill="#00894A" points="358.81,1303.19 485.83,1141.41 596.74,1303.19 		"/>
		<polygon clip-path="url(#SVGID_2_)" fill="#00C6F7" points="596.74,1303.19 723.76,1141.41 485.83,1141.41 		"/>
		<polygon clip-path="url(#SVGID_2_)" fill="#00679F" points="1914.02,1141.41 1787,1303.2 1676.08,1141.41 		"/>
		<polygon clip-path="url(#SVGID_2_)" fill="#0077B5" points="1549.01,1303.19 1676.03,1141.41 1786.95,1303.19 		"/>
		<polygon clip-path="url(#SVGID_2_)" fill="#00A3D3" points="1676.04,1141.4 1549,1303.17 1438.09,1141.4 		"/>
		<polygon clip-path="url(#SVGID_2_)" fill="#00B3EE" points="1311.04,1303.19 1438.08,1141.41 1549.02,1303.19 		"/>
		<polygon clip-path="url(#SVGID_2_)" fill="#00894A" points="1073.1,1303.19 1200.1,1141.41 1311.04,1303.19 		"/>
		<polygon clip-path="url(#SVGID_2_)" fill="#00C6F7" points="1311.04,1303.19 1438.08,1141.41 1200.1,1141.41 		"/>
		<polygon clip-path="url(#SVGID_2_)" fill="#00679F" points="-228.4,1303.2 -355.42,1464.96 -466.31,1303.2 		"/>
		<polygon clip-path="url(#SVGID_2_)" fill="#00679F" points="485.91,1303.2 358.89,1464.96 247.97,1303.2 		"/>
		<polygon clip-path="url(#SVGID_2_)" fill="#0077B5" points="120.89,1464.97 247.91,1303.21 358.83,1464.97 		"/>
		<polygon clip-path="url(#SVGID_2_)" fill="#00A3D3" points="247.91,1303.19 120.91,1464.96 9.98,1303.19 		"/>
		<polygon clip-path="url(#SVGID_2_)" fill="#00B3EE" points="-117.07,1464.97 9.97,1303.21 120.88,1464.97 		"/>
		<polygon clip-path="url(#SVGID_2_)" fill="#00894A" points="-355.01,1464.97 -227.99,1303.21 -117.07,1464.97 		"/>
		<polygon clip-path="url(#SVGID_2_)" fill="#00C6F7" points="-117.07,1464.97 9.97,1303.21 -227.99,1303.21 		"/>
		<polygon clip-path="url(#SVGID_2_)" fill="#00679F" points="1199.71,1303.2 1072.69,1464.96 961.78,1303.2 		"/>
		<polygon clip-path="url(#SVGID_2_)" fill="#0077B5" points="834.7,1464.97 961.72,1303.21 1072.61,1464.97 		"/>
		<polygon clip-path="url(#SVGID_2_)" fill="#00A3D3" points="961.72,1303.19 834.7,1464.96 723.76,1303.19 		"/>
		<polygon clip-path="url(#SVGID_2_)" fill="#00B3EE" points="596.74,1464.97 723.76,1303.21 834.7,1464.97 		"/>
		<polygon clip-path="url(#SVGID_2_)" fill="#00894A" points="358.81,1464.97 485.83,1303.21 596.74,1464.97 		"/>
		<polygon clip-path="url(#SVGID_2_)" fill="#00C6F7" points="596.74,1464.97 723.76,1303.21 485.83,1303.21 		"/>
		<polygon clip-path="url(#SVGID_2_)" fill="#00679F" points="1914.02,1303.2 1787,1464.96 1676.08,1303.2 		"/>
		<polygon clip-path="url(#SVGID_2_)" fill="#0077B5" points="1549.01,1464.97 1676.03,1303.21 1786.95,1464.97 		"/>
		<polygon clip-path="url(#SVGID_2_)" fill="#00A3D3" points="1676.04,1303.19 1549,1464.96 1438.09,1303.19 		"/>
		<polygon clip-path="url(#SVGID_2_)" fill="#00B3EE" points="1311.04,1464.97 1438.08,1303.21 1549.02,1464.97 		"/>
		<polygon clip-path="url(#SVGID_2_)" fill="#00894A" points="1073.1,1464.97 1200.1,1303.21 1311.04,1464.97 		"/>
		<polygon clip-path="url(#SVGID_2_)" fill="#00C6F7" points="1311.04,1464.97 1438.08,1303.21 1200.1,1303.21 		"/>
		<polygon clip-path="url(#SVGID_2_)" fill="#00679F" points="-228.4,1464.98 -355.42,1626.74 -466.31,1464.98 		"/>
		<polygon clip-path="url(#SVGID_2_)" fill="#00679F" points="485.91,1464.98 358.89,1626.74 247.97,1464.98 		"/>
		<polygon clip-path="url(#SVGID_2_)" fill="#0077B5" points="120.89,1626.75 247.91,1464.99 358.83,1626.75 		"/>
		<polygon clip-path="url(#SVGID_2_)" fill="#00A3D3" points="247.91,1464.97 120.91,1626.73 9.98,1464.97 		"/>
		<polygon clip-path="url(#SVGID_2_)" fill="#00B3EE" points="-117.07,1626.75 9.97,1464.99 120.88,1626.75 		"/>
		<polygon clip-path="url(#SVGID_2_)" fill="#00894A" points="-355.01,1626.75 -227.99,1464.99 -117.07,1626.75 		"/>
		<polygon clip-path="url(#SVGID_2_)" fill="#00C6F7" points="-117.07,1626.75 9.97,1464.99 -227.99,1464.99 		"/>
		<polygon clip-path="url(#SVGID_2_)" fill="#00679F" points="1199.71,1464.98 1072.69,1626.74 961.78,1464.98 		"/>
		<polygon clip-path="url(#SVGID_2_)" fill="#0077B5" points="834.7,1626.75 961.72,1464.99 1072.61,1626.75 		"/>
		<polygon clip-path="url(#SVGID_2_)" fill="#00A3D3" points="961.72,1464.97 834.7,1626.73 723.76,1464.97 		"/>
		<polygon clip-path="url(#SVGID_2_)" fill="#00B3EE" points="596.74,1626.75 723.76,1464.99 834.7,1626.75 		"/>
		<polygon clip-path="url(#SVGID_2_)" fill="#00894A" points="358.81,1626.75 485.83,1464.99 596.74,1626.75 		"/>
		<polygon clip-path="url(#SVGID_2_)" fill="#00C6F7" points="596.74,1626.75 723.76,1464.99 485.83,1464.99 		"/>
		<polygon clip-path="url(#SVGID_2_)" fill="#00679F" points="1914.02,1464.98 1787,1626.74 1676.08,1464.98 		"/>
		<polygon clip-path="url(#SVGID_2_)" fill="#0077B5" points="1549.01,1626.75 1676.03,1464.99 1786.95,1626.75 		"/>
		<polygon clip-path="url(#SVGID_2_)" fill="#00A3D3" points="1676.04,1464.97 1549,1626.73 1438.09,1464.97 		"/>
		<polygon clip-path="url(#SVGID_2_)" fill="#00B3EE" points="1311.04,1626.75 1438.08,1464.99 1549.02,1626.75 		"/>
		<polygon clip-path="url(#SVGID_2_)" fill="#00894A" points="1073.1,1626.75 1200.1,1464.99 1311.04,1626.75 		"/>
		<polygon clip-path="url(#SVGID_2_)" fill="#00C6F7" points="1311.04,1626.75 1438.08,1464.99 1200.1,1464.99 		"/>
	</g>
	<g>
		<rect x="7.73" y="557.04" width="47.58" height="49.69"/>
		<rect x="56.85" y="458" width="47.58" height="49.71"/>
		<path d="M953.85,570.56l-0.76-1.87c-46.99-30.65-84.65-71.06-108.72-117.56l-2.14,0.21c-11.54,6.2-29.9,6.59-29.9,6.59H365.91
			v49.8h-47.58v-11.73v-38.31h-13.7h-34.5h-46.02v49.69h46.02v49.67h1.33l-1.33,1.75v-1.75h-99.15v49.69h99.15v-0.02H826.2
			C874.05,606.71,918.33,593.23,953.85,570.56"/>
		<rect x="123.43" y="507.37" width="47.56" height="49.67"/>
		<path fill="#FF8700" d="M850.48,367.07c32.57,136.26,175.73,239.66,346.04,239.66h641.85l-121.58-153.8h-492.1h-43.93
			c0,0-107.26,8.67-166.55-127.63c0,0-40.19-74.09-164.81-74.09H467.97c-23.29,0-42.35-18.42-42.35-40.94
			c0-22.5,19.06-40.94,42.35-40.94H780.7l127-161.76H459.59C343.1,7.56,247.79,88.9,247.79,188.3
			c0,99.43,95.31,180.74,211.79,180.74h391.9"/>
	</g>
	<g>
		<defs>
			<path id="SVGID_3_" d="M459.59,7.55c-116.48,0-211.81,81.33-211.81,180.76c0,99.41,95.33,180.74,211.81,180.74h391.36
				c33.49,135.27,176.08,237.66,345.57,237.66h641.85L1716.8,452.94h-492.1h-43.93c0,0-107.26,8.67-166.55-127.63
				c0,0-40.19-74.11-164.81-74.11H467.97c-23.29,0-42.35-18.4-42.35-40.92c0-22.5,19.06-40.94,42.35-40.94h312.71l127-161.78H459.59
				z"/>
		</defs>
		<clipPath id="SVGID_4_">
			<use xlink:href="#SVGID_3_"  overflow="visible"/>
		</clipPath>
		<polygon clip-path="url(#SVGID_4_)" fill="#00679F" points="-39.67,5.58 -166.69,205.96 -277.61,5.58 		"/>
		<polygon clip-path="url(#SVGID_4_)" fill="#00A3D3" points="674.62,5.58 547.62,205.96 436.68,5.58 		"/>
		<polygon clip-path="url(#SVGID_4_)" fill="#00B3EE" points="309.61,205.95 436.63,5.57 547.55,205.95 		"/>
		<polygon clip-path="url(#SVGID_4_)" fill="#00B3EE" points="436.63,5.57 309.61,205.95 198.7,5.57 		"/>
		<polygon clip-path="url(#SVGID_4_)" fill="#00B3EE" points="71.64,205.95 198.68,5.57 309.61,205.95 		"/>
		<polygon clip-path="url(#SVGID_4_)" fill="#00894A" points="-166.29,205.95 -39.29,5.57 71.63,205.95 		"/>
		<polygon clip-path="url(#SVGID_4_)" fill="#00C6F7" points="71.64,205.95 198.68,5.57 -39.28,5.57 		"/>
		<polygon clip-path="url(#SVGID_4_)" fill="#00679F" points="1388.43,5.58 1261.41,205.96 1150.48,5.58 		"/>
		<polygon clip-path="url(#SVGID_4_)" fill="#0077B5" points="1023.41,205.95 1150.4,5.57 1261.34,205.95 		"/>
		<polygon clip-path="url(#SVGID_4_)" fill="#00B3EE" points="785.46,205.95 912.48,5.57 1023.4,205.95 		"/>
		<polygon clip-path="url(#SVGID_4_)" fill="#0077B5" points="547.54,205.95 674.54,5.57 785.45,205.95 		"/>
		<polygon clip-path="url(#SVGID_4_)" fill="#00679F" points="785.46,205.95 912.48,5.57 674.54,5.57 		"/>
		<polygon clip-path="url(#SVGID_4_)" fill="#00679F" points="2102.72,5.58 1975.7,205.96 1864.78,5.58 		"/>
		<polygon clip-path="url(#SVGID_4_)" fill="#0077B5" points="1737.71,205.95 1864.73,5.57 1975.65,205.95 		"/>
		<polygon clip-path="url(#SVGID_4_)" fill="#00A3D3" points="1864.72,5.57 1737.7,205.95 1626.78,5.57 		"/>
		<polygon clip-path="url(#SVGID_4_)" fill="#00B3EE" points="1499.74,205.95 1626.8,5.57 1737.72,205.95 		"/>
		<polygon clip-path="url(#SVGID_4_)" fill="#00894A" points="1261.82,205.95 1388.84,5.57 1499.74,205.95 		"/>
		<polygon clip-path="url(#SVGID_4_)" fill="#00C6F7" points="1663.17,205.95 1790.23,5.57 1552.25,5.57 		"/>
		<polygon clip-path="url(#SVGID_4_)" fill="#00679F" points="-39.67,205.98 -166.69,406.33 -277.61,205.98 		"/>
		<polygon clip-path="url(#SVGID_4_)" fill="#00894A" points="700.71,205.98 573.69,406.33 462.77,205.98 		"/>
		<polygon clip-path="url(#SVGID_4_)" fill="#00C6F7" points="338.66,407.33 465.68,206.95 576.6,407.33 		"/>
		<polygon clip-path="url(#SVGID_4_)" fill="#00B3EE" points="468.27,205.95 341.25,406.33 230.31,205.95 		"/>
		<polygon clip-path="url(#SVGID_4_)" fill="#00B3EE" points="71.64,406.34 198.68,205.98 309.61,406.34 		"/>
		<polygon clip-path="url(#SVGID_4_)" fill="#00894A" points="-166.29,406.34 -39.29,205.98 71.63,406.34 		"/>
		<polygon clip-path="url(#SVGID_4_)" fill="#00C6F7" points="71.64,406.34 198.68,205.98 -39.28,205.98 		"/>
		<polygon clip-path="url(#SVGID_4_)" fill="#00679F" points="1388.43,205.98 1261.41,406.33 1150.48,205.98 		"/>
		<polygon clip-path="url(#SVGID_4_)" fill="#FF58A4" points="1023.41,406.34 1150.4,205.98 1261.34,406.34 		"/>
		<polygon clip-path="url(#SVGID_4_)" fill="#B6D200" points="829.77,406.34 956.79,205.98 1067.71,406.34 		"/>
		<polygon clip-path="url(#SVGID_4_)" fill="#00AE3C" points="572.86,406.34 699.85,205.98 810.79,406.34 		"/>
		<polygon clip-path="url(#SVGID_4_)" fill="#72C625" points="820.21,425.62 947.23,225.24 709.29,225.24 		"/>
		<polygon clip-path="url(#SVGID_4_)" fill="#00679F" points="2102.72,205.98 1975.7,406.33 1864.78,205.98 		"/>
		<polygon clip-path="url(#SVGID_4_)" fill="#0077B5" points="1737.71,406.34 1864.73,205.98 1975.65,406.34 		"/>
		<polygon clip-path="url(#SVGID_4_)" fill="#00A3D3" points="1864.72,205.95 1737.7,406.33 1626.78,205.95 		"/>
		<polygon clip-path="url(#SVGID_4_)" fill="#00B3EE" points="1499.74,406.34 1626.8,205.98 1737.72,406.34 		"/>
		<polygon clip-path="url(#SVGID_4_)" fill="#00894A" points="1261.82,406.34 1388.84,205.98 1499.74,406.34 		"/>
		<polygon clip-path="url(#SVGID_4_)" fill="#00C6F7" points="1499.74,406.34 1626.8,205.98 1388.84,205.98 		"/>
		<polygon clip-path="url(#SVGID_4_)" fill="#00679F" points="-39.67,406.36 -166.69,606.72 -277.61,406.36 		"/>
		<polygon clip-path="url(#SVGID_4_)" fill="#00679F" points="674.62,406.36 547.62,606.72 436.68,406.36 		"/>
		<polygon clip-path="url(#SVGID_4_)" fill="#0077B5" points="309.61,606.73 436.63,406.37 547.55,606.73 		"/>
		<polygon clip-path="url(#SVGID_4_)" fill="#00A3D3" points="436.63,406.34 309.61,606.72 198.7,406.34 		"/>
		<polygon clip-path="url(#SVGID_4_)" fill="#00B3EE" points="71.64,606.73 198.68,406.37 309.61,606.73 		"/>
		<polygon clip-path="url(#SVGID_4_)" fill="#00894A" points="-166.29,606.73 -39.29,406.37 71.63,606.73 		"/>
		<polygon clip-path="url(#SVGID_4_)" fill="#00C6F7" points="71.64,606.73 198.68,406.37 -39.28,406.37 		"/>
		<polygon clip-path="url(#SVGID_4_)" fill="#FF2C2D" points="1506.14,421.78 1379.12,622.14 1268.2,421.78 		"/>
		<polygon clip-path="url(#SVGID_4_)" fill="#FF4A28" points="1133.05,606.73 1260.09,406.37 1371,606.73 		"/>
		<polygon clip-path="url(#SVGID_4_)" fill="#FF8700" points="1257.97,406.34 1130.95,606.72 1020.04,406.34 		"/>
		<polygon clip-path="url(#SVGID_4_)" fill="#FFA519" points="899.33,606.73 1026.35,406.37 1137.27,606.73 		"/>
		<polygon clip-path="url(#SVGID_4_)" fill="#00894A" points="547.54,606.73 674.54,406.37 785.45,606.73 		"/>
		<polygon clip-path="url(#SVGID_4_)" fill="#FFD600" points="898.29,606.73 1025.29,406.37 787.38,406.37 		"/>
		<polygon clip-path="url(#SVGID_4_)" fill="#00679F" points="2102.72,406.36 1975.7,606.72 1864.78,406.36 		"/>
		<polygon clip-path="url(#SVGID_4_)" fill="#52C12F" points="1957.32,406.34 1830.32,606.72 1719.38,406.34 		"/>
		<polygon clip-path="url(#SVGID_4_)" fill="#FF001F" points="1377.78,606.73 1504.82,406.37 1615.74,606.73 		"/>
		<polygon clip-path="url(#SVGID_4_)" fill="#F4000C" points="1618.53,615.73 1745.56,415.37 1507.61,415.37 		"/>
		<polygon clip-path="url(#SVGID_4_)" fill="#BB0D17" points="1618.12,606.73 1746.56,406.35 1856.1,606.73 		"/>
	</g>
</g>
</svg>
