<?xml version="1.0" encoding="utf-8"?>
<!-- Generator: Adobe Illustrator 24.1.3, SVG Export Plug-In . SVG Version: 6.00 Build 0)  -->
<svg version="1.1" id="Layer_1" xmlns="http://www.w3.org/2000/svg" xmlns:xlink="http://www.w3.org/1999/xlink" x="0px" y="0px"
	 viewBox="0 0 1900 822" enable-background="new 0 0 1900 822" xml:space="preserve">
<g>
	<g>
		<path fill="#FFFFFF" d="M71.91,705.29c7.51,2.48,13.6,7.03,18.26,13.65c3.74,5.33,6.28,11.11,7.65,17.34
			c1.35,6.23,2.05,12.16,2.05,17.79c0,14.29-2.86,26.38-8.59,36.3c-7.77,13.37-19.75,20.05-35.97,20.05H9.09V702.95h46.22
			C61.95,703.05,67.5,703.83,71.91,705.29 M30.83,721.63v70.13h20.7c10.59,0,17.98-5.21,22.15-15.66c2.29-5.74,3.44-12.57,3.44-20.5
			c0-10.93-1.72-19.33-5.15-25.19c-3.42-5.84-10.22-8.77-20.43-8.77H30.83z"/>
		<rect x="147.62" y="702.94" fill="#FFFFFF" width="22.25" height="107.48"/>
		<polygon fill="#FFFFFF" points="223.61,703.1 300.05,703.1 300.05,721.98 245.86,721.98 245.86,746.7 293.36,746.7 293.36,765.37 
			245.86,765.37 245.86,810.43 223.61,810.43 		"/>
		<polygon fill="#FFFFFF" points="347.38,703.1 423.82,703.1 423.82,721.98 369.62,721.98 369.62,746.7 417.13,746.7 417.13,765.37 
			369.62,765.37 369.62,810.43 347.38,810.43 		"/>
		<polygon fill="#FFFFFF" points="550.44,721.98 493.69,721.98 493.69,744.8 545.77,744.8 545.77,763.47 493.69,763.47 
			493.69,791.11 553.03,791.11 553.03,810.42 471.79,810.42 471.79,702.96 550.44,702.96 		"/>
		<path fill="#FFFFFF" d="M671.99,705.72c3.97,1.72,7.3,4.22,10.04,7.52c2.27,2.73,4.07,5.74,5.4,9.04
			c1.31,3.3,1.98,7.07,1.98,11.29c0,5.1-1.29,10.13-3.87,15.05c-2.58,4.96-6.81,8.45-12.72,10.47c4.93,1.99,8.45,4.82,10.49,8.49
			c2.07,3.67,3.11,9.29,3.11,16.83v7.22c0,4.9,0.18,8.22,0.59,9.98c0.57,2.77,1.96,4.82,4.13,6.13v2.69h-24.72
			c-0.7-2.38-1.17-4.28-1.47-5.76c-0.57-2.99-0.9-6.09-0.94-9.25l-0.14-10c-0.08-6.85-1.27-11.42-3.54-13.71
			c-2.27-2.28-6.52-3.42-12.76-3.42h-21.88v42.15h-21.9V702.95h51.29C662.4,703.09,668.04,704.02,671.99,705.72 M625.69,721.63
			v28.88h24.11c4.79,0,8.38-0.59,10.78-1.76c4.23-2.03,6.36-6.07,6.36-12.11c0-6.5-2.04-10.89-6.16-13.12
			c-2.31-1.25-5.75-1.89-10.37-1.89H625.69z"/>
		<polygon fill="#FFFFFF" points="822.93,721.98 766.18,721.98 766.18,744.8 818.27,744.8 818.27,763.47 766.18,763.47 
			766.18,791.11 825.55,791.11 825.55,810.42 744.28,810.42 744.28,702.96 822.93,702.96 		"/>
		<polygon fill="#FFFFFF" points="875.4,702.96 898.9,702.96 941.45,777.9 941.45,702.96 962.31,702.96 962.31,810.43 
			939.94,810.43 896.28,734.18 896.28,810.43 875.4,810.43 		"/>
		<polygon fill="#FFFFFF" points="1094.03,702.96 1094.03,721.98 1061.96,721.98 1061.96,810.43 1039.41,810.43 1039.41,721.98 
			1007.18,721.98 1007.18,702.96 		"/>
		<polygon fill="#FFFFFF" points="1228.65,702.96 1242.78,764.5 1245.89,781.63 1248.98,764.86 1261.09,702.96 1284.73,702.96 
			1297.49,764.5 1300.74,781.63 1304.05,765.15 1318.34,702.96 1341.15,702.96 1310.98,810.43 1289.55,810.43 1276.61,747.58 
			1272.8,726.8 1269.02,747.58 1256.07,810.43 1235.26,810.43 1204.87,702.96 		"/>
		<path fill="#FFFFFF" d="M1470.03,800.87c-8.12,8.38-19.84,12.55-35.15,12.55c-15.32,0-27.04-4.16-35.13-12.55
			c-10.86-10.25-16.3-25.03-16.3-44.32c0-19.7,5.44-34.46,16.3-44.34c8.1-8.36,19.82-12.55,35.13-12.55
			c15.32,0,27.03,4.18,35.15,12.55c10.8,9.88,16.2,24.64,16.2,44.34C1486.22,775.84,1480.82,790.62,1470.03,800.87 M1456,784.55
			c5.21-6.56,7.83-15.89,7.83-28c0-12.05-2.62-21.38-7.83-27.96c-5.21-6.58-12.25-9.88-21.12-9.88c-8.88,0-15.93,3.28-21.23,9.84
			c-5.3,6.56-7.95,15.89-7.95,28c0,12.11,2.66,21.44,7.95,28c5.3,6.56,12.35,9.84,21.23,9.84
			C1443.75,794.39,1450.78,791.11,1456,784.55"/>
		<path fill="#FFFFFF" d="M1604.81,705.72c3.95,1.72,7.28,4.22,10.04,7.52c2.25,2.73,4.07,5.74,5.4,9.04
			c1.31,3.3,1.96,7.07,1.96,11.29c0,5.1-1.27,10.13-3.84,15.05c-2.56,4.96-6.81,8.45-12.72,10.47c4.95,1.99,8.45,4.82,10.49,8.49
			c2.09,3.67,3.11,9.29,3.11,16.83v7.22c0,4.9,0.18,8.22,0.57,9.98c0.59,2.77,1.98,4.82,4.15,6.13v2.69h-24.74
			c-0.67-2.38-1.15-4.28-1.45-5.76c-0.57-2.99-0.88-6.09-0.94-9.25l-0.14-10c-0.1-6.85-1.27-11.42-3.56-13.71
			c-2.25-2.28-6.52-3.42-12.76-3.42h-21.86v42.15h-21.9V702.95h51.29C1595.22,703.09,1600.86,704.02,1604.81,705.72 M1558.51,721.63
			v28.88h24.11c4.79,0,8.36-0.59,10.78-1.76c4.23-2.03,6.36-6.07,6.36-12.11c0-6.5-2.07-10.89-6.16-13.12
			c-2.29-1.25-5.75-1.89-10.37-1.89H1558.51z"/>
		<polygon fill="#FFFFFF" points="1676.46,702.96 1698.87,702.96 1698.87,791.1 1752.39,791.1 1752.39,810.43 1676.46,810.43 		"/>
		<path fill="#FFFFFF" d="M1863.04,705.29c7.53,2.48,13.62,7.03,18.26,13.65c3.74,5.33,6.3,11.11,7.65,17.34
			c1.37,6.23,2.05,12.16,2.05,17.79c0,14.29-2.88,26.38-8.59,36.3c-7.77,13.37-19.75,20.05-35.97,20.05h-46.22V702.95h46.22
			C1853.09,703.05,1858.63,703.83,1863.04,705.29 M1821.96,721.63v70.13h20.7c10.59,0,17.98-5.21,22.15-15.66
			c2.29-5.74,3.44-12.57,3.44-20.5c0-10.93-1.72-19.33-5.13-25.19c-3.44-5.84-10.25-8.77-20.45-8.77H1821.96z"/>
		<path fill="#FFFFFF" d="M862.9,227.93c85.66,0,131.25,35.16,151.29,56.95l3.13,2.99l0.76-1.68
			c18.12-66.48,104.48-117.23,207.44-117.23h279.14l121.02-155.14h-428.22c-158.81,0-293.89,90.26-337.08,213.15l-0.61,1.23
			L862.9,227.93z"/>
	</g>
	<g>
		<defs>
			<path id="SVGID_1_" d="M1197.46,13.83c-158.81,0-293.89,90.26-337.06,213.13l-0.63,1.23l3.13-0.27
				c85.67,0,131.27,35.16,151.29,56.95l3.13,2.99l0.76-1.68c18.14-66.46,104.46-117.21,207.44-117.21h279.14L1625.7,13.83H1197.46z"
				/>
		</defs>
		<use xlink:href="#SVGID_1_"  overflow="visible" fill="#FFFFFF"/>
		<clipPath id="SVGID_2_">
			<use xlink:href="#SVGID_1_"  overflow="visible"/>
		</clipPath>
		<polygon clip-path="url(#SVGID_2_)" fill="#FFFFFF" points="244.07,-82.09 117.6,78.99 7.15,-82.09 		"/>
		<polygon clip-path="url(#SVGID_2_)" fill="#FFFFFF" points="955.35,-82.09 828.89,78.99 718.42,-82.09 		"/>
		<polygon clip-path="url(#SVGID_2_)" fill="#FFFFFF" points="591.89,79 718.37,-82.08 828.84,79 		"/>
		<polygon clip-path="url(#SVGID_2_)" fill="#FFFFFF" points="718.37,-82.09 591.89,78.99 481.44,-82.09 		"/>
		<polygon clip-path="url(#SVGID_2_)" fill="#FFFFFF" points="354.93,79 481.44,-82.08 591.89,79 		"/>
		<polygon clip-path="url(#SVGID_2_)" fill="#FFFFFF" points="117.99,79 244.48,-82.08 354.93,79 		"/>
		<polygon clip-path="url(#SVGID_2_)" fill="#FFFFFF" points="354.93,79 481.44,-82.08 244.46,-82.08 		"/>
		<polygon clip-path="url(#SVGID_2_)" fill="#FFFFFF" points="2377.47,-82.09 2250.98,78.99 2140.53,-82.09 		"/>
		<polygon clip-path="url(#SVGID_2_)" fill="#FFFFFF" points="2013.98,79 2140.48,-82.08 2250.91,79 		"/>
		<polygon clip-path="url(#SVGID_2_)" fill="#FFFFFF" points="2140.47,-82.09 2013.99,78.99 1903.52,-82.09 		"/>
		<polygon clip-path="url(#SVGID_2_)" fill="#FFFFFF" points="1777.03,79 1903.53,-82.08 2013.98,79 		"/>
		<polygon clip-path="url(#SVGID_2_)" fill="#FFFFFF" points="1777.03,79 1903.53,-82.08 1666.58,-82.08 		"/>
		<polygon clip-path="url(#SVGID_2_)" fill="#FFFFFF" points="244.07,79.01 117.6,240.09 7.15,79.01 		"/>
		<polygon clip-path="url(#SVGID_2_)" fill="#FFFFFF" points="955.35,79.01 828.89,240.09 718.42,79.01 		"/>
		<polygon clip-path="url(#SVGID_2_)" fill="#FFFFFF" points="591.89,240.1 718.37,79.02 828.84,240.1 		"/>
		<polygon clip-path="url(#SVGID_2_)" fill="#FFFFFF" points="718.37,79 591.89,240.08 481.44,79 		"/>
		<polygon clip-path="url(#SVGID_2_)" fill="#FFFFFF" points="354.93,240.1 481.44,79.02 591.89,240.1 		"/>
		<polygon clip-path="url(#SVGID_2_)" fill="#FFFFFF" points="117.99,240.1 244.48,79.02 354.93,240.1 		"/>
		<polygon clip-path="url(#SVGID_2_)" fill="#FFFFFF" points="354.93,240.1 481.44,79.02 244.46,79.02 		"/>
		<polygon clip-path="url(#SVGID_2_)" fill="#FFFFFF" points="1735.51,13.82 1609.03,174.9 1498.55,13.82 		"/>
		<polygon clip-path="url(#SVGID_2_)" fill="#FFFFFF" points="1370.78,168.96 1497.04,6.71 1607.72,168.96 		"/>
		<polygon clip-path="url(#SVGID_2_)" fill="#FFFFFF" points="1493.18,13.82 1366.68,174.9 1256.21,13.82 		"/>
		<polygon clip-path="url(#SVGID_2_)" fill="#FFFFFF" points="1116.92,173.48 1250.27,3.26 1366.69,174.91 		"/>
		<polygon clip-path="url(#SVGID_2_)" fill="#FFFFFF" points="748.16,330.04 874.64,168.96 985.11,330.04 		"/>
		<polygon clip-path="url(#SVGID_2_)" fill="#FFFFFF" points="931.84,334.35 1058.3,173.27 1168.75,334.35 		"/>
		<polygon clip-path="url(#SVGID_2_)" fill="#FFFFFF" points="883.34,173.09 1009.82,12.01 1120.29,173.09 		"/>
		<polygon clip-path="url(#SVGID_2_)" fill="#FFFFFF" points="1114,178.1 1245.68,10.36 998.99,10.36 		"/>
		<polygon clip-path="url(#SVGID_2_)" fill="#FFFFFF" points="1178.93,334.12 1305.43,173.04 1068.47,173.04 		"/>
		<polygon clip-path="url(#SVGID_2_)" fill="#FFFFFF" points="2377.47,79.01 2250.98,240.09 2140.53,79.01 		"/>
		<polygon clip-path="url(#SVGID_2_)" fill="#FFFFFF" points="2013.98,240.1 2140.48,79.02 2250.91,240.1 		"/>
		<polygon clip-path="url(#SVGID_2_)" fill="#FFFFFF" points="2140.47,79 2013.99,240.08 1903.52,79 		"/>
		<polygon clip-path="url(#SVGID_2_)" fill="#FFFFFF" points="1777.03,240.1 1903.53,79.02 2013.98,240.1 		"/>
		<polygon clip-path="url(#SVGID_2_)" fill="#FFFFFF" points="1777.03,240.1 1903.53,79.02 1666.58,79.02 		"/>
		<polygon clip-path="url(#SVGID_2_)" fill="#FFFFFF" points="244.07,240.12 117.6,401.2 7.15,240.12 		"/>
		<polygon clip-path="url(#SVGID_2_)" fill="#FFFFFF" points="955.35,240.12 828.89,401.2 718.42,240.12 		"/>
		<polygon clip-path="url(#SVGID_2_)" fill="#FFFFFF" points="591.89,401.21 718.37,240.13 828.84,401.21 		"/>
		<polygon clip-path="url(#SVGID_2_)" fill="#FFFFFF" points="718.37,240.1 591.89,401.2 481.44,240.1 		"/>
		<polygon clip-path="url(#SVGID_2_)" fill="#FFFFFF" points="354.93,401.21 481.44,240.13 591.89,401.21 		"/>
		<polygon clip-path="url(#SVGID_2_)" fill="#FFFFFF" points="117.99,401.21 244.48,240.13 354.93,401.21 		"/>
		<polygon clip-path="url(#SVGID_2_)" fill="#FFFFFF" points="354.93,401.21 481.44,240.13 244.46,240.13 		"/>
		<polygon clip-path="url(#SVGID_2_)" fill="#FFFFFF" points="1666.17,240.12 1539.69,401.2 1429.24,240.12 		"/>
		<polygon clip-path="url(#SVGID_2_)" fill="#FFFFFF" points="1302.7,401.21 1429.17,240.13 1539.64,401.21 		"/>
		<polygon clip-path="url(#SVGID_2_)" fill="#FFFFFF" points="1429.18,240.1 1302.69,401.2 1192.22,240.1 		"/>
		<polygon clip-path="url(#SVGID_2_)" fill="#FFFFFF" points="1065.75,401.21 1192.23,240.13 1302.7,401.21 		"/>
		<polygon clip-path="url(#SVGID_2_)" fill="#FFFFFF" points="828.81,401.21 955.27,240.13 1065.74,401.21 		"/>
		<polygon clip-path="url(#SVGID_2_)" fill="#FFFFFF" points="987.13,334.25 1116.74,173.15 876.66,173.15 		"/>
		<polygon clip-path="url(#SVGID_2_)" fill="#FFFFFF" points="2377.47,240.12 2250.98,401.2 2140.53,240.12 		"/>
		<polygon clip-path="url(#SVGID_2_)" fill="#FFFFFF" points="2013.98,401.21 2140.48,240.13 2250.91,401.21 		"/>
		<polygon clip-path="url(#SVGID_2_)" fill="#FFFFFF" points="2140.47,240.1 2013.99,401.2 1903.52,240.1 		"/>
		<polygon clip-path="url(#SVGID_2_)" fill="#FFFFFF" points="1777.03,401.21 1903.53,240.13 2013.98,401.21 		"/>
		<polygon clip-path="url(#SVGID_2_)" fill="#FFFFFF" points="1540.09,401.21 1666.58,240.13 1777.03,401.21 		"/>
		<polygon clip-path="url(#SVGID_2_)" fill="#FFFFFF" points="1777.03,401.21 1903.53,240.13 1666.58,240.13 		"/>
		<polygon clip-path="url(#SVGID_2_)" fill="#FFFFFF" points="244.07,401.22 117.6,562.3 7.15,401.22 		"/>
		<polygon clip-path="url(#SVGID_2_)" fill="#FFFFFF" points="955.35,401.22 828.89,562.3 718.42,401.22 		"/>
		<polygon clip-path="url(#SVGID_2_)" fill="#FFFFFF" points="591.89,562.31 718.37,401.23 828.84,562.31 		"/>
		<polygon clip-path="url(#SVGID_2_)" fill="#FFFFFF" points="718.37,401.21 591.89,562.29 481.44,401.21 		"/>
		<polygon clip-path="url(#SVGID_2_)" fill="#FFFFFF" points="354.93,562.31 481.44,401.23 591.89,562.31 		"/>
		<polygon clip-path="url(#SVGID_2_)" fill="#FFFFFF" points="117.99,562.31 244.48,401.23 354.93,562.31 		"/>
		<polygon clip-path="url(#SVGID_2_)" fill="#FFFFFF" points="354.93,562.31 481.44,401.23 244.46,401.23 		"/>
		<polygon clip-path="url(#SVGID_2_)" fill="#FFFFFF" points="1666.17,401.22 1539.69,562.3 1429.24,401.22 		"/>
		<polygon clip-path="url(#SVGID_2_)" fill="#FFFFFF" points="1302.7,562.31 1429.17,401.23 1539.64,562.31 		"/>
		<polygon clip-path="url(#SVGID_2_)" fill="#FFFFFF" points="1429.18,401.21 1302.69,562.29 1192.22,401.21 		"/>
		<polygon clip-path="url(#SVGID_2_)" fill="#FFFFFF" points="1065.75,562.31 1192.23,401.23 1302.7,562.31 		"/>
		<polygon clip-path="url(#SVGID_2_)" fill="#FFFFFF" points="828.81,562.31 955.27,401.23 1065.74,562.31 		"/>
		<polygon clip-path="url(#SVGID_2_)" fill="#FFFFFF" points="1065.75,562.31 1192.23,401.23 955.28,401.23 		"/>
		<polygon clip-path="url(#SVGID_2_)" fill="#FFFFFF" points="2377.47,401.22 2250.98,562.3 2140.53,401.22 		"/>
		<polygon clip-path="url(#SVGID_2_)" fill="#FFFFFF" points="2013.98,562.31 2140.48,401.23 2250.91,562.31 		"/>
		<polygon clip-path="url(#SVGID_2_)" fill="#FFFFFF" points="2140.47,401.21 2013.99,562.29 1903.52,401.21 		"/>
		<polygon clip-path="url(#SVGID_2_)" fill="#FFFFFF" points="1777.03,562.31 1903.53,401.23 2013.98,562.31 		"/>
		<polygon clip-path="url(#SVGID_2_)" fill="#FFFFFF" points="1540.09,562.31 1666.58,401.23 1777.03,562.31 		"/>
		<polygon clip-path="url(#SVGID_2_)" fill="#FFFFFF" points="1777.03,562.31 1903.53,401.23 1666.58,401.23 		"/>
		<polygon clip-path="url(#SVGID_2_)" fill="#FFFFFF" points="-221.46,818.7 -347.94,979.78 -458.37,818.7 		"/>
		<polygon clip-path="url(#SVGID_2_)" fill="#FFFFFF" points="489.84,818.7 363.35,979.78 252.9,818.7 		"/>
		<polygon clip-path="url(#SVGID_2_)" fill="#FFFFFF" points="126.36,979.79 252.84,818.71 363.29,979.79 		"/>
		<polygon clip-path="url(#SVGID_2_)" fill="#FFFFFF" points="252.84,818.69 126.38,979.77 15.91,818.69 		"/>
		<polygon clip-path="url(#SVGID_2_)" fill="#FFFFFF" points="-110.6,979.79 15.9,818.71 126.35,979.79 		"/>
		<polygon clip-path="url(#SVGID_2_)" fill="#FFFFFF" points="-347.54,979.79 -221.05,818.71 -110.6,979.79 		"/>
		<polygon clip-path="url(#SVGID_2_)" fill="#FFFFFF" points="-110.6,979.79 15.9,818.71 -221.05,818.71 		"/>
		<polygon clip-path="url(#SVGID_2_)" fill="#FFFFFF" points="1200.63,818.7 1074.15,979.78 963.7,818.7 		"/>
		<polygon clip-path="url(#SVGID_2_)" fill="#FFFFFF" points="837.16,979.79 963.64,818.71 1074.07,979.79 		"/>
		<polygon clip-path="url(#SVGID_2_)" fill="#FFFFFF" points="963.64,818.69 837.16,979.77 726.69,818.69 		"/>
		<polygon clip-path="url(#SVGID_2_)" fill="#FFFFFF" points="600.2,979.79 726.69,818.71 837.16,979.79 		"/>
		<polygon clip-path="url(#SVGID_2_)" fill="#FFFFFF" points="363.27,979.79 489.75,818.71 600.2,979.79 		"/>
		<polygon clip-path="url(#SVGID_2_)" fill="#FFFFFF" points="600.2,979.79 726.69,818.71 489.75,818.71 		"/>
		<polygon clip-path="url(#SVGID_2_)" fill="#FFFFFF" points="1911.93,818.7 1785.45,979.78 1674.99,818.7 		"/>
		<polygon clip-path="url(#SVGID_2_)" fill="#FFFFFF" points="1548.46,979.79 1674.95,818.71 1785.4,979.79 		"/>
		<polygon clip-path="url(#SVGID_2_)" fill="#FFFFFF" points="1674.96,818.69 1548.45,979.77 1438,818.69 		"/>
		<polygon clip-path="url(#SVGID_2_)" fill="#FFFFFF" points="1311.49,979.79 1437.99,818.71 1548.46,979.79 		"/>
		<polygon clip-path="url(#SVGID_2_)" fill="#FFFFFF" points="1074.56,979.79 1201.02,818.71 1311.49,979.79 		"/>
		<polygon clip-path="url(#SVGID_2_)" fill="#FFFFFF" points="1311.49,979.79 1437.99,818.71 1201.02,818.71 		"/>
		<polygon clip-path="url(#SVGID_2_)" fill="#FFFFFF" points="-221.46,979.81 -347.94,1140.89 -458.37,979.81 		"/>
		<polygon clip-path="url(#SVGID_2_)" fill="#FFFFFF" points="489.84,979.81 363.35,1140.89 252.9,979.81 		"/>
		<polygon clip-path="url(#SVGID_2_)" fill="#FFFFFF" points="126.36,1140.9 252.84,979.82 363.29,1140.9 		"/>
		<polygon clip-path="url(#SVGID_2_)" fill="#FFFFFF" points="252.84,979.8 126.38,1140.88 15.91,979.8 		"/>
		<polygon clip-path="url(#SVGID_2_)" fill="#FFFFFF" points="-110.6,1140.9 15.9,979.82 126.35,1140.9 		"/>
		<polygon clip-path="url(#SVGID_2_)" fill="#FFFFFF" points="-347.54,1140.9 -221.05,979.82 -110.6,1140.9 		"/>
		<polygon clip-path="url(#SVGID_2_)" fill="#FFFFFF" points="-110.6,1140.9 15.9,979.82 -221.05,979.82 		"/>
		<polygon clip-path="url(#SVGID_2_)" fill="#FFFFFF" points="1200.63,979.81 1074.15,1140.89 963.7,979.81 		"/>
		<polygon clip-path="url(#SVGID_2_)" fill="#FFFFFF" points="837.16,1140.9 963.64,979.82 1074.07,1140.9 		"/>
		<polygon clip-path="url(#SVGID_2_)" fill="#FFFFFF" points="963.64,979.8 837.16,1140.88 726.69,979.8 		"/>
		<polygon clip-path="url(#SVGID_2_)" fill="#FFFFFF" points="600.2,1140.9 726.69,979.82 837.16,1140.9 		"/>
		<polygon clip-path="url(#SVGID_2_)" fill="#FFFFFF" points="363.27,1140.9 489.75,979.82 600.2,1140.9 		"/>
		<polygon clip-path="url(#SVGID_2_)" fill="#FFFFFF" points="600.2,1140.9 726.69,979.82 489.75,979.82 		"/>
		<polygon clip-path="url(#SVGID_2_)" fill="#FFFFFF" points="1911.93,979.81 1785.45,1140.89 1674.99,979.81 		"/>
		<polygon clip-path="url(#SVGID_2_)" fill="#FFFFFF" points="1548.46,1140.9 1674.95,979.82 1785.4,1140.9 		"/>
		<polygon clip-path="url(#SVGID_2_)" fill="#FFFFFF" points="1674.96,979.8 1548.45,1140.88 1438,979.8 		"/>
		<polygon clip-path="url(#SVGID_2_)" fill="#FFFFFF" points="1311.49,1140.9 1437.99,979.82 1548.46,1140.9 		"/>
		<polygon clip-path="url(#SVGID_2_)" fill="#FFFFFF" points="1074.56,1140.9 1201.02,979.82 1311.49,1140.9 		"/>
		<polygon clip-path="url(#SVGID_2_)" fill="#FFFFFF" points="1311.49,1140.9 1437.99,979.82 1201.02,979.82 		"/>
		<polygon clip-path="url(#SVGID_2_)" fill="#FFFFFF" points="-221.46,1140.91 -347.94,1302.01 -458.37,1140.91 		"/>
		<polygon clip-path="url(#SVGID_2_)" fill="#FFFFFF" points="489.84,1140.91 363.35,1302.01 252.9,1140.91 		"/>
		<polygon clip-path="url(#SVGID_2_)" fill="#FFFFFF" points="126.36,1302.01 252.84,1140.91 363.29,1302.01 		"/>
		<polygon clip-path="url(#SVGID_2_)" fill="#FFFFFF" points="252.84,1140.9 126.38,1301.98 15.91,1140.9 		"/>
		<polygon clip-path="url(#SVGID_2_)" fill="#FFFFFF" points="-110.6,1302.01 15.9,1140.91 126.35,1302.01 		"/>
		<polygon clip-path="url(#SVGID_2_)" fill="#FFFFFF" points="-347.54,1302.01 -221.05,1140.91 -110.6,1302.01 		"/>
		<polygon clip-path="url(#SVGID_2_)" fill="#FFFFFF" points="-110.6,1302.01 15.9,1140.91 -221.05,1140.91 		"/>
		<polygon clip-path="url(#SVGID_2_)" fill="#FFFFFF" points="1200.63,1140.91 1074.15,1302.01 963.7,1140.91 		"/>
		<polygon clip-path="url(#SVGID_2_)" fill="#FFFFFF" points="837.16,1302.01 963.64,1140.91 1074.07,1302.01 		"/>
		<polygon clip-path="url(#SVGID_2_)" fill="#FFFFFF" points="963.64,1140.9 837.16,1301.98 726.69,1140.9 		"/>
		<polygon clip-path="url(#SVGID_2_)" fill="#FFFFFF" points="600.2,1302.01 726.69,1140.91 837.16,1302.01 		"/>
		<polygon clip-path="url(#SVGID_2_)" fill="#FFFFFF" points="363.27,1302.01 489.75,1140.91 600.2,1302.01 		"/>
		<polygon clip-path="url(#SVGID_2_)" fill="#FFFFFF" points="600.2,1302.01 726.69,1140.91 489.75,1140.91 		"/>
		<polygon clip-path="url(#SVGID_2_)" fill="#FFFFFF" points="1911.93,1140.91 1785.45,1302.01 1674.99,1140.91 		"/>
		<polygon clip-path="url(#SVGID_2_)" fill="#FFFFFF" points="1548.46,1302.01 1674.95,1140.91 1785.4,1302.01 		"/>
		<polygon clip-path="url(#SVGID_2_)" fill="#FFFFFF" points="1674.96,1140.9 1548.45,1301.98 1438,1140.9 		"/>
		<polygon clip-path="url(#SVGID_2_)" fill="#FFFFFF" points="1311.49,1302.01 1437.99,1140.91 1548.46,1302.01 		"/>
		<polygon clip-path="url(#SVGID_2_)" fill="#FFFFFF" points="1074.56,1302.01 1201.02,1140.91 1311.49,1302.01 		"/>
		<polygon clip-path="url(#SVGID_2_)" fill="#FFFFFF" points="1311.49,1302.01 1437.99,1140.91 1201.02,1140.91 		"/>
		<polygon clip-path="url(#SVGID_2_)" fill="#FFFFFF" points="-221.46,1302.02 -347.94,1463.1 -458.37,1302.02 		"/>
		<polygon clip-path="url(#SVGID_2_)" fill="#FFFFFF" points="489.84,1302.02 363.35,1463.1 252.9,1302.02 		"/>
		<polygon clip-path="url(#SVGID_2_)" fill="#FFFFFF" points="126.36,1463.11 252.84,1302.03 363.29,1463.11 		"/>
		<polygon clip-path="url(#SVGID_2_)" fill="#FFFFFF" points="252.84,1302.01 126.38,1463.09 15.91,1302.01 		"/>
		<polygon clip-path="url(#SVGID_2_)" fill="#FFFFFF" points="-110.6,1463.11 15.9,1302.03 126.35,1463.11 		"/>
		<polygon clip-path="url(#SVGID_2_)" fill="#FFFFFF" points="-347.54,1463.11 -221.05,1302.03 -110.6,1463.11 		"/>
		<polygon clip-path="url(#SVGID_2_)" fill="#FFFFFF" points="-110.6,1463.11 15.9,1302.03 -221.05,1302.03 		"/>
		<polygon clip-path="url(#SVGID_2_)" fill="#FFFFFF" points="1200.63,1302.02 1074.15,1463.1 963.7,1302.02 		"/>
		<polygon clip-path="url(#SVGID_2_)" fill="#FFFFFF" points="837.16,1463.11 963.64,1302.03 1074.07,1463.11 		"/>
		<polygon clip-path="url(#SVGID_2_)" fill="#FFFFFF" points="963.64,1302.01 837.16,1463.09 726.69,1302.01 		"/>
		<polygon clip-path="url(#SVGID_2_)" fill="#FFFFFF" points="600.2,1463.11 726.69,1302.03 837.16,1463.11 		"/>
		<polygon clip-path="url(#SVGID_2_)" fill="#FFFFFF" points="363.27,1463.11 489.75,1302.03 600.2,1463.11 		"/>
		<polygon clip-path="url(#SVGID_2_)" fill="#FFFFFF" points="600.2,1463.11 726.69,1302.03 489.75,1302.03 		"/>
		<polygon clip-path="url(#SVGID_2_)" fill="#FFFFFF" points="1911.93,1302.02 1785.45,1463.1 1674.99,1302.02 		"/>
		<polygon clip-path="url(#SVGID_2_)" fill="#FFFFFF" points="1548.46,1463.11 1674.95,1302.03 1785.4,1463.11 		"/>
		<polygon clip-path="url(#SVGID_2_)" fill="#FFFFFF" points="1674.96,1302.01 1548.45,1463.09 1438,1302.01 		"/>
		<polygon clip-path="url(#SVGID_2_)" fill="#FFFFFF" points="1311.49,1463.11 1437.99,1302.03 1548.46,1463.11 		"/>
		<polygon clip-path="url(#SVGID_2_)" fill="#FFFFFF" points="1074.56,1463.11 1201.02,1302.03 1311.49,1463.11 		"/>
		<polygon clip-path="url(#SVGID_2_)" fill="#FFFFFF" points="1311.49,1463.11 1437.99,1302.03 1201.02,1302.03 		"/>
		<polygon clip-path="url(#SVGID_2_)" fill="#FFFFFF" points="-221.46,1463.12 -347.94,1624.2 -458.37,1463.12 		"/>
		<polygon clip-path="url(#SVGID_2_)" fill="#FFFFFF" points="489.84,1463.12 363.35,1624.2 252.9,1463.12 		"/>
		<polygon clip-path="url(#SVGID_2_)" fill="#FFFFFF" points="126.36,1624.2 252.84,1463.13 363.29,1624.2 		"/>
		<polygon clip-path="url(#SVGID_2_)" fill="#FFFFFF" points="252.84,1463.11 126.38,1624.19 15.91,1463.11 		"/>
		<polygon clip-path="url(#SVGID_2_)" fill="#FFFFFF" points="-110.6,1624.2 15.9,1463.13 126.35,1624.2 		"/>
		<polygon clip-path="url(#SVGID_2_)" fill="#FFFFFF" points="-347.54,1624.2 -221.05,1463.13 -110.6,1624.2 		"/>
		<polygon clip-path="url(#SVGID_2_)" fill="#FFFFFF" points="-110.6,1624.2 15.9,1463.13 -221.05,1463.13 		"/>
		<polygon clip-path="url(#SVGID_2_)" fill="#FFFFFF" points="1200.63,1463.12 1074.15,1624.2 963.7,1463.12 		"/>
		<polygon clip-path="url(#SVGID_2_)" fill="#FFFFFF" points="837.16,1624.2 963.64,1463.13 1074.07,1624.2 		"/>
		<polygon clip-path="url(#SVGID_2_)" fill="#FFFFFF" points="963.64,1463.11 837.16,1624.19 726.69,1463.11 		"/>
		<polygon clip-path="url(#SVGID_2_)" fill="#FFFFFF" points="600.2,1624.2 726.69,1463.13 837.16,1624.2 		"/>
		<polygon clip-path="url(#SVGID_2_)" fill="#FFFFFF" points="363.27,1624.2 489.75,1463.13 600.2,1624.2 		"/>
		<polygon clip-path="url(#SVGID_2_)" fill="#FFFFFF" points="600.2,1624.2 726.69,1463.13 489.75,1463.13 		"/>
		<polygon clip-path="url(#SVGID_2_)" fill="#FFFFFF" points="1911.93,1463.12 1785.45,1624.2 1674.99,1463.12 		"/>
		<polygon clip-path="url(#SVGID_2_)" fill="#FFFFFF" points="1548.46,1624.2 1674.95,1463.13 1785.4,1624.2 		"/>
		<polygon clip-path="url(#SVGID_2_)" fill="#FFFFFF" points="1674.96,1463.11 1548.45,1624.19 1438,1463.11 		"/>
		<polygon clip-path="url(#SVGID_2_)" fill="#FFFFFF" points="1311.49,1624.2 1437.99,1463.13 1548.46,1624.2 		"/>
		<polygon clip-path="url(#SVGID_2_)" fill="#FFFFFF" points="1074.56,1624.2 1201.02,1463.13 1311.49,1624.2 		"/>
		<polygon clip-path="url(#SVGID_2_)" fill="#FFFFFF" points="1311.49,1624.2 1437.99,1463.13 1201.02,1463.13 		"/>
	</g>
	<g>
		<rect x="13.67" y="559" fill="#FFFFFF" width="47.38" height="49.48"/>
		<rect x="62.59" y="460.38" fill="#FFFFFF" width="47.38" height="49.5"/>
		<path fill="#FFFFFF" d="M955.81,572.47l-0.76-1.87c-46.79-30.52-84.29-70.76-108.26-117.07l-2.13,0.2
			c-11.49,6.17-29.78,6.56-29.78,6.56H370.35v49.59h-47.38V498.2v-38.15h-13.64h-34.36h-45.83v49.48h45.83V559h1.33l-1.33,1.74V559
			h-98.73v49.48h98.73v-0.02h553.72C876.34,608.46,920.43,595.04,955.81,572.47"/>
		<rect x="128.89" y="509.54" fill="#FFFFFF" width="47.36" height="49.46"/>
		<path fill="#FFFFFF" d="M852.87,369.83c32.43,135.68,174.99,238.65,344.58,238.65h639.14l-121.06-153.15h-490.02h-43.74
			c0,0-106.81,8.63-165.85-127.09c0,0-40.02-73.78-164.11-73.78H471.97c-23.19,0-42.17-18.35-42.17-40.77
			c0-22.41,18.98-40.77,42.17-40.77h311.41L909.85,11.84H463.63c-115.99,0-210.9,80.99-210.9,179.98
			c0,99.01,94.91,179.98,210.9,179.98h390.25"/>
	</g>
	<g>
		<defs>
			<path id="SVGID_3_" d="M463.63,11.82c-115.99,0-210.92,80.99-210.92,180c0,98.99,94.93,179.98,210.92,179.98h389.72
				c33.35,134.7,175.34,236.66,344.11,236.66h639.14l-121.06-153.13h-490.02h-43.74c0,0-106.81,8.63-165.85-127.09
				c0,0-40.02-73.8-164.11-73.8H471.98c-23.19,0-42.17-18.33-42.17-40.75c0-22.41,18.98-40.77,42.17-40.77h311.39l126.46-161.1
				H463.63z"/>
		</defs>
		<use xlink:href="#SVGID_3_"  overflow="visible" fill="#FFFFFF"/>
		<clipPath id="SVGID_4_">
			<use xlink:href="#SVGID_3_"  overflow="visible"/>
		</clipPath>
		<polygon clip-path="url(#SVGID_4_)" fill="#FFFFFF" points="-33.53,9.86 -160.01,209.4 -270.46,9.86 		"/>
		<polygon clip-path="url(#SVGID_4_)" fill="#FFFFFF" points="677.75,9.86 551.29,209.4 440.82,9.86 		"/>
		<polygon clip-path="url(#SVGID_4_)" fill="#FFFFFF" points="314.28,209.39 440.77,9.86 551.22,209.39 		"/>
		<polygon clip-path="url(#SVGID_4_)" fill="#FFFFFF" points="440.77,9.85 314.29,209.39 203.83,9.85 		"/>
		<polygon clip-path="url(#SVGID_4_)" fill="#FFFFFF" points="77.31,209.39 203.81,9.86 314.29,209.39 		"/>
		<polygon clip-path="url(#SVGID_4_)" fill="#FFFFFF" points="-159.61,209.39 -33.15,9.86 77.3,209.39 		"/>
		<polygon clip-path="url(#SVGID_4_)" fill="#FFFFFF" points="77.31,209.39 203.81,9.86 -33.14,9.86 		"/>
		<polygon clip-path="url(#SVGID_4_)" fill="#FFFFFF" points="1388.56,9.86 1262.07,209.4 1151.6,9.86 		"/>
		<polygon clip-path="url(#SVGID_4_)" fill="#FFFFFF" points="1025.07,209.39 1151.53,9.86 1262,209.39 		"/>
		<polygon clip-path="url(#SVGID_4_)" fill="#FFFFFF" points="788.13,209.39 914.61,9.86 1025.06,209.39 		"/>
		<polygon clip-path="url(#SVGID_4_)" fill="#FFFFFF" points="551.21,209.39 677.67,9.86 788.12,209.39 		"/>
		<polygon clip-path="url(#SVGID_4_)" fill="#FFFFFF" points="788.13,209.39 914.61,9.86 677.68,9.86 		"/>
		<polygon clip-path="url(#SVGID_4_)" fill="#FFFFFF" points="2099.83,9.86 1973.35,209.4 1862.9,9.86 		"/>
		<polygon clip-path="url(#SVGID_4_)" fill="#FFFFFF" points="1736.37,209.39 1862.85,9.86 1973.3,209.39 		"/>
		<polygon clip-path="url(#SVGID_4_)" fill="#FFFFFF" points="1862.84,9.85 1736.36,209.39 1625.91,9.85 		"/>
		<polygon clip-path="url(#SVGID_4_)" fill="#FFFFFF" points="1499.39,209.39 1625.92,9.86 1736.37,209.39 		"/>
		<polygon clip-path="url(#SVGID_4_)" fill="#FFFFFF" points="1262.48,209.39 1388.97,9.86 1499.39,209.39 		"/>
		<polygon clip-path="url(#SVGID_4_)" fill="#FFFFFF" points="1662.14,209.39 1788.66,9.86 1551.69,9.86 		"/>
		<polygon clip-path="url(#SVGID_4_)" fill="#FFFFFF" points="-33.53,209.41 -160.01,408.93 -270.46,209.41 		"/>
		<polygon clip-path="url(#SVGID_4_)" fill="#FFFFFF" points="703.73,209.41 577.25,408.93 466.8,209.41 		"/>
		<polygon clip-path="url(#SVGID_4_)" fill="#FFFFFF" points="343.21,409.92 469.69,210.38 580.15,409.92 		"/>
		<polygon clip-path="url(#SVGID_4_)" fill="#FFFFFF" points="472.27,209.39 345.79,408.93 235.32,209.39 		"/>
		<polygon clip-path="url(#SVGID_4_)" fill="#FFFFFF" points="77.31,408.94 203.81,209.42 314.29,408.94 		"/>
		<polygon clip-path="url(#SVGID_4_)" fill="#FFFFFF" points="-159.61,408.94 -33.15,209.42 77.3,408.94 		"/>
		<polygon clip-path="url(#SVGID_4_)" fill="#FFFFFF" points="77.31,408.94 203.81,209.42 -33.14,209.42 		"/>
		<polygon clip-path="url(#SVGID_4_)" fill="#FFFFFF" points="1388.56,209.41 1262.07,408.93 1151.6,209.41 		"/>
		<polygon clip-path="url(#SVGID_4_)" fill="#FFFFFF" points="1025.07,408.94 1151.53,209.42 1262,408.94 		"/>
		<polygon clip-path="url(#SVGID_4_)" fill="#FFFFFF" points="832.25,408.94 958.74,209.42 1069.19,408.94 		"/>
		<polygon clip-path="url(#SVGID_4_)" fill="#FFFFFF" points="576.42,408.94 702.88,209.42 813.35,408.94 		"/>
		<polygon clip-path="url(#SVGID_4_)" fill="#FFFFFF" points="822.73,428.14 949.21,228.6 712.28,228.6 		"/>
		<polygon clip-path="url(#SVGID_4_)" fill="#FFFFFF" points="2099.83,209.41 1973.35,408.93 1862.9,209.41 		"/>
		<polygon clip-path="url(#SVGID_4_)" fill="#FFFFFF" points="1736.37,408.94 1862.85,209.42 1973.3,408.94 		"/>
		<polygon clip-path="url(#SVGID_4_)" fill="#FFFFFF" points="1862.84,209.39 1736.36,408.93 1625.91,209.39 		"/>
		<polygon clip-path="url(#SVGID_4_)" fill="#FFFFFF" points="1499.39,408.94 1625.92,209.42 1736.37,408.94 		"/>
		<polygon clip-path="url(#SVGID_4_)" fill="#FFFFFF" points="1262.48,408.94 1388.97,209.42 1499.39,408.94 		"/>
		<polygon clip-path="url(#SVGID_4_)" fill="#FFFFFF" points="1499.39,408.94 1625.92,209.42 1388.96,209.42 		"/>
		<polygon clip-path="url(#SVGID_4_)" fill="#FFFFFF" points="-33.53,408.96 -160.01,608.47 -270.46,408.96 		"/>
		<polygon clip-path="url(#SVGID_4_)" fill="#FFFFFF" points="677.75,408.96 551.29,608.47 440.82,408.96 		"/>
		<polygon clip-path="url(#SVGID_4_)" fill="#FFFFFF" points="314.28,608.48 440.77,408.96 551.22,608.48 		"/>
		<polygon clip-path="url(#SVGID_4_)" fill="#FFFFFF" points="440.77,408.94 314.29,608.47 203.83,408.94 		"/>
		<polygon clip-path="url(#SVGID_4_)" fill="#FFFFFF" points="77.31,608.48 203.81,408.96 314.29,608.48 		"/>
		<polygon clip-path="url(#SVGID_4_)" fill="#FFFFFF" points="-159.61,608.48 -33.15,408.96 77.3,608.48 		"/>
		<polygon clip-path="url(#SVGID_4_)" fill="#FFFFFF" points="77.31,608.48 203.81,408.96 -33.14,408.96 		"/>
		<polygon clip-path="url(#SVGID_4_)" fill="#FFFFFF" points="1505.77,424.31 1379.28,623.83 1268.83,424.31 		"/>
		<polygon clip-path="url(#SVGID_4_)" fill="#FFFFFF" points="1134.25,608.48 1260.75,408.96 1371.2,608.48 		"/>
		<polygon clip-path="url(#SVGID_4_)" fill="#FFFFFF" points="1258.65,408.94 1132.16,608.47 1021.71,408.94 		"/>
		<polygon clip-path="url(#SVGID_4_)" fill="#FFFFFF" points="901.52,608.48 1028,408.96 1138.45,608.48 		"/>
		<polygon clip-path="url(#SVGID_4_)" fill="#FFFFFF" points="551.21,608.48 677.67,408.96 788.12,608.48 		"/>
		<polygon clip-path="url(#SVGID_4_)" fill="#FFFFFF" points="900.48,608.48 1026.95,408.96 790.03,408.96 		"/>
		<polygon clip-path="url(#SVGID_4_)" fill="#FFFFFF" points="2099.83,408.96 1973.35,608.47 1862.9,408.96 		"/>
		<polygon clip-path="url(#SVGID_4_)" fill="#FFFFFF" points="1955.05,408.94 1828.58,608.47 1718.11,408.94 		"/>
		<polygon clip-path="url(#SVGID_4_)" fill="#FFFFFF" points="1377.95,608.48 1504.46,408.96 1614.91,608.48 		"/>
		<polygon clip-path="url(#SVGID_4_)" fill="#FFFFFF" points="1617.68,617.44 1744.19,417.92 1507.23,417.92 		"/>
		<polygon clip-path="url(#SVGID_4_)" fill="#FFFFFF" points="1617.28,608.48 1745.18,408.94 1854.26,608.48 		"/>
	</g>
</g>
</svg>
