<svg xmlns="http://www.w3.org/2000/svg" width="118.751" height="118.751" viewBox="0 0 118.751 118.751">
  <g id="Group_669" data-name="Group 669" transform="translate(-619.165 -1773)">
    <g id="Group_636" data-name="Group 636" transform="translate(619.165 1773)">
      <g id="discussion" transform="translate(0 0)">
        <path id="Path_710" data-name="Path 710" d="M209.916,120,196,158.73l13.916,38.73H249.1l20.188,13.459V120Z" transform="translate(-150.541 -92.168)" fill="#085aae"/>
        <path id="Path_711" data-name="Path 711" d="M120,226.986h31.543v52.646H120Z" transform="translate(-92.168 -174.34)" fill="#0a77e8"/>
        <path id="Path_712" data-name="Path 712" d="M226.1,0H194.555L176,52.646h50.1Z" transform="translate(-135.179)" fill="#18e0ff"/>
        <path id="Path_713" data-name="Path 713" d="M0,0V90.918L20.188,77.46H59.375V0Z" fill="#65eaff"/>
        <path id="Path_714" data-name="Path 714" d="M249.14,120H217.6L206,144.814l11.6,24.814H249.14Z" transform="translate(-158.221 -92.168)" fill="#0f9af0"/>
        <path id="Path_715" data-name="Path 715" d="M120,120h31.543v49.628H120Z" transform="translate(-92.168 -92.168)" fill="#13bdf7"/>
      </g>
      <rect id="Rectangle_1034" data-name="Rectangle 1034" width="71.149" height="8.218" transform="translate(27.42 110.533)" fill="#ff3cad"/>
      <rect id="Rectangle_1035" data-name="Rectangle 1035" width="33.22" height="8.218" transform="translate(65.347 110.533)" fill="#fe6192"/>
    </g>
  </g>
</svg>
