<?xml version="1.0" encoding="utf-8"?>
<!-- Generator: Adobe Illustrator 24.1.3, SVG Export Plug-In . SVG Version: 6.00 Build 0)  -->
<svg version="1.1" id="Layer_1" xmlns="http://www.w3.org/2000/svg" xmlns:xlink="http://www.w3.org/1999/xlink" x="0px" y="0px"
	 viewBox="0 0 901 900" enable-background="new 0 0 901 900" xml:space="preserve">
<g>
	<circle fill="#E21B1B" cx="451.68" cy="450.32" r="439.68"/>
	<g>
		<path fill="#FFFFFF" d="M620.64,648.75c-8.79,0-17.57-3.35-24.29-10.06l-332.9-332.91c-13.42-13.42-13.42-35.16,0-48.57
			c13.42-13.41,35.16-13.42,48.57,0l332.91,332.91c13.42,13.42,13.42,35.16,0,48.57C638.22,645.4,629.44,648.75,620.64,648.75z"/>
		<path fill="#FFFFFF" d="M287.74,648.75c-8.79,0-17.57-3.35-24.29-10.06c-13.42-13.42-13.42-35.16,0-48.57l332.91-332.91
			c13.42-13.42,35.16-13.42,48.57,0c13.41,13.42,13.42,35.16,0,48.57L312.03,638.69C305.32,645.4,296.53,648.75,287.74,648.75z"/>
	</g>
</g>
</svg>
