<?xml version="1.0" encoding="utf-8"?>
<!-- Generator: Adobe Illustrator 24.1.3, SVG Export Plug-In . SVG Version: 6.00 Build 0)  -->
<svg version="1.1" id="Layer_1" xmlns="http://www.w3.org/2000/svg" xmlns:xlink="http://www.w3.org/1999/xlink" x="0px" y="0px"
	 viewBox="0 0 766 768" enable-background="new 0 0 766 768" xml:space="preserve">
<g>
	<path fill="#808080" stroke="#000000" stroke-width="0.25" stroke-miterlimit="10" d="M505.58,744.12h-75.15v-44.88h75.15
		c90.53,0,164.18-73.65,164.18-164.17l22.21-14.97l22.67,14.97C714.64,650.34,620.86,744.12,505.58,744.12z"/>
	<path fill="#808080" stroke="#000000" stroke-width="0.25" stroke-miterlimit="10" d="M137.14,103.9
		C71.42,169.62,35.23,257,35.23,349.94l22.28,14.97l22.6-14.97c0-83.55,33.99-159.32,88.87-214.19l3.99-26.04L137.14,103.9
		L137.14,103.9z"/>
	<path fill="#808080" stroke="#000000" stroke-width="0.25" stroke-miterlimit="10" d="M629.21,103.9l-28.34,6.54l-3.49,25.3
		c54.88,54.88,88.86,130.64,88.86,214.2l21.6,14.97l23.28-14.97C731.12,257,694.93,169.62,629.21,103.9z"/>
	
		<rect x="640.68" y="349.94" fill="#808080" stroke="#000000" stroke-width="0.25" stroke-miterlimit="10" width="125.51" height="185.13"/>
	
		<rect x="0.16" y="349.94" fill="#808080" stroke="#000000" stroke-width="0.25" stroke-miterlimit="10" width="125.51" height="185.13"/>
	<g>
		<path fill="#808080" stroke="#000000" stroke-width="0.25" stroke-miterlimit="10" d="M629.21,103.9L629.21,103.9
			C563.49,38.18,476.12,1.99,383.18,1.99l-29.95,61.33L383.18,117c64.22,0,122.45,26.12,164.63,68.3L629.21,103.9z"/>
		<path fill="#808080" stroke="#000000" stroke-width="0.25" stroke-miterlimit="10" d="M414.06,768
			c25.58,0,46.32-20.74,46.32-46.32l0,0c0-25.58-20.74-46.32-46.32-46.32h-30.88l-29.95,44.94L383.18,768H414.06z"/>
	</g>
	<g>
		<path fill="#808080" stroke="#000000" stroke-width="0.25" stroke-miterlimit="10" d="M305.98,721.68L305.98,721.68
			c0,25.58,20.74,46.32,46.32,46.32h30.88v-92.64H352.3C326.71,675.36,305.98,696.1,305.98,721.68z"/>
		<path fill="#808080" stroke="#000000" stroke-width="0.25" stroke-miterlimit="10" d="M383.18,1.99
			c-92.94,0-180.32,36.19-246.03,101.91l0,0l81.4,81.4c42.18-42.18,100.41-68.3,164.63-68.3l0,0V1.99L383.18,1.99z"/>
	</g>
</g>
</svg>
