<?xml version="1.0" encoding="utf-8"?>
<!-- Generator: Adobe Illustrator 24.1.3, SVG Export Plug-In . SVG Version: 6.00 Build 0)  -->
<svg version="1.1" id="Layer_1" xmlns="http://www.w3.org/2000/svg" xmlns:xlink="http://www.w3.org/1999/xlink" x="0px" y="0px"
	 viewBox="0 0 1102 891" enable-background="new 0 0 1102 891" xml:space="preserve">
<g>
	<g>
		<g>
			<g>
				<rect x="161.47" y="349.81" fill="#FFFFFF" width="83.02" height="83.02"/>
			</g>
		</g>
		<g>
			<g>
				<rect x="327.51" y="349.81" fill="#FFFFFF" width="83.02" height="83.02"/>
			</g>
		</g>
		<g>
			<g>
				<rect x="493.55" y="349.81" fill="#FFFFFF" width="83.02" height="83.02"/>
			</g>
		</g>
		<g>
			<g>
				<rect x="659.6" y="349.81" fill="#FFFFFF" width="83.02" height="83.02"/>
			</g>
		</g>
		<g>
			<g>
				<rect x="825.64" y="349.81" fill="#FFFFFF" width="83.02" height="83.02"/>
			</g>
		</g>
		<g>
			<g>
				<rect x="161.47" y="515.85" fill="#FFFFFF" width="83.02" height="83.02"/>
			</g>
		</g>
		<g>
			<g>
				<rect x="327.51" y="515.85" fill="#FFFFFF" width="83.02" height="83.02"/>
			</g>
		</g>
		<g>
			<g>
				<rect x="493.55" y="515.85" fill="#FFFFFF" width="83.02" height="83.02"/>
			</g>
		</g>
		<g>
			<g>
				<rect x="659.6" y="515.85" fill="#FFFFFF" width="83.02" height="83.02"/>
			</g>
		</g>
		<g>
			<g>
				<rect x="161.47" y="681.89" fill="#FFFFFF" width="83.02" height="83.02"/>
			</g>
		</g>
		<g>
			<g>
				<rect x="327.51" y="681.89" fill="#FFFFFF" width="83.02" height="83.02"/>
			</g>
		</g>
		<g>
			<g>
				<rect x="493.55" y="681.89" fill="#FFFFFF" width="83.02" height="83.02"/>
			</g>
		</g>
		<g>
			<g>
				<rect x="659.6" y="681.89" fill="#FFFFFF" width="83.02" height="83.02"/>
			</g>
		</g>
		<g>
			<g>
				<rect x="825.64" y="515.85" fill="#FFFFFF" width="83.02" height="83.02"/>
			</g>
		</g>
	</g>
	<g>
		<path fill="#FFFFFF" stroke="#FFFFFF" stroke-width="9" stroke-miterlimit="10" d="M1091.16,884H10.98
			c-1.57,0-2.84-1.28-2.84-2.84V89.54c0-1.57,1.27-2.84,2.84-2.84h1080.18c1.57,0,2.84,1.27,2.84,2.84v791.61
			C1094,882.72,1092.72,884,1091.16,884z M10.98,88.25c-0.71,0-1.29,0.58-1.29,1.29v791.61c0,0.71,0.58,1.29,1.29,1.29h1080.18
			c0.71,0,1.29-0.58,1.29-1.29V89.54c0-0.71-0.58-1.29-1.29-1.29H10.98z"/>
	</g>
	<g>
		<path fill="#FFFFFF" stroke="#FFFFFF" stroke-width="4" stroke-miterlimit="10" d="M904.03,158.46h-6.06V16.49h6.06V158.46z
			 M900.03,156.4h1.93V18.55h-1.93V156.4z"/>
	</g>
	<g>
		<path fill="#FFFFFF" stroke="#FFFFFF" stroke-width="5" stroke-miterlimit="10" d="M219.2,158.46h-6.06V16.49h6.06V158.46z
			 M215.2,156.4h1.93V18.55h-1.93V156.4z"/>
	</g>
	<g>
		
			<rect x="16.88" y="260.6" fill="#FFFFFF" stroke="#FFFFFF" stroke-width="7" stroke-miterlimit="10" width="1059.63" height="2.54"/>
	</g>
</g>
</svg>
