<?xml version="1.0" encoding="utf-8"?>
<!-- Generator: Adobe Illustrator 24.1.3, SVG Export Plug-In . SVG Version: 6.00 Build 0)  -->
<svg version="1.1" id="Layer_1" xmlns="http://www.w3.org/2000/svg" xmlns:xlink="http://www.w3.org/1999/xlink" x="0px" y="0px"
	 viewBox="0 0 944 768" enable-background="new 0 0 944 768" xml:space="preserve">
<path fill="#333333" d="M937,94.51c-34.66,15.2-71.6,25.28-110.1,30.18c39.61-23.65,69.85-60.82,84.06-105.62
	c-36.93,22.02-77.71,37.58-121.17,46.26C754.72,27.98,704.73,4.85,650.21,4.85c-105.79,0-190.96,85.87-190.96,191.14
	c0,15.15,1.28,29.71,4.43,43.58C304.81,231.82,164.23,155.68,69.8,39.69c-16.49,28.6-26.16,61.34-26.16,96.59
	c0,66.18,34.08,124.84,84.88,158.81c-30.7-0.58-60.82-9.5-86.34-23.54c0,0.58,0,1.34,0,2.1c0,92.86,66.24,169.99,153.1,187.76
	c-15.55,4.25-32.51,6.29-50.1,6.29c-12.23,0-24.58-0.7-36.18-3.26c24.76,75.67,95.02,131.31,178.55,133.11
	c-65.01,50.86-147.56,81.5-236.93,81.5c-15.67,0-30.7-0.7-45.73-2.62c84.65,54.59,184.96,85.75,293.14,85.75
	c351.63,0,543.88-291.28,543.88-543.76c0-8.45-0.29-16.6-0.7-24.7C879.15,166.8,911.02,133.19,937,94.51z"/>
</svg>
