<svg xmlns="http://www.w3.org/2000/svg" width="11.583" height="15.361" viewBox="0 0 11.583 15.361">
  <g id="Group_286" data-name="Group 286" transform="translate(0.125 0.125)">
    <path id="Path_389" data-name="Path 389" d="M915.787,597.269h-.629v-.315a.315.315,0,0,0-.63,0v.315h-1.259v-.315a.315.315,0,0,0-.629,0v.315H911.38v-.315a.315.315,0,0,0-.63,0v.315h-1.259v-.315a.315.315,0,0,0-.629,0v.315H907.6v-.315a.315.315,0,0,0-.629,0v.315h-.63a.944.944,0,0,0-.944.944v12.593a.944.944,0,0,0,.944.944h9.444a.944.944,0,0,0,.944-.944V598.214A.945.945,0,0,0,915.787,597.269Zm.315,13.537a.315.315,0,0,1-.315.315h-9.444a.315.315,0,0,1-.315-.315V598.214a.315.315,0,0,1,.315-.315h.63v.315a.315.315,0,1,0,.629,0V597.9h1.26v.315a.315.315,0,1,0,.629,0V597.9h1.259v.315a.315.315,0,1,0,.63,0V597.9h1.259v.315a.315.315,0,1,0,.629,0V597.9h1.259v.315a.315.315,0,1,0,.63,0V597.9h.629a.315.315,0,0,1,.315.315Z" transform="translate(-905.399 -596.64)" fill="#1c1c1c" stroke="#fff" stroke-miterlimit="10" stroke-width="0.25"/>
    <path id="Path_390" data-name="Path 390" d="M916.13,603.507h-7.555a.315.315,0,0,0,0,.63h7.555a.315.315,0,1,0,0-.63Z" transform="translate(-906.686 -599.729)" fill="#1c1c1c" stroke="#fff" stroke-miterlimit="10" stroke-width="0.25"/>
    <path id="Path_391" data-name="Path 391" d="M916.13,608.085h-7.555a.315.315,0,0,0,0,.63h7.555a.315.315,0,1,0,0-.63Z" transform="translate(-906.686 -601.789)" fill="#1c1c1c" stroke="#fff" stroke-miterlimit="10" stroke-width="0.25"/>
    <path id="Path_392" data-name="Path 392" d="M916.13,612.663h-7.555a.315.315,0,0,0,0,.63h7.555a.315.315,0,1,0,0-.63Z" transform="translate(-906.686 -603.848)" fill="#1c1c1c" stroke="#fff" stroke-miterlimit="10" stroke-width="0.25"/>
    <path id="Path_393" data-name="Path 393" d="M916.13,617.241h-7.555a.315.315,0,0,0,0,.63h7.555a.315.315,0,1,0,0-.63Z" transform="translate(-906.686 -605.908)" fill="#1c1c1c" stroke="#fff" stroke-miterlimit="10" stroke-width="0.25"/>
  </g>
</svg>
