<svg xmlns="http://www.w3.org/2000/svg" width="13.329" height="16.29" viewBox="0 0 13.329 16.29">
  <g id="Group_288" data-name="Group 288" transform="translate(0.25 0.25)">
    <path id="Path_397" data-name="Path 397" d="M997.671,604.065h-2.857a.462.462,0,0,1,0-.925h2.857a.462.462,0,1,1,0,.925Z" transform="translate(-990.245 -599.718)" fill="#1c1c1c" stroke="#fff" stroke-miterlimit="10" stroke-width="0.5"/>
    <path id="Path_398" data-name="Path 398" d="M994.814,606.455h2.857a.462.462,0,1,1,0,.925h-2.857a.462.462,0,0,1,0-.925Z" transform="translate(-990.245 -601.185)" fill="#1c1c1c" stroke="#fff" stroke-miterlimit="10" stroke-width="0.5"/>
    <path id="Path_399" data-name="Path 399" d="M987.447,597h11.071a.462.462,0,0,1,.462.463v1.443h.371a.462.462,0,1,1,0,.925h-.371v.923h.371a.462.462,0,1,1,0,.925h-.371v.923h.371a.462.462,0,1,1,0,.925h-.371v.889h.371a.462.462,0,1,1,0,.925h-.371v.923h.371a.462.462,0,1,1,0,.925h-.371v.923h.371a.462.462,0,1,1,0,.925h-.371v.923h.371a.462.462,0,1,1,0,.925h-.371v1.443a.463.463,0,0,1-.462.463H987.447a.463.463,0,0,1-.463-.463V597.463a.463.463,0,0,1,.463-.463Zm10.608,13.884h-.371a.462.462,0,1,1,0-.925h.371v-.923h-.371a.462.462,0,1,1,0-.925h.371v-.923h-.371a.462.462,0,1,1,0-.925h.371v-.923h-.371a.462.462,0,1,1,0-.925h.371v-.889h-.371a.462.462,0,1,1,0-.925h.371v-.923h-.371a.462.462,0,1,1,0-.925h.371v-.923h-.371a.462.462,0,1,1,0-.925h.371v-.981h-8.284v13.94h8.284Zm-10.146.981h.936v-13.94h-.936Z" transform="translate(-986.984 -597)" fill="#1c1c1c" stroke="#fff" stroke-miterlimit="10" stroke-width="0.5"/>
  </g>
</svg>
