<svg xmlns="http://www.w3.org/2000/svg" width="80.36" height="56.266" viewBox="0 0 80.36 56.266">
  <g id="Group_692" data-name="Group 692" transform="translate(0)">
    <path id="Path_832" data-name="Path 832" d="M316.632,750.3a10.062,10.062,0,0,0-7.079-7.086c-6.29-1.72-31.447-1.72-31.447-1.72s-25.151,0-31.44,1.657a10.259,10.259,0,0,0-7.079,7.149c-1.657,6.289-1.657,19.327-1.657,19.327s0,13.108,1.657,19.327a10.074,10.074,0,0,0,7.079,7.086c6.353,1.72,31.447,1.72,31.447,1.72s25.151,0,31.44-1.657a10.053,10.053,0,0,0,7.079-7.079c1.657-6.289,1.657-19.334,1.657-19.334S318.359,756.593,316.632,750.3Z" transform="translate(-237.929 -741.497)" fill="#e00d36"/>
    <path id="Path_833" data-name="Path 833" d="M242.492,767.878l20.913-12.05-20.913-12.05Z" transform="translate(-210.318 -727.695)" fill="#fff"/>
  </g>
</svg>
