<svg xmlns="http://www.w3.org/2000/svg" xmlns:xlink="http://www.w3.org/1999/xlink" viewBox="0 0 1440 230">
  <defs>
    <rect id="pattern-a" width="1440" height="230"/>
  </defs>
  <g fill="none" fill-rule="evenodd">
    <mask id="pattern-b" fill="#fff">
      <use xlink:href="#pattern-a"/>
    </mask>
    <use fill="#363563" xlink:href="#pattern-a"/>
    <g stroke-linecap="round" stroke-linejoin="round" mask="url(#pattern-b)" opacity=".05">
      <g transform="translate(-21 -240)">
        <path stroke="#FFF" stroke-width="1.212" d="M610.390884,308.052645 C595.871247,322.574632 572.332992,322.574632 557.81618,308.049819 C543.299369,293.527832 543.299369,269.981185 557.81618,255.459198 C572.332992,240.934384 595.871247,240.934384 610.390884,255.459198 C624.910521,269.981185 624.910521,293.527832 610.390884,308.052645 Z"/>
        <path stroke="#FFF" stroke-width="1.212" d="M584.331299 237.449086L584.734694 230.698467C571.510119 230.698467 558.288366 235.744498 548.197858 245.83656 528.022483 266.023507 528.022483 298.74651 548.197858 318.933457 558.288366 329.025519 571.510119 334.07155 584.734694 334.07155L584.610572 327.535416M611.19898 255.911414C599.015461 261.434334 584.349197 291.564266 611.19898 308.858603M565.831633 250.868825C578.702336 262.058554 585.669464 294.782751 566.991873 316.422487"/>
        <line x1="540.628" x2="548.189" y1="326.508" y2="318.944" stroke="#FFF" stroke-width="1.212"/>
        <path stroke="#FFF" stroke-width="1.212" d="M506.602041,317.939234 L548.278943,359.284497 C548.278943,359.284497 554.433414,352.492662 547.154296,345.271957 C550.618659,341.832592 549.578785,338.054055 545.766856,334.269912 C541.954927,330.488572 534.155873,322.752103 531.640961,320.260175 C529.1317,317.765443 523.844732,315.78928 520.292772,319.31554 C517.257922,316.305045 512.146151,312.43681 506.602041,317.939234 Z"/>
        <polygon stroke="#FFF" stroke-width="1.221" points="367.829 277.492 338.995 221.874 394.595 250.717 423.429 306.337"/>
        <path stroke="#FFF" stroke-width="1.221" d="M403.265306,296.578936 L374.626899,325.225344 C374.626899,325.225344 360.199441,326.637135 340.238316,306.672394 C320.27438,286.70484 321.362555,271.948537 321.362555,271.948537 L350.000962,243.30494"/>
        <line x1="341.515" x2="304.969" y1="228.177" y2="264.736" stroke="#FFF" stroke-width="1.221"/>
        <path stroke="#FFF" stroke-width="1.221" d="M304.569218 271.899816C302.355387 274.114031 298.76466 274.114031 296.548129 271.899816 294.334297 269.682901 294.334297 266.091552 296.548129 263.877337 298.76466 261.660422 302.355387 261.660422 304.569218 263.877337 306.78305 266.091552 306.78305 269.682901 304.569218 271.899816zM290.872484 274.821124C290.872484 274.821124 283.033146 276.40477 278.505102 280.918736L288.821393 291.20954C288.821393 291.20954 294.598053 283.791261 294.887755 278.826475"/>
        <polygon stroke="#FFF" stroke-width="1.08" points="464.065 265.997 413.347 215.261 482.349 146.235 533.066 196.971"/>
        <polyline stroke="#FFF" stroke-width="1.08" points="530.987 206.746 533.066 208.811 464.063 277.342 413.347 226.968 415.679 224.651"/>
        <polygon stroke="#FFF" stroke-width="1.08" points="449.267 437.445 395.704 383.864 468.162 311.38 521.724 364.963"/>
        <polygon stroke="#FFF" stroke-width="1.08" points="499.317 371.891 461.235 333.795 469.78 325.247 507.862 363.343"/>
        <polygon stroke="#FFF" stroke-width="1.08" points="449.422 422.317 410.827 383.708 447.843 346.678 486.439 385.287"/>
        <line x1="466.276" x2="429.73" y1="366.848" y2="403.407" stroke="#FFF" stroke-width="1.08"/>
        <line x1="448.633" x2="420.908" y1="365.588" y2="393.322" stroke="#FFF" stroke-width="1.08"/>
        <line x1="476.357" x2="439.811" y1="375.673" y2="412.232" stroke="#FFF" stroke-width="1.08"/>
        <line x1="438.551" x2="476.357" y1="356.763" y2="394.583" stroke="#FFF" stroke-width="1.08"/>
        <line x1="429.73" x2="467.536" y1="365.588" y2="403.407" stroke="#FFF" stroke-width="1.08"/>
        <line x1="419.648" x2="457.454" y1="375.673" y2="413.492" stroke="#FFF" stroke-width="1.08"/>
        <polyline stroke="#FFF" stroke-width="1.185" points="589.91 430.154 573.898 409.71 541.81 413.843 529.286 444.782 549.214 470.221 581.4 465.298 591.036 442.352"/>
        <path stroke="#FFF" stroke-width="1.185" d="M597.439395 439.886827C594.698714 442.033402 590.739298 441.547552 588.593265 438.809122 586.450176 436.067748 586.93296 432.104387 589.670697 429.960757 592.411379 427.814181 596.373738 428.297087 598.516827 431.038461 600.66286 433.779835 600.180076 437.740252 597.439395 439.886827zM581.540152 401.075751C579.348748 402.790282 576.181066 402.404961 574.464368 400.212512 572.747669 398.020063 573.135792 394.847882 575.327195 393.133351 577.518598 391.415833 580.686281 391.804141 582.402979 393.99659 584.119678 396.186052 583.731555 399.358233 581.540152 401.075751zM507.72241 453.620502C504.710548 455.979916 500.35254 455.448058 497.993955 452.435137 495.63537 449.419386 496.164213 445.062674 499.178903 442.70043 502.193593 440.341016 506.548774 440.870045 508.910187 443.888624 511.268771 446.901546 510.7371 451.261087 507.72241 453.620502z"/>
        <polyline stroke="#FFF" stroke-width="1.185" points="581.553 465.179 601.117 490.391 589.312 521.483 564.571 524.429"/>
        <line x1="575.751" x2="573.555" y1="402.147" y2="409.71" stroke="#FFF" stroke-width="1.185"/>
        <line x1="510.383" x2="528.026" y1="447.081" y2="445.457" stroke="#FFF" stroke-width="1.185"/>
        <polyline stroke="#FFF" stroke-width=".729" points="680.654 252.961 665 249.608 651.526 264.575 657.902 284.518 677.387 288.688 690.592 273.302 686.023 258.369"/>
        <path stroke="#FFF" stroke-width=".729" d="M687.99025 254.166309C687.562178 256.209 685.556845 257.51908 683.514163 257.091006 681.468609 256.662931 680.161408 254.657589 680.592353 252.612026 681.020426 250.569335 683.022885 249.259255 685.065567 249.690202 687.111121 250.118277 688.418323 252.123619 687.99025 254.166309zM664.059596 242.061026C663.70159 243.763908 662.03292 244.853631 660.330876 244.498485 658.625798 244.140303 657.536611 242.470811 657.894616 240.767929 658.252622 239.062011 659.921293 237.972288 661.623337 238.33047 663.325381 238.688652 664.417601 240.358144 664.059596 242.061026zM651.429707 296.529222C650.929258 298.911756 648.590902 300.439621 646.208647 299.939114 643.823465 299.438606 642.298705 297.099976 642.799154 294.714516 643.299603 292.329055 645.637959 290.804116 648.020214 291.304624 650.40247 291.805131 651.933083 294.143761 651.429707 296.529222zM680.442735 313.918402C680.08339 315.62081 678.412997 316.71361 676.711723 316.354026 675.007641 315.99725 673.918376 314.328553 674.277721 312.623336 674.634259 310.920928 676.301845 309.828128 678.005926 310.187712 679.707201 310.544487 680.799273 312.215994 680.442735 313.918402zM723.275067 266.771858C722.846785 268.81706 720.8437 270.125564 718.798054 269.697375 716.755067 269.263867 715.448939 267.263877 715.877221 265.218674 716.305504 263.176131 718.308588 261.867627 720.351575 262.295816 722.397221 262.726665 723.70601 264.729315 723.275067 266.771858zM706.87964 312.915802C706.379604 315.299794 704.041668 316.829699 701.655857 316.326826 699.275365 315.829274 697.745998 313.490515 698.248695 311.103862 698.746071 308.719871 701.084007 307.192626 703.469818 307.692839 705.85297 308.193051 707.379676 310.531811 706.87964 312.915802z"/>
        <polyline stroke="#FFF" stroke-width=".729" points="689.332 273.56 708.958 277.536 715.796 296.533 705.029 307.598"/>
        <polyline stroke="#FFF" stroke-width=".729" points="676.73 288.688 682.983 307.085 698.153 310.119"/>
        <line x1="717.056" x2="709.495" y1="268.518" y2="277.342" stroke="#FFF" stroke-width=".729"/>
        <line x1="662.053" x2="663.681" y1="244.566" y2="249.608" stroke="#FFF" stroke-width=".729"/>
        <line x1="649.005" x2="656.566" y1="291.21" y2="283.646" stroke="#FFF" stroke-width=".729"/>
        <line x1="683.031" x2="679.25" y1="306.337" y2="310.119" stroke="#FFF" stroke-width=".729"/>
        <path stroke="#FFF" stroke-width="1.465" d="M705.160021,478.234215 C705.160021,478.234215 704.352968,449.122137 704.262668,445.927703 C704.172369,442.736098 705.572013,439.125736 708.642201,434.904216 C711.712389,430.682696 719.957875,417.107057 719.562814,402.835377 C719.164931,388.560867 701.931809,362.16222 668.777731,363.090275 C635.623653,364.015501 630.564052,391.036624 630.798266,399.488153 C631.032481,407.939681 634.77145,414.22669 631.354173,419.396072 C627.934075,424.565453 622.470946,430.357311 622.540816,432.799115 C622.606396,435.243748 630.645886,434.451506 631.094562,437.071565 C631.540416,439.691623 633.933357,451.464911 634.401786,454.83477 C634.870216,458.207459 636.975326,459.840044 642.602123,459.871168 C648.226097,459.902292 659.307556,460.719999 659.459937,466.163836 C659.609496,471.610502 659.88886,481.567291 659.88886,481.567291"/>
        <line x1="616.24" x2="628.842" y1="365.588" y2="374.412" stroke="#FFF" stroke-width="1.465"/>
        <line x1="628.842" x2="637.663" y1="351.721" y2="361.806" stroke="#FFF" stroke-width="1.465"/>
        <line x1="649.005" x2="655.306" y1="339.114" y2="351.721" stroke="#FFF" stroke-width="1.465"/>
        <line x1="672.609" x2="673.289" y1="336.593" y2="350.46" stroke="#FFF" stroke-width="1.465"/>
        <line x1="695.633" x2="690.592" y1="340.375" y2="352.981" stroke="#FFF" stroke-width="1.465"/>
        <line x1="717.056" x2="709.495" y1="350.46" y2="361.806" stroke="#FFF" stroke-width="1.465"/>
        <line x1="730.918" x2="720.837" y1="366.848" y2="374.412" stroke="#FFF" stroke-width="1.465"/>
        <path stroke="#FFF" stroke-width="1.465" d="M652.921479,423.336538 C652.445261,418.439721 645.630806,418.484775 646.271432,414.539726 C646.914894,410.594676 642.847197,406.593309 644.267347,403.560606 C645.690333,400.525086 642.110192,393.705022 646.379148,391.528346 C650.648104,389.354486 646.900721,383.283446 653.097227,382.551317 C659.288063,381.819188 657.833897,376.995584 663.854656,376.826631 C669.875414,376.66331 672.579653,372.284615 676.443257,375.731253 C680.304026,379.177892 687.124151,373.937537 688.419578,379.887494 C689.717839,385.840266 695.616709,381.185615 696.098596,385.102505 C696.586153,389.01658 704.432414,393.476936 702.337621,399.333968 C700.239994,405.191001 705.798707,408.589769 701.538255,411.138141 C697.277803,413.68933 703.661395,419.68434 697.714336,422.469247 C691.767278,425.254153 693.643805,431.747575 687.226197,431.175951 C680.805756,430.607143 677.784038,437.049879 673.186264,434.186128 C668.585657,431.319561 663.231036,435.019629 661.04837,431.153424 C658.871372,427.284403 653.715176,431.544831 652.921479,423.336538 Z"/>
        <path stroke="#FFF" stroke-width="1.465" d="M655.306122 412.207189C661.385108 412.511397 663.217208 409.968886 663.682236 405.3332 664.147264 400.697513 664.679526 398.428511 669.870475 396.862816 675.067027 395.294329 680.291593 394.914767 682.796023 390.932151 685.303254 386.946745 689.331633 381.97615 689.331633 381.97615M669.168367 381.97615C670.336788 386.118703 679.387188 389.519172 679.248421 393.321976M660.359659 387.018739C660.018627 391.746254 666.647959 397.103918 666.647959 397.103918M654.045918 397.103918C654.87754 401.032605 658.388514 401.671888 661.607143 404.667802M673.338827 424.83816C671.234367 415.544544 677.804672 405.051478 689.311366 408.694982 700.823833 412.338486 703.193878 400.88586 703.193878 400.88586M665.387755 399.625213C668.663777 400.035447 676.81676 404.110842 676.728887 409.710392M672.94898 417.668639C669.243093 416.499059 663.018318 418.019761 659.086735 421.056218M698.153061 388.279387C692.996389 389.347454 688.032915 393.078861 686.811224 400.88586M686.053923 429.88075C682.681645 424.690337 681.128924 418.860466 686.811224 417.274276"/>
        <path stroke="#FFF" stroke-width=".701" d="M158.810736,428.645184 C150.442737,437.016057 136.878868,437.016057 128.513684,428.645184 C120.1485,420.274311 120.1485,406.705782 128.513684,398.334908 C136.878868,389.969666 150.442737,389.969666 158.810736,398.337724 C167.178734,406.705782 167.178734,420.274311 158.810736,428.645184 Z"/>
        <path stroke="#FFF" stroke-width=".701" d="M144.689378 387.189194L144.923469 383.236797C137.181324 383.236797 129.442033 386.189671 123.538361 392.101131 111.725308 403.912628 111.725308 423.069184 123.538361 434.886392 129.442033 440.794996 137.181324 443.747871 144.923469 443.747871L144.8521 439.921128M160.045918 398.364566C152.94014 401.518292 144.382644 418.737302 160.045918 428.620102M133.581633 394.582624C141.30624 401.03766 145.48266 419.917578 134.277703 432.402044"/>
        <line x1="118.459" x2="123.5" y1="439.966" y2="434.923" stroke="#FFF" stroke-width=".701"/>
        <path stroke="#FFF" stroke-width=".701" d="M99.5561224,433.988427 L123.37242,457.614991 C123.37242,457.614991 126.886803,453.735383 122.730396,449.612088 C124.709505,447.645977 124.114935,445.483254 121.937636,443.323301 C119.757546,441.160579 115.302458,436.740982 113.864883,435.314859 C112.427307,433.891506 109.407003,432.761684 107.380441,434.774871 C105.646976,433.055216 102.724371,430.845418 99.5561224,433.988427 Z"/>
        <polygon stroke="#FFF" stroke-width="1.221" points="233.121 311.38 175.168 286.466 236.941 273.56 294.888 298.471"/>
        <path stroke="#FFF" stroke-width="1.221" d="M272.204082,303.931195 L268.12961,344.951087 C268.12961,344.951087 257.796502,355.35489 229.574712,352.47846 C201.350096,349.602031 192.811224,337.272021 192.811224,337.272021 L196.888522,296.252129"/>
        <line x1="181.469" x2="176.429" y1="289.949" y2="340.375" stroke="#FFF" stroke-width="1.221"/>
        <path stroke="#FFF" stroke-width="1.221" d="M181.440557 347.875455C181.127482 350.991843 178.347597 353.265672 175.230347 352.952413 172.115796 352.639154 169.843307 349.857629 170.156382 346.74124 170.472155 343.624852 173.252041 341.351023 176.366592 341.664282 179.481143 341.977541 181.753631 344.759066 181.440557 347.875455zM171.800529 358.02385C171.800529 358.02385 166.961194 364.14785 166.346939 370.446658 169.420982 370.767617 180.209184 371.890971 180.209184 371.890971 180.209184 371.890971 179.990597 362.580313 177.193246 358.585527"/>
        <polygon stroke="#FFF" stroke-width="1.08" points="214.546 515.605 163.827 464.866 232.83 395.843 283.546 446.582"/>
        <polyline stroke="#FFF" stroke-width="1.08" points="280.206 456.354 282.286 458.42 213.283 526.951 162.566 476.576 164.899 474.259"/>
        <polygon stroke="#FFF" stroke-width="1.08" points="233.341 442.487 215.495 424.635 232.932 407.189 250.781 425.038"/>
        <line x1="255.821" x2="269.684" y1="432.402" y2="446.269" stroke="#FFF" stroke-width="1.08"/>
        <line x1="249.52" x2="263.383" y1="438.705" y2="452.572" stroke="#FFF" stroke-width="1.08"/>
        <line x1="204.153" x2="240.699" y1="437.445" y2="474.003" stroke="#FFF" stroke-width="1.08"/>
        <line x1="197.852" x2="234.398" y1="445.009" y2="481.567" stroke="#FFF" stroke-width="1.08"/>
        <line x1="190.291" x2="226.837" y1="451.312" y2="487.871" stroke="#FFF" stroke-width="1.08"/>
        <polygon stroke="#FFF" stroke-width=".904" points="345.296 453.401 381.672 405.928 446.112 455.526 409.737 502.998"/>
        <polyline stroke="#FFF" stroke-width=".904" points="400.745 502.313 399.264 504.259 335.214 454.662 371.369 407.189 373.533 408.869"/>
        <polygon stroke="#FFF" stroke-width=".904" points="408.306 461.572 421.062 445.009 437.291 457.44 424.538 474.003"/>
        <line x1="409.566" x2="383.102" y1="437.445" y2="471.482" stroke="#FFF" stroke-width=".904"/>
        <line x1="402.005" x2="375.541" y1="432.402" y2="466.44" stroke="#FFF" stroke-width=".904"/>
        <line x1="395.704" x2="369.24" y1="427.359" y2="461.397" stroke="#FFF" stroke-width=".904"/>
        <polygon stroke="#FFF" stroke-width="1.08" points="35.896 354.242 30.245 278.739 131.711 271.039 137.362 346.545"/>
        <polygon stroke="#FFF" stroke-width="1.08" points="115.016 337.853 110.898 283.307 123.159 282.385 127.281 336.931"/>
        <polygon stroke="#FFF" stroke-width="1.08" points="44.459 344.157 40.327 288.9 92.904 284.906 97.036 340.166"/>
        <line x1="94.515" x2="42.847" y1="312.641" y2="316.422" stroke="#FFF" stroke-width="1.08"/>
        <line x1="80.653" x2="41.587" y1="300.034" y2="302.555" stroke="#FFF" stroke-width="1.08"/>
        <line x1="95.776" x2="44.107" y1="326.508" y2="330.29" stroke="#FFF" stroke-width="1.08"/>
        <line x1="80.653" x2="84.434" y1="286.167" y2="339.114" stroke="#FFF" stroke-width="1.08"/>
        <line x1="66.791" x2="70.571" y1="287.428" y2="340.375" stroke="#FFF" stroke-width="1.08"/>
        <line x1="52.929" x2="56.709" y1="288.688" y2="341.635" stroke="#FFF" stroke-width="1.08"/>
        <polyline stroke="#FFF" stroke-width="1.007" points="80.653 403.502 74.79 381.872 47.985 374.412 27.724 394.833 35.017 421.756 62.166 428.62 77.47 413.586"/>
        <path stroke="#FFF" stroke-width="1.007" d="M83.2340899 413.315205C80.5480898 414.044389 77.7789318 412.45571 77.0499142 409.771868 76.3208966 407.085253 77.9036686 404.315462 80.5924407 403.583505 83.2784408 402.857093 86.0475988 404.440227 86.7766164 407.129614 87.505634 409.813456 85.922862 412.583248 83.2340899 413.315205zM82.9040816 376.800165C80.8881921 377.348317 78.8116941 376.157141 78.2662182 374.143737 77.718107 372.130332 78.9065595 370.051045 80.922449 369.502893 82.9357034 368.954741 85.0122013 370.148553 85.5603124 372.159321 86.1084236 374.175361 84.9199711 376.252013 82.9040816 376.800165zM90.330637 464.979271C87.3100426 465.79956 84.1941523 464.017454 83.3740292 460.99336 82.5510183 457.969267 84.3356524 454.855635 87.3591345 454.032457 90.3797288 453.212168 93.4956192 454.997163 94.3157423 458.018369 95.1358654 461.042462 93.3541191 464.158982 90.330637 464.979271zM23.0746972 473.78222C19.7170562 474.692739 16.2576685 472.709402 15.3446982 469.353409 14.4317278 465.994666 16.4144134 462.531391 19.7720544 461.618121 23.1296954 460.707602 26.589083 462.690938 27.5020534 466.046931 28.4150237 469.405675 26.435088 472.86895 23.0746972 473.78222z"/>
        <polyline stroke="#FFF" stroke-width="1.007" points="62.135 427.359 69.311 453.594 49.612 474.003 28.985 468.085"/>
        <polyline stroke="#FFF" stroke-width="1.007" points="34.026 421.056 15.122 440.188 20.484 460.136"/>
        <line x1="83.173" x2="68.051" y1="457.615" y2="453.833" stroke="#FFF" stroke-width="1.007"/>
        <line x1="79.393" x2="74.352" y1="376.934" y2="381.976" stroke="#FFF" stroke-width="1.007"/>
        <line x1="12.602" x2="27.724" y1="389.54" y2="394.583" stroke="#FFF" stroke-width="1.007"/>
        <path stroke="#FFF" stroke-width="1.37" d="M36.4370152,243.784861 C36.4370152,243.784861 63.4529503,239.452445 66.4149247,238.977039 C69.376899,238.501633 72.9130757,239.359061 77.2252783,241.693642 C81.5374809,244.028223 95.2017907,250.024559 108.44824,247.899383 C121.69469,245.774207 144.148275,226.508961 139.176593,195.800024 C134.207753,165.088257 108.411287,163.710147 100.571435,164.966576 C92.7258985,166.223005 87.3335133,170.470527 82.0946278,167.929371 C76.8557422,165.388215 70.783979,161.021841 68.5184381,161.384055 C66.2528973,161.749099 67.984032,169.126375 65.5991025,169.862121 C63.2170157,170.600698 52.5431061,174.270942 49.4645857,175.122711 C46.3832228,175.971649 45.1239573,178.130783 45.7919649,183.363074 C46.45713,188.598195 47.0682859,199.003352 42.017011,199.812674 C36.9628935,200.624825 27.7244898,202.104808 27.7244898,202.104808"/>
        <line x1="142.403" x2="134.842" y1="254.651" y2="245.826" stroke="#FFF" stroke-width="1.37"/>
        <path stroke="#FFF" stroke-width=".783" d="M305.425636,339.697031 C305.425636,339.697031 317.364508,348.064396 319.333394,349.449146 C320.260768,350.096671 320.483338,351.64961 319.167894,353.460437 C317.607052,355.613246 315.024671,354.444338 315.024671,354.444338 C315.024671,354.444338 287.896838,391.784935 285.927952,394.495569 C283.961919,397.206203 279.447747,398.386324 274.827997,395.145897 C270.211101,391.911076 270.296704,387.462497 272.068702,385.029373 C273.834993,382.593446 301.325216,344.753891 301.325216,344.753891 C301.325216,344.753891 299.133759,342.976702 300.9828,340.425846 C302.321073,338.586988 304.45546,339.018671 305.425636,339.697031 Z"/>
        <line x1="306.23" x2="301.189" y1="347.939" y2="344.157" stroke="#FFF" stroke-width=".783"/>
        <line x1="301.164" x2="298.694" y1="350.081" y2="348.318" stroke="#FFF" stroke-width=".783"/>
        <line x1="301.189" x2="296.148" y1="354.242" y2="350.46" stroke="#FFF" stroke-width=".783"/>
        <line x1="297.383" x2="294.913" y1="356.385" y2="354.62" stroke="#FFF" stroke-width=".783"/>
        <line x1="297.408" x2="292.367" y1="360.545" y2="356.763" stroke="#FFF" stroke-width=".783"/>
        <line x1="292.342" x2="289.872" y1="362.687" y2="360.925" stroke="#FFF" stroke-width=".783"/>
        <path stroke="#FFF" stroke-width=".783" d="M286.066327,401.483828 C286.066327,401.483828 314.943503,421.889188 317.806253,423.909214 C320.663329,425.93205 328.286927,424.903775 329.535301,418.304272 C330.783676,411.70477 336.693595,376.732181 336.693595,376.732181 L347.8552,361.240628 C347.8552,361.240628 350.507996,362.159332 352.230186,359.762833 C353.401956,358.138946 352.726699,356.416725 351.867022,355.809875 C351.010183,355.203024 338.986065,346.707112 337.612853,345.735027 C336.682246,345.077605 335.249453,345.417376 334.128753,346.971205 C332.522889,349.201943 334.520288,351.250065 334.520288,351.250065 C334.520288,351.250065 325.058176,364.378833 324.590035,365.025017 C324.124732,365.671201 303.520875,376.779942 303.520875,376.779942"/>
        <line x1="347.816" x2="342.776" y1="361.806" y2="358.024" stroke="#FFF" stroke-width=".783"/>
        <line x1="346.502" x2="344.09" y1="365.188" y2="363.466" stroke="#FFF" stroke-width=".783"/>
        <line x1="342.776" x2="337.735" y1="368.109" y2="364.327" stroke="#FFF" stroke-width=".783"/>
        <line x1="341.461" x2="339.049" y1="371.493" y2="369.768" stroke="#FFF" stroke-width=".783"/>
        <path stroke="#FFF" stroke-width=".783" d="M332.693878,398.684981 C330.782766,400.317171 311.802969,400.753687 297.408163,392.061329"/>
        <polygon stroke="#FFF" stroke-width=".831" points="165.085 274.656 216.755 237.405 208.821 225.656 156.595 262.818 149.964 277.342"/>
        <path stroke="#FFF" stroke-width=".831" d="M156.265306,262.214651 C156.265306,262.214651 163.078533,264.279026 165.086735,273.560477"/>
        <line x1="207.934" x2="200.372" y1="243.305" y2="231.959" stroke="#FFF" stroke-width=".831"/>
        <g transform="translate(741)">
          <path stroke="#FFF" stroke-width="1.212" d="M610.390884,308.052645 C595.871247,322.574632 572.332992,322.574632 557.81618,308.049819 C543.299369,293.527832 543.299369,269.981185 557.81618,255.459198 C572.332992,240.934384 595.871247,240.934384 610.390884,255.459198 C624.910521,269.981185 624.910521,293.527832 610.390884,308.052645 Z"/>
          <path stroke="#FFF" stroke-width="1.212" d="M584.331299 237.449086L584.734694 230.698467C571.510119 230.698467 558.288366 235.744498 548.197858 245.83656 528.022483 266.023507 528.022483 298.74651 548.197858 318.933457 558.288366 329.025519 571.510119 334.07155 584.734694 334.07155L584.610572 327.535416M611.19898 255.911414C599.015461 261.434334 584.349197 291.564266 611.19898 308.858603M565.831633 250.868825C578.702336 262.058554 585.669464 294.782751 566.991873 316.422487"/>
          <line x1="540.628" x2="548.189" y1="326.508" y2="318.944" stroke="#FFF" stroke-width="1.212"/>
          <path stroke="#FFF" stroke-width="1.212" d="M506.602041,317.939234 L548.278943,359.284497 C548.278943,359.284497 554.433414,352.492662 547.154296,345.271957 C550.618659,341.832592 549.578785,338.054055 545.766856,334.269912 C541.954927,330.488572 534.155873,322.752103 531.640961,320.260175 C529.1317,317.765443 523.844732,315.78928 520.292772,319.31554 C517.257922,316.305045 512.146151,312.43681 506.602041,317.939234 Z"/>
          <polygon stroke="#FFF" stroke-width="1.221" points="367.829 277.492 338.995 221.874 394.595 250.717 423.429 306.337"/>
          <path stroke="#FFF" stroke-width="1.221" d="M403.265306,296.578936 L374.626899,325.225344 C374.626899,325.225344 360.199441,326.637135 340.238316,306.672394 C320.27438,286.70484 321.362555,271.948537 321.362555,271.948537 L350.000962,243.30494"/>
          <line x1="341.515" x2="304.969" y1="228.177" y2="264.736" stroke="#FFF" stroke-width="1.221"/>
          <path stroke="#FFF" stroke-width="1.221" d="M304.569218 271.899816C302.355387 274.114031 298.76466 274.114031 296.548129 271.899816 294.334297 269.682901 294.334297 266.091552 296.548129 263.877337 298.76466 261.660422 302.355387 261.660422 304.569218 263.877337 306.78305 266.091552 306.78305 269.682901 304.569218 271.899816zM290.872484 274.821124C290.872484 274.821124 283.033146 276.40477 278.505102 280.918736L288.821393 291.20954C288.821393 291.20954 294.598053 283.791261 294.887755 278.826475"/>
          <polygon stroke="#FFF" stroke-width="1.08" points="464.065 265.997 413.347 215.261 482.349 146.235 533.066 196.971"/>
          <polyline stroke="#FFF" stroke-width="1.08" points="530.987 206.746 533.066 208.811 464.063 277.342 413.347 226.968 415.679 224.651"/>
          <polygon stroke="#FFF" stroke-width="1.08" points="449.267 437.445 395.704 383.864 468.162 311.38 521.724 364.963"/>
          <polygon stroke="#FFF" stroke-width="1.08" points="499.317 371.891 461.235 333.795 469.78 325.247 507.862 363.343"/>
          <polygon stroke="#FFF" stroke-width="1.08" points="449.422 422.317 410.827 383.708 447.843 346.678 486.439 385.287"/>
          <line x1="466.276" x2="429.73" y1="366.848" y2="403.407" stroke="#FFF" stroke-width="1.08"/>
          <line x1="448.633" x2="420.908" y1="365.588" y2="393.322" stroke="#FFF" stroke-width="1.08"/>
          <line x1="476.357" x2="439.811" y1="375.673" y2="412.232" stroke="#FFF" stroke-width="1.08"/>
          <line x1="438.551" x2="476.357" y1="356.763" y2="394.583" stroke="#FFF" stroke-width="1.08"/>
          <line x1="429.73" x2="467.536" y1="365.588" y2="403.407" stroke="#FFF" stroke-width="1.08"/>
          <line x1="419.648" x2="457.454" y1="375.673" y2="413.492" stroke="#FFF" stroke-width="1.08"/>
          <polyline stroke="#FFF" stroke-width="1.185" points="589.91 430.154 573.898 409.71 541.81 413.843 529.286 444.782 549.214 470.221 581.4 465.298 591.036 442.352"/>
          <path stroke="#FFF" stroke-width="1.185" d="M597.439395 439.886827C594.698714 442.033402 590.739298 441.547552 588.593265 438.809122 586.450176 436.067748 586.93296 432.104387 589.670697 429.960757 592.411379 427.814181 596.373738 428.297087 598.516827 431.038461 600.66286 433.779835 600.180076 437.740252 597.439395 439.886827zM581.540152 401.075751C579.348748 402.790282 576.181066 402.404961 574.464368 400.212512 572.747669 398.020063 573.135792 394.847882 575.327195 393.133351 577.518598 391.415833 580.686281 391.804141 582.402979 393.99659 584.119678 396.186052 583.731555 399.358233 581.540152 401.075751zM507.72241 453.620502C504.710548 455.979916 500.35254 455.448058 497.993955 452.435137 495.63537 449.419386 496.164213 445.062674 499.178903 442.70043 502.193593 440.341016 506.548774 440.870045 508.910187 443.888624 511.268771 446.901546 510.7371 451.261087 507.72241 453.620502z"/>
          <polyline stroke="#FFF" stroke-width="1.185" points="581.553 465.179 601.117 490.391 589.312 521.483 564.571 524.429"/>
          <line x1="575.751" x2="573.555" y1="402.147" y2="409.71" stroke="#FFF" stroke-width="1.185"/>
          <line x1="510.383" x2="528.026" y1="447.081" y2="445.457" stroke="#FFF" stroke-width="1.185"/>
          <polyline stroke="#FFF" stroke-width=".729" points="680.654 252.961 665 249.608 651.526 264.575 657.902 284.518 677.387 288.688 690.592 273.302 686.023 258.369"/>
          <path stroke="#FFF" stroke-width=".729" d="M687.99025 254.166309C687.562178 256.209 685.556845 257.51908 683.514163 257.091006 681.468609 256.662931 680.161408 254.657589 680.592353 252.612026 681.020426 250.569335 683.022885 249.259255 685.065567 249.690202 687.111121 250.118277 688.418323 252.123619 687.99025 254.166309zM664.059596 242.061026C663.70159 243.763908 662.03292 244.853631 660.330876 244.498485 658.625798 244.140303 657.536611 242.470811 657.894616 240.767929 658.252622 239.062011 659.921293 237.972288 661.623337 238.33047 663.325381 238.688652 664.417601 240.358144 664.059596 242.061026zM651.429707 296.529222C650.929258 298.911756 648.590902 300.439621 646.208647 299.939114 643.823465 299.438606 642.298705 297.099976 642.799154 294.714516 643.299603 292.329055 645.637959 290.804116 648.020214 291.304624 650.40247 291.805131 651.933083 294.143761 651.429707 296.529222zM680.442735 313.918402C680.08339 315.62081 678.412997 316.71361 676.711723 316.354026 675.007641 315.99725 673.918376 314.328553 674.277721 312.623336 674.634259 310.920928 676.301845 309.828128 678.005926 310.187712 679.707201 310.544487 680.799273 312.215994 680.442735 313.918402zM723.275067 266.771858C722.846785 268.81706 720.8437 270.125564 718.798054 269.697375 716.755067 269.263867 715.448939 267.263877 715.877221 265.218674 716.305504 263.176131 718.308588 261.867627 720.351575 262.295816 722.397221 262.726665 723.70601 264.729315 723.275067 266.771858zM706.87964 312.915802C706.379604 315.299794 704.041668 316.829699 701.655857 316.326826 699.275365 315.829274 697.745998 313.490515 698.248695 311.103862 698.746071 308.719871 701.084007 307.192626 703.469818 307.692839 705.85297 308.193051 707.379676 310.531811 706.87964 312.915802z"/>
          <polyline stroke="#FFF" stroke-width=".729" points="689.332 273.56 708.958 277.536 715.796 296.533 705.029 307.598"/>
          <polyline stroke="#FFF" stroke-width=".729" points="676.73 288.688 682.983 307.085 698.153 310.119"/>
          <line x1="717.056" x2="709.495" y1="268.518" y2="277.342" stroke="#FFF" stroke-width=".729"/>
          <line x1="662.053" x2="663.681" y1="244.566" y2="249.608" stroke="#FFF" stroke-width=".729"/>
          <line x1="649.005" x2="656.566" y1="291.21" y2="283.646" stroke="#FFF" stroke-width=".729"/>
          <line x1="683.031" x2="679.25" y1="306.337" y2="310.119" stroke="#FFF" stroke-width=".729"/>
          <path stroke="#FFF" stroke-width="1.465" d="M705.160021,478.234215 C705.160021,478.234215 704.352968,449.122137 704.262668,445.927703 C704.172369,442.736098 705.572013,439.125736 708.642201,434.904216 C711.712389,430.682696 719.957875,417.107057 719.562814,402.835377 C719.164931,388.560867 701.931809,362.16222 668.777731,363.090275 C635.623653,364.015501 630.564052,391.036624 630.798266,399.488153 C631.032481,407.939681 634.77145,414.22669 631.354173,419.396072 C627.934075,424.565453 622.470946,430.357311 622.540816,432.799115 C622.606396,435.243748 630.645886,434.451506 631.094562,437.071565 C631.540416,439.691623 633.933357,451.464911 634.401786,454.83477 C634.870216,458.207459 636.975326,459.840044 642.602123,459.871168 C648.226097,459.902292 659.307556,460.719999 659.459937,466.163836 C659.609496,471.610502 659.88886,481.567291 659.88886,481.567291"/>
          <line x1="616.24" x2="628.842" y1="365.588" y2="374.412" stroke="#FFF" stroke-width="1.465"/>
          <line x1="628.842" x2="637.663" y1="351.721" y2="361.806" stroke="#FFF" stroke-width="1.465"/>
          <line x1="649.005" x2="655.306" y1="339.114" y2="351.721" stroke="#FFF" stroke-width="1.465"/>
          <line x1="672.609" x2="673.289" y1="336.593" y2="350.46" stroke="#FFF" stroke-width="1.465"/>
          <line x1="695.633" x2="690.592" y1="340.375" y2="352.981" stroke="#FFF" stroke-width="1.465"/>
          <line x1="717.056" x2="709.495" y1="350.46" y2="361.806" stroke="#FFF" stroke-width="1.465"/>
          <path stroke="#FFF" stroke-width="1.465" d="M652.921479,423.336538 C652.445261,418.439721 645.630806,418.484775 646.271432,414.539726 C646.914894,410.594676 642.847197,406.593309 644.267347,403.560606 C645.690333,400.525086 642.110192,393.705022 646.379148,391.528346 C650.648104,389.354486 646.900721,383.283446 653.097227,382.551317 C659.288063,381.819188 657.833897,376.995584 663.854656,376.826631 C669.875414,376.66331 672.579653,372.284615 676.443257,375.731253 C680.304026,379.177892 687.124151,373.937537 688.419578,379.887494 C689.717839,385.840266 695.616709,381.185615 696.098596,385.102505 C696.586153,389.01658 704.432414,393.476936 702.337621,399.333968 C700.239994,405.191001 705.798707,408.589769 701.538255,411.138141 C697.277803,413.68933 703.661395,419.68434 697.714336,422.469247 C691.767278,425.254153 693.643805,431.747575 687.226197,431.175951 C680.805756,430.607143 677.784038,437.049879 673.186264,434.186128 C668.585657,431.319561 663.231036,435.019629 661.04837,431.153424 C658.871372,427.284403 653.715176,431.544831 652.921479,423.336538 Z"/>
          <path stroke="#FFF" stroke-width="1.465" d="M655.306122 412.207189C661.385108 412.511397 663.217208 409.968886 663.682236 405.3332 664.147264 400.697513 664.679526 398.428511 669.870475 396.862816 675.067027 395.294329 680.291593 394.914767 682.796023 390.932151 685.303254 386.946745 689.331633 381.97615 689.331633 381.97615M669.168367 381.97615C670.336788 386.118703 679.387188 389.519172 679.248421 393.321976M660.359659 387.018739C660.018627 391.746254 666.647959 397.103918 666.647959 397.103918M654.045918 397.103918C654.87754 401.032605 658.388514 401.671888 661.607143 404.667802M673.338827 424.83816C671.234367 415.544544 677.804672 405.051478 689.311366 408.694982 700.823833 412.338486 703.193878 400.88586 703.193878 400.88586M665.387755 399.625213C668.663777 400.035447 676.81676 404.110842 676.728887 409.710392M672.94898 417.668639C669.243093 416.499059 663.018318 418.019761 659.086735 421.056218M698.153061 388.279387C692.996389 389.347454 688.032915 393.078861 686.811224 400.88586M686.053923 429.88075C682.681645 424.690337 681.128924 418.860466 686.811224 417.274276"/>
          <path stroke="#FFF" stroke-width=".701" d="M158.810736,428.645184 C150.442737,437.016057 136.878868,437.016057 128.513684,428.645184 C120.1485,420.274311 120.1485,406.705782 128.513684,398.334908 C136.878868,389.969666 150.442737,389.969666 158.810736,398.337724 C167.178734,406.705782 167.178734,420.274311 158.810736,428.645184 Z"/>
          <path stroke="#FFF" stroke-width=".701" d="M144.689378 387.189194L144.923469 383.236797C137.181324 383.236797 129.442033 386.189671 123.538361 392.101131 111.725308 403.912628 111.725308 423.069184 123.538361 434.886392 129.442033 440.794996 137.181324 443.747871 144.923469 443.747871L144.8521 439.921128M160.045918 398.364566C152.94014 401.518292 144.382644 418.737302 160.045918 428.620102M133.581633 394.582624C141.30624 401.03766 145.48266 419.917578 134.277703 432.402044"/>
          <line x1="118.459" x2="123.5" y1="439.966" y2="434.923" stroke="#FFF" stroke-width=".701"/>
          <path stroke="#FFF" stroke-width=".701" d="M99.5561224,433.988427 L123.37242,457.614991 C123.37242,457.614991 126.886803,453.735383 122.730396,449.612088 C124.709505,447.645977 124.114935,445.483254 121.937636,443.323301 C119.757546,441.160579 115.302458,436.740982 113.864883,435.314859 C112.427307,433.891506 109.407003,432.761684 107.380441,434.774871 C105.646976,433.055216 102.724371,430.845418 99.5561224,433.988427 Z"/>
          <polygon stroke="#FFF" stroke-width="1.221" points="233.121 311.38 175.168 286.466 236.941 273.56 294.888 298.471"/>
          <path stroke="#FFF" stroke-width="1.221" d="M272.204082,303.931195 L268.12961,344.951087 C268.12961,344.951087 257.796502,355.35489 229.574712,352.47846 C201.350096,349.602031 192.811224,337.272021 192.811224,337.272021 L196.888522,296.252129"/>
          <line x1="181.469" x2="176.429" y1="289.949" y2="340.375" stroke="#FFF" stroke-width="1.221"/>
          <path stroke="#FFF" stroke-width="1.221" d="M181.440557 347.875455C181.127482 350.991843 178.347597 353.265672 175.230347 352.952413 172.115796 352.639154 169.843307 349.857629 170.156382 346.74124 170.472155 343.624852 173.252041 341.351023 176.366592 341.664282 179.481143 341.977541 181.753631 344.759066 181.440557 347.875455zM171.800529 358.02385C171.800529 358.02385 166.961194 364.14785 166.346939 370.446658 169.420982 370.767617 180.209184 371.890971 180.209184 371.890971 180.209184 371.890971 179.990597 362.580313 177.193246 358.585527"/>
          <polygon stroke="#FFF" stroke-width="1.08" points="214.546 515.605 163.827 464.866 232.83 395.843 283.546 446.582"/>
          <polyline stroke="#FFF" stroke-width="1.08" points="280.206 456.354 282.286 458.42 213.283 526.951 162.566 476.576 164.899 474.259"/>
          <polygon stroke="#FFF" stroke-width="1.08" points="233.341 442.487 215.495 424.635 232.932 407.189 250.781 425.038"/>
          <line x1="255.821" x2="269.684" y1="432.402" y2="446.269" stroke="#FFF" stroke-width="1.08"/>
          <line x1="249.52" x2="263.383" y1="438.705" y2="452.572" stroke="#FFF" stroke-width="1.08"/>
          <line x1="204.153" x2="240.699" y1="437.445" y2="474.003" stroke="#FFF" stroke-width="1.08"/>
          <line x1="197.852" x2="234.398" y1="445.009" y2="481.567" stroke="#FFF" stroke-width="1.08"/>
          <line x1="190.291" x2="226.837" y1="451.312" y2="487.871" stroke="#FFF" stroke-width="1.08"/>
          <polygon stroke="#FFF" stroke-width=".904" points="345.296 453.401 381.672 405.928 446.112 455.526 409.737 502.998"/>
          <polyline stroke="#FFF" stroke-width=".904" points="400.745 502.313 399.264 504.259 335.214 454.662 371.369 407.189 373.533 408.869"/>
          <polygon stroke="#FFF" stroke-width=".904" points="408.306 461.572 421.062 445.009 437.291 457.44 424.538 474.003"/>
          <line x1="409.566" x2="383.102" y1="437.445" y2="471.482" stroke="#FFF" stroke-width=".904"/>
          <line x1="402.005" x2="375.541" y1="432.402" y2="466.44" stroke="#FFF" stroke-width=".904"/>
          <line x1="395.704" x2="369.24" y1="427.359" y2="461.397" stroke="#FFF" stroke-width=".904"/>
          <polygon stroke="#FFF" stroke-width="1.08" points="35.896 354.242 30.245 278.739 131.711 271.039 137.362 346.545"/>
          <polygon stroke="#FFF" stroke-width="1.08" points="115.016 337.853 110.898 283.307 123.159 282.385 127.281 336.931"/>
          <polygon stroke="#FFF" stroke-width="1.08" points="44.459 344.157 40.327 288.9 92.904 284.906 97.036 340.166"/>
          <line x1="94.515" x2="42.847" y1="312.641" y2="316.422" stroke="#FFF" stroke-width="1.08"/>
          <line x1="80.653" x2="41.587" y1="300.034" y2="302.555" stroke="#FFF" stroke-width="1.08"/>
          <line x1="95.776" x2="44.107" y1="326.508" y2="330.29" stroke="#FFF" stroke-width="1.08"/>
          <line x1="80.653" x2="84.434" y1="286.167" y2="339.114" stroke="#FFF" stroke-width="1.08"/>
          <line x1="66.791" x2="70.571" y1="287.428" y2="340.375" stroke="#FFF" stroke-width="1.08"/>
          <line x1="52.929" x2="56.709" y1="288.688" y2="341.635" stroke="#FFF" stroke-width="1.08"/>
          <polyline stroke="#FFF" stroke-width="1.007" points="80.653 403.502 74.79 381.872 47.985 374.412 27.724 394.833 35.017 421.756 62.166 428.62 77.47 413.586"/>
          <path stroke="#FFF" stroke-width="1.007" d="M83.2340899 413.315205C80.5480898 414.044389 77.7789318 412.45571 77.0499142 409.771868 76.3208966 407.085253 77.9036686 404.315462 80.5924407 403.583505 83.2784408 402.857093 86.0475988 404.440227 86.7766164 407.129614 87.505634 409.813456 85.922862 412.583248 83.2340899 413.315205zM82.9040816 376.800165C80.8881921 377.348317 78.8116941 376.157141 78.2662182 374.143737 77.718107 372.130332 78.9065595 370.051045 80.922449 369.502893 82.9357034 368.954741 85.0122013 370.148553 85.5603124 372.159321 86.1084236 374.175361 84.9199711 376.252013 82.9040816 376.800165zM8.41824934 394.382398C5.39854062 395.204937 2.28080708 393.418229 1.45848784 390.397711.64161443 387.374469 2.42239847 384.258624 5.44483011 383.436084 8.46726175 382.616268 11.5795495 384.400253 12.4018687 387.420771 13.2241879 390.444013 11.4379581 393.559858 8.41824934 394.382398zM5.5678315 441.070735C3.21757601 441.711091.793341527 440.319385.155984104 437.971413-.484218663 435.620596.904310006 433.195782 3.25741085 432.558273 5.604821 431.917917 8.02621013 433.303931 8.6664129 435.657595 9.30377032 438.008412 7.918087 440.43038 5.5678315 441.070735zM90.330637 464.979271C87.3100426 465.79956 84.1941523 464.017454 83.3740292 460.99336 82.5510183 457.969267 84.3356524 454.855635 87.3591345 454.032457 90.3797288 453.212168 93.4956192 454.997163 94.3157423 458.018369 95.1358654 461.042462 93.3541191 464.158982 90.330637 464.979271zM23.0746972 473.78222C19.7170562 474.692739 16.2576685 472.709402 15.3446982 469.353409 14.4317278 465.994666 16.4144134 462.531391 19.7720544 461.618121 23.1296954 460.707602 26.589083 462.690938 27.5020534 466.046931 28.4150237 469.405675 26.435088 472.86895 23.0746972 473.78222z"/>
          <polyline stroke="#FFF" stroke-width="1.007" points="62.135 427.359 69.311 453.594 49.612 474.003 28.985 468.085"/>
          <polyline stroke="#FFF" stroke-width="1.007" points="34.026 421.056 15.122 440.188 20.484 460.136"/>
          <line x1="83.173" x2="68.051" y1="457.615" y2="453.833" stroke="#FFF" stroke-width="1.007"/>
          <line x1="79.393" x2="74.352" y1="376.934" y2="381.976" stroke="#FFF" stroke-width="1.007"/>
          <line x1="12.602" x2="27.724" y1="389.54" y2="394.583" stroke="#FFF" stroke-width="1.007"/>
          <line x1="15.122" x2="8.821" y1="440.95" y2="438.981" stroke="#FFF" stroke-width="1.007"/>
          <path stroke="#FFF" stroke-width="1.37" d="M36.4370152,243.784861 C36.4370152,243.784861 63.4529503,239.452445 66.4149247,238.977039 C69.376899,238.501633 72.9130757,239.359061 77.2252783,241.693642 C81.5374809,244.028223 95.2017907,250.024559 108.44824,247.899383 C121.69469,245.774207 144.148275,226.508961 139.176593,195.800024 C134.207753,165.088257 108.411287,163.710147 100.571435,164.966576 C92.7258985,166.223005 87.3335133,170.470527 82.0946278,167.929371 C76.8557422,165.388215 70.783979,161.021841 68.5184381,161.384055 C66.2528973,161.749099 67.984032,169.126375 65.5991025,169.862121 C63.2170157,170.600698 52.5431061,174.270942 49.4645857,175.122711 C46.3832228,175.971649 45.1239573,178.130783 45.7919649,183.363074 C46.45713,188.598195 47.0682859,199.003352 42.017011,199.812674 C36.9628935,200.624825 27.7244898,202.104808 27.7244898,202.104808"/>
          <line x1="142.403" x2="134.842" y1="254.651" y2="245.826" stroke="#FFF" stroke-width="1.37"/>
          <path stroke="#FFF" stroke-width=".783" d="M305.425636,339.697031 C305.425636,339.697031 317.364508,348.064396 319.333394,349.449146 C320.260768,350.096671 320.483338,351.64961 319.167894,353.460437 C317.607052,355.613246 315.024671,354.444338 315.024671,354.444338 C315.024671,354.444338 287.896838,391.784935 285.927952,394.495569 C283.961919,397.206203 279.447747,398.386324 274.827997,395.145897 C270.211101,391.911076 270.296704,387.462497 272.068702,385.029373 C273.834993,382.593446 301.325216,344.753891 301.325216,344.753891 C301.325216,344.753891 299.133759,342.976702 300.9828,340.425846 C302.321073,338.586988 304.45546,339.018671 305.425636,339.697031 Z"/>
          <line x1="306.23" x2="301.189" y1="347.939" y2="344.157" stroke="#FFF" stroke-width=".783"/>
          <line x1="301.164" x2="298.694" y1="350.081" y2="348.318" stroke="#FFF" stroke-width=".783"/>
          <line x1="301.189" x2="296.148" y1="354.242" y2="350.46" stroke="#FFF" stroke-width=".783"/>
          <line x1="297.383" x2="294.913" y1="356.385" y2="354.62" stroke="#FFF" stroke-width=".783"/>
          <line x1="297.408" x2="292.367" y1="360.545" y2="356.763" stroke="#FFF" stroke-width=".783"/>
          <line x1="292.342" x2="289.872" y1="362.687" y2="360.925" stroke="#FFF" stroke-width=".783"/>
          <path stroke="#FFF" stroke-width=".783" d="M286.066327,401.483828 C286.066327,401.483828 314.943503,421.889188 317.806253,423.909214 C320.663329,425.93205 328.286927,424.903775 329.535301,418.304272 C330.783676,411.70477 336.693595,376.732181 336.693595,376.732181 L347.8552,361.240628 C347.8552,361.240628 350.507996,362.159332 352.230186,359.762833 C353.401956,358.138946 352.726699,356.416725 351.867022,355.809875 C351.010183,355.203024 338.986065,346.707112 337.612853,345.735027 C336.682246,345.077605 335.249453,345.417376 334.128753,346.971205 C332.522889,349.201943 334.520288,351.250065 334.520288,351.250065 C334.520288,351.250065 325.058176,364.378833 324.590035,365.025017 C324.124732,365.671201 303.520875,376.779942 303.520875,376.779942"/>
          <line x1="347.816" x2="342.776" y1="361.806" y2="358.024" stroke="#FFF" stroke-width=".783"/>
          <line x1="346.502" x2="344.09" y1="365.188" y2="363.466" stroke="#FFF" stroke-width=".783"/>
          <line x1="342.776" x2="337.735" y1="368.109" y2="364.327" stroke="#FFF" stroke-width=".783"/>
          <line x1="341.461" x2="339.049" y1="371.493" y2="369.768" stroke="#FFF" stroke-width=".783"/>
          <path stroke="#FFF" stroke-width=".783" d="M332.693878,398.684981 C330.782766,400.317171 311.802969,400.753687 297.408163,392.061329"/>
          <polygon stroke="#FFF" stroke-width=".831" points="165.085 274.656 216.755 237.405 208.821 225.656 156.595 262.818 149.964 277.342"/>
          <path stroke="#FFF" stroke-width=".831" d="M156.265306,262.214651 C156.265306,262.214651 163.078533,264.279026 165.086735,273.560477"/>
          <line x1="207.934" x2="200.372" y1="243.305" y2="231.959" stroke="#FFF" stroke-width=".831"/>
        </g>
      </g>
    </g>
  </g>
</svg>
