<svg xmlns="http://www.w3.org/2000/svg" viewBox="0 0 133 60">
  <path fill="#FFF" d="M40.7218597,38.1658941 L40.7218597,43.3526486 C40.7218597,45.542778 41.7790238,46.6729464 43.8960556,46.7458575 L44.1188397,46.7496287 L44.5827445,46.7496287 C45.7739322,46.7496287 46.6329043,46.4802646 47.1566677,45.9445295 C47.6430195,45.4470611 47.9048554,44.6553995 47.9397791,43.571941 L47.9438094,43.3167334 L47.9438094,38.1658941 L52.4122598,38.1658941 L52.4122598,43.6369774 C52.4122598,46.0911832 51.768779,47.9707458 50.4818174,49.2696791 C49.2592038,50.5036658 47.5530893,51.1515088 45.3609077,51.2132081 L45.0107341,51.2180791 L43.4753589,51.2180791 C42.3560016,51.2180791 41.4132274,50.8948423 40.6500293,50.2513614 C40.434538,52.8522211 39.665354,54.8844232 38.3424772,56.3509609 C37.0930935,57.7360242 35.283089,58.7980631 32.9175062,59.5345564 L32.4942842,59.6611459 L31.0277465,55.4051938 C32.9851253,54.9053738 34.3439174,54.1780908 35.1071155,53.2233449 C35.8250871,52.324467 36.2066862,50.8382721 36.2468702,48.7672814 L36.2504163,48.3957424 L36.2504163,38.1658941 L40.7218597,38.1658941 Z M48.1952158,53.399928 L48.1952158,57.9072866 L43.651942,57.9072866 L43.651942,53.399928 L48.1952158,53.399928 Z M54.4175255,53.399928 L54.4175255,57.9072866 L49.8742518,57.9072866 L49.8742518,53.399928 L54.4175255,53.399928 Z M122.770152,53.399928 L122.770152,57.9072866 L118.226878,57.9072866 L118.226878,53.399928 L122.770152,53.399928 Z M63.5729106,36.4120347 L67.7570323,34.5534227 L72.2284756,44.4600342 C72.6085782,45.3429497 73.0515325,45.9445295 73.5513524,46.2677663 C74.0011904,46.5559859 74.6255763,46.7157188 75.4245101,46.7447831 L75.6972861,46.7496287 L118.229871,46.7496287 C119.860085,46.7496287 121.208834,46.3418999 122.276119,45.5239762 L123.70694,44.3612674 C124.269612,43.9063414 124.754467,43.5980692 125.161506,43.4304649 C124.705083,43.230936 124.288151,42.9648974 123.914173,42.6340812 L123.694968,42.427832 L122.449908,41.203722 C121.543049,40.34475 120.552388,39.9167604 119.480917,39.9167604 C118.500432,39.9167604 117.522554,40.3313017 116.542417,41.1628177 L116.332351,41.3473829 L114.222332,38.1629011 C115.700842,36.3521761 117.607341,35.4453171 119.944822,35.4453171 C121.841511,35.4424904 123.500603,36.0590163 124.919578,37.2974162 L125.167492,37.5224132 L127.687542,39.8988028 C128.598192,40.7340309 129.657451,41.1781823 130.86532,41.2288237 L131.126423,41.2336514 L131.94948,41.2336514 L131.94948,45.8846708 L131.090508,45.8846708 C129.792035,45.8846708 128.687377,46.1830433 127.776533,46.7821423 L127.55286,46.9381835 L124.975944,48.9404564 C124.00324,49.7126333 122.976664,50.2812908 121.893222,50.6554075 C120.900067,50.9983479 119.662967,51.1828498 118.177311,51.2112186 L117.765966,51.2150862 L74.7335614,51.2150862 C72.6564652,51.2150862 71.1210901,50.5117467 70.1214501,49.1050677 C69.3500894,50.4478068 67.9787815,51.1496931 66.0127325,51.2107266 L65.727823,51.2150862 L60.4333228,51.2150862 C59.0266439,51.2150862 57.8474279,51.0175525 56.8926819,50.6254782 C56.0361042,50.2726113 55.2158907,49.7015595 54.4342231,48.9123228 L54.1750979,48.641163 L57.1440884,45.2082677 C57.8849276,46.1744572 58.9730714,46.6846437 60.411015,46.7413224 L60.6847293,46.7466358 L65.0125118,46.7466358 C66.4670777,46.7466358 67.1943607,46.1869571 67.1943607,45.0646069 C67.1943607,44.5070233 67.0101157,43.8039831 66.6438075,42.9554863 L66.5149647,42.6672668 L63.5729106,36.4120347 Z M38.3562819,8.01507719 C41.2889957,8.01507719 43.5124715,8.64658626 45.029702,9.90960439 C46.4779675,11.1152126 47.2363787,12.8035056 47.3023329,14.9718804 L47.307044,15.2849138 L47.307044,22.210563 C47.307044,22.7971781 47.4028061,23.2251676 47.5943303,23.4915388 C47.7858544,23.7579099 48.1629176,23.8925919 48.7225273,23.8925919 C49.1265236,23.8925919 49.4598621,23.8572587 49.7225428,23.7865922 L49.8716723,23.7399523 L49.8776574,23.7399523 L49.8776574,27.5260138 C48.9828805,27.7804132 48.0013191,27.9091093 46.9299808,27.9091093 C44.2785682,27.9091093 42.6955013,26.8645754 42.1867652,24.7725145 C40.5528247,26.8645754 38.2964306,27.9091093 35.4145905,27.9091093 C33.4484753,27.9091093 31.8803712,27.3853459 30.7072857,26.3408119 C29.5342002,25.296278 28.9476574,23.9704082 28.9476574,22.3632027 C28.9476574,20.1963185 29.7765979,18.5831271 31.434479,17.5236284 C33.0893674,16.4641298 35.3607243,15.9343805 38.2425645,15.9343805 L38.4727391,15.9359999 L38.4727391,15.9359999 L38.9763975,15.9489243 L38.9763975,15.9489243 L39.5376628,15.9746933 L39.5376628,15.9746933 L40.1563687,16.0132239 L40.1563687,16.0132239 L40.832349,16.0644328 L40.832349,16.0644328 L41.9533451,16.1648364 L41.9533451,14.9018183 C41.9533451,12.9893335 40.5109288,12.0315946 37.6290886,12.0315946 C35.4868111,12.0315946 33.3549609,12.4669933 31.2359713,13.332924 L30.7820998,13.5250686 L29.8633823,9.62228273 C32.3113005,8.55081237 35.1422671,8.01507719 38.3562819,8.01507719 Z M85.900198,8.47000315 C89.0038706,8.47000315 91.2814933,9.33496107 92.7330663,11.058891 C94.1120606,12.6966245 94.8373832,14.7665376 94.906468,17.2686305 L94.9112833,17.7369931 L94.9112833,17.7369931 L94.8802151,18.4426117 L94.8802151,18.4426117 L94.8011837,19.6396327 L81.3958324,19.6396327 C81.641253,21.079234 82.2458256,22.1896125 83.2005716,22.9707683 C84.1553175,23.751924 85.4273145,24.1439984 87.0165624,24.1439984 C89.103236,24.1439984 91.0465147,23.7451001 92.8512655,22.9448703 L93.2358792,22.7672488 L94.0918583,26.2300734 C92.0806067,27.2985508 89.5485845,27.831293 86.4957919,27.831293 C83.044939,27.831293 80.4201359,26.9693281 78.6213826,25.2424051 C76.8226293,23.5184752 75.9217562,21.1540573 75.9217562,18.1491516 C75.9217562,15.2220622 76.8226293,12.875602 78.6213826,11.1127639 C80.4201359,9.34992574 82.8474054,8.47000315 85.900198,8.47000315 Z M107.979072,8.47000315 C111.082744,8.47000315 113.360367,9.33496107 114.81194,11.058891 C116.190935,12.6966245 116.916257,14.7665376 116.985342,17.2686305 L116.990157,17.7369931 L116.990157,17.7369931 L116.959089,18.4426117 L116.959089,18.4426117 L116.880058,19.6396327 L103.474706,19.6396327 C103.720127,21.079234 104.3247,22.1896125 105.279446,22.9707683 C106.234191,23.751924 107.506188,24.1439984 109.095436,24.1439984 C111.18211,24.1439984 113.125389,23.7451001 114.930139,22.9448703 L115.314753,22.7672488 L116.170732,26.2300734 C114.159481,27.2985508 111.627458,27.831293 108.574666,27.831293 C105.123813,27.831293 102.49901,26.9693281 100.700257,25.2424051 C98.9015032,23.5184752 98.0006301,21.1540573 98.0006301,18.1491516 C98.0006301,15.2220622 98.9015032,12.875602 100.700257,11.1127639 C102.49901,9.34992574 104.926279,8.47000315 107.979072,8.47000315 Z M71.938161,0.275349926 L71.938161,27.4571763 L67.2093254,27.4571763 L66.72447,24.7395922 C65.2579324,26.8017237 63.2855889,27.831293 60.8044466,27.831293 C58.2454881,27.831293 56.2252577,26.9573563 54.7347765,25.2064899 C53.2442954,23.4556236 52.4990549,21.1031775 52.4990549,18.1491516 C52.4990549,15.1951258 53.2442954,12.8426797 54.7347765,11.0918133 C56.2252577,9.34094694 58.248481,8.46701022 60.8044466,8.46701022 C63.2122022,8.46701022 65.1262242,9.41861956 66.5491605,11.3165423 L66.72447,11.558711 L66.72447,0.909851929 L71.938161,0.275349926 Z M132.515145,8.46701022 L133,13.6807012 C131.509519,13.6807012 130.156713,13.8931995 128.941582,14.3152032 C127.836917,14.6988429 126.967235,15.1838961 126.332535,15.7726114 L126.149174,15.9523381 L126.149174,27.4571763 L120.935483,27.4571763 L120.935483,8.83813403 L125.664319,8.83813403 L126.074351,13.0461992 C126.744768,11.6305414 127.65462,10.5141771 128.809892,9.69411315 C129.876298,8.93989378 131.009008,8.53250057 132.212732,8.47428753 L132.515145,8.46701022 Z M25.3471578,0.00299293398 L25.3471578,14.7401998 C25.3471578,21.527102 19.90748,27.0680769 13.1592816,27.2319672 L12.8516585,27.2356992 L8.36525046,27.2356992 L8.36525046,22.1985913 L12.8516585,22.1985913 C16.8833166,22.1985913 20.1785358,18.9824243 20.30621,14.9811961 L20.31005,14.7401998 L20.31005,5.04010081 L11.923849,5.04010081 L11.923849,0.00299293398 L25.3471578,0.00299293398 Z M62.555313,12.3787749 C61.013952,12.3787749 59.8437148,12.9085242 59.0356227,13.962037 C58.2275305,15.0185427 57.8234844,16.4132499 57.8264445,18.1491516 C57.8264445,19.8880463 58.2275305,21.2857464 59.0356227,22.3392592 C59.8437148,23.3957649 61.013952,23.9225213 62.555313,23.9225213 C64.0736108,23.9225213 65.3851166,23.360471 66.4848398,22.2388658 L66.6885548,22.0220082 L66.6885548,14.2403799 C65.5213106,12.9983123 64.144561,12.3787749 62.555313,12.3787749 Z M38.6226202,19.1906927 C35.8425273,19.1906927 34.4539771,19.9808272 34.4539771,21.5610964 C34.4539771,22.3272875 34.7292931,22.9079166 35.2769325,23.3029839 C35.8245719,23.6980512 36.5577503,23.8955849 37.4764678,23.8955849 C39.0368264,23.8955849 40.4513881,23.3308835 41.717658,22.2014807 L41.9533451,21.9831 L41.9503526,21.9831 L41.9503526,19.4600567 C40.9807615,19.2804807 39.8705199,19.1906927 38.6226202,19.1906927 Z M85.7894595,12.1183897 C83.4115252,12.1183897 81.9613692,13.4077494 81.4444168,15.9891813 L81.3958324,16.2516315 L89.6982312,16.2516315 C89.6503443,13.4951393 88.3454251,12.1183897 85.7894595,12.1183897 Z M107.868333,12.1183897 C105.490399,12.1183897 104.040243,13.4077494 103.523291,15.9891813 L103.474706,16.2516315 L111.777105,16.2516315 C111.729218,13.4951393 110.424299,12.1183897 107.868333,12.1183897 Z M8.3682434,0 L8.3682434,5.03710788 L0,5.03710788 L0,0 L8.3682434,0 Z"/>
</svg>
