<svg xmlns="http://www.w3.org/2000/svg" xmlns:xlink="http://www.w3.org/1999/xlink" width="320" height="231" viewBox="0 0 320 231"><defs><style>.a{fill:none;}.b{fill:#ffe03d;}.c,.d,.e{fill:#fff;}.c,.e{opacity:0.7;}.e,.i,.j{isolation:isolate;}.f,.i,.j{fill:#263238;}.g{clip-path:url(#a);}.h{clip-path:url(#b);}.i,.j{font-size:8px;font-family:Montserrat-Light, Montserrat;font-weight:300;}.j{letter-spacing:-0.131em;}.k{letter-spacing:-0.065em;}</style><clipPath id="a"><path class="a" d="M1.569,46C-1.141,44.38.482,36.32.482,33.341s0-23.176,1.623-25.073S7.792,1.8,7.792,1.8,18.385-.684,20.26.184a8.288,8.288,0,0,1,4.593,6.2c.268,2.948-.812,35.3-2.434,37.994-1.013,1.685-7.838,2.525-13.479,2.525C5.55,46.905,2.586,46.6,1.569,46ZM8,2.158c-.581.655-4.126,4.663-5.6,6.377C1.454,9.632.865,19.139.865,33.356c0,.716-.092,1.691-.191,2.826-.307,3.337-.765,8.38,1.095,9.5,1.186.709,5.748,1.036,10.609.762,5.182-.3,9.086-1.2,9.713-2.239,1.531-2.575,2.648-34.84,2.38-37.766A7.916,7.916,0,0,0,20.085.55,3.149,3.149,0,0,0,18.874.387,63.224,63.224,0,0,0,8,2.158Z" transform="translate(0 0)"/></clipPath><clipPath id="b"><path class="a" d="M9.537,28.311,0,1.646,3.291,0,14.13,17.6a3.066,3.066,0,0,0,3.307,1.524l15-4.224.113.415-15.01,4.228a3.465,3.465,0,0,1-3.743-1.737L3.145.518.475,1.86,9.9,28.136a4.036,4.036,0,0,0,4.447,2.491l24.89-5.917.262.379L14.413,31.046a4.422,4.422,0,0,1-4.876-2.735Z"/></clipPath></defs><g transform="translate(-41.568 -104.999)"><g transform="translate(54.251 104.999)"><path class="b" d="M332.55,333.561c3.062,0,9.805-26.193,10.578-28.951a229.283,229.283,0,0,0,8.3-75.341c-1.875-31.5-5.358-65.772-23.452-90.122C291.317,89.755,223.118,95.979,188.452,144.7c-10.249,14.392-20.965,29.149-34.742,38.657-15.653,10.849-34.076,9.379-50.877,16.1-25.527,10.209-45.351,45.781-44.678,78.861C58.7,305.105,75.377,332.2,98.3,334.163,120.269,336.037,332.458,333.561,332.55,333.561Z" transform="translate(-58.138 -104.999)"/><path class="c" d="M332.55,333.561c3.062,0,9.805-26.193,10.578-28.951a229.283,229.283,0,0,0,8.3-75.341c-1.875-31.5-5.358-65.772-23.452-90.122C291.317,89.755,223.118,95.979,188.452,144.7c-10.249,14.392-20.965,29.149-34.742,38.657-15.653,10.849-34.076,9.379-50.877,16.1-25.527,10.209-45.351,45.781-44.678,78.861C58.7,305.105,75.377,332.2,98.3,334.163,120.269,336.037,332.458,333.561,332.55,333.561Z" transform="translate(-58.138 -104.999)"/><path class="d" d="M351.755,134.6c-3.062-1.646-4.409-.274-5.511-1.646s3.062-4.937-5.235-8.51c0,0-.551-7.68-11.856-7.954s-8.267,7.68-11.3,9.6-3.827-1.1-6.889.83-1.653,5.76-4.133,6.308-5.794-2.468-8.825-.549-3.062,3.566-4.409,3.566-4.133-1.1-5.787,0-3.582,2.468-3.582,2.468h69.73S354.786,136.243,351.755,134.6Z" transform="translate(-111.175 -107.733)"/><path class="b" d="M187.653,138.743c-1.906-1.036-2.778-.175-3.467-1.036s1.906-3.1-3.3-5.333c0,0-.344-4.83-7.448-5.005s-5.2,4.83-7.111,6.042-2.426-.693-4.332.518-1.041,3.626-2.6,3.969-3.636-1.524-5.542-.343-1.914,2.24-2.778,2.24-2.6-.693-3.636,0l-2.258,1.524h43.859A2.21,2.21,0,0,0,187.653,138.743Z" transform="translate(-78.557 -110.325)"/><path class="b" d="M187.653,138.743c-1.906-1.036-2.778-.175-3.467-1.036s1.906-3.1-3.3-5.333c0,0-.344-4.83-7.448-5.005s-5.2,4.83-7.111,6.042-2.426-.693-4.332.518-1.041,3.626-2.6,3.969-3.636-1.524-5.542-.343-1.914,2.24-2.778,2.24-2.6-.693-3.636,0l-2.258,1.524h43.859A2.21,2.21,0,0,0,187.653,138.743Z" transform="translate(-78.557 -110.325)"/><path class="e" d="M187.653,138.743c-1.906-1.036-2.778-.175-3.467-1.036s1.906-3.1-3.3-5.333c0,0-.344-4.83-7.448-5.005s-5.2,4.83-7.111,6.042-2.426-.693-4.332.518-1.041,3.626-2.6,3.969-3.636-1.524-5.542-.343-1.914,2.24-2.778,2.24-2.6-.693-3.636,0l-2.258,1.524h43.859A2.21,2.21,0,0,0,187.653,138.743Z" transform="translate(-78.557 -110.325)"/></g><g transform="translate(59.503 331.131)"><rect class="f" width="302.065" height="4.868"/></g><g transform="translate(41.568 127.01)"><g transform="translate(0 0)"><path class="f" d="M432.077,266.174c-1.531-13.287-6.537-12.708-8.1-25.995s3.406-13.866,1.845-27.153-6.537-12.708-8.106-26,3.414-13.866,1.845-27.153-6.537-12.708-8.1-25.987l-.765,2.689c-1.531,10.666-5.909,11.215-6.973,23.618-1.148,13.333,3.827,13.759,2.694,27.1s-6.123,12.914-7.287,26.254,3.827,13.759,2.694,27.1-6.123,12.952-7.279,26.254a32.342,32.342,0,0,0,1.163,12.891c1.033,2.385,5.4,11.207,14.191,13.767a14.408,14.408,0,0,0,1.7.381V338.5h2.013V294.1c8.083.053,13.456-7.878,17.536-14.514l.054-.084A32.666,32.666,0,0,0,432.077,266.174Zm-9.093-5.257L413,279.369v13.881h-.857V279.384l-11.122-18.178a.444.444,0,1,1,.765-.449l10.387,16.967V225.4a.444.444,0,0,1-.2-.137l-8.887-11.428a.428.428,0,0,1,.077-.6.432.432,0,0,1,.6.076l8.42,10.8v-49.75l-5.978-11.9a.428.428,0,0,1,.765-.381l5.2,10.369V155.1a.429.429,0,0,1,.857,0h0v16.868l3.475-8.746a.431.431,0,0,1,.8.312h0l-4.279,10.773v49.209l8.136-9.607a.431.431,0,0,1,.6-.053.426.426,0,0,1,.054.6l-8.795,10.392v52.714l9.231-17.058a.43.43,0,0,1,.582-.168.418.418,0,0,1,.138.579Z" transform="translate(-124.324 -133.89)"/><path class="f" d="M436.35,397.548l-2.388-.762c-1.232-.373-1.638-1.486-2.863-3.71s-4.5,1.112-6.958,1.112.406-2.6-.819-4.823-4.5.373-7.363-.373,1.225-7.421-2.863-7.047c-.765.069-1.324.67-1.753,1.6-.39-.93-.9-1.524-1.592-1.6-3.728-.373,0,6.308-2.61,7.047s-5.587-1.851-6.705.373,1.485,4.823-.765,4.823-5.22-3.337-6.338-1.112-1.493,3.337-2.61,3.71l-2.174.762Z" transform="translate(-122.964 -192.956)"/><path class="f" d="M143.7,242.522v-.038h-.046v-.038h0c-1.064-.107-12.078-1.044-22.128,4.152a26.715,26.715,0,0,0,5.687-19.679c-2.419-24.151-25.32-37.979-27.08-39.008v-.061h-.107v.114c-1.768,1.029-24.662,14.856-27.088,39.008a26.767,26.767,0,0,0,2.1,13.714c-12.89-7.672-27.922-6.377-29.308-6.247h-.153v.046c-.681,1.524-9.285,22.155,1.049,39.617,9.246,15.641,28.634,11.512,33.9,10.041,4.424,4.625,12.492,15.146,16.074,33.119H91.574L94,351.286h11.3l2.426-33.979h-5.917a103.707,103.707,0,0,1,14.436-34.223c5.266,1.31,19.541,3.52,26.575-8.381C151.208,260.494,144.22,243.794,143.7,242.522Zm-43.981-.13-11.941-16.51a.319.319,0,0,1,.069-.449h0a.33.33,0,0,1,.459.069L99.7,241.3V224.587h0l-11.941-16.5a.327.327,0,0,1,.069-.457.338.338,0,0,1,.459.076l11.428,15.809v-24.38a.337.337,0,0,1,.375-.274.321.321,0,0,1,.276.274v23.534l12.4-15.656a.33.33,0,0,1,.452-.061h0a.327.327,0,0,1,.054.45l-12.92,16.373v16.761l12.4-15.656a.324.324,0,0,1,.513.4h0l-12.913,16.3v14.14l12.4-15.649a.33.33,0,0,1,.452-.061h0a.327.327,0,0,1,.054.449l-12.9,16.3v.312H99.305l-11.55-16a.327.327,0,0,1,.069-.457.338.338,0,0,1,.459.076L99.7,256.533V242.362Zm-19.005,40.3-1.171-1.6L62.7,276.425a.274.274,0,0,1,.145-.526l16.173,4.48L72,270.825l-16.8-4.663a.274.274,0,0,1-.191-.335.268.268,0,0,1,.329-.183h0l16.143,4.48-8.3-11.306-16.839-4.663a.251.251,0,0,1-.184-.312h0a.268.268,0,0,1,.329-.19h0l16.143,4.48L51,242.24a.273.273,0,0,1,.061-.381.269.269,0,0,1,.367.046h0l12.078,16.441-.115-16.289a.266.266,0,0,1,.047-.205.276.276,0,0,1,.5.114.182.182,0,0,1,0,.091l.161,17h0l8.289,11.3-.115-16.3a.267.267,0,0,1,.23-.312.268.268,0,0,1,.314.221.182.182,0,0,1,0,.091l.122,17.02h0l6.889,9.523-.122-16.3a.283.283,0,0,1,.276-.267.267.267,0,0,1,.268.267h0l.122,17.013h0l1,1.364Zm1.914,0c2.449-3.71,9.522-15.893,5.3-27.618A53.353,53.353,0,0,0,98.4,260.4v52.9c-3.881-16.213-11.19-25.9-15.638-30.62ZM101,310.046v-49.4a53.144,53.144,0,0,0,10.019-4.876c-6.743,10.758.765,23.184,2.8,26.117A103.255,103.255,0,0,0,101,310.046Zm42.037-51.571L129.4,262.285l-6.736,9.142,13.1-3.642a.222.222,0,0,1,.122.427l-13.64,3.809-5.687,7.748,13.1-3.634a.222.222,0,0,1,.268.152.228.228,0,0,1-.153.274l-13.632,3.809-.719.975c-.13-.076-.26-.145-.375-.229l.406-.556h0l.1-13.805a.229.229,0,0,1,.222-.221.221.221,0,0,1,.222.221h0l-.092,13.218,5.687-7.741h0l.1-13.805a.221.221,0,0,1,.222-.221h0a.229.229,0,0,1,.222.221l-.1,13.226,6.728-9.142h0l.1-13.813a.222.222,0,0,1,.436,0h0l-.138,13.165,9.8-13.34a.223.223,0,0,1,.306-.046.213.213,0,0,1,.054.3h0l-9.468,12.9,13.089-3.619a.222.222,0,0,1,.268.152.206.206,0,0,1-.13.259Z" transform="translate(-41.568 -146.739)"/></g></g><g transform="translate(119.955 136.407)"><path class="d" d="M342.219,194.78l-2.028-6.049-4.271-5.821L333.47,189.7l5.6,7.322Z" transform="translate(-188.43 -154.96)"/><path class="f" d="M338.857,197.293l-5.947-7.779,2.756-7.664,4.761,6.514,2.113,6.316Zm-5.113-7.908L339,196.242l2.618-1.859-1.921-5.722-3.827-5.2Z" transform="translate(-188.299 -154.708)"/><path class="b" d="M374.166,217.293l-17.023.594a3.294,3.294,0,0,1-3.062-1.79L343.932,198.49s-2.924,1.569-3.154,2.24,6.782,17.6,9.79,25.142a3.284,3.284,0,0,0,3.215,2.065l19.036-.762" transform="translate(-190.143 -158.67)"/><path class="f" d="M353.533,228.182A3.682,3.682,0,0,1,350.1,225.9c-.612-1.524-1.385-3.459-2.235-5.554-6.636-16.479-7.708-19.412-7.562-19.854.245-.762,2.411-1.958,3.33-2.453l.329-.175L354.3,215.787a2.941,2.941,0,0,0,2.717,1.6l17.023-.594v.762l-17.023.594a3.723,3.723,0,0,1-3.421-2l-9.95-17.264a11.039,11.039,0,0,0-2.618,1.806c.207,1.2,4.593,12.106,7.524,19.367.842,2.1,1.623,4.023,2.235,5.554a2.9,2.9,0,0,0,2.84,1.828l19.036-.762v.762l-19.036.762Z" transform="translate(-190.031 -158.52)"/><path class="f" d="M0,0,2.884,0V.577L0,.573Z" transform="translate(152.271 43.808) rotate(-22.52)"/><rect class="b" width="160.968" height="121.115" transform="translate(0.383 72.634)"/><path class="f" d="M305.33,362.9H144.363a.382.382,0,0,1-.383-.381V241.381a.382.382,0,0,1,.383-.381H305.33a.4.4,0,0,1,.383.381V362.518A.382.382,0,0,1,305.33,362.9Zm-160.57-.762h160.2V241.762h-160.2Z" transform="translate(-143.979 -168.793)"/><path class="b" d="M144.48,218.974l71.383-69.391a12.206,12.206,0,0,1,15.576-.122l74.008,69.513Z" transform="translate(-144.097 -146.341)"/><path class="f" d="M305.331,219.239H144.363a.375.375,0,0,1-.352-.236.387.387,0,0,1,.084-.419L215.478,149.2a12.59,12.59,0,0,1,16.074-.152l74.024,69.536a.372.372,0,0,1,.092.419A.382.382,0,0,1,305.331,219.239ZM145.3,218.477H304.367l-73.3-68.858a11.8,11.8,0,0,0-15.063.145Z" transform="translate(-143.98 -146.224)"/><rect class="d" width="134.27" height="112.787" transform="translate(13.732 14.823)"/><path class="f" d="M296.073,278.729H161.8a.382.382,0,0,1-.383-.381V165.591a.382.382,0,0,1,.383-.381h134.27a.382.382,0,0,1,.383.381V278.348A.382.382,0,0,1,296.073,278.729Zm-133.887-.762h133.5V165.972h-133.5Z" transform="translate(-148.07 -150.745)"/><path class="b" d="M292.028,273.748H169.561a.29.29,0,0,1-.291-.29h0V174.972a.29.29,0,0,1,.291-.282H292.028a.3.3,0,0,1,.283.282v98.487A.29.29,0,0,1,292.028,273.748Zm-122.2-.541H291.737V175.261H169.829Z" transform="translate(-149.912 -153.003)"/><path class="b" d="M289.16,271.91H174.485a.764.764,0,0,1-.765-.762V178.962a.764.764,0,0,1,.765-.762H289.16a.764.764,0,0,1,.765.762v92.186A.764.764,0,0,1,289.16,271.91Zm-113.91-1.524H288.4V179.724H175.251Z" transform="translate(-150.956 -153.838)"/><path class="b" d="M237.6,221.458c.566.891,1.156,1.341,1.768,1.341v.069c-.4,0-.918.35-1.531,1.051,0,.19-.069.282-.214.282,0-.358-.23-.663-.7-.914a3.012,3.012,0,0,0-1.485-.282H219.659l-1.485.564-.214.213h-.115a1.086,1.086,0,0,1-.321-1.524,1.069,1.069,0,0,1,.321-.32h.138a3.521,3.521,0,0,0,1.531.632l.145.145h16.25C237.034,222.517,237.6,222.128,237.6,221.458Zm2.549-.488c.62,0,1.118.442,1.477,1.333v.145h-.207c-1-.32-1.485-.693-1.485-1.128v-.145Zm1.194,2.286h.145l.138.145c0,.389-.4.83-1.2,1.333h-.069c-.245,0-.39-.069-.421-.206v-.282a2.411,2.411,0,0,1,1.408-.968Zm2.687-2.286.145.206v.145c0,.328-.429.7-1.271,1.128h-.429V222.3c0-.389.375-.808,1.133-1.265Zm-1.408,2.286a1.619,1.619,0,0,1,.918.358c.421.244.635.5.635.762v.145c-.046.137-.191.206-.429.206h-.069a2.621,2.621,0,0,1-1.056-.983l-.145-.213v-.137Zm3.881-1.828c0,.67.566,1.089,1.7,1.272h16.25a1.82,1.82,0,0,1,1.056-.358l.635-.419h.145a1.094,1.094,0,0,1,0,1.828h-.145a5,5,0,0,0-1.837-.762H248.691c-1.148,0-1.883.335-2.189.99v.206c-.589-.762-1.079-1.2-1.485-1.2q0-.137-.276-.137c0-.091.161-.137.49-.137a2.29,2.29,0,0,0,1.2-1.272Z" transform="translate(-161.188 -164.023)"/><path class="b" d="M144.48,242.47l80.484,60.553L305.44,242.47V363.577H144.48Z" transform="translate(-144.097 -169.143)"/><path class="f" d="M305.33,363.82H144.363a.382.382,0,0,1-.383-.381V242.3a.413.413,0,0,1,.612-.335l80.254,60.378,80.247-60.371a.383.383,0,0,1,.62.3V363.409a.38.38,0,0,1-.084.281.384.384,0,0,1-.26.138Zm-160.585-.762h160.2V243.094l-79.871,60.1a.392.392,0,0,1-.459,0l-79.856-60.1Z" transform="translate(-143.979 -169.006)"/><path class="b" d="M144.48,379.872,213.773,310.9h22.373l69.293,68.972Z" transform="translate(-144.097 -185.438)"/><path class="f" d="M305.33,380.134H144.362a.39.39,0,0,1-.352-.229.372.372,0,0,1,.084-.419l69.293-68.972a.36.36,0,0,1,.268-.114h22.373a.36.36,0,0,1,.268.114l69.3,68.972a.4.4,0,0,1,.084.419.39.39,0,0,1-.352.229Zm-160.041-.762H304.4l-68.559-68.21H213.817Z" transform="translate(-143.979 -185.319)"/><path class="d" d="M378.432,210.186l-.222,6.423,7.692-1.219.268-11.2Z" transform="translate(-198.925 -160.027)"/><path class="f" d="M377.69,216.81l.237-7.063,8.527-6.6-.3,12.319Zm1-6.682-.2,5.783,6.889-1.1.237-10.08Z" transform="translate(-198.803 -159.78)"/><path class="d" d="M364.908,397.693a10.759,10.759,0,0,1-.39-1.371l-.436-3.223-5.664-.9-4.723,3.345-3,1.646h-.061a11.574,11.574,0,0,0-2.1,1.112c-.5.434-.253.922,1.24.922H364.6S365.322,398.805,364.908,397.693Z" transform="translate(-191.908 -204.798)"/><path class="f" d="M364.556,399.5H349.622c-1.033,0-1.646-.229-1.814-.678a.806.806,0,0,1,.321-.914,11.594,11.594,0,0,1,2.212-1.173h.084l2.939-1.607,4.815-3.413,6.123.975.467,3.5a12.417,12.417,0,0,0,.375,1.288h0a1.573,1.573,0,0,1-.475,2.011Zm-16.02-.907a3.074,3.074,0,0,0,1.087.145h14.7c.115-.114.314-.419.084-1.021h0a11.266,11.266,0,0,1-.413-1.425l-.4-2.971-5.228-.838-4.592,3.261-3.161,1.707a10.791,10.791,0,0,0-1.975,1.029.36.36,0,0,0-.1.114Z" transform="translate(-191.785 -204.681)"/><path class="d" d="M364.993,400H348.751a1.529,1.529,0,0,0-.253.19c-.5.434-.253.922,1.24.922h14.834A1.08,1.08,0,0,0,364.993,400Z" transform="translate(-191.901 -206.656)"/><path class="f" d="M364.556,401.344H349.622c-1.033,0-1.646-.229-1.814-.678a.806.806,0,0,1,.321-.914,2.112,2.112,0,0,1,.3-.213l.092-.069h16.686l.054.328a1.46,1.46,0,0,1-.612,1.524Zm-16.02-.907a3.076,3.076,0,0,0,1.087.145h14.7a.67.67,0,0,0,.176-.35H348.75l-.115.091a.359.359,0,0,0-.1.114Z" transform="translate(-191.785 -206.529)"/><path class="d" d="M397.556,397.693a12.216,12.216,0,0,1-.4-1.371l-.429-3.223-5.664-.9-4.723,3.345-3,1.646h-.061a11.64,11.64,0,0,0-2.113,1.112c-.5.434-.245.922,1.24.922h14.834S397.985,398.805,397.556,397.693Z" transform="translate(-199.565 -204.798)"/><path class="f" d="M397.233,399.5H382.292c-1.033,0-1.638-.229-1.814-.678a.806.806,0,0,1,.321-.914,11.591,11.591,0,0,1,2.212-1.173h.092l2.932-1.607,4.822-3.413,6.123.975.467,3.5a12.368,12.368,0,0,0,.367,1.288,1.557,1.557,0,0,1-.475,2.011Zm-16.02-.907a2.867,2.867,0,0,0,1.079.145H397c.115-.114.322-.419.084-1.021h0a13.137,13.137,0,0,1-.406-1.425l-.406-2.971-5.228-.838-4.593,3.261-3.161,1.707a10.792,10.792,0,0,0-1.975,1.029.488.488,0,0,0-.1.114Z" transform="translate(-199.448 -204.681)"/><path class="d" d="M397.671,400H381.429a2.071,2.071,0,0,0-.26.19c-.5.434-.245.922,1.24.922h14.834a1.087,1.087,0,0,0,.429-1.112Z" transform="translate(-199.565 -206.656)"/><path class="f" d="M397.233,401.344H382.292c-1.033,0-1.638-.229-1.814-.678a.806.806,0,0,1,.321-.914,2.113,2.113,0,0,1,.3-.213l.1-.069h16.686l.046.328a1.452,1.452,0,0,1-.6,1.524Zm-16.02-.907a2.868,2.868,0,0,0,1.079.145H397a.692.692,0,0,0,.176-.35H381.428l-.122.091a.486.486,0,0,0-.1.114Z" transform="translate(-199.448 -206.529)"/><path class="b" d="M365.694,275.53l-.681,8.381s-4.707,33.339-4.485,37.172.765,43.373.765,43.373l5.664.9,6.368-43.861,8.94-44.569Z" transform="translate(-194.775 -177.016)"/><path class="f" d="M367.143,365.66l-6.368-1.051v-.32c0-.4-.505-39.564-.727-43.35s4.294-35.884,4.485-37.248l.7-8.7,17.352,1.417-.084.419L373.557,321.4Zm-5.6-1.7,4.96.762,6.307-43.48,8.864-44.189-15.729-1.3-.651,7.962c-.046.358-4.7,33.37-4.485,37.118S361.479,360.182,361.54,363.961Z" transform="translate(-194.663 -176.887)"/><path class="f" d="M366.528,373.1l-.528-.084c0-.122,2.449-12.533,2.449-19.214s0-13.066,1.638-19.344c1.615-6.156,3.827-18.849,3.827-18.978l.566.1c0,.13-2.2,12.838-3.827,19.047s-1.592,12.487-1.592,19.2S366.551,373.017,366.528,373.1Z" transform="translate(-196.061 -186.529)"/><path class="b" d="M379.466,272.173c3.743-1.943,7.761-3.246,8.894-.648,2.3,5.188-.452,13.081-.452,13.081l2.044,36.372,4.064,43.061-6.391-.061s-8.259-37.057-9.614-39.313-3.506-33.972-3.506-33.972l-4.286-3.916" transform="translate(-197.051 -175.716)"/><path class="f" d="M394.389,364.283l-7.118-.069-.069-.3c-2.847-12.792-8.519-37.454-9.568-39.2-1.347-2.232-3.284-30.079-3.544-33.987l-4.21-3.809.513-.564,4.439,4v.152c.857,12.716,2.488,32.2,3.452,33.8,1.324,2.2,8.749,35.374,9.591,39.13l5.664.053-4.026-42.665-2.082-36.478v-.076c0-.076,2.641-7.817.459-12.8a1.826,1.826,0,0,0-1.133-1.067c-1.393-.5-3.9.168-7.233,1.9l-.352-.678c3.575-1.859,6.215-2.507,7.846-1.935a2.582,2.582,0,0,1,1.577,1.478c2.2,5.059-.13,12.426-.421,13.279l2.074,36.3Z" transform="translate(-196.971 -175.579)"/><path class="f" d="M395.3,371.27c0-.152-1.661-15.58-4.087-26.566-1.837-8.327-1.7-8.83-1.531-9.584a3.345,3.345,0,0,0,.13-1.067v-1.524c.046-2.59.115-6.506-.551-8.693-1.018-3.39-1.531-8.228-1.669-14.8h.574c.1,6.514.643,11.3,1.646,14.643.689,2.286.62,6.24.574,8.861v1.524a4.1,4.1,0,0,1-.145,1.219c-.168.625-.306,1.112,1.531,9.31,2.434,11.017,4.08,26.475,4.1,26.665Z" transform="translate(-201.126 -184.995)"/><path class="f" d="M388.214,298.983h-.574v-2c.23-10.78.069-11.977,0-12.106l.26-.1-.26-.129.329-.152c.291.069.482.114.214,12.5C388.229,297.68,388.222,298.343,388.214,298.983Z" transform="translate(-201.137 -179.152)"/><path class="f" d="M371.5,289.9a.314.314,0,0,1-.222-.1l-1.324-1.524a.258.258,0,0,1-.054-.274l.873-2.613.176-3.809a.283.283,0,0,1,.3-.274.29.29,0,0,1,.276.289h0l-.184,3.809a.16.16,0,0,1,0,.084l-.834,2.491,1.225,1.425a.281.281,0,0,1,0,.4h0A.292.292,0,0,1,371.5,289.9Z" transform="translate(-196.973 -178.392)"/><path class="f" d="M375.169,286.553c-4.279,0-6.016-1.676-6.123-1.76a.273.273,0,0,1,0-.389h0a.284.284,0,0,1,.4,0s2.22,2.1,7.754,1.463a.275.275,0,0,1,.314.236h0a.282.282,0,0,1-.237.32h0A17.487,17.487,0,0,1,375.169,286.553Z" transform="translate(-196.756 -179.11)"/><path class="f" d="M382.414,279.294c4.317-.838,4.593-2.049,6.07-3.047a12.352,12.352,0,0,0-.9-4.731c-1.133-2.6-5.151-1.3-8.894.648l-1.76,2.857-9.7-.762-.306,3.809A32.537,32.537,0,0,0,382.414,279.294Z" transform="translate(-196.279 -175.713)"/><path class="d" d="M368.512,278.97l-.092,1.509,2.465.564.184-1.973Z" transform="translate(-196.629 -177.835)"/><path class="f" d="M371.076,281.308l-3.016-.693.122-2.034,3.138.122Zm-2.419-1.143,1.906.434.13-1.348-1.967-.076Z" transform="translate(-196.544 -177.742)"/><path class="b" d="M390.861,280.6l-.421-3.741,1.255-.419.628,3.329" transform="translate(-201.794 -177.232)"/><path class="f" d="M390.352,280.488l-.452-4.053,1.959-.655.712,3.764-.75.137-.551-2.9-.543.175.383,3.444Z" transform="translate(-201.667 -177.075)"/><path class="b" d="M378.162,282.183l-.842-4.373h2.09l.842,3.748" transform="translate(-198.716 -177.559)"/><path class="f" d="M377.639,282.133l-.919-4.823h2.863l.9,4.046-.75.16-.773-3.444h-1.317l.75,3.916Z" transform="translate(-198.576 -177.439)"/><path class="d" d="M373.012,219.968s-4.064,4.571-5.687,6.468S365.7,248.53,365.7,251.509s-1.623,11.04,1.087,12.655,19.227,1.082,20.85-1.615,2.7-35.046,2.434-37.995a8.288,8.288,0,0,0-4.593-6.2C383.605,217.484,373.012,219.968,373.012,219.968Z" transform="translate(-195.878 -163.356)"/><path class="f" d="M374.026,265.343c-3.253,0-6.4-.274-7.555-.96-2.3-1.364-1.806-6.484-1.462-10.224.1-1.12.191-2.08.191-2.758,0-8.716.222-23.618,1.715-25.317,1.607-1.867,5.649-6.43,5.695-6.476l.077-.091h.122c1.095-.259,10.716-2.491,12.7-1.592a8.6,8.6,0,0,1,4.83,6.506c.276,2.948-.819,35.465-2.488,38.223-1.133,1.889-7.6,2.453-10.326,2.613C376.414,265.312,375.2,265.343,374.026,265.343Zm-.926-45.126c-.582.655-4.126,4.663-5.6,6.377-.941,1.1-1.531,10.605-1.531,24.822,0,.716-.092,1.691-.191,2.827-.306,3.337-.765,8.381,1.095,9.5,1.186.709,5.748,1.036,10.609.762,5.182-.3,9.086-1.2,9.713-2.24,1.531-2.575,2.648-34.84,2.38-37.766a7.916,7.916,0,0,0-4.386-5.889C383.908,218,377.3,219.227,373.1,220.217Z" transform="translate(-195.759 -163.247)"/><g class="g" transform="translate(169.342 54.812)"><path class="b" d="M386.331,218.362a2.013,2.013,0,0,0-.7-.152l-1.171.61a11.027,11.027,0,0,1,3.827,6.316A33.368,33.368,0,0,1,388.137,236c-.589,3.969-10.035,0-8.259,1.47s8.42,3.969,8.7,5.287-3.245,3.527-4.592,3.672.888,3.086,2.22,5.585a6.578,6.578,0,0,1-2.22,8.381c-3.1,2.362-10.2,3.55-13.272,3.672-1,.038-1.63.259-1.806.556,4.723,1.044,18.117.366,19.572-2.049,1.63-2.7,2.7-35.046,2.434-37.994A8.272,8.272,0,0,0,386.331,218.362Z" transform="translate(-366.086 -218.178)"/></g><path class="d" d="M383.765,245.848a23.553,23.553,0,0,1-8.175-5.158,18.318,18.318,0,0,0,7.363,11.131" transform="translate(-198.311 -168.719)"/><path class="f" d="M382.865,252.013a.261.261,0,0,1-.168-.053,18.79,18.79,0,0,1-7.478-11.314.288.288,0,0,1,.482-.251,22.512,22.512,0,0,0,8.068,5.089.289.289,0,0,1,.184.358.276.276,0,0,1-.352.19h0a22.569,22.569,0,0,1-7.6-4.571,18.285,18.285,0,0,0,7.027,10.041.274.274,0,0,1,.069.389h0A.276.276,0,0,1,382.865,252.013Z" transform="translate(-198.222 -168.63)"/><path class="d" d="M386.378,214.52l-13,2.964-.811,3.771,14.62-3.771Z" transform="translate(-197.602 -162.487)"/><path class="f" d="M371.91,221.638l.995-4.617,13.617-3.1,1.01,3.7Zm1.638-3.977-.628,2.933,13.647-3.527-.612-2.24Z" transform="translate(-197.447 -162.344)"/><path class="d" d="M340.318,191.369l-3.5-2.011s-1.355-.175-.765,1.341l3.49,2.682" transform="translate(-189.001 -156.494)"/><path class="f" d="M339.417,193.661a.361.361,0,0,1-.23-.076l-3.5-2.689a.358.358,0,0,1-.123-.16,1.457,1.457,0,0,1,.046-1.455,1.335,1.335,0,0,1,1.133-.4.461.461,0,0,1,.145.046l3.5,2.019a.381.381,0,1,1-.314.693l-.069-.038-3.383-1.966a.53.53,0,0,0-.383.114c-.077.1-.061.328.038.617l3.406,2.621a.372.372,0,0,1,.077.526h0a.407.407,0,0,1-.344.152Z" transform="translate(-188.882 -156.378)"/><path class="d" d="M338.216,196.9a3.373,3.373,0,0,0-.712-1.12l-.651-.7h0l-3.552-4.381s-1.1-.762-.857.853l2.2,4.259-3.919-3.649s-.765-.609-.765.236,3.552,4.632,3.552,4.632L329.6,195.2s-.857.609-.245,1.219a20.88,20.88,0,0,0,3.919,1.828l-2.939-.122s-.857.762-.245.975,4.041.975,4.041.975a4.974,4.974,0,0,0,1.47.853l.857,1.585,3.291-1.646Z" transform="translate(-187.412 -156.771)"/><path class="f" d="M336.4,202.741a.391.391,0,0,1-.337-.2l-.765-1.463a5.044,5.044,0,0,1-1.4-.808c-.689-.152-3.4-.762-3.98-.968a.7.7,0,0,1-.452-.518c-.077-.488.436-.968.589-1.1a.422.422,0,0,1,.268-.091h.719a8.209,8.209,0,0,1-1.982-1.082,1,1,0,0,1-.329-.823,1.523,1.523,0,0,1,.62-.975.369.369,0,0,1,.383-.038l2.2,1.029c-1.125-1.288-2.373-2.849-2.373-3.489a.761.761,0,0,1,.39-.762,1.014,1.014,0,0,1,.972.244l2.3,2.164-1.194-2.286a.288.288,0,0,1,0-.114c0-.251-.153-1.029.344-1.349a1.083,1.083,0,0,1,1.11.122.4.4,0,0,1,.084.076l3.552,4.388a.49.49,0,0,1,.061.107l.559.6a3.891,3.891,0,0,1,.765,1.234l1.569,3.939a.373.373,0,0,1-.184.48l-3.291,1.653a.53.53,0,0,1-.191.031Zm-6.177-4.129c.635.221,3.023.762,3.927.937a.375.375,0,0,1,.237.16,4.483,4.483,0,0,0,1.294.716.39.39,0,0,1,.2.168l.681,1.265,2.648-1.326-1.447-3.619h0a3.412,3.412,0,0,0-.635-1l-.658-.7a.427.427,0,0,1-.084-.152l-3.429-4.228a.883.883,0,0,0-.237-.084,1.515,1.515,0,0,0,0,.526l2.174,4.213a.372.372,0,0,1-.107.472.376.376,0,0,1-.49,0l-3.919-3.657-.092-.061h0c0,.472,1.814,2.636,3.444,4.373a.38.38,0,0,1,0,.541.369.369,0,0,1-.421.069l-3.689-1.722a.57.57,0,0,0-.153.282.342.342,0,0,0,.107.213,18.646,18.646,0,0,0,3.781,1.737.388.388,0,0,1,.245.434.382.382,0,0,1-.39.3l-2.779-.114A1.21,1.21,0,0,0,330.222,198.611Z" transform="translate(-187.317 -156.651)"/><path class="d" d="M378.246,229.158l-25.083,5.958a4.42,4.42,0,0,1-4.876-2.735l-9.537-26.665,3.291-1.646,10.838,17.6a3.067,3.067,0,0,0,3.307,1.524l15.01-4.228" transform="translate(-189.669 -159.999)"/><path class="f" d="M352.275,235.368a4.814,4.814,0,0,1-4.485-3.047l-9.66-26.932,3.9-1.958,11.03,17.9a2.675,2.675,0,0,0,2.9,1.371l14.979-4.236.207.762-15.01,4.228a3.465,3.465,0,0,1-3.743-1.737L341.75,204.436l-2.671,1.341,9.422,26.277a4.037,4.037,0,0,0,4.447,2.491l25.06-5.958.176.762-25.075,5.965A5.111,5.111,0,0,1,352.275,235.368Z" transform="translate(-189.523 -159.846)"/><g class="h" transform="translate(149.082 44.071)"><path class="b" d="M343.35,220.17s7.815,14.681,10.769,15.71,9.147-1.173,9.147-1.173-8.557-.762-5.611-1.029,6.345.442,11.956-.876,8.42-3.809,6.935-1.326-9.744,4.114-12.691,5.143-9.445,2.644-11.359,2.347a4.107,4.107,0,0,1-2.809-2.2Z" transform="translate(-339.829 -207.904)"/></g><path class="f" d="M0,0,4.267.006V.58L0,.574Z" transform="translate(150.271 48.947) rotate(-26.6)"/><path class="d" d="M388.893,195.043a1.663,1.663,0,0,1,1.768.922,2.838,2.838,0,0,1-.115,2.72,7.266,7.266,0,0,1-4.034,2.827s-2.694,3.87-5.358,4.914-7,1.28-8.228-4.167c-.536-2.392,1.049-12.19,1.049-12.19a5.4,5.4,0,0,1,1.868-3.733c1.776-1.349,5.909-1.6,8.274-.846a7.681,7.681,0,0,1,4.478,4.625,10.021,10.021,0,0,1,.505,3.863l-.253,1.1Z" transform="translate(-197.66 -155.474)"/><path class="f" d="M378.006,207.278a5.532,5.532,0,0,1-2.633-.617,6.179,6.179,0,0,1-2.97-4.442c-.551-2.438.972-11.946,1.041-12.35a5.667,5.667,0,0,1,2.013-3.977c1.914-1.448,6.208-1.676,8.626-.9,2.863.914,4.248,3.687,4.707,4.838a10.325,10.325,0,0,1,.536,4.038l-.145.663a2.021,2.021,0,0,1,1.7,1.15,3.21,3.21,0,0,1-.122,3.048,7.543,7.543,0,0,1-4.141,2.971c-.475.663-2.939,3.954-5.48,4.937A9,9,0,0,1,378.006,207.278Zm2.8-21.965a8.822,8.822,0,0,0-4.883,1.181,5.028,5.028,0,0,0-1.722,3.451c0,.137-1.577,9.813-1.056,12.106a5.53,5.53,0,0,0,2.587,3.939c1.914,1.013,4.225.312,5.128-.038,2.549-.99,5.182-4.739,5.212-4.777l.077-.114.138-.038a7.306,7.306,0,0,0,3.827-2.651,2.421,2.421,0,0,0,.1-2.369,1.3,1.3,0,0,0-1.37-.7l-.628.1.383-1.646h0a9.922,9.922,0,0,0-.49-3.634c-.429-1.051-1.684-3.588-4.24-4.4A10.164,10.164,0,0,0,380.808,185.313Z" transform="translate(-197.535 -155.352)"/><path class="f" d="M382.219,197.957c-.092.389,0,.762.184.762s.429-.229.52-.617,0-.762-.184-.762S382.311,197.569,382.219,197.957Z" transform="translate(-199.857 -158.396)"/><path class="f" d="M376.789,196.939c-.092.381,0,.762.184.762s.429-.229.52-.609,0-.762-.184-.762S376.881,196.551,376.789,196.939Z" transform="translate(-198.583 -158.156)"/><path class="f" d="M384.832,195.7a.322.322,0,0,1-.291-.183,2.482,2.482,0,0,0-2.005-1.219.328.328,0,0,1-.306-.35h0a.344.344,0,0,1,.36-.3,3.124,3.124,0,0,1,2.541,1.585.319.319,0,0,1-.13.434h0a.315.315,0,0,1-.168.038Z" transform="translate(-199.868 -157.515)"/><path class="f" d="M375.348,194.78a.338.338,0,0,1-.237-.1.327.327,0,0,1,0-.465h0a2.373,2.373,0,0,1,2.679-.5.327.327,0,0,1,.122.449.322.322,0,0,1-.413.137h0a1.743,1.743,0,0,0-1.937.389A.323.323,0,0,1,375.348,194.78Z" transform="translate(-198.175 -157.482)"/><path class="f" d="M378.7,200.812h0a1.385,1.385,0,0,1-1.278-.937c-.13-.51.214-.869.521-1.181a1.646,1.646,0,0,0,.52-.762c.161-.762.36-2.164.36-2.171a.332.332,0,0,1,.658.091h0c0,.061-.207,1.4-.375,2.209a2.17,2.17,0,0,1-.689,1.089c-.268.274-.39.411-.36.549.1.389.689.442.689.449a.328.328,0,0,1,.306.35h0a.329.329,0,0,1-.344.312Z" transform="translate(-198.734 -157.952)"/><path class="f" d="M380.941,205.677a3.275,3.275,0,0,1-.941-.137.327.327,0,0,1-.214-.411h0a.337.337,0,0,1,.421-.213,2.183,2.183,0,0,0,1.783-.206.332.332,0,0,1,.463.065.328.328,0,0,1-.065.461,2.442,2.442,0,0,1-1.447.442Z" transform="translate(-199.291 -160.135)"/><path class="f" d="M384.563,181.734s-3.291-2.834-6.437-2.834-5.679,1.79-7.654,1.935-3.291-1.638-4.493.762,3.291,6.4,6.284,7,7.18-.3,8.381-.45a23.526,23.526,0,0,1,3.437,0s-.9,2.827,0,3.726a2.738,2.738,0,0,1,1.049,2.08,13.922,13.922,0,0,0,.3,1.935l.9.3.452-1.638a9.455,9.455,0,0,0,2.388-4.617c.452-2.674-1.791-5.333-1.791-5.333Z" transform="translate(-196.009 -154.005)"/><path class="d" d="M377.285,188.642a22.509,22.509,0,0,1-3.509-.275.16.16,0,0,1-.127-.182h0a.153.153,0,0,1,.176-.137h0c.046,0,5.113.937,9.024-.678,1.064-.434,1.669-1.021,1.806-1.752.268-1.4-1.286-2.91-1.3-2.926a.16.16,0,0,1,0-.236.177.177,0,0,1,.237,0c.069.061,1.7,1.646,1.393,3.223a2.856,2.856,0,0,1-2,2,15.41,15.41,0,0,1-5.7.968Z" transform="translate(-197.855 -154.841)"/><path class="d" d="M388.608,188.965a.164.164,0,0,1-.023-.328c.054,0,1.294-.16,1.937-1.95a2.156,2.156,0,0,0-.383-1.844,7.334,7.334,0,0,0-2.641-2.476.168.168,0,0,1-.168-.168h0a.16.16,0,0,1,.161-.16h0a6.776,6.776,0,0,1,2.733,2.339,2.65,2.65,0,0,1,.6,2.415c-.719,2-2.151,2.171-2.212,2.171Z" transform="translate(-201.065 -154.753)"/><g transform="translate(53.215 39.18)"><text class="i" transform="translate(0 8)"><tspan x="0" y="0">INVI</tspan></text><text class="j" transform="translate(20.413 8)"><tspan x="0" y="0">T</tspan><tspan class="k" y="0">A</tspan></text><text class="i" transform="translate(31.327 8)"><tspan x="0" y="0">TION</tspan></text></g></g></g></svg>