<svg xmlns="http://www.w3.org/2000/svg" width="13.329" height="16.29" viewBox="0 0 13.329 16.29">
  <g id="Group_287" data-name="Group 287" transform="translate(0.25 0.25)">
    <path id="Path_394" data-name="Path 394" d="M954.31,604.065h2.857a.462.462,0,0,0,0-.925H954.31a.462.462,0,1,0,0,.925Z" transform="translate(-948.907 -599.718)" fill="#1c1c1c" stroke="#fff" stroke-miterlimit="10" stroke-width="0.5"/>
    <path id="Path_395" data-name="Path 395" d="M957.167,606.455H954.31a.462.462,0,1,0,0,.925h2.857a.462.462,0,0,0,0-.925Z" transform="translate(-948.907 -601.185)" fill="#1c1c1c" stroke="#fff" stroke-miterlimit="10" stroke-width="0.5"/>
    <path id="Path_396" data-name="Path 396" d="M957.351,597H946.28a.462.462,0,0,0-.462.463v1.443h-.371a.462.462,0,1,0,0,.925h.371v.923h-.371a.462.462,0,1,0,0,.925h.371v.923h-.371a.462.462,0,1,0,0,.925h.371v.889h-.371a.462.462,0,1,0,0,.925h.371v.923h-.371a.462.462,0,1,0,0,.925h.371v.923h-.371a.462.462,0,1,0,0,.925h.371v.923h-.371a.462.462,0,1,0,0,.925h.371v1.443a.462.462,0,0,0,.462.463h11.071a.462.462,0,0,0,.463-.463V597.463a.462.462,0,0,0-.463-.463Zm-10.608,13.884h.371a.462.462,0,1,0,0-.925h-.371v-.923h.371a.462.462,0,1,0,0-.925h-.371v-.923h.371a.462.462,0,1,0,0-.925h-.371v-.923h.371a.462.462,0,1,0,0-.925h-.371v-.889h.371a.462.462,0,1,0,0-.925h-.371v-.923h.371a.462.462,0,1,0,0-.925h-.371v-.923h.371a.462.462,0,1,0,0-.925h-.371v-.981h8.284v13.94h-8.284Zm10.146.981h-.936v-13.94h.936Z" transform="translate(-944.984 -597)" fill="#1c1c1c" stroke="#fff" stroke-miterlimit="10" stroke-width="0.5"/>
  </g>
</svg>
