<?xml version="1.0" encoding="utf-8"?>
<!-- Generator: Adobe Illustrator 24.1.3, SVG Export Plug-In . SVG Version: 6.00 Build 0)  -->
<svg version="1.1" id="Layer_1" xmlns="http://www.w3.org/2000/svg" xmlns:xlink="http://www.w3.org/1999/xlink" x="0px" y="0px"
	 viewBox="0 0 1900 730" enable-background="new 0 0 1900 730" xml:space="preserve">
<g>
	<path fill="#CC2631" d="M914.16,275.85c37.67-4.39,68.64-6.58,92.9-6.58c10.86,0,19.7,0.45,26.51,1.38
		c6.82,0.92,14.1,3.17,21.84,6.75c7.74,3.59,13.75,8.73,18.03,15.43c4.27,6.7,7.85,16.17,10.74,28.42
		c2.9,12.25,4.34,27.15,4.34,44.71c0,16.17-1.28,30.21-3.82,42.11c-2.54,11.9-5.95,21.43-10.22,28.6
		c-4.28,7.16-9.71,12.88-16.29,17.15c-6.58,4.28-13.41,7.17-20.45,8.67s-15.19,2.25-24.44,2.25c-13.86,0-32.12-1.74-54.77-5.2V532
		h-44.37V275.85z M997.01,428.01c16.64,0,28.25-2.66,34.84-7.97c6.58-5.32,9.88-15.95,9.88-31.89v-39.51
		c0-15.72-2.54-26.75-7.62-33.11c-5.08-6.35-15.72-9.53-31.89-9.53h-43.68v122.01H997.01z"/>
	<path fill="#CC2631" d="M1248.66,306h-70.37V460.6h-44.71V277.23c33.97-5.55,72.32-8.32,115.08-8.32V306z"/>
	<path fill="#CC2631" d="M1276.05,248.81v-43.68h45.41v43.68H1276.05z M1276.4,460.6V273.42h44.71V460.6H1276.4z"/>
	<path fill="#CC2631" d="M1496.84,460.6V342.4c0-13.87-2.95-23.4-8.84-28.6s-15.54-7.8-28.95-7.8h-44.71V460.6h-44.71V275.5
		c41.36-4.4,73.6-6.59,96.71-6.59c5.55,0,9.94,0.06,13.17,0.18c3.23,0.12,7.86,0.57,13.87,1.38c6,0.81,10.85,1.97,14.55,3.47
		c3.7,1.5,7.92,3.76,12.65,6.76c4.74,3,8.43,6.69,11.09,11.09c2.66,4.39,4.97,9.99,6.93,16.81c1.97,6.82,2.95,14.5,2.95,23.05V460.6
		H1496.84z"/>
	<path fill="#CC2631" d="M1650.76,399.59c0,10.17,2.42,17.45,7.28,21.84c4.85,4.39,13.63,6.58,26.35,6.58h34.66v30.16
		c-17.79,4.39-34.9,6.58-51.3,6.58c-22.89,0-38.82-5.61-47.84-16.82c-9.02-11.2-13.51-27.21-13.51-48.01V306h-33.63v-27.38
		l36.05-4.85l13.86-56.5h28.43v56.5h58.23V306h-58.57V399.59z"/>
	<path fill="#CC2631" d="M1882.65,274.46V306h-72.1c-15.25,0-22.88,5.2-22.88,15.6c0,6.01,6.81,11.78,20.44,17.33
		c2.78,1.16,8.26,3.12,16.47,5.89c8.21,2.78,14.55,5.08,19.06,6.93c4.51,1.85,10.28,4.75,17.33,8.67
		c7.05,3.92,12.49,7.92,16.29,11.96c3.82,4.04,7.23,9.18,10.23,15.42c3,6.24,4.5,13.17,4.5,20.8c0,21.03-6.99,35.64-20.97,43.84
		c-13.98,8.21-33.1,12.31-57.37,12.31c-26.8,0-50.61-1.97-71.41-5.89v-30.85h78.34c17.34,0,26-6.81,26-20.45
		c0-6.93-5.77-13.05-17.33-18.37c-4.16-1.85-10.86-4.33-20.11-7.45c-9.24-3.11-17.15-6.06-23.74-8.84
		c-6.59-2.77-13.52-6.36-20.8-10.75c-7.28-4.39-12.88-9.94-16.82-16.64c-3.92-6.7-5.89-14.32-5.89-22.88c0-10.16,1.85-18.83,5.55-26
		c3.7-7.16,8.79-12.7,15.25-16.64c6.48-3.92,13.51-6.75,21.15-8.49c7.62-1.73,16.05-2.6,25.3-2.6
		C1835.28,268.91,1859.77,270.76,1882.65,274.46z"/>
</g>
<path fill="#CC2631" d="M365.1,2.58C166.05,2.58,4.68,163.87,4.66,362.97c0.02,199.01,161.39,360.46,360.43,360.46h0.04
	c199.06,0,360.43-161.45,360.43-360.46C725.55,163.87,564.18,2.58,365.1,2.58z"/>
<g>
	<path fill="#FFFFFF" d="M180.9,245.86V204.5c32.75-6.17,66.25-9.23,100.47-9.23c33.49,0,57.57,6.89,72.22,20.66
		c14.65,13.81,21.97,33.51,21.97,59.1c0,14.29-3.2,27.4-9.59,39.34c-6.41,11.94-16.87,24.69-31.4,38.23l-74.62,70.2
		c0.26,0.24,0.38,0.48,0.38,0.72c0.24,0.51,0.36,0.87,0.36,1.11h116.73v46.92H174.25v-41.75l112.3-108.97
		c8.12-8.12,14.21-15.37,18.29-21.78c4.06-6.41,6.09-13.69,6.09-21.81c0-11.34-3.08-19.4-9.23-24.18
		c-6.17-4.81-17.99-7.22-35.46-7.22H180.9z"/>
	<path fill="#FFFFFF" d="M527.88,471.63v59.1H468.4v-59.1H335.05v-46.99l94.56-165.78H495l-93.45,164.37h66.85v-60.58h59.48v60.58
		h28.08v48.4H527.88z"/>
</g>
</svg>
