<svg xmlns="http://www.w3.org/2000/svg" width="19.806" height="11.052" viewBox="0 0 19.806 11.052">
  <g id="Group_53" data-name="Group 53" transform="translate(-899.934 -343.042)">
    <g id="Group_48" data-name="Group 48">
      <g id="Group_47" data-name="Group 47">
        <path id="Path_64" data-name="Path 64" d="M914.2,343.293l-1.955.042a.7.7,0,1,0,.03,1.406l1.955-.042a3.772,3.772,0,1,1,.165,7.542l-1.955.043a.7.7,0,1,0,.03,1.406l1.96-.042a5.179,5.179,0,0,0-.23-10.355Z" fill="#333" stroke="#fff" stroke-miterlimit="10" stroke-width="0.5"/>
      </g>
    </g>
    <g id="Group_50" data-name="Group 50">
      <g id="Group_49" data-name="Group 49">
        <path id="Path_65" data-name="Path 65" d="M907.205,343.446l-1.96.042a5.178,5.178,0,0,0,.23,10.354l1.955-.042a.7.7,0,1,0-.03-1.406l-1.956.042a3.772,3.772,0,1,1-.164-7.542l1.955-.042a.7.7,0,1,0-.03-1.406Z" fill="#333" stroke="#fff" stroke-miterlimit="10" stroke-width="0.5"/>
      </g>
    </g>
    <g id="Group_52" data-name="Group 52">
      <g id="Group_51" data-name="Group 51">
        <path id="Path_66" data-name="Path 66" d="M912.34,347.81l-5.037.11a.7.7,0,1,0,.03,1.406l5.038-.11a.7.7,0,0,0,.687-.718A.7.7,0,0,0,912.34,347.81Z" fill="#333" stroke="#fff" stroke-miterlimit="10" stroke-width="0.5"/>
      </g>
    </g>
  </g>
</svg>
