<svg xmlns="http://www.w3.org/2000/svg" width="103.66" height="101.301" viewBox="0 0 103.66 101.301">
  <g id="reward" transform="translate(0 -5.825)">
    <g id="Group_667" data-name="Group 667" transform="translate(0 5.825)">
      <path id="Path_774" data-name="Path 774" d="M117.736,82.637a35.1,35.1,0,1,0,35.1,35.1A35.139,35.139,0,0,0,117.736,82.637Zm0,66.149a31.05,31.05,0,1,1,31.05-31.05A31.085,31.085,0,0,1,117.736,148.786Z" transform="translate(-65.906 -67.086)" fill="#020288"/>
      <path id="Path_775" data-name="Path 775" d="M100.894,63.436c1.3-2.016,2.766-4.3,2.766-6.96s-1.47-4.945-2.766-6.96a13.437,13.437,0,0,1-1.951-3.779,13.914,13.914,0,0,1,.106-4.422c.3-2.454.6-4.991-.513-7.3-1.137-2.353-3.436-3.763-5.465-5.006A13.684,13.684,0,0,1,89.6,26.393a13.73,13.73,0,0,1-1.8-3.979c-.764-2.243-1.629-4.785-3.66-6.4s-4.687-1.89-7.04-2.137A13.868,13.868,0,0,1,72.8,13,13.612,13.612,0,0,1,69.5,10.227c-1.673-1.705-3.57-3.638-6.143-4.222-2.477-.562-4.869.3-7.182,1.126a14.053,14.053,0,0,1-4.35,1.1,14.049,14.049,0,0,1-4.35-1.1c-2.313-.83-4.7-1.688-7.182-1.126-2.573.584-4.469,2.517-6.143,4.222A13.611,13.611,0,0,1,30.864,13a13.878,13.878,0,0,1-4.31.876c-2.353.247-5.02.526-7.04,2.137s-2.9,4.161-3.66,6.4a13.729,13.729,0,0,1-1.8,3.979,13.69,13.69,0,0,1-3.467,2.613c-2.028,1.244-4.328,2.654-5.464,5.006-1.117,2.312-.81,4.849-.513,7.3a13.914,13.914,0,0,1,.106,4.422,13.437,13.437,0,0,1-1.951,3.779C1.47,51.531,0,53.816,0,56.476s1.47,4.945,2.766,6.96a13.44,13.44,0,0,1,1.951,3.779,13.914,13.914,0,0,1-.106,4.422c-.3,2.454-.6,4.991.513,7.3,1.137,2.353,3.436,3.763,5.465,5.006a13.689,13.689,0,0,1,3.467,2.613,13.729,13.729,0,0,1,1.8,3.979c.763,2.243,1.629,4.785,3.66,6.4s4.687,1.89,7.04,2.137a13.868,13.868,0,0,1,4.31.876,13.612,13.612,0,0,1,3.291,2.769c1.673,1.705,3.57,3.638,6.143,4.222,2.477.562,4.869-.3,7.182-1.126a14.05,14.05,0,0,1,4.35-1.1,14.049,14.049,0,0,1,4.35,1.1,16.7,16.7,0,0,0,5.535,1.306,7.409,7.409,0,0,0,1.647-.18c2.573-.584,4.469-2.517,6.143-4.222A13.607,13.607,0,0,1,72.8,99.955a13.868,13.868,0,0,1,4.31-.876c2.353-.247,5.02-.526,7.04-2.137s2.9-4.161,3.66-6.4a13.729,13.729,0,0,1,1.8-3.979,13.691,13.691,0,0,1,3.467-2.613C95.1,82.7,97.4,81.293,98.536,78.94c1.117-2.312.81-4.849.513-7.3a13.914,13.914,0,0,1-.106-4.422,13.431,13.431,0,0,1,1.951-3.779Zm-3.405-2.191A16.408,16.408,0,0,0,95,66.316a16.942,16.942,0,0,0,.034,5.808c.237,1.96.461,3.812-.139,5.055-.62,1.283-2.23,2.271-3.935,3.316a16.69,16.69,0,0,0-4.513,3.536,16.733,16.733,0,0,0-2.469,5.2c-.641,1.884-1.247,3.663-2.351,4.543s-2.962,1.068-4.938,1.275a16.887,16.887,0,0,0-5.646,1.255,16.6,16.6,0,0,0-4.424,3.581c-1.407,1.434-2.737,2.788-4.149,3.109-1.325.3-3.07-.326-4.918-.989a17.1,17.1,0,0,0-5.718-1.336,17.1,17.1,0,0,0-5.718,1.336c-1.848.663-3.593,1.289-4.918.989-1.412-.321-2.742-1.675-4.149-3.109a16.6,16.6,0,0,0-4.424-3.581,16.892,16.892,0,0,0-5.646-1.255c-1.976-.207-3.843-.4-4.938-1.275s-1.71-2.66-2.351-4.543a16.74,16.74,0,0,0-2.469-5.2A16.691,16.691,0,0,0,12.7,80.494C11,79.449,9.39,78.462,8.77,77.178c-.6-1.243-.376-3.094-.139-5.055a16.942,16.942,0,0,0,.034-5.808,16.409,16.409,0,0,0-2.494-5.071c-1.091-1.7-2.122-3.3-2.122-4.769S5.08,53.4,6.172,51.706a16.408,16.408,0,0,0,2.494-5.071,16.942,16.942,0,0,0-.034-5.808c-.237-1.96-.461-3.812.139-5.055C9.39,34.49,11,33.5,12.705,32.457a16.69,16.69,0,0,0,4.513-3.536,16.738,16.738,0,0,0,2.469-5.2c.641-1.884,1.247-3.663,2.351-4.543S25,18.107,26.976,17.9a16.893,16.893,0,0,0,5.646-1.255,16.6,16.6,0,0,0,4.424-3.581c1.407-1.434,2.737-2.788,4.149-3.109,1.325-.3,3.07.326,4.918.989a17.1,17.1,0,0,0,5.718,1.335,17.1,17.1,0,0,0,5.718-1.336c1.848-.663,3.592-1.289,4.918-.989,1.412.32,2.742,1.675,4.149,3.109a16.6,16.6,0,0,0,4.424,3.581A16.9,16.9,0,0,0,76.685,17.9c1.976.207,3.843.4,4.938,1.276s1.71,2.66,2.351,4.543a16.74,16.74,0,0,0,2.469,5.2,16.687,16.687,0,0,0,4.513,3.536c1.7,1.045,3.315,2.033,3.935,3.316.6,1.243.376,3.094.139,5.055A16.942,16.942,0,0,0,95,46.635a16.408,16.408,0,0,0,2.494,5.071c1.091,1.7,2.122,3.3,2.122,4.77s-1.031,3.073-2.122,4.769Z" transform="translate(0 -5.825)" fill="#020288"/>
    </g>
    <g id="Group_668" data-name="Group 668" transform="translate(33.105 38.667)">
      <path id="Path_776" data-name="Path 776" d="M182.236,199.54l-11.573,4.115L171,191.377l-7.49-9.735,11.782-3.473,6.944-10.132,6.944,10.132,11.782,3.473-7.49,9.735.338,12.278Z" transform="translate(-163.511 -168.037)" fill="#e2c4ff"/>
    </g>
  </g>
</svg>
