<svg id="learning" xmlns="http://www.w3.org/2000/svg" width="81.787" height="81.787" viewBox="0 0 81.787 81.787">
  <path id="Path_670" data-name="Path 670" d="M170.855,30H149.13V44.377H106l23.961,53.034,40.894-9.584Z" transform="translate(-89.067 -25.208)" fill="#13bdf7"/>
  <path id="Path_671" data-name="Path 671" d="M21.725,30H0V87.826l40.894,9.584V50.766Z" transform="translate(0 -25.208)" fill="#18e0ff"/>
  <path id="Path_672" data-name="Path 672" d="M205.584,401.584,196,406.377l9.584,4.792,40.894-9.585V392H215.169A9.613,9.613,0,0,0,205.584,401.584Z" transform="translate(-164.691 -329.382)" fill="#65eaff"/>
  <path id="Path_673" data-name="Path 673" d="M31.309,392H0v9.584l40.894,9.585v-9.585A9.613,9.613,0,0,0,31.309,392Z" transform="translate(0 -329.382)" fill="#fff"/>
  <path id="Path_674" data-name="Path 674" d="M256,461.585h40.894V452H265.584A9.613,9.613,0,0,0,256,461.585Z" transform="translate(-215.106 -379.797)" fill="#ff3cad"/>
  <path id="Path_675" data-name="Path 675" d="M31.309,452H0v9.585H40.894A9.613,9.613,0,0,0,31.309,452Z" transform="translate(0 -379.797)" fill="#fe6192"/>
  <path id="Path_676" data-name="Path 676" d="M241.559,0A19.169,19.169,0,0,0,222.39,19.169H216l5.683,45.04a22.4,22.4,0,0,1,.706,5.6,19.168,19.168,0,0,1,19.168-19.168H253.7V0Z" transform="translate(-181.496 0)" fill="#65eaff"/>
  <path id="Path_677" data-name="Path 677" d="M72.14,0H60V50.638H72.141A19.168,19.168,0,0,1,91.309,69.806V19.169A19.169,19.169,0,0,0,72.14,0Z" transform="translate(-50.416 0)" fill="#b2f4ff"/>
</svg>
