<svg id="pen" xmlns="http://www.w3.org/2000/svg" width="72.461" height="72.46" viewBox="0 0 72.461 72.46">
  <path id="Path_660" data-name="Path 660" d="M7.15,364.021,3.791,367.38,0,384.96l17.581-3.791,3.359-3.359Z" transform="translate(0 -312.5)" fill="#fae7e7"/>
  <path id="Path_661" data-name="Path 661" d="M17.581,422.991l3.359-3.359-6.9-6.9L0,426.781Z" transform="translate(0 -354.321)" fill="#d0e4ef"/>
  <path id="Path_662" data-name="Path 662" d="M400.278,1.971a6.729,6.729,0,0,0-9.516,0l-6.6,6.6,9.516,9.516,6.6-6.6a6.728,6.728,0,0,0,0-9.516Z" transform="translate(-329.788)" fill="#6e76e5"/>
  <path id="Path_663" data-name="Path 663" d="M429.136,13.925,417.775,25.286l4.758,4.758,6.6-6.6a6.728,6.728,0,0,0,0-9.516Z" transform="translate(-358.646 -11.954)" fill="#0051bf"/>
  <path id="Path_664" data-name="Path 664" d="M0,0H13.458V19.5H0Z" transform="translate(45.714 12.955) rotate(-45)" fill="#78b9eb"/>
  <path id="Path_665" data-name="Path 665" d="M0,0H13.458V9.751H0Z" transform="translate(52.608 19.85) rotate(-45)" fill="#6e76e5"/>
  <path id="Path_666" data-name="Path 666" d="M0,0H61.542V19.5H0Z" transform="translate(3.787 54.877) rotate(-45)" fill="#6e76e5"/>
  <path id="Path_667" data-name="Path 667" d="M0,0H61.542V9.751H0Z" transform="translate(10.681 61.771) rotate(-45)" fill="#0051bf"/>
  <path id="Path_668" data-name="Path 668" d="M192.513,66.022l3-3L180.4,47.9a7.344,7.344,0,0,0-10.374,0L154.931,63l3,3,15.095-15.095a3.093,3.093,0,0,1,4.369,0Z" transform="translate(-133.003 -39.282)" fill="#fae7e7"/>
  <path id="Path_669" data-name="Path 669" d="M0,0H4.246V9.751H0Z" transform="translate(52.608 19.85) rotate(-45)" fill="#d0e4ef"/>
</svg>
