<svg xmlns="http://www.w3.org/2000/svg" width="53.143" height="52" viewBox="0 0 53.143 52">
  <g id="Group_422" data-name="Group 422" transform="translate(-1236.838 -84)" opacity="0.39">
    <g id="Group_420" data-name="Group 420">
      <circle id="Ellipse_77" data-name="Ellipse 77" cx="5.667" cy="5.667" r="5.667" transform="translate(1273.109 123.666)" fill="none" stroke="#fff" stroke-miterlimit="10" stroke-width="2"/>
      <circle id="Ellipse_78" data-name="Ellipse 78" cx="5.667" cy="5.667" r="5.667" transform="translate(1250.439 123.666)" fill="none" stroke="#fff" stroke-miterlimit="10" stroke-width="2"/>
    </g>
    <path id="Path_603" data-name="Path 603" d="M1288.693,91.184a1.131,1.131,0,0,0-.85-.383h-40.8a1.134,1.134,0,0,0-1.134,1.133,1.157,1.157,0,0,0,.023.227l4.534,22.669a1.134,1.134,0,0,0,1.111.907,1.252,1.252,0,0,0,.15,0l34-4.534a1.134,1.134,0,0,0,.975-.984l2.267-18.135A1.133,1.133,0,0,0,1288.693,91.184Z" fill="none" stroke="#fff" stroke-miterlimit="10" stroke-width="2"/>
    <g id="Group_421" data-name="Group 421">
      <path id="Path_604" data-name="Path 604" d="M1256.107,111.2a1.134,1.134,0,0,1-1.118-.948l-2.267-13.6a1.134,1.134,0,0,1,2.236-.372l2.266,13.6a1.132,1.132,0,0,1-.931,1.3A1.062,1.062,0,0,1,1256.107,111.2Z" fill="#fff"/>
      <path id="Path_605" data-name="Path 605" d="M1261.774,110.069a1.132,1.132,0,0,1-1.133-1.031l-1.134-12.468a1.134,1.134,0,0,1,1.022-1.235h.01a1.132,1.132,0,0,1,1.23,1.026h0l1.134,12.468a1.133,1.133,0,0,1-1.027,1.231h0Z" fill="#fff"/>
      <path id="Path_606" data-name="Path 606" d="M1267.441,108.936a1.134,1.134,0,0,1-1.133-1.134V96.468a1.133,1.133,0,0,1,2.267,0V107.8A1.133,1.133,0,0,1,1267.441,108.936Z" fill="#fff"/>
      <path id="Path_607" data-name="Path 607" d="M1273.108,107.8h-.126a1.133,1.133,0,0,1-1.008-1.247v-.012l1.133-10.2a1.15,1.15,0,0,1,1.259-1.008,1.134,1.134,0,0,1,1,1.251h0l-1.134,10.2A1.134,1.134,0,0,1,1273.108,107.8Z" fill="#fff"/>
      <path id="Path_608" data-name="Path 608" d="M1278.776,106.669a1.134,1.134,0,0,1-1.133-1.134,1.155,1.155,0,0,1,.033-.274l2.267-9.067a1.134,1.134,0,0,1,2.212.5c0,.018-.008.035-.013.051l-2.267,9.068A1.133,1.133,0,0,1,1278.776,106.669Z" fill="#fff"/>
    </g>
    <path id="Path_609" data-name="Path 609" d="M1283.31,120.271h-26.163a7.959,7.959,0,0,1-7.78-6.377l-5.524-27.627h-5.871a1.133,1.133,0,1,1,0-2.267h6.8a1.134,1.134,0,0,1,1.111.907l5.708,28.54a5.683,5.683,0,0,0,5.556,4.557h26.163a1.134,1.134,0,0,1,0,2.267Z" fill="#fff"/>
  </g>
</svg>
