<?xml version="1.0" encoding="utf-8"?>
<!-- Generator: Adobe Illustrator 24.1.3, SVG Export Plug-In . SVG Version: 6.00 Build 0)  -->
<svg version="1.1" id="Layer_1" xmlns="http://www.w3.org/2000/svg" xmlns:xlink="http://www.w3.org/1999/xlink" x="0px" y="0px"
	 viewBox="0 0 985 900" enable-background="new 0 0 985 900" xml:space="preserve">
<g opacity="0.3">
	<g>
		<g>
			<path fill="#FFFFFF" d="M972.3,136.22c-4.02-4.02-8.04-8.04-16.08-8.04H192.4L172.3,23.66c0-8.04-12.06-16.08-20.1-16.08H31.6
				c-12.06,0-20.1,8.04-20.1,20.1s8.04,20.1,20.1,20.1h104.52l96.48,490.45c12.06,64.32,72.36,112.56,136.68,112.56H831.6
				c12.06,0,20.1-8.04,20.1-20.1s-8.04-20.1-20.1-20.1H373.3c-32.16,0-64.32-16.08-80.4-44.22l586.93-80.4
				c8.04,0,16.08-8.04,16.08-16.08l80.4-321.61C976.32,148.28,976.32,140.24,972.3,136.22z M859.74,449.79L272.8,526.17
				l-72.36-361.81h727.64L859.74,449.79z"/>
		</g>
	</g>
	<g>
		<g>
			<path fill="#FFFFFF" d="M353.2,691c-56.28,0-100.5,44.22-100.5,100.5c0,56.28,44.22,100.5,100.5,100.5
				c56.28,0,100.5-44.22,100.5-100.5C453.71,735.22,409.49,691,353.2,691z M353.2,851.8c-32.16,0-60.3-28.14-60.3-60.3
				s28.14-60.3,60.3-60.3s60.3,28.14,60.3,60.3S385.36,851.8,353.2,851.8z"/>
		</g>
	</g>
	<g>
		<g>
			<path fill="#FFFFFF" d="M755.21,691c-56.28,0-100.5,44.22-100.5,100.5c0,56.28,44.22,100.5,100.5,100.5
				c56.28,0,100.5-44.22,100.5-100.5S811.49,691,755.21,691z M755.21,851.8c-32.16,0-60.3-28.14-60.3-60.3s28.14-60.3,60.3-60.3
				s60.3,28.14,60.3,60.3S787.37,851.8,755.21,851.8z"/>
		</g>
	</g>
</g>
</svg>
