<?xml version="1.0" encoding="utf-8"?>
<!-- Generator: Adobe Illustrator 24.1.3, SVG Export Plug-In . SVG Version: 6.00 Build 0)  -->
<svg version="1.1" id="Layer_1" xmlns="http://www.w3.org/2000/svg" xmlns:xlink="http://www.w3.org/1999/xlink" x="0px" y="0px"
	 viewBox="0 0 793 900" enable-background="new 0 0 793 900" xml:space="preserve">
<g opacity="0.29">
	<path fill="#FFFFFF" stroke="#C0272D" stroke-miterlimit="10" d="M199.05,284.48c45.55,0,82.61-37.06,82.61-82.61
		s-37.06-82.61-82.61-82.61s-82.61,37.06-82.61,82.61S153.51,284.48,199.05,284.48z M199.05,171.11c16.96,0,30.76,13.8,30.76,30.76
		s-13.8,30.76-30.76,30.76s-30.76-13.8-30.76-30.76S182.09,171.11,199.05,171.11z"/>
	<path fill="#FFFFFF" stroke="#C0272D" stroke-miterlimit="10" d="M758.56,113.57H372.09C340.48,51.69,275.9,8.15,199.92,8.15
		C31.45,8.15-55.8,210.26,58.62,332.95v534.13c0,14.32,11.61,25.92,25.92,25.92h674.01c14.32,0,25.92-11.61,25.92-25.92V139.49
		C784.48,125.18,772.87,113.57,758.56,113.57z M369.62,606.11v235.04h-51.76V709.81c0-14.32-11.61-25.92-25.92-25.92H110.47v-51.85
		h129.62c6.88,0,13.47-2.73,18.33-7.59l259.23-259.23c4.86-4.86,7.59-11.45,7.59-18.33V165.42h51.93v181.46
		c0,14.32,11.61,25.92,25.92,25.92h129.53v51.8H551.12c-6.88,0-13.47,2.73-18.33,7.59L377.21,587.78
		C372.35,592.65,369.62,599.24,369.62,606.11L369.62,606.11z M732.63,320.96H629.03V165.42h103.61V320.96z M473.4,165.42v170.73
		L229.35,580.19H110.47V384.99l71.12,71.12c10.12,10.12,26.54,10.12,36.66,0l118.24-118.24c47.15-47.15,64.57-111.87,53.25-172.45
		L473.4,165.42z M199.92,59.99c125.3,0,188.61,152.51,99.91,241.21l-99.91,99.91l-99.91-99.91
		C11.55,212.74,74.39,59.99,199.92,59.99z M110.47,735.73h155.54v105.42H110.47V735.73z M421.47,841.15v-224.3l140.4-140.4h170.77
		v364.7H421.47z"/>
</g>
</svg>
