<svg id="Layer_1" data-name="Layer 1" xmlns="http://www.w3.org/2000/svg" viewBox="0 0 657.44 134.71"><defs><style>.cls-1{fill:#f39200;}.cls-2{fill:#fff;}</style></defs><path class="cls-1" d="M274.31,87.55a16.27,16.27,0,0,1-.62,4.29,41.86,41.86,0,0,1-2.09,6.06A55.32,55.32,0,0,1,268,105a60.5,60.5,0,0,1-5.26,7.41,58.89,58.89,0,0,1-7,7.09,49.2,49.2,0,0,1-8.79,6.06,52.71,52.71,0,0,1-10.66,4.33,51.55,51.55,0,0,1-12.56,1.91q-1.41,3.42-2.65,6.5t-2.18,5.6q-.93,2.49-1.47,4.32a11.07,11.07,0,0,0-.53,2.65,5.28,5.28,0,0,0,.47,2.56,2.7,2.7,0,0,1,.48,1.2,1.34,1.34,0,0,1-.3.77,1.16,1.16,0,0,1-1,.41,6.94,6.94,0,0,1-2.68-.76,13.6,13.6,0,0,1-3.26-2.15,14.2,14.2,0,0,1-2.77-3.3,7.77,7.77,0,0,1-1.18-4.14,14.54,14.54,0,0,1,.77-3.77q.76-2.53,2-6c.82-2.3,1.78-4.8,2.85-7.51s2.17-5.48,3.27-8.33,2.19-5.66,3.27-8.47,2-5.43,2.85-7.89,1.49-4.66,2-6.64a20.26,20.26,0,0,0,.77-4.74,4,4,0,0,0-.62-2.62,1.7,1.7,0,0,0-1.15-.68,1,1,0,0,0-.71.24.18.18,0,0,1-.23.06.19.19,0,0,1-.12-.18,3.91,3.91,0,0,1,.24-.8,2.33,2.33,0,0,1,.62-.85,3.48,3.48,0,0,1,1.14-.68,5.69,5.69,0,0,1,1.89-.26,8.09,8.09,0,0,1,3.61,1,21.16,21.16,0,0,1,3.8,2.47,18,18,0,0,1,3,3.06,4.86,4.86,0,0,1,1.24,2.74,14.86,14.86,0,0,1-.83,3.88q-.82,2.65-2.14,6.24t-3.09,7.83q-1.77,4.23-3.59,8.65a55,55,0,0,0,6.29-2.8,63.62,63.62,0,0,0,7.57-4.56,69.56,69.56,0,0,0,7.73-6.26,50.88,50.88,0,0,0,6.86-7.86,40,40,0,0,0,4.88-9.33,30.69,30.69,0,0,0,1.86-10.74A14,14,0,0,0,261.51,75a14.66,14.66,0,0,0-3.15-4.56A19.33,19.33,0,0,0,253.63,67a32.45,32.45,0,0,0-5.95-2.33,44.18,44.18,0,0,0-6.74-1.32,62.28,62.28,0,0,0-7.12-.41,44.25,44.25,0,0,0-14.65,2.35,53.08,53.08,0,0,0-22.1,14.54,65.47,65.47,0,0,0-7.15,9.36A47.53,47.53,0,0,0,185.54,98a21.17,21.17,0,0,0-1.5,6.86,15.11,15.11,0,0,0,.88,4.71,32.66,32.66,0,0,0,2.15,5,21.07,21.07,0,0,0,2.7,4,3.87,3.87,0,0,0,2.62,1.65c0,.59-.17.93-.53,1a3.6,3.6,0,0,1-1,.14,4.91,4.91,0,0,1-2.23-1.23,32.5,32.5,0,0,1-3.59-3.36,51.68,51.68,0,0,1-4.12-5,50.52,50.52,0,0,1-3.89-6.18,42.19,42.19,0,0,1-2.91-6.79,22.19,22.19,0,0,1-1.15-7,20.93,20.93,0,0,1,1.77-7.8,38.72,38.72,0,0,1,5.12-8.73,54.13,54.13,0,0,1,8.3-8.6,60,60,0,0,1,11.29-7.44,66.72,66.72,0,0,1,30.72-7.21,39.14,39.14,0,0,1,10.63,1.5A52.23,52.23,0,0,1,251,57.71a55.4,55.4,0,0,1,9.15,6.06,50.19,50.19,0,0,1,7.38,7.42,35.27,35.27,0,0,1,4.95,8.15A20.93,20.93,0,0,1,274.31,87.55Z" transform="translate(-14.86 -52.12)"/><path class="cls-1" d="M305.74,114.26a2.45,2.45,0,0,0,.29.48,3.87,3.87,0,0,1,.24.61,3.51,3.51,0,0,1,.11.92,13.44,13.44,0,0,1-.14,1.76,21.49,21.49,0,0,1-.74,2.89q-1,2.23-2.65,5.47c-1.1,2.16-2.3,4.41-3.62,6.77s-2.7,4.7-4.18,7.06-2.9,4.47-4.29,6.35a33.21,33.21,0,0,1-3.94,4.56,5.19,5.19,0,0,1-3.21,1.74,7,7,0,0,1-2.68-.77,13.3,13.3,0,0,1-3.27-2.14,14.16,14.16,0,0,1-2.76-3.3,7.72,7.72,0,0,1-1.18-4.15,22,22,0,0,1,.62-4.68Q275,135.1,276,132c.68-2.1,1.47-4.29,2.35-6.56s1.79-4.51,2.71-6.71,1.83-4.29,2.73-6.27,1.73-3.75,2.48-5.3,1.36-2.81,1.85-3.79.77-1.57.85-1.77a7.46,7.46,0,0,0-1.2.65,22.2,22.2,0,0,1-2.42,1.24,28.16,28.16,0,0,1-3.26,1.2,12.56,12.56,0,0,1-3.77.56c-.55,1.26-1.22,2.78-2,4.56s-1.66,3.63-2.56,5.54-1.83,3.74-2.79,5.53a44.74,44.74,0,0,1-2.74,4.5,5,5,0,0,1-1.71,1.62,3.74,3.74,0,0,1-1.64.44,3.38,3.38,0,0,1-.83-.06l-.29-.12c1.14-2.2,2.26-4.38,3.38-6.56s2.17-4.25,3.15-6.21,1.87-3.78,2.68-5.47,1.48-3.14,2-4.36a9,9,0,0,1-1.47-.85,5.81,5.81,0,0,1-1.27-1.21,5.93,5.93,0,0,1-.91-1.67,6.56,6.56,0,0,1-.35-2.27,12.46,12.46,0,0,1,.44-3.09,14.72,14.72,0,0,1,1.26-3.29,9.83,9.83,0,0,1,2-2.65,3.87,3.87,0,0,1,2.71-1.09,4.53,4.53,0,0,1,3.74,1.65,6.29,6.29,0,0,1,1.32,4.06,7.28,7.28,0,0,1-.62,3.29c-.41.83-.75,1.57-1,2.24q.06,0,.06,0s0,0,.06,0a5.44,5.44,0,0,0,2.74-.91,21.62,21.62,0,0,0,3-2.24,29.83,29.83,0,0,0,2.85-2.88c.91-1,1.69-2,2.36-2.92a3,3,0,0,1,.82-.76,2,2,0,0,1,1.12-.36,5.62,5.62,0,0,1,2.5,1,18.29,18.29,0,0,1,3.18,2.38,17.94,17.94,0,0,1,2.73,3.18,5.85,5.85,0,0,1,1.18,3.26,5.35,5.35,0,0,1-.35,1.36c-.24.66-.55,1.47-.94,2.41s-.87,2-1.42,3.21-1.11,2.46-1.7,3.79q-1.41,3.06-3,6.51c-1,2.29-2.08,4.61-3.12,6.94s-2,4.62-3,6.86-1.77,4.32-2.5,6.26-1.31,3.68-1.76,5.21a16.44,16.44,0,0,0-.74,3.65c0,.55.2.82.59.82s.91-.46,1.68-1.38,1.66-2.14,2.68-3.65,2.12-3.23,3.29-5.18,2.36-3.91,3.53-5.91Q300.8,123.27,305.74,114.26Z" transform="translate(-14.86 -52.12)"/><path class="cls-1" d="M307.62,146.63q.53,0,1.68-1.38T312,141.6q1.53-2.26,3.3-5.18c1.18-1.94,2.35-3.93,3.53-6q4.11-7.12,9.06-16.19a3.16,3.16,0,0,1,.71,1.59,8.48,8.48,0,0,1-.06,2.21,11.81,11.81,0,0,1-1.12,3.38c-.74,1.57-1.67,3.44-2.76,5.6s-2.31,4.4-3.62,6.73-2.7,4.66-4.15,7-2.86,4.38-4.21,6.21a32.34,32.34,0,0,1-3.88,4.44,5.21,5.21,0,0,1-3.15,1.71,7,7,0,0,1-2.68-.77,13.35,13.35,0,0,1-3.27-2.15,14.07,14.07,0,0,1-2.76-3.29,7.75,7.75,0,0,1-1.18-4.15,16.67,16.67,0,0,1,1-4.68c.67-2.06,1.49-4.36,2.47-6.92s2.06-5.25,3.24-8.12,2.26-5.66,3.24-8.38,1.8-5.28,2.47-7.65a23.09,23.09,0,0,0,1-5.92,4,4,0,0,0-.62-2.62,1.66,1.66,0,0,0-1.15-.67,1,1,0,0,0-.7.23.2.2,0,0,1-.24.06.19.19,0,0,1-.12-.18,3.84,3.84,0,0,1,.24-.79,2.37,2.37,0,0,1,.62-.85,3.32,3.32,0,0,1,1.14-.68,5.41,5.41,0,0,1,1.89-.27,8.18,8.18,0,0,1,3.62,1,20.56,20.56,0,0,1,3.79,2.47,18,18,0,0,1,3,3.06,4.86,4.86,0,0,1,1.24,2.73,11.34,11.34,0,0,1-.65,2.92q-.65,2-1.7,4.79t-2.45,6.09q-1.38,3.33-2.79,6.71l-2.8,6.71q-1.38,3.33-2.44,6.12c-.71,1.87-1.28,3.48-1.71,4.86a11.37,11.37,0,0,0-.64,3c0,.55.19.82.58.82Zm18.65-78.8a4.62,4.62,0,0,1,2.5.94,10.57,10.57,0,0,1,2.48,2.39,9.78,9.78,0,0,1,1.58,3.12,4.62,4.62,0,0,1-.08,3.14q-.88,2.19-1.89,4.45t-2,4.12A24,24,0,0,1,327,89.05q-.92,1.2-1.62,1.2a4.58,4.58,0,0,1-2.15-.61,6.22,6.22,0,0,1-2.11-2.06,13.43,13.43,0,0,1-1.65-3.77,21.11,21.11,0,0,1-.68-5.8,14.29,14.29,0,0,1,.85-5.44,8.46,8.46,0,0,1,2.06-3.09,5.67,5.67,0,0,1,2.5-1.35A9.86,9.86,0,0,1,326.27,67.83Z" transform="translate(-14.86 -52.12)"/><path class="cls-1" d="M327.74,148.28a4.77,4.77,0,0,0,.53,2.56,2.47,2.47,0,0,1,.53,1.21,1.06,1.06,0,0,1-.29.7,1.23,1.23,0,0,1-1,.36,6.78,6.78,0,0,1-2.65-.77,14.4,14.4,0,0,1-3.24-2.12,13.05,13.05,0,0,1-2.73-3.24,7.69,7.69,0,0,1-1.15-4.12,16.59,16.59,0,0,1,1-4.67q1-3,2.44-6.8t3.18-8c1.14-2.83,2.2-5.6,3.18-8.33s1.79-5.32,2.44-7.77a25.23,25.23,0,0,0,1-6.33,3.8,3.8,0,0,0-.67-2.59,1.86,1.86,0,0,0-1.21-.7.71.71,0,0,0-.44.15.74.74,0,0,1-.38.14c-.08,0-.12-.06-.12-.17a5.32,5.32,0,0,1,.23-.74,2.23,2.23,0,0,1,.62-.82,3.61,3.61,0,0,1,1.21-.65,5.88,5.88,0,0,1,1.94-.27,8.27,8.27,0,0,1,3.68,1,21.48,21.48,0,0,1,3.82,2.47,17.49,17.49,0,0,1,3,3.06,4.86,4.86,0,0,1,1.24,2.73,9.21,9.21,0,0,1-.38,2.12c-.26.94-.62,2-1.09,3.33s-1,2.69-1.62,4.23-1.27,3.17-2,4.86c.51-.86,1.23-2.05,2.18-3.56s2-3.15,3.17-4.92,2.41-3.56,3.68-5.38,2.53-3.47,3.77-4.94a32.31,32.31,0,0,1,3.47-3.62,4.63,4.63,0,0,1,2.68-1.42,8.11,8.11,0,0,1,3.56,1,21.48,21.48,0,0,1,3.82,2.47,17.49,17.49,0,0,1,3,3.06,4.86,4.86,0,0,1,1.24,2.73,11.66,11.66,0,0,1-.65,3q-.64,2.06-1.7,4.85c-.71,1.86-1.52,3.91-2.45,6.12l-2.79,6.74c-.94,2.28-1.88,4.52-2.8,6.74s-1.73,4.26-2.44,6.12-1.27,3.48-1.71,4.85a11.55,11.55,0,0,0-.64,2.94c0,.48.19.71.58.71s.92-.46,1.68-1.38a44,44,0,0,0,2.65-3.62q1.5-2.24,3.24-5.15l3.5-5.91q4.11-7.12,8.94-16.13a2.73,2.73,0,0,1,.47.65,4.82,4.82,0,0,1,.33.88,4.88,4.88,0,0,1,.14,1.3,9.84,9.84,0,0,1-.2,1.85,10.2,10.2,0,0,1-.85,2.44c-.75,1.53-1.68,3.38-2.8,5.53s-2.35,4.41-3.71,6.74-2.74,4.65-4.18,6.95-2.84,4.35-4.23,6.18a38.82,38.82,0,0,1-3.89,4.44,5,5,0,0,1-3.09,1.71,6.74,6.74,0,0,1-2.64-.77,13.81,13.81,0,0,1-3.21-2.12,13.09,13.09,0,0,1-2.68-3.24,7.94,7.94,0,0,1-1.12-4.12,16.9,16.9,0,0,1,.94-4.56c.63-2,1.42-4.2,2.36-6.68s2-5.08,3.09-7.85,2.17-5.49,3.15-8.18,1.82-5.22,2.53-7.59a29.73,29.73,0,0,0,1.23-6.09c0-.28-.15-.42-.47-.42-.12,0-.2,0-.23.06a36.91,36.91,0,0,0-2.56,3c-1.12,1.44-2.4,3.15-3.83,5.15s-3,4.2-4.59,6.59-3.24,4.86-4.82,7.39-3.12,5-4.6,7.53-2.77,4.84-3.91,7a55.24,55.24,0,0,0-2.7,5.91A12.46,12.46,0,0,0,327.74,148.28Z" transform="translate(-14.86 -52.12)"/><path class="cls-1" d="M392.65,100.73q-2.64,6.7-5.2,13.33t-4.89,12.68q-2.32,6.06-4.09,10.71c-.55,1.49-1,2.77-1.35,3.83s-.62,1.95-.8,2.67-.29,1.3-.35,1.71a7.14,7.14,0,0,0-.09.85c0,.51.2.77.59.77a6.54,6.54,0,0,0,3.88-1.74,53.6,53.6,0,0,0,5.18-4.85,71.34,71.34,0,0,0,6.83-8.36,79.16,79.16,0,0,0,6.15-10.3A69.1,69.1,0,0,0,403,110.79a39.22,39.22,0,0,0,1.71-11.18,3.48,3.48,0,0,0-.24-1.38,3.26,3.26,0,0,0-.53-.91,2.86,2.86,0,0,0-.76-.65,4.3,4.3,0,0,1,.41-.47,3.39,3.39,0,0,1,.62-.36,2.27,2.27,0,0,1,.91-.17A4.58,4.58,0,0,1,407.78,97a15.12,15.12,0,0,1,3.06,3.86,26.5,26.5,0,0,1,2.5,6,28,28,0,0,1,1,7.89,17.45,17.45,0,0,1-1.41,6.7,34.86,34.86,0,0,1-3.8,6.77,53.06,53.06,0,0,1-5.5,6.53q-3.12,3.18-6.5,6a85.29,85.29,0,0,1-6.83,5.21c-2.3,1.57-4.46,2.93-6.5,4.06a47.7,47.7,0,0,1-5.51,2.68,11.09,11.09,0,0,1-3.79,1,6.73,6.73,0,0,1-2.65-.76,14.25,14.25,0,0,1-6-5.45,7.7,7.7,0,0,1-1.18-4.15,16.73,16.73,0,0,1,.88-3.91c.59-1.9,1.39-4.24,2.39-7s2.16-5.88,3.47-9.33,2.7-7.06,4.15-10.83,2.93-7.6,4.44-11.5,3-7.72,4.33-11.45l.41-1.23h-5.48q-8.12,0-13.35.38a57,57,0,0,0-8.6,1.17,18.77,18.77,0,0,0-5.29,2,18.24,18.24,0,0,0-3.53,2.76.74.74,0,0,1-.53.24c-.43,0-.65-.24-.65-.71v-.12a14.88,14.88,0,0,1,2.74-6.47A17.13,17.13,0,0,1,355.14,83,25.66,25.66,0,0,1,362,80.25a62.56,62.56,0,0,1,8.15-1.41c2.87-.32,5.84-.5,8.92-.56s6.15-.09,9.21-.09q2.06-5.94,3.32-10.36a26.34,26.34,0,0,0,1.27-6.47,4,4,0,0,0-.65-2.68,1.75,1.75,0,0,0-1.12-.68,1,1,0,0,0-.5.12.72.72,0,0,1-.26.12q-.24,0-.24-.18a3.08,3.08,0,0,1,.27-.79,2.45,2.45,0,0,1,.65-.82,3.63,3.63,0,0,1,1.14-.65,5.41,5.41,0,0,1,1.89-.27,8.29,8.29,0,0,1,3.62,1,22.43,22.43,0,0,1,3.85,2.5,18.55,18.55,0,0,1,3.06,3.09,5,5,0,0,1,1.24,2.8,20.58,20.58,0,0,1-1.12,4.71c-.75,2.35-1.75,5.2-3,8.53h3q7.53,0,12.92-.18c3.58-.11,6.61-.27,9.06-.47a52.45,52.45,0,0,0,5.88-.73,19.61,19.61,0,0,0,3.47-1,4.53,4.53,0,0,0,1.77-1.15,4.15,4.15,0,0,0,.74-1.3c.15-.45.32-.91.5-1.38a4.54,4.54,0,0,1,1-1.47.61.61,0,0,1,.53-.24c.43,0,.65.24.65.71v.12c-.32,1.53-.68,3-1.1,4.47a21.41,21.41,0,0,1-1.58,4.06,15,15,0,0,1-2.42,3.44,12.1,12.1,0,0,1-3.65,2.65,21.23,21.23,0,0,1-5.26,1.71,37.14,37.14,0,0,1-7.24.62H397.6Q395.3,94,392.65,100.73Z" transform="translate(-14.86 -52.12)"/><path class="cls-1" d="M514.59,58a15.39,15.39,0,0,1,5.27,1.14,28.61,28.61,0,0,1,5.76,3,20.54,20.54,0,0,1,4.62,4.12,7.27,7.27,0,0,1,1.89,4.64c0,.47-.49,1.21-1.45,2.21s-2.16,2.2-3.62,3.59-3,3-4.7,4.68a54.87,54.87,0,0,0-4.71,5.5A33.13,33.13,0,0,0,514,92.87a15.1,15.1,0,0,0-1.44,6.33,2.91,2.91,0,0,0,.32,1.53,2.08,2.08,0,0,0,.74.76,2.92,2.92,0,0,0,1.05.3,4.21,4.21,0,0,1-.46.76,4.07,4.07,0,0,1-.65.53,1.78,1.78,0,0,1-1,.24,8.35,8.35,0,0,1-2.89-1,18,18,0,0,1-4.26-3,19.44,19.44,0,0,1-3.89-5,14.51,14.51,0,0,1-1.68-7.15A11.82,11.82,0,0,1,501.11,82a22.38,22.38,0,0,1,3.09-4.71,33.83,33.83,0,0,1,4-4c1.45-1.22,2.8-2.29,4-3.21s2.27-1.68,3.09-2.27,1.24-1,1.24-1.17-.66-.21-2,0a32,32,0,0,0-4.92,1.15,60.8,60.8,0,0,0-6.41,2.35,31.37,31.37,0,0,0-6.42,3.65,21.27,21.27,0,0,0-4.91,5,11.09,11.09,0,0,0-2,6.44,21.2,21.2,0,0,0,1.47,8,36.91,36.91,0,0,0,3.65,6.82,62.34,62.34,0,0,0,4.76,6.15,74.33,74.33,0,0,1,4.77,6,36.3,36.3,0,0,1,3.65,6.29,17.08,17.08,0,0,1,1.47,7.09,21.19,21.19,0,0,1-1.38,7.51,32.27,32.27,0,0,1-3.71,7,35.66,35.66,0,0,1-5.44,6.18,41.78,41.78,0,0,1-6.56,4.88,34.48,34.48,0,0,1-7,3.24,21.93,21.93,0,0,1-6.85,1.18,21.07,21.07,0,0,1-8-1.71,29.54,29.54,0,0,1-7.56-4.53,25.87,25.87,0,0,1-5.62-6.42,13.86,13.86,0,0,1-2.2-7.35,6.18,6.18,0,0,1,.32-2.06,5.2,5.2,0,0,1,.82-1.56,4.85,4.85,0,0,1,1-1,1.83,1.83,0,0,1,1-.36,1,1,0,0,1,.53.15,2.08,2.08,0,0,1,.36.27l.29.41c-.23,0-.55.28-.94.85a3.84,3.84,0,0,0-.59,2.21,5.17,5.17,0,0,0,.24,1.26,7.11,7.11,0,0,0,.91,1.92,10.09,10.09,0,0,0,1.94,2.14,13.31,13.31,0,0,0,3.32,2,24.69,24.69,0,0,0,5,1.5,37.6,37.6,0,0,0,7.15.58,56.76,56.76,0,0,0,8.35-.55,20.43,20.43,0,0,0,6.33-1.92,10.08,10.08,0,0,0,4-3.59,10.28,10.28,0,0,0,1.41-5.59,11.68,11.68,0,0,0-1.67-5.32q-1.68-3.09-4.15-6.74t-5.42-7.68q-2.94-4-5.41-8.18a61.47,61.47,0,0,1-4.15-8.27,21,21,0,0,1-1.68-7.94,17.66,17.66,0,0,1,1.74-7.51,29.25,29.25,0,0,1,4.71-7.09,41.84,41.84,0,0,1,6.94-6.21,52.31,52.31,0,0,1,8.45-4.94,51.53,51.53,0,0,1,9.15-3.27A37.65,37.65,0,0,1,514.59,58Z" transform="translate(-14.86 -52.12)"/><path class="cls-1" d="M565.26,114.26a2.77,2.77,0,0,1,.61.51,2.61,2.61,0,0,1,.62,1.23,5.63,5.63,0,0,1,.06,2.21,11.87,11.87,0,0,1-1.12,3.35q-1.11,2.3-2.76,5.56t-3.62,6.77q-2,3.51-4.15,7t-4.21,6.21a31.89,31.89,0,0,1-3.88,4.45,5.24,5.24,0,0,1-3.15,1.7,6.94,6.94,0,0,1-2.68-.76,13.41,13.41,0,0,1-3.26-2.15A14,14,0,0,1,535,147a7.78,7.78,0,0,1-1.18-4.15,16.59,16.59,0,0,1,.94-4.53c.63-2,1.43-4.17,2.39-6.65s2-5.09,3.12-7.85,2.17-5.49,3.17-8.18,1.86-5.21,2.56-7.56a28.65,28.65,0,0,0,1.24-6.07.43.43,0,0,0-.26-.41.37.37,0,0,0-.45.06c-.66.71-1.68,1.94-3.06,3.71s-2.91,3.87-4.62,6.33-3.51,5.1-5.41,8-3.73,5.74-5.47,8.62-3.35,5.67-4.8,8.36a65.18,65.18,0,0,0-3.35,7c-.36,1.06-.64,2-.86,2.71a6.85,6.85,0,0,0-.32,1.64,5.28,5.28,0,0,0,.47,2.56,2.8,2.8,0,0,1,.47,1.21,1.4,1.4,0,0,1-.29.77,1.16,1.16,0,0,1-1,.41,7,7,0,0,1-2.68-.77,13.35,13.35,0,0,1-3.27-2.15,14.07,14.07,0,0,1-2.76-3.29,7.72,7.72,0,0,1-1.18-4.15,15.19,15.19,0,0,1,.79-3.56c.53-1.75,1.24-3.87,2.12-6.38s1.93-5.34,3.12-8.48,2.47-6.45,3.83-9.95l4.15-10.74q2.11-5.49,4.14-10.85t3.83-10.33q1.8-5,3.12-9.09t2.12-7.18a20.18,20.18,0,0,0,.79-4.65,4,4,0,0,0-.62-2.62,1.68,1.68,0,0,0-1.14-.68,1,1,0,0,0-.71.24.2.2,0,0,1-.24.06.2.2,0,0,1-.11-.18,3.59,3.59,0,0,1,.23-.79,2.52,2.52,0,0,1,.62-.86,3.46,3.46,0,0,1,1.15-.67,5.39,5.39,0,0,1,1.88-.27,8.12,8.12,0,0,1,3.62,1,21.52,21.52,0,0,1,3.8,2.47,18.78,18.78,0,0,1,3,3.06A4.9,4.9,0,0,1,549.07,65a16.65,16.65,0,0,1-.91,4c-.61,2-1.43,4.38-2.47,7.24s-2.25,6.06-3.62,9.59S539.24,93,537.69,96.9s-3.14,7.83-4.77,11.83-3.19,7.89-4.68,11.66q4.25-7.06,8.06-12.6,1.65-2.36,3.33-4.62c1.12-1.51,2.19-2.85,3.23-4a23.19,23.19,0,0,1,2.92-2.85A3.93,3.93,0,0,1,548,95.2a8.12,8.12,0,0,1,3.62,1,20.63,20.63,0,0,1,3.8,2.47,18,18,0,0,1,3,3.06,4.93,4.93,0,0,1,1.24,2.74,11.29,11.29,0,0,1-.65,2.91q-.64,2-1.71,4.8c-.7,1.84-1.52,3.87-2.44,6.09s-1.85,4.45-2.8,6.7l-2.79,6.71c-.92,2.22-1.74,4.26-2.44,6.12s-1.28,3.49-1.71,4.86a11.5,11.5,0,0,0-.65,3c0,.55.2.82.59.82s.91-.46,1.68-1.38a44.05,44.05,0,0,0,2.65-3.65c1-1.51,2.09-3.23,3.26-5.18s2.36-3.91,3.53-5.91Q560.32,123.27,565.26,114.26Z" transform="translate(-14.86 -52.12)"/><path class="cls-1" d="M601,103.32a30.85,30.85,0,0,1-.92,7.21,52,52,0,0,1-2.5,7.68,80.23,80.23,0,0,1-3.68,7.77c-1.39,2.58-2.87,5.08-4.44,7.47a34.89,34.89,0,0,0,6.59-3.62,52.3,52.3,0,0,0,5.92-4.77,43,43,0,0,0,4.88-5.38,34,34,0,0,0,3.45-5.47,4.09,4.09,0,0,1,.76,1.64,6.38,6.38,0,0,1,0,2.15,10.73,10.73,0,0,1-1.12,3.21,26,26,0,0,1-3,4.18,43.3,43.3,0,0,1-5.35,5.29,49.21,49.21,0,0,1-7.33,5.07,33.63,33.63,0,0,1-8.83,3.47q-2.3,3.06-4.62,5.59c-1.55,1.68-3,3.15-4.38,4.38a24.08,24.08,0,0,1-3.8,2.88,6,6,0,0,1-2.85,1,8.36,8.36,0,0,1-3.53-1,16.1,16.1,0,0,1-4-2.73,16.84,16.84,0,0,1-3.2-4.06,9.94,9.94,0,0,1-1.33-5,41.45,41.45,0,0,1,1.33-10.21,68.53,68.53,0,0,1,3.47-10.3,80.29,80.29,0,0,1,4.82-9.54,66.52,66.52,0,0,1,5.42-7.88A35.19,35.19,0,0,1,578.06,97a7.42,7.42,0,0,1,4.32-2,10.26,10.26,0,0,1,2.53.3,11.65,11.65,0,0,1,2.18.76,25.33,25.33,0,0,1,3-.76,16.18,16.18,0,0,1,3.12-.3,6.92,6.92,0,0,1,2.68.59,8.4,8.4,0,0,1,4.38,4.33A8.24,8.24,0,0,1,601,103.32Zm-22.31,36.6a18.68,18.68,0,0,1-4-.56,10.71,10.71,0,0,1-4-1.91c-.43,1.38-.8,2.65-1.09,3.83a21.21,21.21,0,0,0-.56,3,5.42,5.42,0,0,0,.09,2c.13.47.4.7.79.7,1.06,0,2.35-.64,3.86-1.94A39.46,39.46,0,0,0,578.67,139.92Zm1.12-4.35,1.09,0,1.15-.09q2.58-3.76,5-8.09t4.35-8.62a64.53,64.53,0,0,0,3.06-8.21,24.54,24.54,0,0,0,1.15-6.8,5.24,5.24,0,0,0-1-3.18,3.83,3.83,0,0,0-3.32-1.41,1.7,1.7,0,0,0-.53.06,10.49,10.49,0,0,1,1.65,2.94,7.9,7.9,0,0,1,.47,1.88,2.54,2.54,0,0,1-.21,1.06,2.44,2.44,0,0,1-.5.77,3.71,3.71,0,0,1-.71.65,4.12,4.12,0,0,0-.35-1.06,3,3,0,0,0-.77-.74,2.67,2.67,0,0,0-1.47-.32c-.86,0-1.94.79-3.23,2.38a45.07,45.07,0,0,0-4.09,6.15q-2.14,3.77-4.33,8.39t-3.94,9.09A10.39,10.39,0,0,0,576,134.1,5.77,5.77,0,0,0,579.79,135.57Z" transform="translate(-14.86 -52.12)"/><path class="cls-1" d="M672.3,94.2a16.72,16.72,0,0,1-1.26,6.18,35,35,0,0,1-3.39,6.35,50.55,50.55,0,0,1-4.94,6.24q-2.82,3.06-5.94,5.83T650.41,124c-2.16,1.6-4.24,3-6.24,4.26s-3.83,2.27-5.5,3.09a21.8,21.8,0,0,1-4.21,1.65q-2.41,4.07-5,7.71c-1.71,2.43-3.32,4.57-4.86,6.41a38.85,38.85,0,0,1-4.14,4.39c-1.24,1.08-2.19,1.62-2.86,1.62a4.74,4.74,0,0,1-2.27-.68,8.8,8.8,0,0,1-2.23-1.83,9.6,9.6,0,0,1-1.71-2.73,8.51,8.51,0,0,1-.67-3.36,6.09,6.09,0,0,1,.73-2.7,20.14,20.14,0,0,1,1.88-3,26.87,26.87,0,0,1,2.53-2.92c.93-.92,1.84-1.75,2.74-2.5a20.34,20.34,0,0,1,2.47-1.77,3.91,3.91,0,0,1,1.71-.64q3.71-6.76,6.18-12.18,1.05-2.3,2-4.48a31.49,31.49,0,0,0,1.38-3.88,9.66,9.66,0,0,0,.44-2.77c0-.7-.3-1.06-.85-1.06-.27,0-.79.42-1.56,1.24s-1.7,1.94-2.79,3.35-2.33,3.06-3.68,5-2.73,3.88-4.12,6-2.78,4.3-4.15,6.53-2.63,4.4-3.77,6.48q-1.35,3.22-2.64,6.5l-2.59,6.5q-2.48,6.18-4.71,11.86t-4,10.24q-1.74,4.56-2.74,7.62a17,17,0,0,0-1,4,5.28,5.28,0,0,0,.47,2.56,2.77,2.77,0,0,1,.47,1.27,1.32,1.32,0,0,1-.29.7,1.08,1.08,0,0,1-1,.42,6.79,6.79,0,0,1-2.64-.77,13.46,13.46,0,0,1-3.24-2.18,15,15,0,0,1-2.77-3.32,7.93,7.93,0,0,1-1.17-4.21,14.75,14.75,0,0,1,.79-3.59c.53-1.73,1.25-3.85,2.15-6.38s2-5.38,3.15-8.54,2.47-6.49,3.82-10l4.18-10.8q2.15-5.53,4.18-10.92t3.82-10.38q1.8-5,3.15-9.16c.91-2.76,1.62-5.17,2.15-7.23a20.69,20.69,0,0,0,.8-4.68,3.87,3.87,0,0,0-.65-2.62,1.77,1.77,0,0,0-1.18-.68,1.13,1.13,0,0,0-.7.18.2.2,0,0,1-.21,0q-.09-.06,0-.18a3.3,3.3,0,0,1,.24-.76,2.45,2.45,0,0,1,.61-.83,3.42,3.42,0,0,1,1.18-.67,5.65,5.65,0,0,1,1.91-.27,8.44,8.44,0,0,1,3.65,1,21.06,21.06,0,0,1,3.86,2.5,19.13,19.13,0,0,1,3,3.09,4.94,4.94,0,0,1,1.23,2.8,11,11,0,0,1-.47,2.53q-.46,1.77-1.32,4.26c-.57,1.67-1.25,3.58-2,5.71s-1.65,4.43-2.59,6.86q2.58-4,5.35-8t5.18-7.27q2.42-3.24,4.21-5.27c1.2-1.35,2-2,2.5-2a4.7,4.7,0,0,1,2.77,1,11.19,11.19,0,0,1,2.59,2.77,16.44,16.44,0,0,1,1.94,4.06,15.82,15.82,0,0,1,.76,5,24.61,24.61,0,0,1-1.32,7.33,67.67,67.67,0,0,1-3.5,8.68,42.14,42.14,0,0,0,5.15-4.77,65.68,65.68,0,0,0,5.26-6.5,91.63,91.63,0,0,0,4.95-7.74,70.5,70.5,0,0,0,4.12-8.48,58.9,58.9,0,0,0,2.79-8.76,37.65,37.65,0,0,0,1-8.6,3.48,3.48,0,0,0-.23-1.35,4,4,0,0,0-.53-.88,4.27,4.27,0,0,0-.77-.71c.12-.15.26-.31.41-.47a3.8,3.8,0,0,1,.62-.35,2.14,2.14,0,0,1,.91-.18,4.58,4.58,0,0,1,2.71,1.35,15.12,15.12,0,0,1,3.06,3.86,26.43,26.43,0,0,1,2.5,6A28.08,28.08,0,0,1,672.3,94.2Z" transform="translate(-14.86 -52.12)"/><path class="cls-2" d="M118.56,77.25c2,0,3.5-.07,5,0a3.64,3.64,0,1,1,0,7.27c-3.55.09-7.11,0-10.66,0l-83.41,0c-5.29,0-7.12,1.82-7.11,7.15q0,21.81.08,43.62c0,4.62,1.86,6.47,6.45,6.5,4.1,0,8.21,0,12.87,0V129.39c0-3.64,0-7.27,0-10.91,0-3,1.36-4.32,4.3-4.32q33.09,0,66.19,0c3.07,0,4.36,1.35,4.37,4.48,0,7.59,0,15.17,0,23,.89.09,1.58.22,2.27.22q6.8,0,13.58,0c4.3,0,6.38-2.1,6.39-6.4,0-18.17,0-36.35,0-54.53a20.26,20.26,0,0,1,19.39-20.3c2.74-.13,4.55,1.18,4.7,3.41s-1.54,3.75-4.24,4c-7.58.63-12.42,5.9-12.44,13.7q0,26.89,0,53.8a13.45,13.45,0,0,1-2.73,8.82,13.09,13.09,0,0,1-10.79,5q-52.25,0-104.49,0c-7.89,0-13.37-5.59-13.41-13.52q-.08-22.55,0-45.08c0-8.1,5.51-13.48,13.59-13.51,4.28,0,8.56,0,13.11,0,.06-1,.15-1.84.15-2.69,0-5.9,0-11.8,0-17.7,0-3.4,1.27-4.65,4.72-4.66h67.4c3.39,0,4.65,1.32,4.66,4.72,0,5.82,0,11.64,0,17.45Zm-9.94,64v-19H49.78v19Zm2.07-80.85H49.8v16.2c.76,0,1.39.12,2,.12h56.49c.4,0,.89.13,1.19,0,.46-.28,1.13-.77,1.14-1.17C110.72,70.5,110.69,65.51,110.69,60.38Z" transform="translate(-14.86 -52.12)"/><path class="cls-2" d="M121,164.6a9.36,9.36,0,1,1-9.43-9.29A9.38,9.38,0,0,1,121,164.6Z" transform="translate(-14.86 -52.12)"/><path class="cls-2" d="M59.5,163.87a9.3,9.3,0,1,1-9.36-9.42A9.41,9.41,0,0,1,59.5,163.87Z" transform="translate(-14.86 -52.12)"/><path class="cls-2" d="M126,97.42a4.53,4.53,0,0,1-4.48,4.72,4.67,4.67,0,0,1-4.86-4.63,4.81,4.81,0,0,1,4.66-4.66A4.68,4.68,0,0,1,126,97.42Z" transform="translate(-14.86 -52.12)"/></svg>