<svg xmlns="http://www.w3.org/2000/svg" width="88.34" height="126.002" viewBox="0 0 88.34 126.002">
  <g id="quality_2_" data-name="quality (2)" transform="translate(-76.589 1)">
    <path id="Path_657" data-name="Path 657" d="M161.317,31.784l-8.143-6.82L151.32,14.505a7.254,7.254,0,0,0-7.153-6h-.007l-10.621.009L125.4,1.7a7.254,7.254,0,0,0-9.34.008l-8.13,6.835-10.621.01a7.255,7.255,0,0,0-7.149,6.01L88.321,25.023l-8.13,6.835a7.254,7.254,0,0,0-1.613,9.2L83.9,50.251,82.062,60.712A7.254,7.254,0,0,0,86.739,68.8l8.956,3.25.035,44.591a7.261,7.261,0,0,0,11.408,5.968l13.536-9.4,13.535,9.4a7.265,7.265,0,0,0,11.408-5.968V72.1l9.22-3.365a7.255,7.255,0,0,0,4.662-8.093l-1.854-10.458,5.3-9.2a7.254,7.254,0,0,0-1.63-9.2ZM122.745,105.8a3.633,3.633,0,0,0-4.143,0L103,116.636h0l-.026-33.76a7.248,7.248,0,0,0,7.854,1.925l9.977-3.642,9.984,3.623a7.256,7.256,0,0,0,7.568-1.643v33.5ZM151.35,46.556a7.275,7.275,0,0,0-.858,4.895l1.854,10.458-9.978,3.642a7.277,7.277,0,0,0-3.17,2.281c-.039.047-.076.1-.113.147a7.2,7.2,0,0,0-.52.77l-5.3,9.2h0l-9.984-3.623a7.277,7.277,0,0,0-4.97,0l-9.977,3.642-5.319-9.193a7.249,7.249,0,0,0-1.02-1.355c-.035-.038-.068-.077-.1-.114A7.276,7.276,0,0,0,99.2,65.591l-9.984-3.624,1.835-10.462a7.278,7.278,0,0,0-.868-4.893l-5.319-9.193L93,30.584a7.274,7.274,0,0,0,2.481-4.306l1.835-10.461,10.621-.01a7.276,7.276,0,0,0,4.669-1.7l8.13-6.835,8.142,6.819a7.277,7.277,0,0,0,4.666,1.7h.006l10.621-.01,1.854,10.459a7.277,7.277,0,0,0,2.489,4.3l8.143,6.82Z" transform="translate(0 0)" fill="#000f80" stroke="#fff" stroke-width="2"/>
    <path id="Path_658" data-name="Path 658" d="M190.272,93.29a20.947,20.947,0,1,0,20.947,20.947A20.971,20.971,0,0,0,190.272,93.29Zm0,34.629a13.682,13.682,0,1,1,13.682-13.682A13.7,13.7,0,0,1,190.272,127.919Z" transform="translate(-69.514 -70.698)" fill="#000f80" stroke="#fff" stroke-width="2"/>
  </g>
</svg>
