<?xml version="1.0" encoding="utf-8"?>
<!-- Generator: Adobe Illustrator 24.1.3, SVG Export Plug-In . SVG Version: 6.00 Build 0)  -->
<svg version="1.1" id="Layer_1" xmlns="http://www.w3.org/2000/svg" xmlns:xlink="http://www.w3.org/1999/xlink" x="0px" y="0px"
	 viewBox="0 0 458 900" enable-background="new 0 0 458 900" xml:space="preserve">
<path fill="#FFFFFF" d="M365.48,154.44h81.61V12.3C433.02,10.36,384.59,6,328.2,6C69.98,6,140.23,298.41,129.95,341.25H0.06v158.91
	h129.85V900h159.21V500.2h124.6l19.78-158.91H289.08C296.09,236.09,260.74,154.44,365.48,154.44L365.48,154.44z"/>
<path fill="#FFFFFF" d="M370,153.7h81.04V12.55c-13.98-1.92-62.06-6.25-118.06-6.25c-256.4,0-186.64,290.35-196.85,332.89H7.15
	v157.79h128.94V894h158.08V497.01H417.9l19.64-157.79h-143.4C301.09,234.77,265.99,153.7,370,153.7L370,153.7z"/>
</svg>
