<?xml version="1.0" encoding="utf-8"?>
<!-- Generator: Adobe Illustrator 24.1.3, SVG Export Plug-In . SVG Version: 6.00 Build 0)  -->
<svg version="1.1" id="Layer_1" xmlns="http://www.w3.org/2000/svg" xmlns:xlink="http://www.w3.org/1999/xlink" x="0px" y="0px"
	 viewBox="0 0 762 768" enable-background="new 0 0 762 768" xml:space="preserve">
<g>
	<path fill="#333333" d="M756.34,760v-0.03h0.19v-275.8c0-134.92-29.05-238.85-186.78-238.85c-75.83,0-126.71,41.61-147.49,81.06
		h-2.19v-68.46H270.51v502.06h155.73v-248.6c0-65.46,12.41-128.75,93.47-128.75c79.87,0,81.06,74.7,81.06,132.95V760L756.34,760z"/>
	<path fill="#333333" d="M16.93,257.94h155.92V760H16.93L16.93,257.94z"/>
	<path fill="#333333" d="M94.83,8C44.98,8,4.52,48.45,4.52,98.3s40.45,91.15,90.3,91.15s90.3-41.3,90.3-91.15
		C185.1,48.45,144.65,8,94.83,8z"/>
</g>
</svg>
