<?xml version="1.0" encoding="utf-8"?>
<!-- Generator: Adobe Illustrator 24.1.3, SVG Export Plug-In . SVG Version: 6.00 Build 0)  -->
<svg version="1.1" id="Layer_1" xmlns="http://www.w3.org/2000/svg" xmlns:xlink="http://www.w3.org/1999/xlink" x="0px" y="0px"
	 viewBox="0 0 902 900" enable-background="new 0 0 902 900" xml:space="preserve">
<g>
	<g>
		<g>
			<path stroke="#000000" stroke-width="0.25" stroke-miterlimit="10" d="M703.16,550.55l-80.63-80.35
				c-18.3-18.34-48.01-18.38-66.35-0.08c-0.03,0.03-0.05,0.05-0.08,0.08l-46.2,46.2c-3.5,3.5-9,3.99-13.06,1.15
				c-25.29-17.67-48.96-37.55-70.73-59.4c-19.5-19.46-37.45-40.42-53.66-62.7c-2.94-4-2.51-9.55,1-13.06l47.35-47.35
				c18.28-18.32,18.28-47.97,0-66.29l-80.63-80.63c-18.58-17.76-47.85-17.76-66.43,0l-25.54,25.54
				c-38.57,38.14-52.34,94.76-35.58,146.35c12.5,37.74,30.18,73.57,52.51,106.46c20.11,30.15,43.18,58.22,68.87,83.79
				c27.93,28.13,58.87,53.1,92.26,74.47c36.7,23.95,77.01,41.87,119.37,53.09c10.89,2.69,22.07,4.03,33.29,4.02
				c38.45-0.24,75.25-15.71,102.3-43.04l21.95-21.95C721.44,598.52,721.44,568.87,703.16,550.55z M682.84,597.27
				c-0.02,0.02-0.04,0.04-0.06,0.06l0.14-0.43l-21.95,21.95c-28.21,28.56-69.28,40.31-108.33,30.99
				c-39.34-10.53-76.73-27.29-110.76-49.64c-31.62-20.21-60.92-43.83-87.38-70.45c-24.34-24.16-46.21-50.7-65.28-79.2
				c-20.86-30.67-37.38-64.08-49.07-99.29c-13.41-41.36-2.3-86.73,28.7-117.22l25.54-25.54c7.1-7.13,18.64-7.16,25.77-0.06
				c0.02,0.02,0.04,0.04,0.06,0.06l80.63,80.63c7.13,7.1,7.16,18.64,0.06,25.77c-0.02,0.02-0.04,0.04-0.06,0.06l-47.35,47.35
				c-13.59,13.44-15.29,34.79-4.02,50.22c17.12,23.5,36.08,45.62,56.67,66.14c22.97,23.07,47.93,44.05,74.61,62.7
				c15.41,10.75,36.31,8.94,49.64-4.3l45.77-46.49c7.1-7.13,18.64-7.16,25.77-0.06c0.02,0.02,0.04,0.04,0.06,0.06l80.78,80.92
				C689.92,578.6,689.94,590.14,682.84,597.27z"/>
		</g>
	</g>
	<circle fill="none" stroke="#000000" stroke-width="10" stroke-miterlimit="10" cx="451.7" cy="449.79" r="442.29"/>
</g>
</svg>
