<?xml version="1.0" encoding="utf-8"?>
<!-- Generator: Adobe Illustrator 24.1.3, SVG Export Plug-In . SVG Version: 6.00 Build 0)  -->
<svg version="1.1" id="Layer_1" xmlns="http://www.w3.org/2000/svg" xmlns:xlink="http://www.w3.org/1999/xlink" x="0px" y="0px"
	 viewBox="0 0 970 900" enable-background="new 0 0 970 900" xml:space="preserve">
<g>
	<g>
		<path fill="#969696" stroke="#969696" stroke-width="0.25" stroke-miterlimit="10" d="M936.1,439.17
			c-15.18,0-27.32,12.14-27.32,27.32v248.47c0,67.58-55.04,122.42-122.42,122.42H187.04c-67.58,0-122.42-55.04-122.42-122.42V462.43
			c0-15.18-12.14-27.32-27.32-27.32S10,447.26,10,462.43v252.52C10,812.68,89.52,892,187.04,892h599.33
			c97.73,0,177.05-79.52,177.05-177.05V466.48C963.42,451.51,951.28,439.17,936.1,439.17z"/>
		<path fill="#969696" stroke="#969696" stroke-width="0.25" stroke-miterlimit="10" d="M332.32,228.73l127.07-127.07v554.21
			c0,15.18,12.14,27.32,27.32,27.32c15.18,0,27.32-12.14,27.32-27.32V101.66l127.07,127.07c5.26,5.26,12.34,8.09,19.22,8.09
			c7.08,0,13.96-2.63,19.22-8.09c10.72-10.72,10.72-27.92,0-38.65L505.93,16.48c-5.06-5.06-12.14-8.09-19.22-8.09
			c-7.28,0-14.16,2.83-19.22,8.09L293.88,190.09c-10.72,10.72-10.72,27.92,0,38.65C304.4,239.25,321.8,239.25,332.32,228.73z"/>
	</g>
</g>
</svg>
