<?xml version="1.0" encoding="UTF-8"?>
<svg xmlns="http://www.w3.org/2000/svg" xmlns:xlink="http://www.w3.org/1999/xlink" viewBox="0 0 100 100" width="100px" height="100px">
<g id="surface119313023">
<path style=" stroke:none;fill-rule:nonzero;fill:rgb(100%,100%,100%);fill-opacity:1;" d="M 81.566406 14.542969 C 80.507812 14.566406 79.503906 15.011719 78.773438 15.773438 L 50.101562 44.445312 L 21.429688 15.773438 C 20.675781 14.996094 19.640625 14.558594 18.558594 14.558594 C 16.929688 14.558594 15.464844 15.546875 14.851562 17.054688 C 14.242188 18.566406 14.605469 20.296875 15.773438 21.429688 L 44.445312 50.101562 L 15.773438 78.773438 C 14.726562 79.777344 14.308594 81.265625 14.671875 82.667969 C 15.039062 84.070312 16.132812 85.164062 17.535156 85.53125 C 18.9375 85.894531 20.425781 85.472656 21.429688 84.429688 L 50.101562 55.757812 L 78.773438 84.429688 C 79.777344 85.472656 81.265625 85.894531 82.667969 85.53125 C 84.070312 85.164062 85.164062 84.070312 85.53125 82.667969 C 85.894531 81.265625 85.476562 79.777344 84.429688 78.773438 L 55.757812 50.101562 L 84.429688 21.429688 C 85.621094 20.289062 85.988281 18.53125 85.355469 17.007812 C 84.722656 15.480469 83.214844 14.503906 81.566406 14.542969 Z M 81.566406 14.542969 "/>
</g>
</svg>
