<svg id="Layer_1" data-name="Layer 1" xmlns="http://www.w3.org/2000/svg" xmlns:xlink="http://www.w3.org/1999/xlink" viewBox="0 0 262.34 287.61"><defs><style>.cls-1,.cls-3,.cls-4{fill:none;}.cls-2{clip-path:url(#clip-path);}.cls-3,.cls-4,.cls-5{stroke:#fff;}.cls-3{stroke-width:3.11px;}.cls-4{stroke-width:3px;}.cls-5{fill:#fff;}</style><clipPath id="clip-path" transform="translate(-37.06 -15.44)"><rect class="cls-1" x="29.99" y="12.35" width="273.02" height="301.31"/></clipPath></defs><g class="cls-2"><g id="Group_1647" data-name="Group 1647"><g id="Group_1645" data-name="Group 1645"><path class="cls-3" d="M98.5,62.5C60.35,86.13,38.59,127,38.61,171.88A129.62,129.62,0,0,0,168.23,301.5h0a129.62,129.62,0,0,0,8-259c-1-.06-.89-.11-1.92-.15L280,43.09" transform="translate(-37.06 -15.44)"/></g><g id="Group_1646" data-name="Group 1646"><path id="Path_1777" data-name="Path 1777" class="cls-4" d="M98.5,62.5A25,25,0,1,0,59.42,41.89h0" transform="translate(-37.06 -15.44)"/></g></g></g><g id="right"><g id="Group_956" data-name="Group 956"><path id="Path_1278" data-name="Path 1278" class="cls-5" d="M69.66,41.6l7.4-7.4a.47.47,0,0,1,.69,0h0a.5.5,0,0,1,0,.7h0L71.2,41.46h28a.49.49,0,0,1,.52.47.51.51,0,0,1-.47.52h-28L77.76,49a.5.5,0,0,1,0,.7h0a.51.51,0,0,1-.7,0l-7.4-7.4a.5.5,0,0,1,0-.7Z" transform="translate(-37.06 -15.44)"/></g></g></svg>