<svg xmlns="http://www.w3.org/2000/svg" xmlns:xlink="http://www.w3.org/1999/xlink" width="60.239" height="63.416" viewBox="0 0 60.239 63.416">
  <defs>
    <clipPath id="clip-path">
      <path id="Path_1401" data-name="Path 1401" d="M0-30.658H35.088V-60.344H0Z" transform="translate(0 60.344)" fill="none"/>
    </clipPath>
  </defs>
  <g id="Component_38_1" data-name="Component 38 – 1" transform="translate(2.248 2.5)">
    <g id="Group_1145" data-name="Group 1145" transform="translate(10.041 11.896)" clip-path="url(#clip-path)">
      <g id="Group_1138" data-name="Group 1138" transform="translate(0 0)">
        <path id="Path_1394" data-name="Path 1394" d="M-36.237-20.3c-1.06.692-2.227.38-3.344.275-.251-.023-.451-.591-.747-1.01h-.92c0,1.944.011,3.89-.007,5.836a7.61,7.61,0,0,1-.153,1.715,4.086,4.086,0,0,1-3.968,3.192q-10.884.04-21.767,0A4.157,4.157,0,0,1-71.3-14.479q-.041-8.909,0-17.818a4.184,4.184,0,0,1,4.264-4.186c2.531-.025,5.062-.005,7.58-.005.35-2.309,1.458-3.483,3.207-3.467s2.878,1.251,3.113,3.466h6.9c3.393,0,4.987,1.605,4.988,5.022v5.731l.982.045c.47-1.253,2.628-1.652,4.029-.776Zm-20.57,8.759c3.564,0,7.128.012,10.691,0a3.413,3.413,0,0,0,3.594-3.467c.025-5.907.024-10.831,0-16.738a3.4,3.4,0,0,0-3.492-3.469c-2.408-.027-4.816-.028-7.223.018-.331.006-.268-.226-.475.049a3.111,3.111,0,0,1-5.158-.029c-.2-.272-.154-.016-.49-.022-2.311-.044-4.623-.03-6.935-.022a3.475,3.475,0,0,0-3.756,3.794c-.006,5.683-.005,10.382,0,16.064a3.489,3.489,0,0,0,3.824,3.824c3.467.006,5.951,0,9.418,0m2.831-25.31a2.324,2.324,0,0,0-2.307-2.331,2.322,2.322,0,0,0-2.307,2.33,2.329,2.329,0,0,0,2.26,2.283,2.324,2.324,0,0,0,2.354-2.282m14.713,11.966v1.828h2.284c-.179-1.37-1.452-.246-1.967-1.03.377-.027.669-.056.961-.065.312-.01.625,0,.938,0l.152-.273-.694-.672.776-.883c-2.378-.258-2.5-.22-2.388.625l.99.14c-.011.077-.022.153-.033.23l-1.018.1m-.885,3.412v-3.84l-1.024.046v3.794Zm.8.711h2.283v-1.8h-2.286c.178,1.373,1.452.243,1.88.918-.45.613-1.69-.454-1.877.877" transform="translate(71.325 39.956)" fill="#fff"/>
      </g>
      <g id="Group_1139" data-name="Group 1139" transform="translate(3.477 9.247)">
        <path id="Path_1395" data-name="Path 1395" d="M-11.919-15.13c-2.889,0-5.778.006-8.667,0C-22.6-15.137-23.455-16-23.457-18q0-4.429,0-8.859a2.572,2.572,0,0,1,2.889-2.912q8.667-.01,17.333,0a2.574,2.574,0,0,1,2.9,2.9q.011,4.43,0,8.859a2.578,2.578,0,0,1-2.92,2.884c-2.889.007-5.778,0-8.667,0m.011-.386c2.921,0,5.841.008,8.762,0A2.17,2.17,0,0,0-.719-17.958q.015-4.478,0-8.955A2.182,2.182,0,0,0-3.2-29.39q-8.666-.009-17.332,0c-1.744,0-2.533.788-2.536,2.522q-.009,4.43,0,8.859c0,1.812.674,2.488,2.5,2.493,2.889.006,5.777,0,8.667,0" transform="translate(23.461 29.78)" fill="#fff"/>
      </g>
      <g id="Group_1140" data-name="Group 1140" transform="translate(6.599 13.359)">
        <path id="Path_1396" data-name="Path 1396" d="M-3.694-2.75c0,1.788-.672,2.776-1.829,2.776-1.028,0-1.732-.963-1.748-2.7,0-1.772.769-2.735,1.837-2.735,1.1,0,1.74.987,1.74,2.662m-2.857.081c0,1.368.421,2.145,1.069,2.145.72,0,1.068-.85,1.068-2.193,0-1.295-.324-2.144-1.068-2.144-.615,0-1.069.761-1.069,2.193" transform="translate(7.271 5.412)" fill="#fff"/>
      </g>
      <g id="Group_1141" data-name="Group 1141" transform="translate(13.284 13.359)">
        <path id="Path_1397" data-name="Path 1397" d="M-3.694-2.75c0,1.788-.672,2.776-1.829,2.776-1.028,0-1.732-.963-1.748-2.7,0-1.772.769-2.735,1.837-2.735,1.1,0,1.74.987,1.74,2.662m-2.857.081c0,1.368.421,2.145,1.069,2.145.72,0,1.068-.85,1.068-2.193,0-1.295-.324-2.144-1.068-2.144-.615,0-1.069.761-1.069,2.193" transform="translate(7.271 5.412)" fill="#fff"/>
      </g>
      <g id="Group_1142" data-name="Group 1142" transform="translate(19.64 17.626)">
        <path id="Path_1398" data-name="Path 1398" d="M-3.218-3.377V-6.646h-.769L-6.333-3.288v.461h2.444v.8h.672v-.8h.736v-.55Zm-.672-1.756v1.756H-5.613v-.016l1.286-1.788c.146-.243.275-.469.437-.777h.024q-.024.413-.024.825" transform="translate(6.333 6.646)" fill="#fff"/>
      </g>
      <g id="Group_1143" data-name="Group 1143" transform="translate(5.277 10.749)">
        <path id="Path_1399" data-name="Path 1399" d="M-20.709-1.313c0-.893-.411-1.273-1.293-1.272-5.813.01-11.625,0-17.438.008-.994,0-1.311.326-1.314,1.337q-.013,4.431,0,8.863c0,1.065.3,1.356,1.385,1.359,2.858.006,5.716,0,8.574,0q4.335,0,8.671,0c1.093,0,1.405-.293,1.408-1.335.008-2.987,0-5.973.007-8.96M-34.271,8.6c-1.824,0-3.585.032-5.342-.035a1.065,1.065,0,0,1-.725-.745q-.077-4.615,0-9.232a1.062,1.062,0,0,1,.723-.743c1.757-.066,3.518-.034,5.343-.034Zm6.552-.041h-6.048V-2.117h6.048ZM-21.1,7.21c0,1.154-.031,1.387-.794,1.379v0h-1.744a.843.843,0,0,1-.419,0h-.164a1.173,1.173,0,0,1-.428,0h-2.337V8.553H-27.2V-2.152h1.483v.039h.921a1.6,1.6,0,0,1,.629-.094,1.33,1.33,0,0,1,.595.094h.971C-21.212-2.3-21.1-2.2-21.1-.876q0,4.044,0,8.087" transform="translate(40.76 2.585)" fill="#fff"/>
      </g>
      <g id="Group_1144" data-name="Group 1144" transform="translate(20.175 10.749)">
        <path id="Path_1400" data-name="Path 1400" d="M0-2.706C.016-.966.72,0,1.748,0,2.9,0,3.577-.991,3.577-2.779c0-1.342-.41-2.242-1.139-2.547h-1.2C.491-5.022,0-4.123,0-2.706m2.857-.04c0,1.343-.348,2.193-1.069,2.193C1.141-.553.72-1.33.72-2.7c0-1.432.453-2.193,1.068-2.193.745,0,1.069.85,1.069,2.144" transform="translate(0 5.326)" fill="#fff"/>
      </g>
    </g>
    <path id="Path_1720" data-name="Path 1720" d="M689.666,458.915a29.211,29.211,0,1,0,26.282-41.965" transform="translate(-689.666 -416.95)" fill="none" stroke="#fff" stroke-miterlimit="10" stroke-width="5"/>
  </g>
</svg>
