<svg xmlns="http://www.w3.org/2000/svg" width="57.651" height="54.88" viewBox="0 0 57.651 54.88">
  <g id="Component_34_11" data-name="Component 34 – 11" transform="translate(1.5 1.349)">
    <path id="Path_1761" data-name="Path 1761" d="M2320.5,384.344a27.392,27.392,0,0,0,11.962,52.031c15.126,0,27.263-14.278,27.263-29.4" transform="translate(-2305.075 -384.344)" fill="none" stroke="#fff" stroke-miterlimit="10" stroke-width="3"/>
    <g id="Group_1616" data-name="Group 1616" transform="translate(6.255 3.505)">
      <path id="Path_1762" data-name="Path 1762" d="M2335.141,406.346a10.314,10.314,0,0,1,5.558,1.079c.372.187.87.506,1.157-.095s-.247-.8-.638-.981a11.971,11.971,0,0,0-8.41-.779,12.191,12.191,0,0,0-8.9,12.005,9.935,9.935,0,0,0,1.011,4.824,11.749,11.749,0,0,0,8.932,7.063,11.6,11.6,0,0,0,9.874-2.657,12.073,12.073,0,0,0,4.268-7.941,11.639,11.639,0,0,0-1.275-7.016c-.108-.208-.507-.261-.77-.386a4.076,4.076,0,0,0-.253.828,1.33,1.33,0,0,0,.2.559,10.961,10.961,0,0,1,.019,9.064,10.819,10.819,0,0,1-13.581,5.946,11.064,11.064,0,0,1-7.029-12.847,10.9,10.9,0,0,1,9.836-8.666" transform="translate(-2315.348 -396.118)" fill="#fff"/>
      <path id="Path_1763" data-name="Path 1763" d="M2339.56,413.368a1.562,1.562,0,0,1-1.392.658,1.3,1.3,0,0,0-1.374,1.374,1.484,1.484,0,0,0,1.235,1.539c.844.09,1.6-.364,1.609-1.164a2.382,2.382,0,0,1,.932-1.755q5.2-5.28,10.4-10.566a1.225,1.225,0,0,1,1.178-.432,19.686,19.686,0,0,0,2.584.3,1.554,1.554,0,0,0,1.03-.381c1.082-1.03,2.127-2.1,3.146-3.2a3.179,3.179,0,0,0,.411-.951,3.544,3.544,0,0,0-.981-.3c-.754-.008-1.509.075-2.263.121a3.069,3.069,0,0,1,.762-1.1c.32-.3.578-.658.23-1.027-.377-.4-.778-.158-1.07.2-.235.29-.432.611-.646.919l-.3-.212c0-.817.023-1.635-.013-2.451-.012-.269-.131-.713-.286-.755a1.014,1.014,0,0,0-.824.25c-1.141,1.1-2.253,2.24-3.348,3.392a1.192,1.192,0,0,0-.331.779,19.05,19.05,0,0,0,.3,2.547,1.531,1.531,0,0,1-.459,1.542q-5.286,5.308-10.526,10.664" transform="translate(-2317.633 -394.176)" fill="#fff"/>
      <path id="Path_1764" data-name="Path 1764" d="M2314.178,416.089a7.873,7.873,0,0,0,1.711.015c.6-.051.763.2.808.77.07.872.2,1.737.311,2.539l.052.4a28.408,28.408,0,0,0,1.478,3.826.464.464,0,0,0,.048.147c.071.13.144.258.217.388a11.509,11.509,0,0,0,1.733,2.591,17.5,17.5,0,0,0,12.368,6.565c.479.05.656.194.633.678a10.211,10.211,0,0,0,.024,1.813c.035.253.343.468.528.7.184-.23.481-.439.526-.693a5.97,5.97,0,0,0,.02-1.508c-.056-.664.076-1.052.858-1a6.521,6.521,0,0,0,1.323-.2,16.619,16.619,0,0,0,8.139-3.58,17.457,17.457,0,0,0,6.651-12.882c.029-.43.2-.566.6-.552a10.786,10.786,0,0,0,1.86-.023c.252-.035.462-.374.69-.574-.216-.191-.412-.512-.649-.546a11.754,11.754,0,0,0-1.787-.038c-.47.006-.7-.137-.728-.69a17.429,17.429,0,0,0-2.233-7.509c-.192-.347-.438-.76-.92-.47-.416.25-.36.592-.128,1.024a16.392,16.392,0,0,1,.656,15.211,16.158,16.158,0,0,1-19.674,8.917,15.6,15.6,0,0,1-8.2-5.842c-.127-.188-.865-1.3-1.552-2.552a8.262,8.262,0,0,0-.6-1.172,14.142,14.142,0,0,1-1.072-3.8.938.938,0,0,0,.054-.358c.024-1.527-.056-3.065.084-4.581a14.764,14.764,0,0,1,3.4-7.963,15.994,15.994,0,0,1,9.79-5.909,14.92,14.92,0,0,1,7.635.459c1.166.392,2.276.957,3.408,1.448.37.16.778.407,1.048-.077.255-.458-.06-.715-.446-.943a16.6,16.6,0,0,0-7.464-2.294c-.595-.04-.779-.267-.748-.834a9.724,9.724,0,0,0-.021-1.736c-.028-.223-.318-.412-.488-.616-.2.207-.528.395-.563.627a8.426,8.426,0,0,0-.025,1.736c.036.577-.168.791-.751.83a16.158,16.158,0,0,0-7.892,2.6,17.379,17.379,0,0,0-8.207,13.817c-.043.56-.281.745-.8.724-.571-.022-1.143,0-1.715,0-.4.006-.751.169-.645.608a.907.907,0,0,0,.648.511" transform="translate(-2313.511 -394.256)" fill="#fff"/>
    </g>
  </g>
</svg>
