<svg id="Component_36_1" data-name="Component 36 – 1" xmlns="http://www.w3.org/2000/svg" width="60.677" height="40.424" viewBox="0 0 60.677 40.424">
  <path id="Path_1423" data-name="Path 1423" d="M-24.916,0a.647.647,0,0,0-.648.646V8.639a.652.652,0,0,1-.653.651.651.651,0,0,1-.651-.651V.646A.648.648,0,0,0-27.516,0h-.008a.647.647,0,0,0-.649.646V8.639a.652.652,0,0,1-.651.651.652.652,0,0,1-.652-.651V.646A.647.647,0,0,0-30.125,0h-.007a.646.646,0,0,0-.648.646V8.639a.653.653,0,0,1-.652.651.651.651,0,0,1-.652-.651V.646A.648.648,0,0,0-32.731,0a.614.614,0,0,0-.616.613v8.62c0,2.635.883,4.066,2.2,4.736a2.9,2.9,0,0,1,1.571,2.868l-1.9,19.362a2.666,2.666,0,0,0,.677,2.046,2.657,2.657,0,0,0,1.973.875,2.645,2.645,0,0,0,1.971-.875,2.657,2.657,0,0,0,.678-2.046l-1.9-19.362A2.9,2.9,0,0,1-26.5,13.968c1.317-.671,2.2-2.1,2.2-4.736V.613A.614.614,0,0,0-24.916,0" transform="translate(33.347 0.654)" fill="#fff"/>
  <path id="Path_1424" data-name="Path 1424" d="M-17.577-106.964l-1.735-17.723a.445.445,0,0,0,.444-.445v-17.249a.779.779,0,0,0-.78-.779.832.832,0,0,0-.8.6l-2.7,9.425a9.59,9.59,0,0,0,1.32,8.08.846.846,0,0,0,.7.365l-1.735,17.723a2.66,2.66,0,0,0,.678,2.048,2.656,2.656,0,0,0,1.97.876,2.656,2.656,0,0,0,1.971-.876,2.664,2.664,0,0,0,.678-2.048" transform="translate(78.242 143.814)" fill="#fff"/>
  <path id="Path_1425" data-name="Path 1425" d="M-59.732,0A20.214,20.214,0,0,0-79.945,20.213,20.213,20.213,0,0,0-59.732,40.424,20.212,20.212,0,0,0-39.52,20.213,20.213,20.213,0,0,0-59.732,0m0,37.093A16.9,16.9,0,0,1-76.609,20.213,16.9,16.9,0,0,1-59.732,3.332,16.9,16.9,0,0,1-42.854,20.213,16.9,16.9,0,0,1-59.732,37.093" transform="translate(91.054)" fill="#fff"/>
  <path id="Path_1427" data-name="Path 1427" d="M-42.851,0a14.519,14.519,0,0,0-14.5,14.5,14.518,14.518,0,0,0,14.5,14.5,14.52,14.52,0,0,0,14.5-14.5A14.52,14.52,0,0,0-42.851,0M-49.29,18.343h-2.179v-6l-1.546,1.1-.972-1.476,2.777-1.8h1.921Zm5.295.141c-2.706,0-3.175-2.109-3.175-4.229S-46.7,10.025-44,10.025s3.175,2.109,3.175,4.229-.469,4.229-3.175,4.229m11.4-3.245c0,2.238-1.453,3.245-3.585,3.245s-3.585-1.008-3.585-3.245V10.165h2.179v4.71c0,1.078.293,1.992,1.406,1.992s1.406-.914,1.406-1.992v-4.71H-32.6Z" transform="translate(74.171 5.709)" fill="#fff"/>
</svg>
