<svg id="Group_1131" data-name="Group 1131" xmlns="http://www.w3.org/2000/svg" xmlns:xlink="http://www.w3.org/1999/xlink" width="48.707" height="38.846" viewBox="0 0 48.707 38.846">
  <defs>
    <clipPath id="clip-path">
      <path id="Path_1385" data-name="Path 1385" d="M0-22.022H48.707V-60.868H0Z" transform="translate(0 60.868)" fill="none"/>
    </clipPath>
  </defs>
  <g id="Group_1125" data-name="Group 1125" transform="translate(0 0)" clip-path="url(#clip-path)">
    <g id="Group_1094" data-name="Group 1094" transform="translate(43.343 13.323)">
      <path id="Path_1354" data-name="Path 1354" d="M0-1.321C.718-.827,1.414-.29,2.1.268l1.04-2.331c-.684-.558-1.379-1.1-2.1-1.59L0-1.321" transform="translate(0 3.652)" fill="#fff"/>
    </g>
    <g id="Group_1095" data-name="Group 1095" transform="translate(38.773 10.985)">
      <path id="Path_1355" data-name="Path 1355" d="M0-1.321A18.061,18.061,0,0,1,2.358-.315L3.4-2.646A17.974,17.974,0,0,0,1.04-3.652L0-1.321" transform="translate(0 3.652)" fill="#fff"/>
    </g>
    <g id="Group_1096" data-name="Group 1096" transform="translate(33.669 9.845)">
      <path id="Path_1356" data-name="Path 1356" d="M0-1.321c.878.124,1.749.267,2.605.451L3.645-3.2c-.856-.184-1.728-.327-2.605-.451L0-1.321" transform="translate(0 3.652)" fill="#fff"/>
    </g>
    <g id="Group_1097" data-name="Group 1097" transform="translate(28.392 9.092)">
      <path id="Path_1357" data-name="Path 1357" d="M0-1.321c.866.161,1.744.288,2.626.4l1.04-2.331c-.881-.116-1.76-.243-2.626-.4Q.519-2.487,0-1.321" transform="translate(0 3.652)" fill="#fff"/>
    </g>
    <g id="Group_1098" data-name="Group 1098" transform="translate(23.453 7.581)">
      <path id="Path_1358" data-name="Path 1358" d="M0-1.321a18.434,18.434,0,0,0,2.4.906l1.04-2.331a18.46,18.46,0,0,1-2.4-.906Q.52-2.487,0-1.321" transform="translate(0 3.652)" fill="#fff"/>
    </g>
    <g id="Group_1099" data-name="Group 1099" transform="translate(19.071 4.822)">
      <path id="Path_1359" data-name="Path 1359" d="M0-1.321C.691-.779,1.4-.265,2.127.2L3.167-2.13C2.437-2.6,1.731-3.11,1.04-3.652Q.519-2.487,0-1.321" transform="translate(0 3.652)" fill="#fff"/>
    </g>
    <g id="Group_1100" data-name="Group 1100" transform="translate(44.399 17.244)">
      <path id="Path_1360" data-name="Path 1360" d="M0-1.321C.687-.76,1.361-.178,2.038.4L3.078-1.93C2.4-2.509,1.727-3.091,1.04-3.652Q.519-2.487,0-1.321" transform="translate(0 3.652)" fill="#fff"/>
    </g>
    <g id="Group_1101" data-name="Group 1101" transform="translate(40.174 14.323)">
      <path id="Path_1361" data-name="Path 1361" d="M0-1.124C1.715-1,1.415.065,2.128.556l1.04-2.331A20.261,20.261,0,0,0,.956-3.106C.609-2.329.347-1.9,0-1.124" transform="translate(0 3.106)" fill="#fff"/>
    </g>
    <g id="Group_1102" data-name="Group 1102" transform="translate(35.234 12.627)">
      <path id="Path_1362" data-name="Path 1362" d="M0-1.321a21.622,21.622,0,0,1,2.5.689l1.04-2.331a21.622,21.622,0,0,0-2.5-.689Q.52-2.487,0-1.321" transform="translate(0 3.652)" fill="#fff"/>
    </g>
    <g id="Group_1103" data-name="Group 1103" transform="translate(29.978 11.827)">
      <path id="Path_1363" data-name="Path 1363" d="M0-1.321c.884.117,1.77.224,2.651.349L3.691-3.3c-.881-.125-1.767-.232-2.651-.348Q.52-2.487,0-1.321" transform="translate(0 3.652)" fill="#fff"/>
    </g>
    <g id="Group_1104" data-name="Group 1104" transform="translate(24.815 10.817)">
      <path id="Path_1364" data-name="Path 1364" d="M0-1.321a24.1,24.1,0,0,0,2.537.605l1.04-2.331A24.424,24.424,0,0,1,1.04-3.652L0-1.321" transform="translate(0 3.652)" fill="#fff"/>
    </g>
    <g id="Group_1105" data-name="Group 1105" transform="translate(20.158 8.675)">
      <path id="Path_1365" data-name="Path 1365" d="M0-1.321A18.929,18.929,0,0,0,2.255-.085L3.3-2.416A18.978,18.978,0,0,1,1.04-3.652Q.52-2.487,0-1.321" transform="translate(0 3.652)" fill="#fff"/>
    </g>
    <g id="Group_1106" data-name="Group 1106" transform="translate(15.982 5.456)">
      <path id="Path_1366" data-name="Path 1366" d="M0-1.321C.676-.743,1.354-.17,2.049.376l1.04-2.331C2.395-2.5,1.717-3.074,1.04-3.652Q.519-2.487,0-1.321" transform="translate(0 3.652)" fill="#fff"/>
    </g>
    <g id="Group_1107" data-name="Group 1107" transform="translate(41.262 17.985)">
      <path id="Path_1367" data-name="Path 1367" d="M0-1.321C.718-.827,1.414-.29,2.1.268l1.04-2.331c-.684-.558-1.379-1.1-2.1-1.59L0-1.321" transform="translate(0 3.652)" fill="#fff"/>
    </g>
    <g id="Group_1108" data-name="Group 1108" transform="translate(16.991 9.484)">
      <path id="Path_1368" data-name="Path 1368" d="M0-1.321C.691-.779,1.4-.265,2.127.2q.52-1.165,1.04-2.331C2.437-2.6,1.731-3.11,1.04-3.652Q.519-2.487,0-1.321" transform="translate(0 3.652)" fill="#fff"/>
    </g>
    <g id="Group_1109" data-name="Group 1109" transform="translate(42.319 21.905)">
      <path id="Path_1369" data-name="Path 1369" d="M0-1.321C.687-.76,1.361-.178,2.038.4L3.078-1.93C2.4-2.509,1.728-3.091,1.04-3.652L0-1.321" transform="translate(0 3.652)" fill="#fff"/>
    </g>
    <g id="Group_1110" data-name="Group 1110" transform="translate(13.901 10.117)">
      <path id="Path_1370" data-name="Path 1370" d="M0-1.321C.676-.743,1.354-.17,2.049.376L3.09-1.954c-.7-.546-1.373-1.119-2.049-1.7L0-1.321" transform="translate(0 3.652)" fill="#fff"/>
    </g>
    <g id="Group_1111" data-name="Group 1111" transform="translate(39.182 22.647)">
      <path id="Path_1371" data-name="Path 1371" d="M0-1.321C.718-.827,1.413-.29,2.1.268Q2.617-.9,3.137-2.062c-.684-.558-1.379-1.1-2.1-1.59Q.519-2.487,0-1.321" transform="translate(0 3.652)" fill="#fff"/>
    </g>
    <g id="Group_1112" data-name="Group 1112" transform="translate(40.238 26.567)">
      <path id="Path_1372" data-name="Path 1372" d="M0-1.321C.687-.76,1.361-.178,2.038.4L3.079-1.93C2.4-2.509,1.728-3.091,1.04-3.652Q.52-2.487,0-1.321" transform="translate(0 3.652)" fill="#fff"/>
    </g>
    <g id="Group_1113" data-name="Group 1113" transform="translate(35.929 23.646)">
      <path id="Path_1373" data-name="Path 1373" d="M0-1.321A20.27,20.27,0,0,1,2.213.01l1.04-2.331A20.27,20.27,0,0,0,1.04-3.652L0-1.321" transform="translate(0 3.652)" fill="#fff"/>
    </g>
    <g id="Group_1114" data-name="Group 1114" transform="translate(31.072 21.95)">
      <path id="Path_1374" data-name="Path 1374" d="M0-1.321a21.622,21.622,0,0,1,2.5.689l1.04-2.331a21.622,21.622,0,0,0-2.5-.689L0-1.321" transform="translate(0 3.652)" fill="#fff"/>
    </g>
    <g id="Group_1115" data-name="Group 1115" transform="translate(25.817 21.15)">
      <path id="Path_1375" data-name="Path 1375" d="M0-1.321c.884.117,1.77.224,2.651.349L3.691-3.3c-.881-.124-1.767-.232-2.651-.348L0-1.321" transform="translate(0 3.652)" fill="#fff"/>
    </g>
    <g id="Group_1116" data-name="Group 1116" transform="translate(20.654 20.141)">
      <path id="Path_1376" data-name="Path 1376" d="M0-1.321a24.09,24.09,0,0,0,2.536.605q.521-1.165,1.04-2.331A24.451,24.451,0,0,1,1.04-3.652Q.519-2.487,0-1.321" transform="translate(0 3.652)" fill="#fff"/>
    </g>
    <g id="Group_1117" data-name="Group 1117" transform="translate(11.821 14.779)">
      <path id="Path_1377" data-name="Path 1377" d="M0-1.321C.676-.743,1.354-.17,2.049.376L3.09-1.954c-.7-.546-1.373-1.119-2.049-1.7L0-1.321" transform="translate(0 3.652)" fill="#fff"/>
    </g>
    <g id="Group_1118" data-name="Group 1118" transform="translate(37.101 27.308)">
      <path id="Path_1378" data-name="Path 1378" d="M0-1.321C.718-.827,1.414-.29,2.1.268Q2.617-.9,3.137-2.062c-.684-.559-1.379-1.1-2.1-1.59Q.519-2.487,0-1.321" transform="translate(0 3.652)" fill="#fff"/>
    </g>
    <g id="Group_1119" data-name="Group 1119" transform="translate(32.531 24.97)">
      <path id="Path_1379" data-name="Path 1379" d="M0-1.321A18.061,18.061,0,0,1,2.358-.315Q2.877-1.48,3.4-2.646A17.929,17.929,0,0,0,1.04-3.652L0-1.321" transform="translate(0 3.652)" fill="#fff"/>
    </g>
    <g id="Group_1120" data-name="Group 1120" transform="translate(27.427 23.83)">
      <path id="Path_1380" data-name="Path 1380" d="M0-1.321c.878.124,1.749.267,2.605.452L3.645-3.2c-.856-.184-1.727-.327-2.605-.451L0-1.321" transform="translate(0 3.652)" fill="#fff"/>
    </g>
    <g id="Group_1121" data-name="Group 1121" transform="translate(22.15 23.077)">
      <path id="Path_1381" data-name="Path 1381" d="M0-1.321c.866.161,1.744.288,2.626.4l1.04-2.331c-.882-.116-1.76-.243-2.626-.4L0-1.321" transform="translate(0 3.652)" fill="#fff"/>
    </g>
    <g id="Group_1122" data-name="Group 1122" transform="translate(17.211 21.566)">
      <path id="Path_1382" data-name="Path 1382" d="M0-1.321a18.461,18.461,0,0,0,2.4.906L3.443-2.746a18.434,18.434,0,0,1-2.4-.906L0-1.321" transform="translate(0 3.652)" fill="#fff"/>
    </g>
    <g id="Group_1123" data-name="Group 1123" transform="translate(12.83 18.807)">
      <path id="Path_1383" data-name="Path 1383" d="M0-1.321C.691-.779,1.4-.265,2.127.2q.52-1.165,1.04-2.331C2.437-2.6,1.731-3.11,1.04-3.652Q.519-2.487,0-1.321" transform="translate(0 3.652)" fill="#fff"/>
    </g>
    <g id="Group_1124" data-name="Group 1124" transform="translate(10.592 2.872)">
      <path id="Path_1384" data-name="Path 1384" d="M-21.385-7.587c-.565-.484-1.15-.985-1.735-1.463-.768-.627-1.458-1.151-2.107-1.6a20.407,20.407,0,0,0-2.23-1.342A18.1,18.1,0,0,0-29.834-13a21.822,21.822,0,0,0-2.518-.693c-.763-.164-1.595-.308-2.615-.454-.578-.081-1.165-.157-1.733-.23-.307-.038-.613-.078-.919-.119-.775-.1-1.693-.23-2.619-.4a23.952,23.952,0,0,1-2.52-.6,18.3,18.3,0,0,1-2.382-.9,18.74,18.74,0,0,1-2.236-1.227c-.674-.429-1.364-.924-2.115-1.514-.719-.564-1.432-1.17-2.044-1.692l-.16-.136L-59.107-4.36l.088.076c.614.524,1.329,1.132,2.053,1.7.759.594,1.458,1.1,2.14,1.53A19.136,19.136,0,0,0-52.553.194l.223.1a18.8,18.8,0,0,0,2.2.812,24.136,24.136,0,0,0,2.552.609c.935.174,1.855.3,2.635.406l.925.12c.566.072,1.152.147,1.725.23,1.014.143,1.838.286,2.594.449a21.2,21.2,0,0,1,2.481.684,17.931,17.931,0,0,1,2.336,1,20.158,20.158,0,0,1,2.2,1.322c.641.442,1.324.959,2.086,1.581.583.476,1.167.976,1.731,1.46l.464.4,7.413-16.612ZM-28.665,8.73c-.565-.484-1.152-.985-1.737-1.464l-.033-.027c-.755-.617-1.433-1.13-2.074-1.569l-.024-.017a20.188,20.188,0,0,0-2.206-1.326.016.016,0,0,0-.008,0q-.454-.235-.925-.444c-.469-.207-.948-.4-1.433-.563l-.012,0A21.4,21.4,0,0,0-39.6,2.624l-.033-.007c-.752-.162-1.57-.3-2.572-.447l-.044-.006c-.574-.082-1.162-.157-1.729-.23q-.438-.055-.877-.113l-.045-.006c-.766-.1-1.668-.228-2.582-.4l-.037-.006a23.878,23.878,0,0,1-2.5-.595l-.019-.006a18.271,18.271,0,0,1-2.383-.9h0a18.742,18.742,0,0,1-2.232-1.226l-.02-.013c-.667-.425-1.353-.917-2.095-1.5L-56.8-2.85c-.675-.533-1.342-1.1-1.925-1.595l.973-2.183,1.042-2.331,1.04-2.329,1.04-2.331,1.04-2.33,1.041-2.331.974-2.183c.577.491,1.232,1.045,1.895,1.565l.033.024c.746.587,1.436,1.079,2.107,1.507l.019.012a19.265,19.265,0,0,0,2.254,1.235h0a18.762,18.762,0,0,0,2.4.908l.019.006a23.964,23.964,0,0,0,2.517.6l.035.007c.915.17,1.82.3,2.589.4l.046.006.921.119c.553.07,1.125.144,1.685.223l.044.006c1,.142,1.814.283,2.562.444l.031.006a21.528,21.528,0,0,1,2.468.678l.013.005a17.888,17.888,0,0,1,2.337,1l.007,0A20.348,20.348,0,0,1-25.4-10.391l.024.017c.634.437,1.31.95,2.062,1.565.011.01.022.018.033.028.572.466,1.144.957,1.7,1.43l.218.186-.975,2.184-1.04,2.33-1.04,2.331-1.04,2.33L-26.5,4.34l-1.041,2.331-.974,2.183Z" transform="translate(59.107 20.971)" fill="#fff"/>
    </g>
  </g>
  <g id="Group_1126" data-name="Group 1126" transform="translate(0.946 10.672)">
    <path id="Path_1386" data-name="Path 1386" d="M0-14.7l.808.359L12.467-40.471l-.9-.151Z" transform="translate(0 40.622)" fill="#fff" stroke="#fff" stroke-width="0.5"/>
  </g>
  <g id="Group_1127" data-name="Group 1127" transform="translate(3.491 1.203)">
    <path id="Path_1387" data-name="Path 1387" d="M-7.933-.2l-.193.431-12.9,28.906-.9-.151L-8.935-.121l.2-.44Z" transform="translate(21.926 0.561)" fill="#fff" stroke="#fff" stroke-width="0.5"/>
  </g>
  <g id="Group_1130" data-name="Group 1130" transform="translate(0 0)" clip-path="url(#clip-path)">
    <g id="Group_1128" data-name="Group 1128" transform="translate(16.242 0)">
      <path id="Path_1388" data-name="Path 1388" d="M-.049-.335A1,1,0,0,0,.46.981a1,1,0,0,0,1.322-.5A1,1,0,0,0,1.273-.84a1,1,0,0,0-1.322.5" transform="translate(0.135 0.927)" fill="#fff"/>
    </g>
    <g id="Group_1129" data-name="Group 1129" transform="translate(13.026 12.208)">
      <path id="Path_1389" data-name="Path 1389" d="M-16.9-2.339-41.561-6.466-46.712.384l1.432.239L-22.2,4.486l1.364.228Zm-15.877-1.8-.8,1.726-1.344-.225L-36.715,1.2-38.6.884l1.789-3.837-1.343-.225.4-.849-.961,1.084-.112-.112a1.867,1.867,0,0,0-1.019-.558c-.179-.03-.491-.054-.572.12a2.573,2.573,0,0,0,.493.258,4.339,4.339,0,0,1,.792.419,1.231,1.231,0,0,1,.472.67,1.551,1.551,0,0,1-.161,1.1,2.632,2.632,0,0,1-.71.917,2.755,2.755,0,0,1-1.082.542A3.209,3.209,0,0,1-41.961.45,3.884,3.884,0,0,1-43.044.106,2.155,2.155,0,0,1-43.8-.477l-.107-.14,1.338-1.46.11.131a1.98,1.98,0,0,0,.532.433,2.027,2.027,0,0,0,.672.243,1.04,1.04,0,0,0,.43.01c.094-.026.115-.07.122-.085a1.936,1.936,0,0,0-.5-.283,4.83,4.83,0,0,1-.783-.433,1.212,1.212,0,0,1-.461-.675,1.584,1.584,0,0,1,.168-1.1,2.668,2.668,0,0,1,.711-.921A2.7,2.7,0,0,1-40.49-5.3a3.25,3.25,0,0,1,1.336-.037,3.445,3.445,0,0,1,.911.282,2.1,2.1,0,0,1,.7.511l.015.018.177-.381Zm4.61,6.694-.119.253-.235-.04-1.547-.259-.449-.075.086-.184-1.606-.269.114-.957L-33.429.774l-.73.853-1.987-.333,4.741-5.2,1.747.292L-30.034,1.4l2.165-4.643.118-.253.235.04,2.209.37a2.276,2.276,0,0,1,1.14.492,1.527,1.527,0,0,1,.47.738l.3-.638.118-.253.235.039L-18.812-2l.45.075-.225.484L-19.22-.083l-.118.253-.235-.039-1.109-.186-1.67,3.583-.118.253-.236-.039-1.547-.259-.45-.075.225-.484,1.563-3.352-.849-.142a3.359,3.359,0,0,1-.141.351A3.314,3.314,0,0,1-24.677.847a2.941,2.941,0,0,1-.774.509l.175,1.428.066.54-.46-.077-1.652-.276-.232-.039-.033-.273m8.709-4.273-9.579,4,2.7-3.035a.913.913,0,0,1-.367.422.8.8,0,0,1-.546.08l-.564-.094.567-1.216.564.094a.481.481,0,0,1,.4.239.575.575,0,0,1-.052.475m-.789.181L-26.6-.536a.523.523,0,0,0,.35-.043.531.531,0,0,0,.21-.246.5.5,0,0,0,.038-.105c-.021-.013-.111.39-.2.375m-5.91-.209.4.067.073-.623Z" transform="translate(46.712 6.466)" fill="#fff"/>
    </g>
  </g>
</svg>
