<svg xmlns="http://www.w3.org/2000/svg" width="73.999" height="40.413" viewBox="0 0 73.999 40.413">
  <g id="Component_35_1" data-name="Component 35 – 1" transform="translate(0.128 1)">
    <g id="family" transform="translate(21.217)">
      <path id="Path_1539" data-name="Path 1539" d="M41.025,133.542a7.634,7.634,0,0,0,1.968-5.157,7.166,7.166,0,0,0-6.9-7.387,7.166,7.166,0,0,0-6.9,7.387,7.635,7.635,0,0,0,1.948,5.135,9.749,9.749,0,0,0-3.585,2.591,5.265,5.265,0,0,0-7.957,0A9.75,9.75,0,0,0,16,133.52a7.636,7.636,0,0,0,1.948-5.135,7.166,7.166,0,0,0-6.9-7.387,7.166,7.166,0,0,0-6.9,7.387,7.634,7.634,0,0,0,1.968,5.157A10.372,10.372,0,0,0,0,143.159v14.774a1.432,1.432,0,0,0,1.381,1.477H45.755a1.432,1.432,0,0,0,1.381-1.477V143.159A10.372,10.372,0,0,0,41.025,133.542Zm-4.937-9.59a4.442,4.442,0,1,1-4.143,4.432A4.3,4.3,0,0,1,36.088,123.953Zm-12.52,13.3a2.962,2.962,0,1,1-2.762,2.955A2.866,2.866,0,0,1,23.568,137.25Zm-12.52-13.3a4.442,4.442,0,0,1,0,8.865,4.442,4.442,0,0,1,0-8.865ZM2.762,143.159a7.166,7.166,0,0,1,6.9-7.387H12.52a6.822,6.822,0,0,1,5.656,3.151,6.2,6.2,0,0,0,1.062,4.945,7.448,7.448,0,0,0-3.956,6.678v5.91H2.762Zm15.282,13.3v-5.91a4.3,4.3,0,0,1,4.143-4.432h2.762a4.3,4.3,0,0,1,4.143,4.432v5.91Zm26.33,0H31.853v-5.91a7.448,7.448,0,0,0-3.956-6.678,6.2,6.2,0,0,0,1.062-4.945,6.821,6.821,0,0,1,5.656-3.151h2.854a7.166,7.166,0,0,1,6.9,7.387Z" transform="translate(0 -120.998)" fill="#fff" stroke="#ffffff10" stroke-width="2"/>
    </g>
    <path id="leaf" d="M42.987,8.647C42.953,6.057,37.962,0,37.96,0c-.455.546-.974,1.16-1.855,2.361-.821-1.14-1.35-1.8-1.8-2.361-1.658,1.9-5.19,6.762-5.039,8.653a5,5,0,0,0,4.576,4.859v2h.915v-2a5.029,5.029,0,0,0,1.373-.324,5.015,5.015,0,0,0,1.372.325v2h.915v-2a4.984,4.984,0,0,0,4.576-4.865Zm-8.236,3.946V11.047l2.066-1.239-.471-.785-1.595.957V8.759L36.817,7.52l-.471-.785-1.595.957V5.755h-.915V7.692l-1.595-.957-.471.785,2.066,1.239V9.98l-1.595-.957-.471.785,2.066,1.239v1.545a4.086,4.086,0,0,1-3.661-3.94c0-1.708,2.7-5.436,4.112-7.2,1.4,1.807,4.1,5.607,4.124,7.206a4.065,4.065,0,0,1-3.661,3.933Zm4.465-.174-.027.009a4.085,4.085,0,0,1-1.911.135,4.8,4.8,0,0,0,2.049-3.915c-.021-1.544-1.79-4.227-2.665-5.5.513-.71.983-1.314,1.288-1.7,1.4,1.808,4.1,5.606,4.123,7.2A4.005,4.005,0,0,1,39.216,12.419Z" transform="translate(-29.256 20.98)" fill="#fff" stroke="#041377" stroke-width="0.25"/>
    <path id="Path_1544" data-name="Path 1544" d="M8.216,30a2.649,2.649,0,0,0-1.654.572,3.768,3.768,0,0,0-.968,1.164,3.768,3.768,0,0,0-.968-1.164A2.649,2.649,0,0,0,2.972,30,3.037,3.037,0,0,0,0,33.223c0,1.985,1.594,3.343,4.007,5.4.41.349.874.745,1.357,1.167a.35.35,0,0,0,.46,0c.483-.422.947-.818,1.357-1.167,2.413-2.056,4.006-3.414,4.006-5.4A3.037,3.037,0,0,0,8.216,30Z" transform="translate(62.183 -9.181)" fill="#051579" stroke="#fff" stroke-width="1"/>
  </g>
</svg>
