<svg xmlns="http://www.w3.org/2000/svg" width="25.785" height="25.787" viewBox="0 0 25.785 25.787">
  <path id="home_copy" data-name="home copy" d="M25.592,11.216l0,0L15.071.7a2.374,2.374,0,0,0-3.357,0L1.2,11.209l-.011.011a2.373,2.373,0,0,0,1.58,4.045c.024,0,.049,0,.073,0h.419v7.741A2.782,2.782,0,0,0,6.04,25.787h4.115a.756.756,0,0,0,.755-.755V18.963A1.269,1.269,0,0,1,12.178,17.7h2.427a1.269,1.269,0,0,1,1.268,1.268v6.069a.756.756,0,0,0,.755.755h4.115a2.782,2.782,0,0,0,2.779-2.778V15.268h.389a2.374,2.374,0,0,0,1.68-4.052ZM24.522,13.5a.858.858,0,0,1-.61.253H22.767a.755.755,0,0,0-.755.755v8.5a1.269,1.269,0,0,1-1.268,1.267h-3.36V18.963a2.782,2.782,0,0,0-2.779-2.779H12.178A2.782,2.782,0,0,0,9.4,18.963v5.314H6.04a1.269,1.269,0,0,1-1.268-1.267v-8.5a.755.755,0,0,0-.755-.755H2.892l-.035,0a.862.862,0,0,1-.594-1.472h0L12.782,1.764a.863.863,0,0,1,1.22,0L24.519,12.28l0,0A.865.865,0,0,1,24.522,13.5Zm0,0" transform="translate(-0.499)" fill="#fff"/>
</svg>
