<svg xmlns="http://www.w3.org/2000/svg" xmlns:xlink="http://www.w3.org/1999/xlink" width="50.4" height="42.612" viewBox="0 0 50.4 42.612">
  <defs>
    <clipPath id="clip-path">
      <path id="Path_1393" data-name="Path 1393" d="M0,0H47.769V39.376H0Z" fill="none"/>
    </clipPath>
  </defs>
  <g id="Group_1137" data-name="Group 1137" transform="matrix(-0.998, 0.07, -0.07, -0.998, 50.4, 39.28)">
    <g id="Group_1136" data-name="Group 1136" transform="translate(0 0)" clip-path="url(#clip-path)">
      <g id="Group_1134" data-name="Group 1134" transform="translate(17.559 20.12)">
        <path id="Path_1391" data-name="Path 1391" d="M.482,0C.373.122.308.208.23.281c-.384.357-.248.622.119.9C1.363,1.93,2.359,2.708,3.374,3.46a.605.605,0,0,1,.288.7,3.634,3.634,0,0,0,.738,2.6,19.859,19.859,0,0,0,4.065,4.368,52.652,52.652,0,0,0,10.223,7.114,7.863,7.863,0,0,0,3.446,1.007,1.839,1.839,0,0,0,2.013-1.66,3.6,3.6,0,0,0-.381-1.688,14.035,14.035,0,0,0-3.37-4.313,57.1,57.1,0,0,0-9.175-7.046A12.929,12.929,0,0,0,7.011,2.657a6.291,6.291,0,0,0-2.195.112.946.946,0,0,1-.868-.128C2.815,1.754,1.66.894.482,0M18.259,12.064a3.127,3.127,0,0,1-1,1.766c-.853,1.054-1.564,1.183-2.662.41-1.888-1.33-3.747-2.7-5.6-4.086a17.177,17.177,0,0,1-1.716-1.52A1.432,1.432,0,0,1,6.8,6.883,9.6,9.6,0,0,1,7.722,5.47a1.573,1.573,0,0,1,2.256-.418c.867.552,1.764,1.069,2.569,1.7,1.746,1.369,3.458,2.784,5.144,4.225a3.378,3.378,0,0,1,.567,1.085" transform="translate(0 0)" fill="#fff"/>
      </g>
      <g id="Group_1135" data-name="Group 1135" transform="translate(0.709 0.429)">
        <path id="Path_1392" data-name="Path 1392" d="M46.294,9.823l0,.012c-.372.461-.729.893-1.065,1.339a16.864,16.864,0,0,1-3.848,4.019,10.321,10.321,0,0,1-4.121,1.781,18.56,18.56,0,0,1-3.721.345,35.436,35.436,0,0,1-4.227-.663c-1-.173-2.007-.367-3.01-.553-1.194-.222-2.386-.468-3.582-.661a7.293,7.293,0,0,0-4.327.428c-1.454.666-2.935,1.253-4.4,1.879,0,0-2.78,2.005-3.512-.935a1.379,1.379,0,0,1,.015-.746,1.91,1.91,0,0,1,.591-1.484q2.526-2.033,5.064-4.047a3.093,3.093,0,0,1,2.07-.488c2.348,0,4.7.076,7.046.128.3.007.6.044.9.067l.054-.32a1.725,1.725,0,0,0-.518-.2c-2.486-.09-4.975-.126-7.46-.258a5.589,5.589,0,0,0-3.324,1.171c-1.716,1.1-3.46,2.134-5.172,3.24a6.392,6.392,0,0,0-1.1,1.059c-1.506,1.623-2.98,3.288-4.513,4.876A4.986,4.986,0,0,1,.758,21.469c-.247.011-.641-.13-.716-.33a1.289,1.289,0,0,1,.132-.946C1.2,18.55,2.258,16.938,3.312,15.321c.914-1.4,1.785-2.85,2.771-4.181A13.623,13.623,0,0,1,8.16,9.03a27.29,27.29,0,0,1,5.768-4,21.393,21.393,0,0,1,3.479-1.349A7.245,7.245,0,0,1,19.9,3.446c1.187.082,2.363.347,3.545.523.443.066.89.1,1.336.153,1.207.141,2.416.266,3.621.428s2.4.4,3.6.529a22.207,22.207,0,0,0,3.531.17,3.288,3.288,0,0,0,2.242-1.659c.88-1.2,1.747-2.411,2.644-3.591" transform="translate(0 0)" fill="none" stroke="#fff" stroke-width="1"/>
      </g>
    </g>
  </g>
</svg>
