<svg id="Component_37_1" data-name="Component 37 – 1" xmlns="http://www.w3.org/2000/svg" width="29" height="29" viewBox="0 0 29 29">
  <g id="user" transform="translate(7.268 4.879)">
    <path id="Path_1545" data-name="Path 1545" d="M91.381,8.7a4.209,4.209,0,0,0,3.076-1.274A4.209,4.209,0,0,0,95.732,4.35a4.21,4.21,0,0,0-1.274-3.076,4.349,4.349,0,0,0-6.151,0A4.209,4.209,0,0,0,87.031,4.35a4.209,4.209,0,0,0,1.274,3.076A4.211,4.211,0,0,0,91.381,8.7ZM89.054,2.023a3.291,3.291,0,0,1,4.655,0,3.145,3.145,0,0,1,.964,2.327,3.145,3.145,0,0,1-.964,2.327,3.29,3.29,0,0,1-4.655,0A3.144,3.144,0,0,1,88.09,4.35,3.145,3.145,0,0,1,89.054,2.023Zm0,0" transform="translate(-83.961)" fill="#fff"/>
    <path id="Path_1546" data-name="Path 1546" d="M15.032,252.48a10.744,10.744,0,0,0-.146-1.141,8.991,8.991,0,0,0-.281-1.147,5.668,5.668,0,0,0-.472-1.07,4.033,4.033,0,0,0-.711-.927,3.135,3.135,0,0,0-1.022-.642,3.53,3.53,0,0,0-1.3-.236,1.324,1.324,0,0,0-.707.3c-.212.138-.46.3-.737.475a4.218,4.218,0,0,1-.953.42,3.7,3.7,0,0,1-2.331,0,4.206,4.206,0,0,1-.952-.42c-.274-.175-.522-.335-.737-.475a1.323,1.323,0,0,0-.707-.3,3.526,3.526,0,0,0-1.3.236,3.134,3.134,0,0,0-1.022.642,4.034,4.034,0,0,0-.711.927,5.679,5.679,0,0,0-.472,1.07,9.013,9.013,0,0,0-.281,1.147,10.672,10.672,0,0,0-.146,1.142c-.024.345-.036.7-.036,1.067a3,3,0,0,0,.891,2.269,3.206,3.206,0,0,0,2.3.837h8.7a3.206,3.206,0,0,0,2.3-.837,3,3,0,0,0,.891-2.269C15.068,253.183,15.056,252.824,15.032,252.48Zm-1.584,2.569a2.159,2.159,0,0,1-1.565.546h-8.7a2.159,2.159,0,0,1-1.565-.545,1.958,1.958,0,0,1-.562-1.5c0-.338.011-.673.033-.993a9.625,9.625,0,0,1,.132-1.028,7.949,7.949,0,0,1,.247-1.012,4.621,4.621,0,0,1,.384-.87,2.989,2.989,0,0,1,.523-.685,2.081,2.081,0,0,1,.68-.423,2.435,2.435,0,0,1,.834-.161c.037.02.1.057.21.127.218.142.468.3.746.481a5.243,5.243,0,0,0,1.2.535,4.758,4.758,0,0,0,2.982,0,5.249,5.249,0,0,0,1.2-.535c.284-.181.527-.338.745-.48.107-.07.173-.107.21-.127a2.437,2.437,0,0,1,.834.161,2.084,2.084,0,0,1,.68.423,2.983,2.983,0,0,1,.523.685,4.608,4.608,0,0,1,.384.87,7.93,7.93,0,0,1,.247,1.012,9.706,9.706,0,0,1,.132,1.028h0c.022.32.034.654.034.993A1.958,1.958,0,0,1,13.448,255.049Zm0,0" transform="translate(0 -238.592)" fill="#fff"/>
  </g>
  <g id="Ellipse_42" data-name="Ellipse 42" fill="none" stroke="#fff" stroke-width="1">
    <circle cx="14.5" cy="14.5" r="14.5" stroke="none"/>
    <circle cx="14.5" cy="14.5" r="14" fill="none"/>
  </g>
</svg>
