<svg xmlns="http://www.w3.org/2000/svg" xmlns:xlink="http://www.w3.org/1999/xlink" width="53.489" height="50.569" viewBox="0 0 53.489 50.569">
  <defs>
    <clipPath id="clip-path">
      <path id="Path_1412" data-name="Path 1412" d="M0,11.746H11.992V0H0Z" fill="none"/>
    </clipPath>
    <clipPath id="clip-path-2">
      <path id="Path_1410" data-name="Path 1410" d="M0,39.555H27.151V0H0Z" fill="none"/>
    </clipPath>
  </defs>
  <g id="Component_38_1" data-name="Component 38 – 1" transform="translate(0 1.692)">
    <g id="Group_1164" data-name="Group 1164" transform="matrix(0.469, 0.883, -0.883, 0.469, 31.99, 13.416)" clip-path="url(#clip-path)">
      <g id="Group_1163" data-name="Group 1163" transform="translate(0 0)">
        <path id="Path_1411" data-name="Path 1411" d="M9.325,10.958c-.106-.46-.211-.9-.3-1.334a.283.283,0,0,1,.094-.212,4.6,4.6,0,0,0,1.355-2.245A4.686,4.686,0,0,0,8.752,2.285,4.624,4.624,0,0,0,2.425,8.937,4.567,4.567,0,0,0,4,10.169a.373.373,0,0,1,.247.329c.045.412.112.823.171,1.247A5.893,5.893,0,0,1,.007,6.313a5.953,5.953,0,0,1,4.81-6.2A5.983,5.983,0,0,1,9.325,10.958" transform="translate(0 0)" fill="#fff"/>
      </g>
    </g>
    <g id="Component_36_1" data-name="Component 36 – 1">
      <g id="Component_37_1" data-name="Component 37 – 1">
        <g id="Group_1200" data-name="Group 1200" transform="translate(2.335)">
          <path id="Path_1432" data-name="Path 1432" d="M-114.412-133.372a24.7,24.7,0,0,0,10.747-20.4A24.731,24.731,0,0,0-128.4-178.5a24.731,24.731,0,0,0-24.731,24.731" transform="translate(153.128 178.504)" fill="none" stroke="#fff" stroke-width="3.384"/>
        </g>
        <g id="Group_1161" data-name="Group 1161" transform="matrix(0.469, 0.883, -0.883, 0.469, 34.925, 6.335)" clip-path="url(#clip-path-2)">
          <g id="Group_1166" data-name="Group 1166" transform="translate(-0.062 1.324)">
            <g id="Group_1159" data-name="Group 1159" transform="matrix(0.996, 0.087, -0.087, 0.996, 1.494, 0)">
              <path id="Path_1408" data-name="Path 1408" d="M18.181,12.675c.114-.485.252-.948.33-1.422a8.789,8.789,0,0,0-.394-4.442,8.6,8.6,0,0,0-2.027-3.24A8.743,8.743,0,0,0,10.076.938a8.515,8.515,0,0,0-3.307.508A8.837,8.837,0,0,0,1.347,7.087a8.68,8.68,0,0,0-.112,5A8.668,8.668,0,0,0,3.1,15.6c.175.2.363.389.553.576.1.093.135.165.048.3-.13.2-.226.42-.359.671a6.661,6.661,0,0,1-.753-.737,20.833,20.833,0,0,1-1.5-2.159,8.6,8.6,0,0,1-.975-2.966A9.782,9.782,0,0,1,2.029,3.817a9.615,9.615,0,0,1,3.13-2.657A9.52,9.52,0,0,1,10.421.025a9.738,9.738,0,0,1,4.023,1.161,10.053,10.053,0,0,1,2.6,2.05A9.3,9.3,0,0,1,18.668,5.7a9.512,9.512,0,0,1,.713,5.976A.612.612,0,0,1,19.16,12c-.3.235-.626.445-.942.665-.005,0-.013,0-.037.007" transform="translate(0 0)" fill="#fff"/>
            </g>
            <g id="Group_1160" data-name="Group 1160" transform="translate(6.643 12.975)">
              <path id="Path_1409" data-name="Path 1409" d="M17.146,20.673c-.075-.461-.172-.919-.251-1.379A.694.694,0,0,1,16.914,19c.176-.634.376-1.263.537-1.9a5.88,5.88,0,0,0,.236-1.052,10.327,10.327,0,0,0,.286-2.03,7.554,7.554,0,0,0-.232-1.813q-.326-1.793-.664-3.583a12.392,12.392,0,0,0-.322-1.515,1.649,1.649,0,0,0-1.674-1.181c-.354.012-.706.088-1.084.139-.027-.042-.072-.115-.12-.186a1.8,1.8,0,0,0-1.64-.9,2.408,2.408,0,0,0-1.231.4.251.251,0,0,1-.376-.041,1.719,1.719,0,0,0-1.85-.429,3.446,3.446,0,0,0-1.248.847c-.129-.428-.262-.807-.356-1.194-.255-1.054-.485-2.114-.74-3.169A1.684,1.684,0,0,0,4,.19a1.853,1.853,0,0,0-.974,2.153Q3.434,4.5,3.84,6.666,4.2,8.6,4.565,10.543c.057.307.113.615.176.954-.083-.027-.13-.04-.175-.059-.313-.129-.623-.271-.94-.388a4.734,4.734,0,0,0-2.147-.3A1.475,1.475,0,0,0,.19,12.968,6.022,6.022,0,0,0,1.856,14.86c.335.283.7.537,1.012.84a5.5,5.5,0,0,1,1.237,2.071A9.356,9.356,0,0,0,5.733,20.62c.3.344.678.618,1.011.934a.625.625,0,0,1,.175.293c.078.335.132.677.2,1.016a.618.618,0,0,0,.356.5,7.038,7.038,0,0,0,3.21.594,9.915,9.915,0,0,0,3.263-.652,6.911,6.911,0,0,0,2.982-2.022.76.76,0,0,0,.222-.611m-1.192.192a6.734,6.734,0,0,1-2.794,1.613,9.159,9.159,0,0,1-2.652.433A7.322,7.322,0,0,1,8.329,22.6a.4.4,0,0,1-.308-.363c-.038-.24-.1-.478-.128-.72a1.041,1.041,0,0,0-.485-.783A6.251,6.251,0,0,1,5.31,18c-.3-.636-.549-1.3-.873-1.923A5.156,5.156,0,0,0,2.944,14.4,7.686,7.686,0,0,1,1.22,12.724a1.885,1.885,0,0,1-.207-.466c-.064-.186.037-.3.2-.369a2.108,2.108,0,0,1,1.213-.07A5.529,5.529,0,0,1,5.1,13.027a.533.533,0,0,0,.6.079.594.594,0,0,0,.249-.6Q5.375,9.391,4.794,6.274C4.54,4.919,4.28,3.564,4.022,2.209a.942.942,0,0,1,.188-.932.736.736,0,0,1,.783-.167.77.77,0,0,1,.5.63c.309,1.285.58,2.581.944,3.851a24.611,24.611,0,0,0,.94,2.476c.152.375.353.422.751.245a.5.5,0,0,0,.161-.682c-.095-.211-.2-.417-.279-.634a.332.332,0,0,1,.045-.265A2.355,2.355,0,0,1,9,5.935a.828.828,0,0,1,.952.175,2.266,2.266,0,0,1,.57,1.18,1.7,1.7,0,0,0,.143.278l.089-.024a1.229,1.229,0,0,0,.1-.324c.013-.626.453-.884.938-1.082.834-.34,1.426.163,1.486,1.143.015.247-.008.5-.013.742l.089.036a5.358,5.358,0,0,0,.333-.425,1.66,1.66,0,0,1,1.6-.648.819.819,0,0,1,.591.7c.141.69.259,1.384.387,2.076q.268,1.453.538,2.905c0,.011,0,.02,0,.032A16.825,16.825,0,0,1,16.5,16.91c-.062.193-.13.385-.18.582-.116.456-.244.91-.4,1.353a2.1,2.1,0,0,0,.046.981,4.767,4.767,0,0,0,.12.633.392.392,0,0,1-.13.406" transform="translate(0 0)" fill="#fff"/>
            </g>
          </g>
        </g>
      </g>
    </g>
  </g>
</svg>
