<svg xmlns="http://www.w3.org/2000/svg" xmlns:xlink="http://www.w3.org/1999/xlink" width="56.168" height="53.954" viewBox="0 0 56.168 53.954">
  <defs>
    <clipPath id="clip-path">
      <path id="Path_1410" data-name="Path 1410" d="M0,39.617H27.194V0H0Z" fill="none"/>
    </clipPath>
  </defs>
  <g id="Component_36_1" data-name="Component 36 – 1" transform="translate(1.5 1.5)">
    <path id="Path_1755" data-name="Path 1755" d="M2317.007,676.892a26.649,26.649,0,0,1,11.638-50.62c14.716,0,26.523,13.891,26.523,28.607" transform="translate(-2302 -626.272)" fill="none" stroke="#fff" stroke-miterlimit="10" stroke-width="3"/>
    <g id="Group_1161" data-name="Group 1161" transform="translate(10.617 13.852) rotate(-13)" clip-path="url(#clip-path)">
      <g id="Group_1166" data-name="Group 1166" transform="translate(-0.062 1.326)">
        <g id="Group_1159" data-name="Group 1159" transform="matrix(0.996, 0.087, -0.087, 0.996, 1.497, 0)">
          <path id="Path_1408" data-name="Path 1408" d="M18.21,12.7c.114-.486.253-.95.331-1.424a8.8,8.8,0,0,0-.394-4.449,8.614,8.614,0,0,0-2.03-3.245A8.757,8.757,0,0,0,10.092.94a8.529,8.529,0,0,0-3.312.509A8.85,8.85,0,0,0,1.349,7.1,8.693,8.693,0,0,0,1.237,12.1a8.682,8.682,0,0,0,1.87,3.519c.176.2.364.39.554.577.1.093.136.165.048.3-.13.2-.227.42-.36.672a6.672,6.672,0,0,1-.754-.738,20.866,20.866,0,0,1-1.5-2.162A8.612,8.612,0,0,1,.116,11.3,9.8,9.8,0,0,1,2.032,3.823,9.63,9.63,0,0,1,5.167,1.161,9.535,9.535,0,0,1,10.438.025a9.754,9.754,0,0,1,4.03,1.163,10.069,10.069,0,0,1,2.6,2.053A9.317,9.317,0,0,1,18.7,5.71a9.527,9.527,0,0,1,.714,5.985.613.613,0,0,1-.221.327c-.3.235-.627.446-.944.666-.005,0-.013,0-.037.007" transform="translate(0 0)" fill="#fff"/>
        </g>
        <g id="Group_1160" data-name="Group 1160" transform="translate(6.653 12.995)">
          <path id="Path_1409" data-name="Path 1409" d="M17.173,20.705c-.075-.462-.172-.92-.251-1.382a.7.7,0,0,1,.019-.295c.176-.635.376-1.265.538-1.9a5.889,5.889,0,0,0,.236-1.053A10.343,10.343,0,0,0,18,14.039a7.565,7.565,0,0,0-.232-1.816q-.326-1.8-.666-3.589a12.411,12.411,0,0,0-.322-1.518,1.652,1.652,0,0,0-1.676-1.183c-.355.012-.707.088-1.086.139-.027-.042-.073-.115-.12-.186a1.8,1.8,0,0,0-1.642-.9,2.412,2.412,0,0,0-1.233.4.252.252,0,0,1-.376-.041A1.722,1.722,0,0,0,8.8,4.916a3.451,3.451,0,0,0-1.25.848c-.129-.429-.263-.808-.356-1.2C6.934,3.512,6.7,2.45,6.449,1.394A1.686,1.686,0,0,0,4.007.19a1.856,1.856,0,0,0-.975,2.156q.408,2.165.815,4.33.364,1.942.726,3.884c.057.308.113.616.176.956-.083-.027-.131-.04-.175-.059-.314-.129-.624-.272-.942-.389a4.742,4.742,0,0,0-2.15-.3,1.477,1.477,0,0,0-1.29,2.22,6.031,6.031,0,0,0,1.668,1.895c.335.283.7.538,1.014.841A5.5,5.5,0,0,1,4.112,17.8a9.371,9.371,0,0,0,1.63,2.853c.3.344.679.619,1.012.936a.626.626,0,0,1,.175.293c.078.336.133.678.2,1.017a.619.619,0,0,0,.356.5,7.049,7.049,0,0,0,3.215.6,9.931,9.931,0,0,0,3.268-.653,6.922,6.922,0,0,0,2.986-2.025.761.761,0,0,0,.222-.611m-1.194.192a6.744,6.744,0,0,1-2.8,1.616,9.174,9.174,0,0,1-2.657.434,7.333,7.333,0,0,1-2.183-.314.4.4,0,0,1-.308-.364c-.038-.241-.1-.479-.129-.721a1.043,1.043,0,0,0-.486-.784,6.261,6.261,0,0,1-2.1-2.739c-.3-.637-.55-1.3-.874-1.926a5.164,5.164,0,0,0-1.5-1.676,7.7,7.7,0,0,1-1.726-1.678,1.888,1.888,0,0,1-.207-.467c-.064-.186.037-.3.2-.37a2.112,2.112,0,0,1,1.215-.07,5.538,5.538,0,0,1,2.679,1.21.534.534,0,0,0,.6.079.594.594,0,0,0,.249-.6Q5.383,9.406,4.8,6.284c-.254-1.358-.515-2.715-.774-4.072a.944.944,0,0,1,.189-.934A.737.737,0,0,1,5,1.111a.772.772,0,0,1,.5.631c.31,1.287.581,2.586.945,3.857a24.65,24.65,0,0,0,.942,2.48c.153.376.354.423.752.246A.5.5,0,0,0,8.3,7.642c-.1-.211-.2-.418-.279-.635a.333.333,0,0,1,.045-.265,2.359,2.359,0,0,1,.949-.8.829.829,0,0,1,.953.175A2.27,2.27,0,0,1,10.538,7.3a1.7,1.7,0,0,0,.144.278l.089-.024a1.231,1.231,0,0,0,.1-.324c.013-.627.453-.885.94-1.084.835-.341,1.428.163,1.488,1.144.015.247-.008.5-.013.744l.089.036a5.366,5.366,0,0,0,.334-.425A1.662,1.662,0,0,1,15.315,7a.82.82,0,0,1,.592.7c.142.691.259,1.386.387,2.079q.269,1.455.539,2.91c0,.011,0,.021,0,.032a16.851,16.851,0,0,1-.314,4.214c-.062.194-.131.386-.181.583-.116.456-.245.911-.4,1.355a2.105,2.105,0,0,0,.047.982,4.774,4.774,0,0,0,.12.634.393.393,0,0,1-.13.407" transform="translate(0 0)" fill="#fff"/>
        </g>
      </g>
    </g>
  </g>
</svg>
